%TF.GenerationSoftware,KiCad,Pcbnew,10.0.1*%
%TF.CreationDate,2026-06-10T17:17:49+12:00*%
%TF.ProjectId,PPM Mosfet Bank,50504d20-4d6f-4736-9665-742042616e6b,1.0*%
%TF.SameCoordinates,Original*%
%TF.FileFunction,Copper,L1,Top*%
%TF.FilePolarity,Positive*%
%FSLAX46Y46*%
G04 Gerber Fmt 4.6, Leading zero omitted, Abs format (unit mm)*
G04 Created by KiCad (PCBNEW 10.0.1) date 2026-06-10 17:17:49*
%MOMM*%
%LPD*%
G01*
G04 APERTURE LIST*
%TA.AperFunction,ComponentPad*%
%ADD10R,1.905000X2.000000*%
%TD*%
%TA.AperFunction,ComponentPad*%
%ADD11O,1.905000X2.000000*%
%TD*%
%TA.AperFunction,ComponentPad*%
%ADD12C,7.002856*%
%TD*%
%TA.AperFunction,ComponentPad*%
%ADD13R,1.700000X1.700000*%
%TD*%
%TA.AperFunction,Conductor*%
%ADD14C,2.500000*%
%TD*%
%TA.AperFunction,Conductor*%
%ADD15C,0.200000*%
%TD*%
G04 APERTURE END LIST*
D10*
%TO.P,Q4,1,G*%
%TO.N,Gate*%
X77985000Y-31295000D03*
D11*
%TO.P,Q4,2,D*%
%TO.N,PowerBridge*%
X80525000Y-31295000D03*
%TO.P,Q4,3,S*%
%TO.N,PowerIn*%
X83065000Y-31295000D03*
%TD*%
D10*
%TO.P,Q8,1,G*%
%TO.N,Gate*%
X142985000Y-31295000D03*
D11*
%TO.P,Q8,2,D*%
%TO.N,PowerOut*%
X145525000Y-31295000D03*
%TO.P,Q8,3,S*%
%TO.N,PowerBridge*%
X148065000Y-31295000D03*
%TD*%
D12*
%TO.P,J2,1,Pin_1*%
%TO.N,PowerIn*%
X25500000Y-41775000D03*
%TD*%
D10*
%TO.P,Q2,1,G*%
%TO.N,Gate*%
X51985000Y-31295000D03*
D11*
%TO.P,Q2,2,D*%
%TO.N,PowerBridge*%
X54525000Y-31295000D03*
%TO.P,Q2,3,S*%
%TO.N,PowerIn*%
X57065000Y-31295000D03*
%TD*%
D10*
%TO.P,Q6,1,G*%
%TO.N,Gate*%
X116985000Y-31295000D03*
D11*
%TO.P,Q6,2,D*%
%TO.N,PowerOut*%
X119525000Y-31295000D03*
%TO.P,Q6,3,S*%
%TO.N,PowerBridge*%
X122065000Y-31295000D03*
%TD*%
D10*
%TO.P,Q1,1,G*%
%TO.N,Gate*%
X38985000Y-31295000D03*
D11*
%TO.P,Q1,2,D*%
%TO.N,PowerBridge*%
X41525000Y-31295000D03*
%TO.P,Q1,3,S*%
%TO.N,PowerIn*%
X44065000Y-31295000D03*
%TD*%
D12*
%TO.P,J3,1,Pin_1*%
%TO.N,PowerOut*%
X178100000Y-41775000D03*
%TD*%
D10*
%TO.P,Q3,1,G*%
%TO.N,Gate*%
X64985000Y-31295000D03*
D11*
%TO.P,Q3,2,D*%
%TO.N,PowerBridge*%
X67525000Y-31295000D03*
%TO.P,Q3,3,S*%
%TO.N,PowerIn*%
X70065000Y-31295000D03*
%TD*%
D13*
%TO.P,J1,1,Pin_1*%
%TO.N,Gate*%
X164850000Y-35375000D03*
%TD*%
D10*
%TO.P,Q7,1,G*%
%TO.N,Gate*%
X129985000Y-31295000D03*
D11*
%TO.P,Q7,2,D*%
%TO.N,PowerOut*%
X132525000Y-31295000D03*
%TO.P,Q7,3,S*%
%TO.N,PowerBridge*%
X135065000Y-31295000D03*
%TD*%
D10*
%TO.P,Q5,1,G*%
%TO.N,Gate*%
X103985000Y-31295000D03*
D11*
%TO.P,Q5,2,D*%
%TO.N,PowerOut*%
X106525000Y-31295000D03*
%TO.P,Q5,3,S*%
%TO.N,PowerBridge*%
X109065000Y-31295000D03*
%TD*%
%TO.N,PowerIn*%
D14*
X40600000Y-41775000D02*
X54425000Y-41775000D01*
X67525000Y-41775000D02*
X80500000Y-41775000D01*
X70065000Y-39235000D02*
X70065000Y-31295000D01*
X25500000Y-41775000D02*
X40600000Y-41775000D01*
X40600000Y-41775000D02*
X44065000Y-38310000D01*
X83065000Y-39210000D02*
X83065000Y-31295000D01*
X57065000Y-39135000D02*
X57065000Y-31295000D01*
X54425000Y-41775000D02*
X57065000Y-39135000D01*
X80500000Y-41775000D02*
X83065000Y-39210000D01*
X54425000Y-41775000D02*
X67525000Y-41775000D01*
X44065000Y-38310000D02*
X44065000Y-31295000D01*
X67525000Y-41775000D02*
X70065000Y-39235000D01*
%TO.N,PowerOut*%
X106387500Y-39337500D02*
X106525000Y-39200000D01*
X148975000Y-41775000D02*
X135750000Y-41775000D01*
X119525000Y-38875000D02*
X119525000Y-31295000D01*
X132525000Y-38550000D02*
X132525000Y-31295000D01*
X135750000Y-41775000D02*
X122425000Y-41775000D01*
X178100000Y-41775000D02*
X148975000Y-41775000D01*
X135750000Y-41775000D02*
X132525000Y-38550000D01*
X108825000Y-41775000D02*
X106387500Y-39337500D01*
X122425000Y-41775000D02*
X108825000Y-41775000D01*
X122425000Y-41775000D02*
X119525000Y-38875000D01*
X145525000Y-38300000D02*
X145525000Y-31295000D01*
X106525000Y-39200000D02*
X106525000Y-31295000D01*
X148975000Y-41750000D02*
X145525000Y-38300000D01*
X148975000Y-41775000D02*
X148975000Y-41750000D01*
%TO.N,Gate*%
D15*
X77985000Y-27210000D02*
X77985000Y-31295000D01*
X116990000Y-27635000D02*
X118075000Y-26550000D01*
X129985000Y-27985000D02*
X129985000Y-31295000D01*
X65775000Y-26425000D02*
X77300000Y-26425000D01*
X142985000Y-27685000D02*
X142985000Y-31295000D01*
X131250000Y-26675000D02*
X141975000Y-26675000D01*
X103985000Y-27785000D02*
X103985000Y-31295000D01*
X64100000Y-26325000D02*
X64937500Y-27162500D01*
X164850000Y-35375000D02*
X164850000Y-28075000D01*
X50850000Y-26200000D02*
X50850000Y-26225000D01*
X64937500Y-27162500D02*
X65037500Y-27162500D01*
X102650000Y-26450000D02*
X103985000Y-27785000D01*
X64937500Y-27162500D02*
X64985000Y-27210000D01*
X116985000Y-27635000D02*
X116990000Y-27635000D01*
X164850000Y-28075000D02*
X163325000Y-26550000D01*
X53075000Y-26325000D02*
X64100000Y-26325000D01*
X129985000Y-27985000D02*
X129985000Y-27940000D01*
X40050000Y-26200000D02*
X50850000Y-26200000D01*
X141975000Y-26675000D02*
X142985000Y-27685000D01*
X64985000Y-27210000D02*
X64985000Y-31295000D01*
X128550000Y-26550000D02*
X129985000Y-27985000D01*
X163325000Y-26550000D02*
X144120000Y-26550000D01*
X129985000Y-27940000D02*
X131250000Y-26675000D01*
X115900000Y-26550000D02*
X116985000Y-27635000D01*
X116985000Y-27635000D02*
X116985000Y-31295000D01*
X77985000Y-27210000D02*
X77300000Y-26525000D01*
X38985000Y-27265000D02*
X40050000Y-26200000D01*
X103985000Y-27785000D02*
X105220000Y-26550000D01*
X144120000Y-26550000D02*
X142985000Y-27685000D01*
X38985000Y-31295000D02*
X38985000Y-27265000D01*
X78800000Y-26450000D02*
X102650000Y-26450000D01*
X51985000Y-27360000D02*
X52040000Y-27360000D01*
X78040000Y-27210000D02*
X78800000Y-26450000D01*
X50850000Y-26225000D02*
X51985000Y-27360000D01*
X105220000Y-26550000D02*
X115900000Y-26550000D01*
X118075000Y-26550000D02*
X128550000Y-26550000D01*
X52040000Y-27360000D02*
X53075000Y-26325000D01*
X65037500Y-27162500D02*
X65775000Y-26425000D01*
X51985000Y-27360000D02*
X51985000Y-31295000D01*
X77300000Y-26525000D02*
X77300000Y-26425000D01*
X77985000Y-27210000D02*
X78040000Y-27210000D01*
%TD*%
M02*
