%TF.GenerationSoftware,KiCad,Pcbnew,10.0.1*%
%TF.CreationDate,2026-06-10T17:17:49+12:00*%
%TF.ProjectId,PPM Mosfet Bank,50504d20-4d6f-4736-9665-742042616e6b,1.0*%
%TF.SameCoordinates,Original*%
%TF.FileFunction,Legend,Top*%
%TF.FilePolarity,Positive*%
%FSLAX46Y46*%
G04 Gerber Fmt 4.6, Leading zero omitted, Abs format (unit mm)*
G04 Created by KiCad (PCBNEW 10.0.1) date 2026-06-10 17:17:49*
%MOMM*%
%LPD*%
G01*
G04 APERTURE LIST*
%ADD10C,0.300000*%
%ADD11C,0.150000*%
%ADD12C,0.152400*%
%ADD13C,0.120000*%
G04 APERTURE END LIST*
D10*
X121804510Y-45735912D02*
X121804510Y-44235912D01*
X121804510Y-44235912D02*
X122161653Y-44235912D01*
X122161653Y-44235912D02*
X122375939Y-44307341D01*
X122375939Y-44307341D02*
X122518796Y-44450198D01*
X122518796Y-44450198D02*
X122590225Y-44593055D01*
X122590225Y-44593055D02*
X122661653Y-44878769D01*
X122661653Y-44878769D02*
X122661653Y-45093055D01*
X122661653Y-45093055D02*
X122590225Y-45378769D01*
X122590225Y-45378769D02*
X122518796Y-45521626D01*
X122518796Y-45521626D02*
X122375939Y-45664484D01*
X122375939Y-45664484D02*
X122161653Y-45735912D01*
X122161653Y-45735912D02*
X121804510Y-45735912D01*
X123304510Y-45593055D02*
X123375939Y-45664484D01*
X123375939Y-45664484D02*
X123304510Y-45735912D01*
X123304510Y-45735912D02*
X123233082Y-45664484D01*
X123233082Y-45664484D02*
X123304510Y-45593055D01*
X123304510Y-45593055D02*
X123304510Y-45735912D01*
X126161653Y-45878769D02*
X126018796Y-45807341D01*
X126018796Y-45807341D02*
X125875939Y-45664484D01*
X125875939Y-45664484D02*
X125661653Y-45450198D01*
X125661653Y-45450198D02*
X125518796Y-45378769D01*
X125518796Y-45378769D02*
X125375939Y-45378769D01*
X125447368Y-45735912D02*
X125304511Y-45664484D01*
X125304511Y-45664484D02*
X125161653Y-45521626D01*
X125161653Y-45521626D02*
X125090225Y-45235912D01*
X125090225Y-45235912D02*
X125090225Y-44735912D01*
X125090225Y-44735912D02*
X125161653Y-44450198D01*
X125161653Y-44450198D02*
X125304511Y-44307341D01*
X125304511Y-44307341D02*
X125447368Y-44235912D01*
X125447368Y-44235912D02*
X125733082Y-44235912D01*
X125733082Y-44235912D02*
X125875939Y-44307341D01*
X125875939Y-44307341D02*
X126018796Y-44450198D01*
X126018796Y-44450198D02*
X126090225Y-44735912D01*
X126090225Y-44735912D02*
X126090225Y-45235912D01*
X126090225Y-45235912D02*
X126018796Y-45521626D01*
X126018796Y-45521626D02*
X125875939Y-45664484D01*
X125875939Y-45664484D02*
X125733082Y-45735912D01*
X125733082Y-45735912D02*
X125447368Y-45735912D01*
X126733082Y-45593055D02*
X126804511Y-45664484D01*
X126804511Y-45664484D02*
X126733082Y-45735912D01*
X126733082Y-45735912D02*
X126661654Y-45664484D01*
X126661654Y-45664484D02*
X126733082Y-45593055D01*
X126733082Y-45593055D02*
X126733082Y-45735912D01*
X128590225Y-45735912D02*
X128590225Y-44235912D01*
X128590225Y-44235912D02*
X129090225Y-45307341D01*
X129090225Y-45307341D02*
X129590225Y-44235912D01*
X129590225Y-44235912D02*
X129590225Y-45735912D01*
X130947369Y-45664484D02*
X130804511Y-45735912D01*
X130804511Y-45735912D02*
X130518797Y-45735912D01*
X130518797Y-45735912D02*
X130375940Y-45664484D01*
X130375940Y-45664484D02*
X130304511Y-45593055D01*
X130304511Y-45593055D02*
X130233083Y-45450198D01*
X130233083Y-45450198D02*
X130233083Y-45021626D01*
X130233083Y-45021626D02*
X130304511Y-44878769D01*
X130304511Y-44878769D02*
X130375940Y-44807341D01*
X130375940Y-44807341D02*
X130518797Y-44735912D01*
X130518797Y-44735912D02*
X130804511Y-44735912D01*
X130804511Y-44735912D02*
X130947369Y-44807341D01*
X131590225Y-45735912D02*
X131590225Y-44235912D01*
X131590225Y-44235912D02*
X131947368Y-44235912D01*
X131947368Y-44235912D02*
X132161654Y-44307341D01*
X132161654Y-44307341D02*
X132304511Y-44450198D01*
X132304511Y-44450198D02*
X132375940Y-44593055D01*
X132375940Y-44593055D02*
X132447368Y-44878769D01*
X132447368Y-44878769D02*
X132447368Y-45093055D01*
X132447368Y-45093055D02*
X132375940Y-45378769D01*
X132375940Y-45378769D02*
X132304511Y-45521626D01*
X132304511Y-45521626D02*
X132161654Y-45664484D01*
X132161654Y-45664484D02*
X131947368Y-45735912D01*
X131947368Y-45735912D02*
X131590225Y-45735912D01*
X133304511Y-45735912D02*
X133161654Y-45664484D01*
X133161654Y-45664484D02*
X133090225Y-45593055D01*
X133090225Y-45593055D02*
X133018797Y-45450198D01*
X133018797Y-45450198D02*
X133018797Y-45021626D01*
X133018797Y-45021626D02*
X133090225Y-44878769D01*
X133090225Y-44878769D02*
X133161654Y-44807341D01*
X133161654Y-44807341D02*
X133304511Y-44735912D01*
X133304511Y-44735912D02*
X133518797Y-44735912D01*
X133518797Y-44735912D02*
X133661654Y-44807341D01*
X133661654Y-44807341D02*
X133733083Y-44878769D01*
X133733083Y-44878769D02*
X133804511Y-45021626D01*
X133804511Y-45021626D02*
X133804511Y-45450198D01*
X133804511Y-45450198D02*
X133733083Y-45593055D01*
X133733083Y-45593055D02*
X133661654Y-45664484D01*
X133661654Y-45664484D02*
X133518797Y-45735912D01*
X133518797Y-45735912D02*
X133304511Y-45735912D01*
X134447368Y-44735912D02*
X134447368Y-45735912D01*
X134447368Y-44878769D02*
X134518797Y-44807341D01*
X134518797Y-44807341D02*
X134661654Y-44735912D01*
X134661654Y-44735912D02*
X134875940Y-44735912D01*
X134875940Y-44735912D02*
X135018797Y-44807341D01*
X135018797Y-44807341D02*
X135090226Y-44950198D01*
X135090226Y-44950198D02*
X135090226Y-45735912D01*
X136447369Y-45735912D02*
X136447369Y-44950198D01*
X136447369Y-44950198D02*
X136375940Y-44807341D01*
X136375940Y-44807341D02*
X136233083Y-44735912D01*
X136233083Y-44735912D02*
X135947369Y-44735912D01*
X135947369Y-44735912D02*
X135804511Y-44807341D01*
X136447369Y-45664484D02*
X136304511Y-45735912D01*
X136304511Y-45735912D02*
X135947369Y-45735912D01*
X135947369Y-45735912D02*
X135804511Y-45664484D01*
X135804511Y-45664484D02*
X135733083Y-45521626D01*
X135733083Y-45521626D02*
X135733083Y-45378769D01*
X135733083Y-45378769D02*
X135804511Y-45235912D01*
X135804511Y-45235912D02*
X135947369Y-45164484D01*
X135947369Y-45164484D02*
X136304511Y-45164484D01*
X136304511Y-45164484D02*
X136447369Y-45093055D01*
X137375940Y-45735912D02*
X137233083Y-45664484D01*
X137233083Y-45664484D02*
X137161654Y-45521626D01*
X137161654Y-45521626D02*
X137161654Y-44235912D01*
X138590226Y-45735912D02*
X138590226Y-44235912D01*
X138590226Y-45664484D02*
X138447368Y-45735912D01*
X138447368Y-45735912D02*
X138161654Y-45735912D01*
X138161654Y-45735912D02*
X138018797Y-45664484D01*
X138018797Y-45664484D02*
X137947368Y-45593055D01*
X137947368Y-45593055D02*
X137875940Y-45450198D01*
X137875940Y-45450198D02*
X137875940Y-45021626D01*
X137875940Y-45021626D02*
X137947368Y-44878769D01*
X137947368Y-44878769D02*
X138018797Y-44807341D01*
X138018797Y-44807341D02*
X138161654Y-44735912D01*
X138161654Y-44735912D02*
X138447368Y-44735912D01*
X138447368Y-44735912D02*
X138590226Y-44807341D01*
X121661653Y-47150828D02*
X122018796Y-48150828D01*
X122018796Y-48150828D02*
X122375939Y-47150828D01*
X123733082Y-48150828D02*
X122875939Y-48150828D01*
X123304510Y-48150828D02*
X123304510Y-46650828D01*
X123304510Y-46650828D02*
X123161653Y-46865114D01*
X123161653Y-46865114D02*
X123018796Y-47007971D01*
X123018796Y-47007971D02*
X122875939Y-47079400D01*
X124375938Y-48007971D02*
X124447367Y-48079400D01*
X124447367Y-48079400D02*
X124375938Y-48150828D01*
X124375938Y-48150828D02*
X124304510Y-48079400D01*
X124304510Y-48079400D02*
X124375938Y-48007971D01*
X124375938Y-48007971D02*
X124375938Y-48150828D01*
X125375939Y-46650828D02*
X125518796Y-46650828D01*
X125518796Y-46650828D02*
X125661653Y-46722257D01*
X125661653Y-46722257D02*
X125733082Y-46793685D01*
X125733082Y-46793685D02*
X125804510Y-46936542D01*
X125804510Y-46936542D02*
X125875939Y-47222257D01*
X125875939Y-47222257D02*
X125875939Y-47579400D01*
X125875939Y-47579400D02*
X125804510Y-47865114D01*
X125804510Y-47865114D02*
X125733082Y-48007971D01*
X125733082Y-48007971D02*
X125661653Y-48079400D01*
X125661653Y-48079400D02*
X125518796Y-48150828D01*
X125518796Y-48150828D02*
X125375939Y-48150828D01*
X125375939Y-48150828D02*
X125233082Y-48079400D01*
X125233082Y-48079400D02*
X125161653Y-48007971D01*
X125161653Y-48007971D02*
X125090224Y-47865114D01*
X125090224Y-47865114D02*
X125018796Y-47579400D01*
X125018796Y-47579400D02*
X125018796Y-47222257D01*
X125018796Y-47222257D02*
X125090224Y-46936542D01*
X125090224Y-46936542D02*
X125161653Y-46793685D01*
X125161653Y-46793685D02*
X125233082Y-46722257D01*
X125233082Y-46722257D02*
X125375939Y-46650828D01*
X127661652Y-48150828D02*
X127661652Y-46650828D01*
X127661652Y-46650828D02*
X128018795Y-46650828D01*
X128018795Y-46650828D02*
X128233081Y-46722257D01*
X128233081Y-46722257D02*
X128375938Y-46865114D01*
X128375938Y-46865114D02*
X128447367Y-47007971D01*
X128447367Y-47007971D02*
X128518795Y-47293685D01*
X128518795Y-47293685D02*
X128518795Y-47507971D01*
X128518795Y-47507971D02*
X128447367Y-47793685D01*
X128447367Y-47793685D02*
X128375938Y-47936542D01*
X128375938Y-47936542D02*
X128233081Y-48079400D01*
X128233081Y-48079400D02*
X128018795Y-48150828D01*
X128018795Y-48150828D02*
X127661652Y-48150828D01*
X129733081Y-48079400D02*
X129590224Y-48150828D01*
X129590224Y-48150828D02*
X129304510Y-48150828D01*
X129304510Y-48150828D02*
X129161652Y-48079400D01*
X129161652Y-48079400D02*
X129090224Y-47936542D01*
X129090224Y-47936542D02*
X129090224Y-47365114D01*
X129090224Y-47365114D02*
X129161652Y-47222257D01*
X129161652Y-47222257D02*
X129304510Y-47150828D01*
X129304510Y-47150828D02*
X129590224Y-47150828D01*
X129590224Y-47150828D02*
X129733081Y-47222257D01*
X129733081Y-47222257D02*
X129804510Y-47365114D01*
X129804510Y-47365114D02*
X129804510Y-47507971D01*
X129804510Y-47507971D02*
X129090224Y-47650828D01*
X131090224Y-48079400D02*
X130947366Y-48150828D01*
X130947366Y-48150828D02*
X130661652Y-48150828D01*
X130661652Y-48150828D02*
X130518795Y-48079400D01*
X130518795Y-48079400D02*
X130447366Y-48007971D01*
X130447366Y-48007971D02*
X130375938Y-47865114D01*
X130375938Y-47865114D02*
X130375938Y-47436542D01*
X130375938Y-47436542D02*
X130447366Y-47293685D01*
X130447366Y-47293685D02*
X130518795Y-47222257D01*
X130518795Y-47222257D02*
X130661652Y-47150828D01*
X130661652Y-47150828D02*
X130947366Y-47150828D01*
X130947366Y-47150828D02*
X131090224Y-47222257D01*
X132304509Y-48079400D02*
X132161652Y-48150828D01*
X132161652Y-48150828D02*
X131875938Y-48150828D01*
X131875938Y-48150828D02*
X131733080Y-48079400D01*
X131733080Y-48079400D02*
X131661652Y-47936542D01*
X131661652Y-47936542D02*
X131661652Y-47365114D01*
X131661652Y-47365114D02*
X131733080Y-47222257D01*
X131733080Y-47222257D02*
X131875938Y-47150828D01*
X131875938Y-47150828D02*
X132161652Y-47150828D01*
X132161652Y-47150828D02*
X132304509Y-47222257D01*
X132304509Y-47222257D02*
X132375938Y-47365114D01*
X132375938Y-47365114D02*
X132375938Y-47507971D01*
X132375938Y-47507971D02*
X131661652Y-47650828D01*
X133018794Y-48150828D02*
X133018794Y-47150828D01*
X133018794Y-47293685D02*
X133090223Y-47222257D01*
X133090223Y-47222257D02*
X133233080Y-47150828D01*
X133233080Y-47150828D02*
X133447366Y-47150828D01*
X133447366Y-47150828D02*
X133590223Y-47222257D01*
X133590223Y-47222257D02*
X133661652Y-47365114D01*
X133661652Y-47365114D02*
X133661652Y-48150828D01*
X133661652Y-47365114D02*
X133733080Y-47222257D01*
X133733080Y-47222257D02*
X133875937Y-47150828D01*
X133875937Y-47150828D02*
X134090223Y-47150828D01*
X134090223Y-47150828D02*
X134233080Y-47222257D01*
X134233080Y-47222257D02*
X134304509Y-47365114D01*
X134304509Y-47365114D02*
X134304509Y-48150828D01*
X135018794Y-48150828D02*
X135018794Y-46650828D01*
X135018794Y-47222257D02*
X135161652Y-47150828D01*
X135161652Y-47150828D02*
X135447366Y-47150828D01*
X135447366Y-47150828D02*
X135590223Y-47222257D01*
X135590223Y-47222257D02*
X135661652Y-47293685D01*
X135661652Y-47293685D02*
X135733080Y-47436542D01*
X135733080Y-47436542D02*
X135733080Y-47865114D01*
X135733080Y-47865114D02*
X135661652Y-48007971D01*
X135661652Y-48007971D02*
X135590223Y-48079400D01*
X135590223Y-48079400D02*
X135447366Y-48150828D01*
X135447366Y-48150828D02*
X135161652Y-48150828D01*
X135161652Y-48150828D02*
X135018794Y-48079400D01*
X136947366Y-48079400D02*
X136804509Y-48150828D01*
X136804509Y-48150828D02*
X136518795Y-48150828D01*
X136518795Y-48150828D02*
X136375937Y-48079400D01*
X136375937Y-48079400D02*
X136304509Y-47936542D01*
X136304509Y-47936542D02*
X136304509Y-47365114D01*
X136304509Y-47365114D02*
X136375937Y-47222257D01*
X136375937Y-47222257D02*
X136518795Y-47150828D01*
X136518795Y-47150828D02*
X136804509Y-47150828D01*
X136804509Y-47150828D02*
X136947366Y-47222257D01*
X136947366Y-47222257D02*
X137018795Y-47365114D01*
X137018795Y-47365114D02*
X137018795Y-47507971D01*
X137018795Y-47507971D02*
X136304509Y-47650828D01*
X137661651Y-48150828D02*
X137661651Y-47150828D01*
X137661651Y-47436542D02*
X137733080Y-47293685D01*
X137733080Y-47293685D02*
X137804509Y-47222257D01*
X137804509Y-47222257D02*
X137947366Y-47150828D01*
X137947366Y-47150828D02*
X138090223Y-47150828D01*
X139661651Y-46793685D02*
X139733079Y-46722257D01*
X139733079Y-46722257D02*
X139875937Y-46650828D01*
X139875937Y-46650828D02*
X140233079Y-46650828D01*
X140233079Y-46650828D02*
X140375937Y-46722257D01*
X140375937Y-46722257D02*
X140447365Y-46793685D01*
X140447365Y-46793685D02*
X140518794Y-46936542D01*
X140518794Y-46936542D02*
X140518794Y-47079400D01*
X140518794Y-47079400D02*
X140447365Y-47293685D01*
X140447365Y-47293685D02*
X139590222Y-48150828D01*
X139590222Y-48150828D02*
X140518794Y-48150828D01*
X141447365Y-46650828D02*
X141590222Y-46650828D01*
X141590222Y-46650828D02*
X141733079Y-46722257D01*
X141733079Y-46722257D02*
X141804508Y-46793685D01*
X141804508Y-46793685D02*
X141875936Y-46936542D01*
X141875936Y-46936542D02*
X141947365Y-47222257D01*
X141947365Y-47222257D02*
X141947365Y-47579400D01*
X141947365Y-47579400D02*
X141875936Y-47865114D01*
X141875936Y-47865114D02*
X141804508Y-48007971D01*
X141804508Y-48007971D02*
X141733079Y-48079400D01*
X141733079Y-48079400D02*
X141590222Y-48150828D01*
X141590222Y-48150828D02*
X141447365Y-48150828D01*
X141447365Y-48150828D02*
X141304508Y-48079400D01*
X141304508Y-48079400D02*
X141233079Y-48007971D01*
X141233079Y-48007971D02*
X141161650Y-47865114D01*
X141161650Y-47865114D02*
X141090222Y-47579400D01*
X141090222Y-47579400D02*
X141090222Y-47222257D01*
X141090222Y-47222257D02*
X141161650Y-46936542D01*
X141161650Y-46936542D02*
X141233079Y-46793685D01*
X141233079Y-46793685D02*
X141304508Y-46722257D01*
X141304508Y-46722257D02*
X141447365Y-46650828D01*
X142518793Y-46793685D02*
X142590221Y-46722257D01*
X142590221Y-46722257D02*
X142733079Y-46650828D01*
X142733079Y-46650828D02*
X143090221Y-46650828D01*
X143090221Y-46650828D02*
X143233079Y-46722257D01*
X143233079Y-46722257D02*
X143304507Y-46793685D01*
X143304507Y-46793685D02*
X143375936Y-46936542D01*
X143375936Y-46936542D02*
X143375936Y-47079400D01*
X143375936Y-47079400D02*
X143304507Y-47293685D01*
X143304507Y-47293685D02*
X142447364Y-48150828D01*
X142447364Y-48150828D02*
X143375936Y-48150828D01*
X144661650Y-47150828D02*
X144661650Y-48150828D01*
X144304507Y-46579400D02*
X143947364Y-47650828D01*
X143947364Y-47650828D02*
X144875935Y-47650828D01*
X43554510Y-45485912D02*
X43554510Y-43985912D01*
X43554510Y-43985912D02*
X44125939Y-43985912D01*
X44125939Y-43985912D02*
X44268796Y-44057341D01*
X44268796Y-44057341D02*
X44340225Y-44128769D01*
X44340225Y-44128769D02*
X44411653Y-44271626D01*
X44411653Y-44271626D02*
X44411653Y-44485912D01*
X44411653Y-44485912D02*
X44340225Y-44628769D01*
X44340225Y-44628769D02*
X44268796Y-44700198D01*
X44268796Y-44700198D02*
X44125939Y-44771626D01*
X44125939Y-44771626D02*
X43554510Y-44771626D01*
X45054510Y-45485912D02*
X45054510Y-44485912D01*
X45054510Y-44771626D02*
X45125939Y-44628769D01*
X45125939Y-44628769D02*
X45197368Y-44557341D01*
X45197368Y-44557341D02*
X45340225Y-44485912D01*
X45340225Y-44485912D02*
X45483082Y-44485912D01*
X46197367Y-45485912D02*
X46054510Y-45414484D01*
X46054510Y-45414484D02*
X45983081Y-45343055D01*
X45983081Y-45343055D02*
X45911653Y-45200198D01*
X45911653Y-45200198D02*
X45911653Y-44771626D01*
X45911653Y-44771626D02*
X45983081Y-44628769D01*
X45983081Y-44628769D02*
X46054510Y-44557341D01*
X46054510Y-44557341D02*
X46197367Y-44485912D01*
X46197367Y-44485912D02*
X46411653Y-44485912D01*
X46411653Y-44485912D02*
X46554510Y-44557341D01*
X46554510Y-44557341D02*
X46625939Y-44628769D01*
X46625939Y-44628769D02*
X46697367Y-44771626D01*
X46697367Y-44771626D02*
X46697367Y-45200198D01*
X46697367Y-45200198D02*
X46625939Y-45343055D01*
X46625939Y-45343055D02*
X46554510Y-45414484D01*
X46554510Y-45414484D02*
X46411653Y-45485912D01*
X46411653Y-45485912D02*
X46197367Y-45485912D01*
X47125939Y-44485912D02*
X47697367Y-44485912D01*
X47340224Y-43985912D02*
X47340224Y-45271626D01*
X47340224Y-45271626D02*
X47411653Y-45414484D01*
X47411653Y-45414484D02*
X47554510Y-45485912D01*
X47554510Y-45485912D02*
X47697367Y-45485912D01*
X48411653Y-45485912D02*
X48268796Y-45414484D01*
X48268796Y-45414484D02*
X48197367Y-45343055D01*
X48197367Y-45343055D02*
X48125939Y-45200198D01*
X48125939Y-45200198D02*
X48125939Y-44771626D01*
X48125939Y-44771626D02*
X48197367Y-44628769D01*
X48197367Y-44628769D02*
X48268796Y-44557341D01*
X48268796Y-44557341D02*
X48411653Y-44485912D01*
X48411653Y-44485912D02*
X48625939Y-44485912D01*
X48625939Y-44485912D02*
X48768796Y-44557341D01*
X48768796Y-44557341D02*
X48840225Y-44628769D01*
X48840225Y-44628769D02*
X48911653Y-44771626D01*
X48911653Y-44771626D02*
X48911653Y-45200198D01*
X48911653Y-45200198D02*
X48840225Y-45343055D01*
X48840225Y-45343055D02*
X48768796Y-45414484D01*
X48768796Y-45414484D02*
X48625939Y-45485912D01*
X48625939Y-45485912D02*
X48411653Y-45485912D01*
X49554510Y-44485912D02*
X49554510Y-45485912D01*
X49554510Y-44628769D02*
X49625939Y-44557341D01*
X49625939Y-44557341D02*
X49768796Y-44485912D01*
X49768796Y-44485912D02*
X49983082Y-44485912D01*
X49983082Y-44485912D02*
X50125939Y-44557341D01*
X50125939Y-44557341D02*
X50197368Y-44700198D01*
X50197368Y-44700198D02*
X50197368Y-45485912D01*
X52054510Y-45485912D02*
X52054510Y-43985912D01*
X52054510Y-43985912D02*
X52625939Y-43985912D01*
X52625939Y-43985912D02*
X52768796Y-44057341D01*
X52768796Y-44057341D02*
X52840225Y-44128769D01*
X52840225Y-44128769D02*
X52911653Y-44271626D01*
X52911653Y-44271626D02*
X52911653Y-44485912D01*
X52911653Y-44485912D02*
X52840225Y-44628769D01*
X52840225Y-44628769D02*
X52768796Y-44700198D01*
X52768796Y-44700198D02*
X52625939Y-44771626D01*
X52625939Y-44771626D02*
X52054510Y-44771626D01*
X53554510Y-45485912D02*
X53554510Y-44485912D01*
X53554510Y-44771626D02*
X53625939Y-44628769D01*
X53625939Y-44628769D02*
X53697368Y-44557341D01*
X53697368Y-44557341D02*
X53840225Y-44485912D01*
X53840225Y-44485912D02*
X53983082Y-44485912D01*
X55054510Y-45414484D02*
X54911653Y-45485912D01*
X54911653Y-45485912D02*
X54625939Y-45485912D01*
X54625939Y-45485912D02*
X54483081Y-45414484D01*
X54483081Y-45414484D02*
X54411653Y-45271626D01*
X54411653Y-45271626D02*
X54411653Y-44700198D01*
X54411653Y-44700198D02*
X54483081Y-44557341D01*
X54483081Y-44557341D02*
X54625939Y-44485912D01*
X54625939Y-44485912D02*
X54911653Y-44485912D01*
X54911653Y-44485912D02*
X55054510Y-44557341D01*
X55054510Y-44557341D02*
X55125939Y-44700198D01*
X55125939Y-44700198D02*
X55125939Y-44843055D01*
X55125939Y-44843055D02*
X54411653Y-44985912D01*
X56411653Y-45414484D02*
X56268795Y-45485912D01*
X56268795Y-45485912D02*
X55983081Y-45485912D01*
X55983081Y-45485912D02*
X55840224Y-45414484D01*
X55840224Y-45414484D02*
X55768795Y-45343055D01*
X55768795Y-45343055D02*
X55697367Y-45200198D01*
X55697367Y-45200198D02*
X55697367Y-44771626D01*
X55697367Y-44771626D02*
X55768795Y-44628769D01*
X55768795Y-44628769D02*
X55840224Y-44557341D01*
X55840224Y-44557341D02*
X55983081Y-44485912D01*
X55983081Y-44485912D02*
X56268795Y-44485912D01*
X56268795Y-44485912D02*
X56411653Y-44557341D01*
X57625938Y-45414484D02*
X57483081Y-45485912D01*
X57483081Y-45485912D02*
X57197367Y-45485912D01*
X57197367Y-45485912D02*
X57054509Y-45414484D01*
X57054509Y-45414484D02*
X56983081Y-45271626D01*
X56983081Y-45271626D02*
X56983081Y-44700198D01*
X56983081Y-44700198D02*
X57054509Y-44557341D01*
X57054509Y-44557341D02*
X57197367Y-44485912D01*
X57197367Y-44485912D02*
X57483081Y-44485912D01*
X57483081Y-44485912D02*
X57625938Y-44557341D01*
X57625938Y-44557341D02*
X57697367Y-44700198D01*
X57697367Y-44700198D02*
X57697367Y-44843055D01*
X57697367Y-44843055D02*
X56983081Y-44985912D01*
X58268795Y-45414484D02*
X58411652Y-45485912D01*
X58411652Y-45485912D02*
X58697366Y-45485912D01*
X58697366Y-45485912D02*
X58840223Y-45414484D01*
X58840223Y-45414484D02*
X58911652Y-45271626D01*
X58911652Y-45271626D02*
X58911652Y-45200198D01*
X58911652Y-45200198D02*
X58840223Y-45057341D01*
X58840223Y-45057341D02*
X58697366Y-44985912D01*
X58697366Y-44985912D02*
X58483081Y-44985912D01*
X58483081Y-44985912D02*
X58340223Y-44914484D01*
X58340223Y-44914484D02*
X58268795Y-44771626D01*
X58268795Y-44771626D02*
X58268795Y-44700198D01*
X58268795Y-44700198D02*
X58340223Y-44557341D01*
X58340223Y-44557341D02*
X58483081Y-44485912D01*
X58483081Y-44485912D02*
X58697366Y-44485912D01*
X58697366Y-44485912D02*
X58840223Y-44557341D01*
X59483081Y-45414484D02*
X59625938Y-45485912D01*
X59625938Y-45485912D02*
X59911652Y-45485912D01*
X59911652Y-45485912D02*
X60054509Y-45414484D01*
X60054509Y-45414484D02*
X60125938Y-45271626D01*
X60125938Y-45271626D02*
X60125938Y-45200198D01*
X60125938Y-45200198D02*
X60054509Y-45057341D01*
X60054509Y-45057341D02*
X59911652Y-44985912D01*
X59911652Y-44985912D02*
X59697367Y-44985912D01*
X59697367Y-44985912D02*
X59554509Y-44914484D01*
X59554509Y-44914484D02*
X59483081Y-44771626D01*
X59483081Y-44771626D02*
X59483081Y-44700198D01*
X59483081Y-44700198D02*
X59554509Y-44557341D01*
X59554509Y-44557341D02*
X59697367Y-44485912D01*
X59697367Y-44485912D02*
X59911652Y-44485912D01*
X59911652Y-44485912D02*
X60054509Y-44557341D01*
X60768795Y-45485912D02*
X60768795Y-44485912D01*
X60768795Y-43985912D02*
X60697367Y-44057341D01*
X60697367Y-44057341D02*
X60768795Y-44128769D01*
X60768795Y-44128769D02*
X60840224Y-44057341D01*
X60840224Y-44057341D02*
X60768795Y-43985912D01*
X60768795Y-43985912D02*
X60768795Y-44128769D01*
X61697367Y-45485912D02*
X61554510Y-45414484D01*
X61554510Y-45414484D02*
X61483081Y-45343055D01*
X61483081Y-45343055D02*
X61411653Y-45200198D01*
X61411653Y-45200198D02*
X61411653Y-44771626D01*
X61411653Y-44771626D02*
X61483081Y-44628769D01*
X61483081Y-44628769D02*
X61554510Y-44557341D01*
X61554510Y-44557341D02*
X61697367Y-44485912D01*
X61697367Y-44485912D02*
X61911653Y-44485912D01*
X61911653Y-44485912D02*
X62054510Y-44557341D01*
X62054510Y-44557341D02*
X62125939Y-44628769D01*
X62125939Y-44628769D02*
X62197367Y-44771626D01*
X62197367Y-44771626D02*
X62197367Y-45200198D01*
X62197367Y-45200198D02*
X62125939Y-45343055D01*
X62125939Y-45343055D02*
X62054510Y-45414484D01*
X62054510Y-45414484D02*
X61911653Y-45485912D01*
X61911653Y-45485912D02*
X61697367Y-45485912D01*
X62840224Y-44485912D02*
X62840224Y-45485912D01*
X62840224Y-44628769D02*
X62911653Y-44557341D01*
X62911653Y-44557341D02*
X63054510Y-44485912D01*
X63054510Y-44485912D02*
X63268796Y-44485912D01*
X63268796Y-44485912D02*
X63411653Y-44557341D01*
X63411653Y-44557341D02*
X63483082Y-44700198D01*
X63483082Y-44700198D02*
X63483082Y-45485912D01*
X65340224Y-45485912D02*
X65340224Y-43985912D01*
X65340224Y-43985912D02*
X65840224Y-45057341D01*
X65840224Y-45057341D02*
X66340224Y-43985912D01*
X66340224Y-43985912D02*
X66340224Y-45485912D01*
X67697368Y-45485912D02*
X67697368Y-44700198D01*
X67697368Y-44700198D02*
X67625939Y-44557341D01*
X67625939Y-44557341D02*
X67483082Y-44485912D01*
X67483082Y-44485912D02*
X67197368Y-44485912D01*
X67197368Y-44485912D02*
X67054510Y-44557341D01*
X67697368Y-45414484D02*
X67554510Y-45485912D01*
X67554510Y-45485912D02*
X67197368Y-45485912D01*
X67197368Y-45485912D02*
X67054510Y-45414484D01*
X67054510Y-45414484D02*
X66983082Y-45271626D01*
X66983082Y-45271626D02*
X66983082Y-45128769D01*
X66983082Y-45128769D02*
X67054510Y-44985912D01*
X67054510Y-44985912D02*
X67197368Y-44914484D01*
X67197368Y-44914484D02*
X67554510Y-44914484D01*
X67554510Y-44914484D02*
X67697368Y-44843055D01*
X69054511Y-44485912D02*
X69054511Y-45700198D01*
X69054511Y-45700198D02*
X68983082Y-45843055D01*
X68983082Y-45843055D02*
X68911653Y-45914484D01*
X68911653Y-45914484D02*
X68768796Y-45985912D01*
X68768796Y-45985912D02*
X68554511Y-45985912D01*
X68554511Y-45985912D02*
X68411653Y-45914484D01*
X69054511Y-45414484D02*
X68911653Y-45485912D01*
X68911653Y-45485912D02*
X68625939Y-45485912D01*
X68625939Y-45485912D02*
X68483082Y-45414484D01*
X68483082Y-45414484D02*
X68411653Y-45343055D01*
X68411653Y-45343055D02*
X68340225Y-45200198D01*
X68340225Y-45200198D02*
X68340225Y-44771626D01*
X68340225Y-44771626D02*
X68411653Y-44628769D01*
X68411653Y-44628769D02*
X68483082Y-44557341D01*
X68483082Y-44557341D02*
X68625939Y-44485912D01*
X68625939Y-44485912D02*
X68911653Y-44485912D01*
X68911653Y-44485912D02*
X69054511Y-44557341D01*
X69768796Y-44485912D02*
X69768796Y-45485912D01*
X69768796Y-44628769D02*
X69840225Y-44557341D01*
X69840225Y-44557341D02*
X69983082Y-44485912D01*
X69983082Y-44485912D02*
X70197368Y-44485912D01*
X70197368Y-44485912D02*
X70340225Y-44557341D01*
X70340225Y-44557341D02*
X70411654Y-44700198D01*
X70411654Y-44700198D02*
X70411654Y-45485912D01*
X71697368Y-45414484D02*
X71554511Y-45485912D01*
X71554511Y-45485912D02*
X71268797Y-45485912D01*
X71268797Y-45485912D02*
X71125939Y-45414484D01*
X71125939Y-45414484D02*
X71054511Y-45271626D01*
X71054511Y-45271626D02*
X71054511Y-44700198D01*
X71054511Y-44700198D02*
X71125939Y-44557341D01*
X71125939Y-44557341D02*
X71268797Y-44485912D01*
X71268797Y-44485912D02*
X71554511Y-44485912D01*
X71554511Y-44485912D02*
X71697368Y-44557341D01*
X71697368Y-44557341D02*
X71768797Y-44700198D01*
X71768797Y-44700198D02*
X71768797Y-44843055D01*
X71768797Y-44843055D02*
X71054511Y-44985912D01*
X72197368Y-44485912D02*
X72768796Y-44485912D01*
X72411653Y-43985912D02*
X72411653Y-45271626D01*
X72411653Y-45271626D02*
X72483082Y-45414484D01*
X72483082Y-45414484D02*
X72625939Y-45485912D01*
X72625939Y-45485912D02*
X72768796Y-45485912D01*
X73483082Y-45485912D02*
X73340225Y-45414484D01*
X73340225Y-45414484D02*
X73268796Y-45343055D01*
X73268796Y-45343055D02*
X73197368Y-45200198D01*
X73197368Y-45200198D02*
X73197368Y-44771626D01*
X73197368Y-44771626D02*
X73268796Y-44628769D01*
X73268796Y-44628769D02*
X73340225Y-44557341D01*
X73340225Y-44557341D02*
X73483082Y-44485912D01*
X73483082Y-44485912D02*
X73697368Y-44485912D01*
X73697368Y-44485912D02*
X73840225Y-44557341D01*
X73840225Y-44557341D02*
X73911654Y-44628769D01*
X73911654Y-44628769D02*
X73983082Y-44771626D01*
X73983082Y-44771626D02*
X73983082Y-45200198D01*
X73983082Y-45200198D02*
X73911654Y-45343055D01*
X73911654Y-45343055D02*
X73840225Y-45414484D01*
X73840225Y-45414484D02*
X73697368Y-45485912D01*
X73697368Y-45485912D02*
X73483082Y-45485912D01*
X74625939Y-45485912D02*
X74625939Y-44485912D01*
X74625939Y-44628769D02*
X74697368Y-44557341D01*
X74697368Y-44557341D02*
X74840225Y-44485912D01*
X74840225Y-44485912D02*
X75054511Y-44485912D01*
X75054511Y-44485912D02*
X75197368Y-44557341D01*
X75197368Y-44557341D02*
X75268797Y-44700198D01*
X75268797Y-44700198D02*
X75268797Y-45485912D01*
X75268797Y-44700198D02*
X75340225Y-44557341D01*
X75340225Y-44557341D02*
X75483082Y-44485912D01*
X75483082Y-44485912D02*
X75697368Y-44485912D01*
X75697368Y-44485912D02*
X75840225Y-44557341D01*
X75840225Y-44557341D02*
X75911654Y-44700198D01*
X75911654Y-44700198D02*
X75911654Y-45485912D01*
X77197368Y-45414484D02*
X77054511Y-45485912D01*
X77054511Y-45485912D02*
X76768797Y-45485912D01*
X76768797Y-45485912D02*
X76625939Y-45414484D01*
X76625939Y-45414484D02*
X76554511Y-45271626D01*
X76554511Y-45271626D02*
X76554511Y-44700198D01*
X76554511Y-44700198D02*
X76625939Y-44557341D01*
X76625939Y-44557341D02*
X76768797Y-44485912D01*
X76768797Y-44485912D02*
X77054511Y-44485912D01*
X77054511Y-44485912D02*
X77197368Y-44557341D01*
X77197368Y-44557341D02*
X77268797Y-44700198D01*
X77268797Y-44700198D02*
X77268797Y-44843055D01*
X77268797Y-44843055D02*
X76554511Y-44985912D01*
X77697368Y-44485912D02*
X78268796Y-44485912D01*
X77911653Y-43985912D02*
X77911653Y-45271626D01*
X77911653Y-45271626D02*
X77983082Y-45414484D01*
X77983082Y-45414484D02*
X78125939Y-45485912D01*
X78125939Y-45485912D02*
X78268796Y-45485912D01*
X79340225Y-45414484D02*
X79197368Y-45485912D01*
X79197368Y-45485912D02*
X78911654Y-45485912D01*
X78911654Y-45485912D02*
X78768796Y-45414484D01*
X78768796Y-45414484D02*
X78697368Y-45271626D01*
X78697368Y-45271626D02*
X78697368Y-44700198D01*
X78697368Y-44700198D02*
X78768796Y-44557341D01*
X78768796Y-44557341D02*
X78911654Y-44485912D01*
X78911654Y-44485912D02*
X79197368Y-44485912D01*
X79197368Y-44485912D02*
X79340225Y-44557341D01*
X79340225Y-44557341D02*
X79411654Y-44700198D01*
X79411654Y-44700198D02*
X79411654Y-44843055D01*
X79411654Y-44843055D02*
X78697368Y-44985912D01*
X80054510Y-45485912D02*
X80054510Y-44485912D01*
X80054510Y-44771626D02*
X80125939Y-44628769D01*
X80125939Y-44628769D02*
X80197368Y-44557341D01*
X80197368Y-44557341D02*
X80340225Y-44485912D01*
X80340225Y-44485912D02*
X80483082Y-44485912D01*
X43554510Y-47900828D02*
X43554510Y-46400828D01*
X43554510Y-46400828D02*
X44054510Y-47472257D01*
X44054510Y-47472257D02*
X44554510Y-46400828D01*
X44554510Y-46400828D02*
X44554510Y-47900828D01*
X45554511Y-46400828D02*
X45840225Y-46400828D01*
X45840225Y-46400828D02*
X45983082Y-46472257D01*
X45983082Y-46472257D02*
X46125939Y-46615114D01*
X46125939Y-46615114D02*
X46197368Y-46900828D01*
X46197368Y-46900828D02*
X46197368Y-47400828D01*
X46197368Y-47400828D02*
X46125939Y-47686542D01*
X46125939Y-47686542D02*
X45983082Y-47829400D01*
X45983082Y-47829400D02*
X45840225Y-47900828D01*
X45840225Y-47900828D02*
X45554511Y-47900828D01*
X45554511Y-47900828D02*
X45411654Y-47829400D01*
X45411654Y-47829400D02*
X45268796Y-47686542D01*
X45268796Y-47686542D02*
X45197368Y-47400828D01*
X45197368Y-47400828D02*
X45197368Y-46900828D01*
X45197368Y-46900828D02*
X45268796Y-46615114D01*
X45268796Y-46615114D02*
X45411654Y-46472257D01*
X45411654Y-46472257D02*
X45554511Y-46400828D01*
X46768797Y-47829400D02*
X46983083Y-47900828D01*
X46983083Y-47900828D02*
X47340225Y-47900828D01*
X47340225Y-47900828D02*
X47483083Y-47829400D01*
X47483083Y-47829400D02*
X47554511Y-47757971D01*
X47554511Y-47757971D02*
X47625940Y-47615114D01*
X47625940Y-47615114D02*
X47625940Y-47472257D01*
X47625940Y-47472257D02*
X47554511Y-47329400D01*
X47554511Y-47329400D02*
X47483083Y-47257971D01*
X47483083Y-47257971D02*
X47340225Y-47186542D01*
X47340225Y-47186542D02*
X47054511Y-47115114D01*
X47054511Y-47115114D02*
X46911654Y-47043685D01*
X46911654Y-47043685D02*
X46840225Y-46972257D01*
X46840225Y-46972257D02*
X46768797Y-46829400D01*
X46768797Y-46829400D02*
X46768797Y-46686542D01*
X46768797Y-46686542D02*
X46840225Y-46543685D01*
X46840225Y-46543685D02*
X46911654Y-46472257D01*
X46911654Y-46472257D02*
X47054511Y-46400828D01*
X47054511Y-46400828D02*
X47411654Y-46400828D01*
X47411654Y-46400828D02*
X47625940Y-46472257D01*
X48768796Y-47115114D02*
X48268796Y-47115114D01*
X48268796Y-47900828D02*
X48268796Y-46400828D01*
X48268796Y-46400828D02*
X48983082Y-46400828D01*
X49554510Y-47115114D02*
X50054510Y-47115114D01*
X50268796Y-47900828D02*
X49554510Y-47900828D01*
X49554510Y-47900828D02*
X49554510Y-46400828D01*
X49554510Y-46400828D02*
X50268796Y-46400828D01*
X50697368Y-46400828D02*
X51554511Y-46400828D01*
X51125939Y-47900828D02*
X51125939Y-46400828D01*
X53697367Y-47115114D02*
X53911653Y-47186542D01*
X53911653Y-47186542D02*
X53983082Y-47257971D01*
X53983082Y-47257971D02*
X54054510Y-47400828D01*
X54054510Y-47400828D02*
X54054510Y-47615114D01*
X54054510Y-47615114D02*
X53983082Y-47757971D01*
X53983082Y-47757971D02*
X53911653Y-47829400D01*
X53911653Y-47829400D02*
X53768796Y-47900828D01*
X53768796Y-47900828D02*
X53197367Y-47900828D01*
X53197367Y-47900828D02*
X53197367Y-46400828D01*
X53197367Y-46400828D02*
X53697367Y-46400828D01*
X53697367Y-46400828D02*
X53840225Y-46472257D01*
X53840225Y-46472257D02*
X53911653Y-46543685D01*
X53911653Y-46543685D02*
X53983082Y-46686542D01*
X53983082Y-46686542D02*
X53983082Y-46829400D01*
X53983082Y-46829400D02*
X53911653Y-46972257D01*
X53911653Y-46972257D02*
X53840225Y-47043685D01*
X53840225Y-47043685D02*
X53697367Y-47115114D01*
X53697367Y-47115114D02*
X53197367Y-47115114D01*
X55340225Y-47900828D02*
X55340225Y-47115114D01*
X55340225Y-47115114D02*
X55268796Y-46972257D01*
X55268796Y-46972257D02*
X55125939Y-46900828D01*
X55125939Y-46900828D02*
X54840225Y-46900828D01*
X54840225Y-46900828D02*
X54697367Y-46972257D01*
X55340225Y-47829400D02*
X55197367Y-47900828D01*
X55197367Y-47900828D02*
X54840225Y-47900828D01*
X54840225Y-47900828D02*
X54697367Y-47829400D01*
X54697367Y-47829400D02*
X54625939Y-47686542D01*
X54625939Y-47686542D02*
X54625939Y-47543685D01*
X54625939Y-47543685D02*
X54697367Y-47400828D01*
X54697367Y-47400828D02*
X54840225Y-47329400D01*
X54840225Y-47329400D02*
X55197367Y-47329400D01*
X55197367Y-47329400D02*
X55340225Y-47257971D01*
X56054510Y-46900828D02*
X56054510Y-47900828D01*
X56054510Y-47043685D02*
X56125939Y-46972257D01*
X56125939Y-46972257D02*
X56268796Y-46900828D01*
X56268796Y-46900828D02*
X56483082Y-46900828D01*
X56483082Y-46900828D02*
X56625939Y-46972257D01*
X56625939Y-46972257D02*
X56697368Y-47115114D01*
X56697368Y-47115114D02*
X56697368Y-47900828D01*
X57411653Y-47900828D02*
X57411653Y-46400828D01*
X57554511Y-47329400D02*
X57983082Y-47900828D01*
X57983082Y-46900828D02*
X57411653Y-47472257D01*
X19648558Y-47427733D02*
X21172368Y-47427733D01*
X20410463Y-48189638D02*
X20410463Y-46665828D01*
X23172367Y-48189638D02*
X22029510Y-48189638D01*
X22600938Y-48189638D02*
X22600938Y-46189638D01*
X22600938Y-46189638D02*
X22410462Y-46475352D01*
X22410462Y-46475352D02*
X22219986Y-46665828D01*
X22219986Y-46665828D02*
X22029510Y-46761066D01*
X23934272Y-46380114D02*
X24029510Y-46284876D01*
X24029510Y-46284876D02*
X24219986Y-46189638D01*
X24219986Y-46189638D02*
X24696177Y-46189638D01*
X24696177Y-46189638D02*
X24886653Y-46284876D01*
X24886653Y-46284876D02*
X24981891Y-46380114D01*
X24981891Y-46380114D02*
X25077129Y-46570590D01*
X25077129Y-46570590D02*
X25077129Y-46761066D01*
X25077129Y-46761066D02*
X24981891Y-47046780D01*
X24981891Y-47046780D02*
X23839034Y-48189638D01*
X23839034Y-48189638D02*
X25077129Y-48189638D01*
X25648558Y-46189638D02*
X26315224Y-48189638D01*
X26315224Y-48189638D02*
X26981891Y-46189638D01*
X29172368Y-48189638D02*
X29172368Y-46189638D01*
X30124749Y-46856304D02*
X30124749Y-48189638D01*
X30124749Y-47046780D02*
X30219987Y-46951542D01*
X30219987Y-46951542D02*
X30410463Y-46856304D01*
X30410463Y-46856304D02*
X30696178Y-46856304D01*
X30696178Y-46856304D02*
X30886654Y-46951542D01*
X30886654Y-46951542D02*
X30981892Y-47142019D01*
X30981892Y-47142019D02*
X30981892Y-48189638D01*
X173412844Y-46539638D02*
X174555701Y-46539638D01*
X173984272Y-48539638D02*
X173984272Y-46539638D01*
X175508082Y-48539638D02*
X175317606Y-48444400D01*
X175317606Y-48444400D02*
X175222368Y-48349161D01*
X175222368Y-48349161D02*
X175127130Y-48158685D01*
X175127130Y-48158685D02*
X175127130Y-47587257D01*
X175127130Y-47587257D02*
X175222368Y-47396780D01*
X175222368Y-47396780D02*
X175317606Y-47301542D01*
X175317606Y-47301542D02*
X175508082Y-47206304D01*
X175508082Y-47206304D02*
X175793797Y-47206304D01*
X175793797Y-47206304D02*
X175984273Y-47301542D01*
X175984273Y-47301542D02*
X176079511Y-47396780D01*
X176079511Y-47396780D02*
X176174749Y-47587257D01*
X176174749Y-47587257D02*
X176174749Y-48158685D01*
X176174749Y-48158685D02*
X176079511Y-48349161D01*
X176079511Y-48349161D02*
X175984273Y-48444400D01*
X175984273Y-48444400D02*
X175793797Y-48539638D01*
X175793797Y-48539638D02*
X175508082Y-48539638D01*
X179698559Y-48349161D02*
X179603321Y-48444400D01*
X179603321Y-48444400D02*
X179317607Y-48539638D01*
X179317607Y-48539638D02*
X179127131Y-48539638D01*
X179127131Y-48539638D02*
X178841416Y-48444400D01*
X178841416Y-48444400D02*
X178650940Y-48253923D01*
X178650940Y-48253923D02*
X178555702Y-48063447D01*
X178555702Y-48063447D02*
X178460464Y-47682495D01*
X178460464Y-47682495D02*
X178460464Y-47396780D01*
X178460464Y-47396780D02*
X178555702Y-47015828D01*
X178555702Y-47015828D02*
X178650940Y-46825352D01*
X178650940Y-46825352D02*
X178841416Y-46634876D01*
X178841416Y-46634876D02*
X179127131Y-46539638D01*
X179127131Y-46539638D02*
X179317607Y-46539638D01*
X179317607Y-46539638D02*
X179603321Y-46634876D01*
X179603321Y-46634876D02*
X179698559Y-46730114D01*
X180841416Y-48539638D02*
X180650940Y-48444400D01*
X180650940Y-48444400D02*
X180555702Y-48349161D01*
X180555702Y-48349161D02*
X180460464Y-48158685D01*
X180460464Y-48158685D02*
X180460464Y-47587257D01*
X180460464Y-47587257D02*
X180555702Y-47396780D01*
X180555702Y-47396780D02*
X180650940Y-47301542D01*
X180650940Y-47301542D02*
X180841416Y-47206304D01*
X180841416Y-47206304D02*
X181127131Y-47206304D01*
X181127131Y-47206304D02*
X181317607Y-47301542D01*
X181317607Y-47301542D02*
X181412845Y-47396780D01*
X181412845Y-47396780D02*
X181508083Y-47587257D01*
X181508083Y-47587257D02*
X181508083Y-48158685D01*
X181508083Y-48158685D02*
X181412845Y-48349161D01*
X181412845Y-48349161D02*
X181317607Y-48444400D01*
X181317607Y-48444400D02*
X181127131Y-48539638D01*
X181127131Y-48539638D02*
X180841416Y-48539638D01*
X182365226Y-48539638D02*
X182365226Y-47206304D01*
X182365226Y-46539638D02*
X182269988Y-46634876D01*
X182269988Y-46634876D02*
X182365226Y-46730114D01*
X182365226Y-46730114D02*
X182460464Y-46634876D01*
X182460464Y-46634876D02*
X182365226Y-46539638D01*
X182365226Y-46539638D02*
X182365226Y-46730114D01*
X183603321Y-48539638D02*
X183412845Y-48444400D01*
X183412845Y-48444400D02*
X183317607Y-48253923D01*
X183317607Y-48253923D02*
X183317607Y-46539638D01*
D11*
X80429761Y-27575057D02*
X80334523Y-27527438D01*
X80334523Y-27527438D02*
X80239285Y-27432200D01*
X80239285Y-27432200D02*
X80096428Y-27289342D01*
X80096428Y-27289342D02*
X80001190Y-27241723D01*
X80001190Y-27241723D02*
X79905952Y-27241723D01*
X79953571Y-27479819D02*
X79858333Y-27432200D01*
X79858333Y-27432200D02*
X79763095Y-27336961D01*
X79763095Y-27336961D02*
X79715476Y-27146485D01*
X79715476Y-27146485D02*
X79715476Y-26813152D01*
X79715476Y-26813152D02*
X79763095Y-26622676D01*
X79763095Y-26622676D02*
X79858333Y-26527438D01*
X79858333Y-26527438D02*
X79953571Y-26479819D01*
X79953571Y-26479819D02*
X80144047Y-26479819D01*
X80144047Y-26479819D02*
X80239285Y-26527438D01*
X80239285Y-26527438D02*
X80334523Y-26622676D01*
X80334523Y-26622676D02*
X80382142Y-26813152D01*
X80382142Y-26813152D02*
X80382142Y-27146485D01*
X80382142Y-27146485D02*
X80334523Y-27336961D01*
X80334523Y-27336961D02*
X80239285Y-27432200D01*
X80239285Y-27432200D02*
X80144047Y-27479819D01*
X80144047Y-27479819D02*
X79953571Y-27479819D01*
X81239285Y-26813152D02*
X81239285Y-27479819D01*
X81001190Y-26432200D02*
X80763095Y-27146485D01*
X80763095Y-27146485D02*
X81382142Y-27146485D01*
X77691667Y-34249819D02*
X77691667Y-33249819D01*
X78739285Y-34249819D02*
X78405952Y-33773628D01*
X78167857Y-34249819D02*
X78167857Y-33249819D01*
X78167857Y-33249819D02*
X78548809Y-33249819D01*
X78548809Y-33249819D02*
X78644047Y-33297438D01*
X78644047Y-33297438D02*
X78691666Y-33345057D01*
X78691666Y-33345057D02*
X78739285Y-33440295D01*
X78739285Y-33440295D02*
X78739285Y-33583152D01*
X78739285Y-33583152D02*
X78691666Y-33678390D01*
X78691666Y-33678390D02*
X78644047Y-33726009D01*
X78644047Y-33726009D02*
X78548809Y-33773628D01*
X78548809Y-33773628D02*
X78167857Y-33773628D01*
X79501190Y-33726009D02*
X79167857Y-33726009D01*
X79167857Y-34249819D02*
X79167857Y-33249819D01*
X79167857Y-33249819D02*
X79644047Y-33249819D01*
X80453571Y-33249819D02*
X80263095Y-33249819D01*
X80263095Y-33249819D02*
X80167857Y-33297438D01*
X80167857Y-33297438D02*
X80120238Y-33345057D01*
X80120238Y-33345057D02*
X80025000Y-33487914D01*
X80025000Y-33487914D02*
X79977381Y-33678390D01*
X79977381Y-33678390D02*
X79977381Y-34059342D01*
X79977381Y-34059342D02*
X80025000Y-34154580D01*
X80025000Y-34154580D02*
X80072619Y-34202200D01*
X80072619Y-34202200D02*
X80167857Y-34249819D01*
X80167857Y-34249819D02*
X80358333Y-34249819D01*
X80358333Y-34249819D02*
X80453571Y-34202200D01*
X80453571Y-34202200D02*
X80501190Y-34154580D01*
X80501190Y-34154580D02*
X80548809Y-34059342D01*
X80548809Y-34059342D02*
X80548809Y-33821247D01*
X80548809Y-33821247D02*
X80501190Y-33726009D01*
X80501190Y-33726009D02*
X80453571Y-33678390D01*
X80453571Y-33678390D02*
X80358333Y-33630771D01*
X80358333Y-33630771D02*
X80167857Y-33630771D01*
X80167857Y-33630771D02*
X80072619Y-33678390D01*
X80072619Y-33678390D02*
X80025000Y-33726009D01*
X80025000Y-33726009D02*
X79977381Y-33821247D01*
X80929762Y-33345057D02*
X80977381Y-33297438D01*
X80977381Y-33297438D02*
X81072619Y-33249819D01*
X81072619Y-33249819D02*
X81310714Y-33249819D01*
X81310714Y-33249819D02*
X81405952Y-33297438D01*
X81405952Y-33297438D02*
X81453571Y-33345057D01*
X81453571Y-33345057D02*
X81501190Y-33440295D01*
X81501190Y-33440295D02*
X81501190Y-33535533D01*
X81501190Y-33535533D02*
X81453571Y-33678390D01*
X81453571Y-33678390D02*
X80882143Y-34249819D01*
X80882143Y-34249819D02*
X81501190Y-34249819D01*
X82453571Y-34249819D02*
X81882143Y-34249819D01*
X82167857Y-34249819D02*
X82167857Y-33249819D01*
X82167857Y-33249819D02*
X82072619Y-33392676D01*
X82072619Y-33392676D02*
X81977381Y-33487914D01*
X81977381Y-33487914D02*
X81882143Y-33535533D01*
X83358333Y-33249819D02*
X82882143Y-33249819D01*
X82882143Y-33249819D02*
X82834524Y-33726009D01*
X82834524Y-33726009D02*
X82882143Y-33678390D01*
X82882143Y-33678390D02*
X82977381Y-33630771D01*
X82977381Y-33630771D02*
X83215476Y-33630771D01*
X83215476Y-33630771D02*
X83310714Y-33678390D01*
X83310714Y-33678390D02*
X83358333Y-33726009D01*
X83358333Y-33726009D02*
X83405952Y-33821247D01*
X83405952Y-33821247D02*
X83405952Y-34059342D01*
X83405952Y-34059342D02*
X83358333Y-34154580D01*
X83358333Y-34154580D02*
X83310714Y-34202200D01*
X83310714Y-34202200D02*
X83215476Y-34249819D01*
X83215476Y-34249819D02*
X82977381Y-34249819D01*
X82977381Y-34249819D02*
X82882143Y-34202200D01*
X82882143Y-34202200D02*
X82834524Y-34154580D01*
X145429761Y-27575057D02*
X145334523Y-27527438D01*
X145334523Y-27527438D02*
X145239285Y-27432200D01*
X145239285Y-27432200D02*
X145096428Y-27289342D01*
X145096428Y-27289342D02*
X145001190Y-27241723D01*
X145001190Y-27241723D02*
X144905952Y-27241723D01*
X144953571Y-27479819D02*
X144858333Y-27432200D01*
X144858333Y-27432200D02*
X144763095Y-27336961D01*
X144763095Y-27336961D02*
X144715476Y-27146485D01*
X144715476Y-27146485D02*
X144715476Y-26813152D01*
X144715476Y-26813152D02*
X144763095Y-26622676D01*
X144763095Y-26622676D02*
X144858333Y-26527438D01*
X144858333Y-26527438D02*
X144953571Y-26479819D01*
X144953571Y-26479819D02*
X145144047Y-26479819D01*
X145144047Y-26479819D02*
X145239285Y-26527438D01*
X145239285Y-26527438D02*
X145334523Y-26622676D01*
X145334523Y-26622676D02*
X145382142Y-26813152D01*
X145382142Y-26813152D02*
X145382142Y-27146485D01*
X145382142Y-27146485D02*
X145334523Y-27336961D01*
X145334523Y-27336961D02*
X145239285Y-27432200D01*
X145239285Y-27432200D02*
X145144047Y-27479819D01*
X145144047Y-27479819D02*
X144953571Y-27479819D01*
X145953571Y-26908390D02*
X145858333Y-26860771D01*
X145858333Y-26860771D02*
X145810714Y-26813152D01*
X145810714Y-26813152D02*
X145763095Y-26717914D01*
X145763095Y-26717914D02*
X145763095Y-26670295D01*
X145763095Y-26670295D02*
X145810714Y-26575057D01*
X145810714Y-26575057D02*
X145858333Y-26527438D01*
X145858333Y-26527438D02*
X145953571Y-26479819D01*
X145953571Y-26479819D02*
X146144047Y-26479819D01*
X146144047Y-26479819D02*
X146239285Y-26527438D01*
X146239285Y-26527438D02*
X146286904Y-26575057D01*
X146286904Y-26575057D02*
X146334523Y-26670295D01*
X146334523Y-26670295D02*
X146334523Y-26717914D01*
X146334523Y-26717914D02*
X146286904Y-26813152D01*
X146286904Y-26813152D02*
X146239285Y-26860771D01*
X146239285Y-26860771D02*
X146144047Y-26908390D01*
X146144047Y-26908390D02*
X145953571Y-26908390D01*
X145953571Y-26908390D02*
X145858333Y-26956009D01*
X145858333Y-26956009D02*
X145810714Y-27003628D01*
X145810714Y-27003628D02*
X145763095Y-27098866D01*
X145763095Y-27098866D02*
X145763095Y-27289342D01*
X145763095Y-27289342D02*
X145810714Y-27384580D01*
X145810714Y-27384580D02*
X145858333Y-27432200D01*
X145858333Y-27432200D02*
X145953571Y-27479819D01*
X145953571Y-27479819D02*
X146144047Y-27479819D01*
X146144047Y-27479819D02*
X146239285Y-27432200D01*
X146239285Y-27432200D02*
X146286904Y-27384580D01*
X146286904Y-27384580D02*
X146334523Y-27289342D01*
X146334523Y-27289342D02*
X146334523Y-27098866D01*
X146334523Y-27098866D02*
X146286904Y-27003628D01*
X146286904Y-27003628D02*
X146239285Y-26956009D01*
X146239285Y-26956009D02*
X146144047Y-26908390D01*
X142691667Y-34249819D02*
X142691667Y-33249819D01*
X143739285Y-34249819D02*
X143405952Y-33773628D01*
X143167857Y-34249819D02*
X143167857Y-33249819D01*
X143167857Y-33249819D02*
X143548809Y-33249819D01*
X143548809Y-33249819D02*
X143644047Y-33297438D01*
X143644047Y-33297438D02*
X143691666Y-33345057D01*
X143691666Y-33345057D02*
X143739285Y-33440295D01*
X143739285Y-33440295D02*
X143739285Y-33583152D01*
X143739285Y-33583152D02*
X143691666Y-33678390D01*
X143691666Y-33678390D02*
X143644047Y-33726009D01*
X143644047Y-33726009D02*
X143548809Y-33773628D01*
X143548809Y-33773628D02*
X143167857Y-33773628D01*
X144501190Y-33726009D02*
X144167857Y-33726009D01*
X144167857Y-34249819D02*
X144167857Y-33249819D01*
X144167857Y-33249819D02*
X144644047Y-33249819D01*
X145453571Y-33249819D02*
X145263095Y-33249819D01*
X145263095Y-33249819D02*
X145167857Y-33297438D01*
X145167857Y-33297438D02*
X145120238Y-33345057D01*
X145120238Y-33345057D02*
X145025000Y-33487914D01*
X145025000Y-33487914D02*
X144977381Y-33678390D01*
X144977381Y-33678390D02*
X144977381Y-34059342D01*
X144977381Y-34059342D02*
X145025000Y-34154580D01*
X145025000Y-34154580D02*
X145072619Y-34202200D01*
X145072619Y-34202200D02*
X145167857Y-34249819D01*
X145167857Y-34249819D02*
X145358333Y-34249819D01*
X145358333Y-34249819D02*
X145453571Y-34202200D01*
X145453571Y-34202200D02*
X145501190Y-34154580D01*
X145501190Y-34154580D02*
X145548809Y-34059342D01*
X145548809Y-34059342D02*
X145548809Y-33821247D01*
X145548809Y-33821247D02*
X145501190Y-33726009D01*
X145501190Y-33726009D02*
X145453571Y-33678390D01*
X145453571Y-33678390D02*
X145358333Y-33630771D01*
X145358333Y-33630771D02*
X145167857Y-33630771D01*
X145167857Y-33630771D02*
X145072619Y-33678390D01*
X145072619Y-33678390D02*
X145025000Y-33726009D01*
X145025000Y-33726009D02*
X144977381Y-33821247D01*
X145929762Y-33345057D02*
X145977381Y-33297438D01*
X145977381Y-33297438D02*
X146072619Y-33249819D01*
X146072619Y-33249819D02*
X146310714Y-33249819D01*
X146310714Y-33249819D02*
X146405952Y-33297438D01*
X146405952Y-33297438D02*
X146453571Y-33345057D01*
X146453571Y-33345057D02*
X146501190Y-33440295D01*
X146501190Y-33440295D02*
X146501190Y-33535533D01*
X146501190Y-33535533D02*
X146453571Y-33678390D01*
X146453571Y-33678390D02*
X145882143Y-34249819D01*
X145882143Y-34249819D02*
X146501190Y-34249819D01*
X147453571Y-34249819D02*
X146882143Y-34249819D01*
X147167857Y-34249819D02*
X147167857Y-33249819D01*
X147167857Y-33249819D02*
X147072619Y-33392676D01*
X147072619Y-33392676D02*
X146977381Y-33487914D01*
X146977381Y-33487914D02*
X146882143Y-33535533D01*
X148358333Y-33249819D02*
X147882143Y-33249819D01*
X147882143Y-33249819D02*
X147834524Y-33726009D01*
X147834524Y-33726009D02*
X147882143Y-33678390D01*
X147882143Y-33678390D02*
X147977381Y-33630771D01*
X147977381Y-33630771D02*
X148215476Y-33630771D01*
X148215476Y-33630771D02*
X148310714Y-33678390D01*
X148310714Y-33678390D02*
X148358333Y-33726009D01*
X148358333Y-33726009D02*
X148405952Y-33821247D01*
X148405952Y-33821247D02*
X148405952Y-34059342D01*
X148405952Y-34059342D02*
X148358333Y-34154580D01*
X148358333Y-34154580D02*
X148310714Y-34202200D01*
X148310714Y-34202200D02*
X148215476Y-34249819D01*
X148215476Y-34249819D02*
X147977381Y-34249819D01*
X147977381Y-34249819D02*
X147882143Y-34202200D01*
X147882143Y-34202200D02*
X147834524Y-34154580D01*
D12*
X25196000Y-36532590D02*
X25196000Y-37076876D01*
X25196000Y-37076876D02*
X25159715Y-37185733D01*
X25159715Y-37185733D02*
X25087143Y-37258305D01*
X25087143Y-37258305D02*
X24978286Y-37294590D01*
X24978286Y-37294590D02*
X24905715Y-37294590D01*
X25522571Y-36605162D02*
X25558857Y-36568876D01*
X25558857Y-36568876D02*
X25631429Y-36532590D01*
X25631429Y-36532590D02*
X25812857Y-36532590D01*
X25812857Y-36532590D02*
X25885429Y-36568876D01*
X25885429Y-36568876D02*
X25921714Y-36605162D01*
X25921714Y-36605162D02*
X25958000Y-36677733D01*
X25958000Y-36677733D02*
X25958000Y-36750305D01*
X25958000Y-36750305D02*
X25921714Y-36859162D01*
X25921714Y-36859162D02*
X25486286Y-37294590D01*
X25486286Y-37294590D02*
X25958000Y-37294590D01*
D11*
X54429761Y-27575057D02*
X54334523Y-27527438D01*
X54334523Y-27527438D02*
X54239285Y-27432200D01*
X54239285Y-27432200D02*
X54096428Y-27289342D01*
X54096428Y-27289342D02*
X54001190Y-27241723D01*
X54001190Y-27241723D02*
X53905952Y-27241723D01*
X53953571Y-27479819D02*
X53858333Y-27432200D01*
X53858333Y-27432200D02*
X53763095Y-27336961D01*
X53763095Y-27336961D02*
X53715476Y-27146485D01*
X53715476Y-27146485D02*
X53715476Y-26813152D01*
X53715476Y-26813152D02*
X53763095Y-26622676D01*
X53763095Y-26622676D02*
X53858333Y-26527438D01*
X53858333Y-26527438D02*
X53953571Y-26479819D01*
X53953571Y-26479819D02*
X54144047Y-26479819D01*
X54144047Y-26479819D02*
X54239285Y-26527438D01*
X54239285Y-26527438D02*
X54334523Y-26622676D01*
X54334523Y-26622676D02*
X54382142Y-26813152D01*
X54382142Y-26813152D02*
X54382142Y-27146485D01*
X54382142Y-27146485D02*
X54334523Y-27336961D01*
X54334523Y-27336961D02*
X54239285Y-27432200D01*
X54239285Y-27432200D02*
X54144047Y-27479819D01*
X54144047Y-27479819D02*
X53953571Y-27479819D01*
X54763095Y-26575057D02*
X54810714Y-26527438D01*
X54810714Y-26527438D02*
X54905952Y-26479819D01*
X54905952Y-26479819D02*
X55144047Y-26479819D01*
X55144047Y-26479819D02*
X55239285Y-26527438D01*
X55239285Y-26527438D02*
X55286904Y-26575057D01*
X55286904Y-26575057D02*
X55334523Y-26670295D01*
X55334523Y-26670295D02*
X55334523Y-26765533D01*
X55334523Y-26765533D02*
X55286904Y-26908390D01*
X55286904Y-26908390D02*
X54715476Y-27479819D01*
X54715476Y-27479819D02*
X55334523Y-27479819D01*
X51691667Y-34249819D02*
X51691667Y-33249819D01*
X52739285Y-34249819D02*
X52405952Y-33773628D01*
X52167857Y-34249819D02*
X52167857Y-33249819D01*
X52167857Y-33249819D02*
X52548809Y-33249819D01*
X52548809Y-33249819D02*
X52644047Y-33297438D01*
X52644047Y-33297438D02*
X52691666Y-33345057D01*
X52691666Y-33345057D02*
X52739285Y-33440295D01*
X52739285Y-33440295D02*
X52739285Y-33583152D01*
X52739285Y-33583152D02*
X52691666Y-33678390D01*
X52691666Y-33678390D02*
X52644047Y-33726009D01*
X52644047Y-33726009D02*
X52548809Y-33773628D01*
X52548809Y-33773628D02*
X52167857Y-33773628D01*
X53501190Y-33726009D02*
X53167857Y-33726009D01*
X53167857Y-34249819D02*
X53167857Y-33249819D01*
X53167857Y-33249819D02*
X53644047Y-33249819D01*
X54453571Y-33249819D02*
X54263095Y-33249819D01*
X54263095Y-33249819D02*
X54167857Y-33297438D01*
X54167857Y-33297438D02*
X54120238Y-33345057D01*
X54120238Y-33345057D02*
X54025000Y-33487914D01*
X54025000Y-33487914D02*
X53977381Y-33678390D01*
X53977381Y-33678390D02*
X53977381Y-34059342D01*
X53977381Y-34059342D02*
X54025000Y-34154580D01*
X54025000Y-34154580D02*
X54072619Y-34202200D01*
X54072619Y-34202200D02*
X54167857Y-34249819D01*
X54167857Y-34249819D02*
X54358333Y-34249819D01*
X54358333Y-34249819D02*
X54453571Y-34202200D01*
X54453571Y-34202200D02*
X54501190Y-34154580D01*
X54501190Y-34154580D02*
X54548809Y-34059342D01*
X54548809Y-34059342D02*
X54548809Y-33821247D01*
X54548809Y-33821247D02*
X54501190Y-33726009D01*
X54501190Y-33726009D02*
X54453571Y-33678390D01*
X54453571Y-33678390D02*
X54358333Y-33630771D01*
X54358333Y-33630771D02*
X54167857Y-33630771D01*
X54167857Y-33630771D02*
X54072619Y-33678390D01*
X54072619Y-33678390D02*
X54025000Y-33726009D01*
X54025000Y-33726009D02*
X53977381Y-33821247D01*
X54929762Y-33345057D02*
X54977381Y-33297438D01*
X54977381Y-33297438D02*
X55072619Y-33249819D01*
X55072619Y-33249819D02*
X55310714Y-33249819D01*
X55310714Y-33249819D02*
X55405952Y-33297438D01*
X55405952Y-33297438D02*
X55453571Y-33345057D01*
X55453571Y-33345057D02*
X55501190Y-33440295D01*
X55501190Y-33440295D02*
X55501190Y-33535533D01*
X55501190Y-33535533D02*
X55453571Y-33678390D01*
X55453571Y-33678390D02*
X54882143Y-34249819D01*
X54882143Y-34249819D02*
X55501190Y-34249819D01*
X56453571Y-34249819D02*
X55882143Y-34249819D01*
X56167857Y-34249819D02*
X56167857Y-33249819D01*
X56167857Y-33249819D02*
X56072619Y-33392676D01*
X56072619Y-33392676D02*
X55977381Y-33487914D01*
X55977381Y-33487914D02*
X55882143Y-33535533D01*
X57358333Y-33249819D02*
X56882143Y-33249819D01*
X56882143Y-33249819D02*
X56834524Y-33726009D01*
X56834524Y-33726009D02*
X56882143Y-33678390D01*
X56882143Y-33678390D02*
X56977381Y-33630771D01*
X56977381Y-33630771D02*
X57215476Y-33630771D01*
X57215476Y-33630771D02*
X57310714Y-33678390D01*
X57310714Y-33678390D02*
X57358333Y-33726009D01*
X57358333Y-33726009D02*
X57405952Y-33821247D01*
X57405952Y-33821247D02*
X57405952Y-34059342D01*
X57405952Y-34059342D02*
X57358333Y-34154580D01*
X57358333Y-34154580D02*
X57310714Y-34202200D01*
X57310714Y-34202200D02*
X57215476Y-34249819D01*
X57215476Y-34249819D02*
X56977381Y-34249819D01*
X56977381Y-34249819D02*
X56882143Y-34202200D01*
X56882143Y-34202200D02*
X56834524Y-34154580D01*
X119429761Y-27575057D02*
X119334523Y-27527438D01*
X119334523Y-27527438D02*
X119239285Y-27432200D01*
X119239285Y-27432200D02*
X119096428Y-27289342D01*
X119096428Y-27289342D02*
X119001190Y-27241723D01*
X119001190Y-27241723D02*
X118905952Y-27241723D01*
X118953571Y-27479819D02*
X118858333Y-27432200D01*
X118858333Y-27432200D02*
X118763095Y-27336961D01*
X118763095Y-27336961D02*
X118715476Y-27146485D01*
X118715476Y-27146485D02*
X118715476Y-26813152D01*
X118715476Y-26813152D02*
X118763095Y-26622676D01*
X118763095Y-26622676D02*
X118858333Y-26527438D01*
X118858333Y-26527438D02*
X118953571Y-26479819D01*
X118953571Y-26479819D02*
X119144047Y-26479819D01*
X119144047Y-26479819D02*
X119239285Y-26527438D01*
X119239285Y-26527438D02*
X119334523Y-26622676D01*
X119334523Y-26622676D02*
X119382142Y-26813152D01*
X119382142Y-26813152D02*
X119382142Y-27146485D01*
X119382142Y-27146485D02*
X119334523Y-27336961D01*
X119334523Y-27336961D02*
X119239285Y-27432200D01*
X119239285Y-27432200D02*
X119144047Y-27479819D01*
X119144047Y-27479819D02*
X118953571Y-27479819D01*
X120239285Y-26479819D02*
X120048809Y-26479819D01*
X120048809Y-26479819D02*
X119953571Y-26527438D01*
X119953571Y-26527438D02*
X119905952Y-26575057D01*
X119905952Y-26575057D02*
X119810714Y-26717914D01*
X119810714Y-26717914D02*
X119763095Y-26908390D01*
X119763095Y-26908390D02*
X119763095Y-27289342D01*
X119763095Y-27289342D02*
X119810714Y-27384580D01*
X119810714Y-27384580D02*
X119858333Y-27432200D01*
X119858333Y-27432200D02*
X119953571Y-27479819D01*
X119953571Y-27479819D02*
X120144047Y-27479819D01*
X120144047Y-27479819D02*
X120239285Y-27432200D01*
X120239285Y-27432200D02*
X120286904Y-27384580D01*
X120286904Y-27384580D02*
X120334523Y-27289342D01*
X120334523Y-27289342D02*
X120334523Y-27051247D01*
X120334523Y-27051247D02*
X120286904Y-26956009D01*
X120286904Y-26956009D02*
X120239285Y-26908390D01*
X120239285Y-26908390D02*
X120144047Y-26860771D01*
X120144047Y-26860771D02*
X119953571Y-26860771D01*
X119953571Y-26860771D02*
X119858333Y-26908390D01*
X119858333Y-26908390D02*
X119810714Y-26956009D01*
X119810714Y-26956009D02*
X119763095Y-27051247D01*
X116691667Y-34249819D02*
X116691667Y-33249819D01*
X117739285Y-34249819D02*
X117405952Y-33773628D01*
X117167857Y-34249819D02*
X117167857Y-33249819D01*
X117167857Y-33249819D02*
X117548809Y-33249819D01*
X117548809Y-33249819D02*
X117644047Y-33297438D01*
X117644047Y-33297438D02*
X117691666Y-33345057D01*
X117691666Y-33345057D02*
X117739285Y-33440295D01*
X117739285Y-33440295D02*
X117739285Y-33583152D01*
X117739285Y-33583152D02*
X117691666Y-33678390D01*
X117691666Y-33678390D02*
X117644047Y-33726009D01*
X117644047Y-33726009D02*
X117548809Y-33773628D01*
X117548809Y-33773628D02*
X117167857Y-33773628D01*
X118501190Y-33726009D02*
X118167857Y-33726009D01*
X118167857Y-34249819D02*
X118167857Y-33249819D01*
X118167857Y-33249819D02*
X118644047Y-33249819D01*
X119453571Y-33249819D02*
X119263095Y-33249819D01*
X119263095Y-33249819D02*
X119167857Y-33297438D01*
X119167857Y-33297438D02*
X119120238Y-33345057D01*
X119120238Y-33345057D02*
X119025000Y-33487914D01*
X119025000Y-33487914D02*
X118977381Y-33678390D01*
X118977381Y-33678390D02*
X118977381Y-34059342D01*
X118977381Y-34059342D02*
X119025000Y-34154580D01*
X119025000Y-34154580D02*
X119072619Y-34202200D01*
X119072619Y-34202200D02*
X119167857Y-34249819D01*
X119167857Y-34249819D02*
X119358333Y-34249819D01*
X119358333Y-34249819D02*
X119453571Y-34202200D01*
X119453571Y-34202200D02*
X119501190Y-34154580D01*
X119501190Y-34154580D02*
X119548809Y-34059342D01*
X119548809Y-34059342D02*
X119548809Y-33821247D01*
X119548809Y-33821247D02*
X119501190Y-33726009D01*
X119501190Y-33726009D02*
X119453571Y-33678390D01*
X119453571Y-33678390D02*
X119358333Y-33630771D01*
X119358333Y-33630771D02*
X119167857Y-33630771D01*
X119167857Y-33630771D02*
X119072619Y-33678390D01*
X119072619Y-33678390D02*
X119025000Y-33726009D01*
X119025000Y-33726009D02*
X118977381Y-33821247D01*
X119929762Y-33345057D02*
X119977381Y-33297438D01*
X119977381Y-33297438D02*
X120072619Y-33249819D01*
X120072619Y-33249819D02*
X120310714Y-33249819D01*
X120310714Y-33249819D02*
X120405952Y-33297438D01*
X120405952Y-33297438D02*
X120453571Y-33345057D01*
X120453571Y-33345057D02*
X120501190Y-33440295D01*
X120501190Y-33440295D02*
X120501190Y-33535533D01*
X120501190Y-33535533D02*
X120453571Y-33678390D01*
X120453571Y-33678390D02*
X119882143Y-34249819D01*
X119882143Y-34249819D02*
X120501190Y-34249819D01*
X121453571Y-34249819D02*
X120882143Y-34249819D01*
X121167857Y-34249819D02*
X121167857Y-33249819D01*
X121167857Y-33249819D02*
X121072619Y-33392676D01*
X121072619Y-33392676D02*
X120977381Y-33487914D01*
X120977381Y-33487914D02*
X120882143Y-33535533D01*
X122358333Y-33249819D02*
X121882143Y-33249819D01*
X121882143Y-33249819D02*
X121834524Y-33726009D01*
X121834524Y-33726009D02*
X121882143Y-33678390D01*
X121882143Y-33678390D02*
X121977381Y-33630771D01*
X121977381Y-33630771D02*
X122215476Y-33630771D01*
X122215476Y-33630771D02*
X122310714Y-33678390D01*
X122310714Y-33678390D02*
X122358333Y-33726009D01*
X122358333Y-33726009D02*
X122405952Y-33821247D01*
X122405952Y-33821247D02*
X122405952Y-34059342D01*
X122405952Y-34059342D02*
X122358333Y-34154580D01*
X122358333Y-34154580D02*
X122310714Y-34202200D01*
X122310714Y-34202200D02*
X122215476Y-34249819D01*
X122215476Y-34249819D02*
X121977381Y-34249819D01*
X121977381Y-34249819D02*
X121882143Y-34202200D01*
X121882143Y-34202200D02*
X121834524Y-34154580D01*
X41429761Y-27575057D02*
X41334523Y-27527438D01*
X41334523Y-27527438D02*
X41239285Y-27432200D01*
X41239285Y-27432200D02*
X41096428Y-27289342D01*
X41096428Y-27289342D02*
X41001190Y-27241723D01*
X41001190Y-27241723D02*
X40905952Y-27241723D01*
X40953571Y-27479819D02*
X40858333Y-27432200D01*
X40858333Y-27432200D02*
X40763095Y-27336961D01*
X40763095Y-27336961D02*
X40715476Y-27146485D01*
X40715476Y-27146485D02*
X40715476Y-26813152D01*
X40715476Y-26813152D02*
X40763095Y-26622676D01*
X40763095Y-26622676D02*
X40858333Y-26527438D01*
X40858333Y-26527438D02*
X40953571Y-26479819D01*
X40953571Y-26479819D02*
X41144047Y-26479819D01*
X41144047Y-26479819D02*
X41239285Y-26527438D01*
X41239285Y-26527438D02*
X41334523Y-26622676D01*
X41334523Y-26622676D02*
X41382142Y-26813152D01*
X41382142Y-26813152D02*
X41382142Y-27146485D01*
X41382142Y-27146485D02*
X41334523Y-27336961D01*
X41334523Y-27336961D02*
X41239285Y-27432200D01*
X41239285Y-27432200D02*
X41144047Y-27479819D01*
X41144047Y-27479819D02*
X40953571Y-27479819D01*
X42334523Y-27479819D02*
X41763095Y-27479819D01*
X42048809Y-27479819D02*
X42048809Y-26479819D01*
X42048809Y-26479819D02*
X41953571Y-26622676D01*
X41953571Y-26622676D02*
X41858333Y-26717914D01*
X41858333Y-26717914D02*
X41763095Y-26765533D01*
X38691667Y-34249819D02*
X38691667Y-33249819D01*
X39739285Y-34249819D02*
X39405952Y-33773628D01*
X39167857Y-34249819D02*
X39167857Y-33249819D01*
X39167857Y-33249819D02*
X39548809Y-33249819D01*
X39548809Y-33249819D02*
X39644047Y-33297438D01*
X39644047Y-33297438D02*
X39691666Y-33345057D01*
X39691666Y-33345057D02*
X39739285Y-33440295D01*
X39739285Y-33440295D02*
X39739285Y-33583152D01*
X39739285Y-33583152D02*
X39691666Y-33678390D01*
X39691666Y-33678390D02*
X39644047Y-33726009D01*
X39644047Y-33726009D02*
X39548809Y-33773628D01*
X39548809Y-33773628D02*
X39167857Y-33773628D01*
X40501190Y-33726009D02*
X40167857Y-33726009D01*
X40167857Y-34249819D02*
X40167857Y-33249819D01*
X40167857Y-33249819D02*
X40644047Y-33249819D01*
X41453571Y-33249819D02*
X41263095Y-33249819D01*
X41263095Y-33249819D02*
X41167857Y-33297438D01*
X41167857Y-33297438D02*
X41120238Y-33345057D01*
X41120238Y-33345057D02*
X41025000Y-33487914D01*
X41025000Y-33487914D02*
X40977381Y-33678390D01*
X40977381Y-33678390D02*
X40977381Y-34059342D01*
X40977381Y-34059342D02*
X41025000Y-34154580D01*
X41025000Y-34154580D02*
X41072619Y-34202200D01*
X41072619Y-34202200D02*
X41167857Y-34249819D01*
X41167857Y-34249819D02*
X41358333Y-34249819D01*
X41358333Y-34249819D02*
X41453571Y-34202200D01*
X41453571Y-34202200D02*
X41501190Y-34154580D01*
X41501190Y-34154580D02*
X41548809Y-34059342D01*
X41548809Y-34059342D02*
X41548809Y-33821247D01*
X41548809Y-33821247D02*
X41501190Y-33726009D01*
X41501190Y-33726009D02*
X41453571Y-33678390D01*
X41453571Y-33678390D02*
X41358333Y-33630771D01*
X41358333Y-33630771D02*
X41167857Y-33630771D01*
X41167857Y-33630771D02*
X41072619Y-33678390D01*
X41072619Y-33678390D02*
X41025000Y-33726009D01*
X41025000Y-33726009D02*
X40977381Y-33821247D01*
X41929762Y-33345057D02*
X41977381Y-33297438D01*
X41977381Y-33297438D02*
X42072619Y-33249819D01*
X42072619Y-33249819D02*
X42310714Y-33249819D01*
X42310714Y-33249819D02*
X42405952Y-33297438D01*
X42405952Y-33297438D02*
X42453571Y-33345057D01*
X42453571Y-33345057D02*
X42501190Y-33440295D01*
X42501190Y-33440295D02*
X42501190Y-33535533D01*
X42501190Y-33535533D02*
X42453571Y-33678390D01*
X42453571Y-33678390D02*
X41882143Y-34249819D01*
X41882143Y-34249819D02*
X42501190Y-34249819D01*
X43453571Y-34249819D02*
X42882143Y-34249819D01*
X43167857Y-34249819D02*
X43167857Y-33249819D01*
X43167857Y-33249819D02*
X43072619Y-33392676D01*
X43072619Y-33392676D02*
X42977381Y-33487914D01*
X42977381Y-33487914D02*
X42882143Y-33535533D01*
X44358333Y-33249819D02*
X43882143Y-33249819D01*
X43882143Y-33249819D02*
X43834524Y-33726009D01*
X43834524Y-33726009D02*
X43882143Y-33678390D01*
X43882143Y-33678390D02*
X43977381Y-33630771D01*
X43977381Y-33630771D02*
X44215476Y-33630771D01*
X44215476Y-33630771D02*
X44310714Y-33678390D01*
X44310714Y-33678390D02*
X44358333Y-33726009D01*
X44358333Y-33726009D02*
X44405952Y-33821247D01*
X44405952Y-33821247D02*
X44405952Y-34059342D01*
X44405952Y-34059342D02*
X44358333Y-34154580D01*
X44358333Y-34154580D02*
X44310714Y-34202200D01*
X44310714Y-34202200D02*
X44215476Y-34249819D01*
X44215476Y-34249819D02*
X43977381Y-34249819D01*
X43977381Y-34249819D02*
X43882143Y-34202200D01*
X43882143Y-34202200D02*
X43834524Y-34154580D01*
D12*
X177696000Y-35957590D02*
X177696000Y-36501876D01*
X177696000Y-36501876D02*
X177659715Y-36610733D01*
X177659715Y-36610733D02*
X177587143Y-36683305D01*
X177587143Y-36683305D02*
X177478286Y-36719590D01*
X177478286Y-36719590D02*
X177405715Y-36719590D01*
X177986286Y-35957590D02*
X178458000Y-35957590D01*
X178458000Y-35957590D02*
X178204000Y-36247876D01*
X178204000Y-36247876D02*
X178312857Y-36247876D01*
X178312857Y-36247876D02*
X178385429Y-36284162D01*
X178385429Y-36284162D02*
X178421714Y-36320447D01*
X178421714Y-36320447D02*
X178458000Y-36393019D01*
X178458000Y-36393019D02*
X178458000Y-36574447D01*
X178458000Y-36574447D02*
X178421714Y-36647019D01*
X178421714Y-36647019D02*
X178385429Y-36683305D01*
X178385429Y-36683305D02*
X178312857Y-36719590D01*
X178312857Y-36719590D02*
X178095143Y-36719590D01*
X178095143Y-36719590D02*
X178022571Y-36683305D01*
X178022571Y-36683305D02*
X177986286Y-36647019D01*
D11*
X67429761Y-27575057D02*
X67334523Y-27527438D01*
X67334523Y-27527438D02*
X67239285Y-27432200D01*
X67239285Y-27432200D02*
X67096428Y-27289342D01*
X67096428Y-27289342D02*
X67001190Y-27241723D01*
X67001190Y-27241723D02*
X66905952Y-27241723D01*
X66953571Y-27479819D02*
X66858333Y-27432200D01*
X66858333Y-27432200D02*
X66763095Y-27336961D01*
X66763095Y-27336961D02*
X66715476Y-27146485D01*
X66715476Y-27146485D02*
X66715476Y-26813152D01*
X66715476Y-26813152D02*
X66763095Y-26622676D01*
X66763095Y-26622676D02*
X66858333Y-26527438D01*
X66858333Y-26527438D02*
X66953571Y-26479819D01*
X66953571Y-26479819D02*
X67144047Y-26479819D01*
X67144047Y-26479819D02*
X67239285Y-26527438D01*
X67239285Y-26527438D02*
X67334523Y-26622676D01*
X67334523Y-26622676D02*
X67382142Y-26813152D01*
X67382142Y-26813152D02*
X67382142Y-27146485D01*
X67382142Y-27146485D02*
X67334523Y-27336961D01*
X67334523Y-27336961D02*
X67239285Y-27432200D01*
X67239285Y-27432200D02*
X67144047Y-27479819D01*
X67144047Y-27479819D02*
X66953571Y-27479819D01*
X67715476Y-26479819D02*
X68334523Y-26479819D01*
X68334523Y-26479819D02*
X68001190Y-26860771D01*
X68001190Y-26860771D02*
X68144047Y-26860771D01*
X68144047Y-26860771D02*
X68239285Y-26908390D01*
X68239285Y-26908390D02*
X68286904Y-26956009D01*
X68286904Y-26956009D02*
X68334523Y-27051247D01*
X68334523Y-27051247D02*
X68334523Y-27289342D01*
X68334523Y-27289342D02*
X68286904Y-27384580D01*
X68286904Y-27384580D02*
X68239285Y-27432200D01*
X68239285Y-27432200D02*
X68144047Y-27479819D01*
X68144047Y-27479819D02*
X67858333Y-27479819D01*
X67858333Y-27479819D02*
X67763095Y-27432200D01*
X67763095Y-27432200D02*
X67715476Y-27384580D01*
X64691667Y-34249819D02*
X64691667Y-33249819D01*
X65739285Y-34249819D02*
X65405952Y-33773628D01*
X65167857Y-34249819D02*
X65167857Y-33249819D01*
X65167857Y-33249819D02*
X65548809Y-33249819D01*
X65548809Y-33249819D02*
X65644047Y-33297438D01*
X65644047Y-33297438D02*
X65691666Y-33345057D01*
X65691666Y-33345057D02*
X65739285Y-33440295D01*
X65739285Y-33440295D02*
X65739285Y-33583152D01*
X65739285Y-33583152D02*
X65691666Y-33678390D01*
X65691666Y-33678390D02*
X65644047Y-33726009D01*
X65644047Y-33726009D02*
X65548809Y-33773628D01*
X65548809Y-33773628D02*
X65167857Y-33773628D01*
X66501190Y-33726009D02*
X66167857Y-33726009D01*
X66167857Y-34249819D02*
X66167857Y-33249819D01*
X66167857Y-33249819D02*
X66644047Y-33249819D01*
X67453571Y-33249819D02*
X67263095Y-33249819D01*
X67263095Y-33249819D02*
X67167857Y-33297438D01*
X67167857Y-33297438D02*
X67120238Y-33345057D01*
X67120238Y-33345057D02*
X67025000Y-33487914D01*
X67025000Y-33487914D02*
X66977381Y-33678390D01*
X66977381Y-33678390D02*
X66977381Y-34059342D01*
X66977381Y-34059342D02*
X67025000Y-34154580D01*
X67025000Y-34154580D02*
X67072619Y-34202200D01*
X67072619Y-34202200D02*
X67167857Y-34249819D01*
X67167857Y-34249819D02*
X67358333Y-34249819D01*
X67358333Y-34249819D02*
X67453571Y-34202200D01*
X67453571Y-34202200D02*
X67501190Y-34154580D01*
X67501190Y-34154580D02*
X67548809Y-34059342D01*
X67548809Y-34059342D02*
X67548809Y-33821247D01*
X67548809Y-33821247D02*
X67501190Y-33726009D01*
X67501190Y-33726009D02*
X67453571Y-33678390D01*
X67453571Y-33678390D02*
X67358333Y-33630771D01*
X67358333Y-33630771D02*
X67167857Y-33630771D01*
X67167857Y-33630771D02*
X67072619Y-33678390D01*
X67072619Y-33678390D02*
X67025000Y-33726009D01*
X67025000Y-33726009D02*
X66977381Y-33821247D01*
X67929762Y-33345057D02*
X67977381Y-33297438D01*
X67977381Y-33297438D02*
X68072619Y-33249819D01*
X68072619Y-33249819D02*
X68310714Y-33249819D01*
X68310714Y-33249819D02*
X68405952Y-33297438D01*
X68405952Y-33297438D02*
X68453571Y-33345057D01*
X68453571Y-33345057D02*
X68501190Y-33440295D01*
X68501190Y-33440295D02*
X68501190Y-33535533D01*
X68501190Y-33535533D02*
X68453571Y-33678390D01*
X68453571Y-33678390D02*
X67882143Y-34249819D01*
X67882143Y-34249819D02*
X68501190Y-34249819D01*
X69453571Y-34249819D02*
X68882143Y-34249819D01*
X69167857Y-34249819D02*
X69167857Y-33249819D01*
X69167857Y-33249819D02*
X69072619Y-33392676D01*
X69072619Y-33392676D02*
X68977381Y-33487914D01*
X68977381Y-33487914D02*
X68882143Y-33535533D01*
X70358333Y-33249819D02*
X69882143Y-33249819D01*
X69882143Y-33249819D02*
X69834524Y-33726009D01*
X69834524Y-33726009D02*
X69882143Y-33678390D01*
X69882143Y-33678390D02*
X69977381Y-33630771D01*
X69977381Y-33630771D02*
X70215476Y-33630771D01*
X70215476Y-33630771D02*
X70310714Y-33678390D01*
X70310714Y-33678390D02*
X70358333Y-33726009D01*
X70358333Y-33726009D02*
X70405952Y-33821247D01*
X70405952Y-33821247D02*
X70405952Y-34059342D01*
X70405952Y-34059342D02*
X70358333Y-34154580D01*
X70358333Y-34154580D02*
X70310714Y-34202200D01*
X70310714Y-34202200D02*
X70215476Y-34249819D01*
X70215476Y-34249819D02*
X69977381Y-34249819D01*
X69977381Y-34249819D02*
X69882143Y-34202200D01*
X69882143Y-34202200D02*
X69834524Y-34154580D01*
X164516666Y-32499819D02*
X164516666Y-33214104D01*
X164516666Y-33214104D02*
X164469047Y-33356961D01*
X164469047Y-33356961D02*
X164373809Y-33452200D01*
X164373809Y-33452200D02*
X164230952Y-33499819D01*
X164230952Y-33499819D02*
X164135714Y-33499819D01*
X165516666Y-33499819D02*
X164945238Y-33499819D01*
X165230952Y-33499819D02*
X165230952Y-32499819D01*
X165230952Y-32499819D02*
X165135714Y-32642676D01*
X165135714Y-32642676D02*
X165040476Y-32737914D01*
X165040476Y-32737914D02*
X164945238Y-32785533D01*
X162477380Y-37902438D02*
X162382142Y-37854819D01*
X162382142Y-37854819D02*
X162239285Y-37854819D01*
X162239285Y-37854819D02*
X162096428Y-37902438D01*
X162096428Y-37902438D02*
X162001190Y-37997676D01*
X162001190Y-37997676D02*
X161953571Y-38092914D01*
X161953571Y-38092914D02*
X161905952Y-38283390D01*
X161905952Y-38283390D02*
X161905952Y-38426247D01*
X161905952Y-38426247D02*
X161953571Y-38616723D01*
X161953571Y-38616723D02*
X162001190Y-38711961D01*
X162001190Y-38711961D02*
X162096428Y-38807200D01*
X162096428Y-38807200D02*
X162239285Y-38854819D01*
X162239285Y-38854819D02*
X162334523Y-38854819D01*
X162334523Y-38854819D02*
X162477380Y-38807200D01*
X162477380Y-38807200D02*
X162524999Y-38759580D01*
X162524999Y-38759580D02*
X162524999Y-38426247D01*
X162524999Y-38426247D02*
X162334523Y-38426247D01*
X163382142Y-38854819D02*
X163382142Y-38331009D01*
X163382142Y-38331009D02*
X163334523Y-38235771D01*
X163334523Y-38235771D02*
X163239285Y-38188152D01*
X163239285Y-38188152D02*
X163048809Y-38188152D01*
X163048809Y-38188152D02*
X162953571Y-38235771D01*
X163382142Y-38807200D02*
X163286904Y-38854819D01*
X163286904Y-38854819D02*
X163048809Y-38854819D01*
X163048809Y-38854819D02*
X162953571Y-38807200D01*
X162953571Y-38807200D02*
X162905952Y-38711961D01*
X162905952Y-38711961D02*
X162905952Y-38616723D01*
X162905952Y-38616723D02*
X162953571Y-38521485D01*
X162953571Y-38521485D02*
X163048809Y-38473866D01*
X163048809Y-38473866D02*
X163286904Y-38473866D01*
X163286904Y-38473866D02*
X163382142Y-38426247D01*
X163715476Y-38188152D02*
X164096428Y-38188152D01*
X163858333Y-37854819D02*
X163858333Y-38711961D01*
X163858333Y-38711961D02*
X163905952Y-38807200D01*
X163905952Y-38807200D02*
X164001190Y-38854819D01*
X164001190Y-38854819D02*
X164096428Y-38854819D01*
X164810714Y-38807200D02*
X164715476Y-38854819D01*
X164715476Y-38854819D02*
X164525000Y-38854819D01*
X164525000Y-38854819D02*
X164429762Y-38807200D01*
X164429762Y-38807200D02*
X164382143Y-38711961D01*
X164382143Y-38711961D02*
X164382143Y-38331009D01*
X164382143Y-38331009D02*
X164429762Y-38235771D01*
X164429762Y-38235771D02*
X164525000Y-38188152D01*
X164525000Y-38188152D02*
X164715476Y-38188152D01*
X164715476Y-38188152D02*
X164810714Y-38235771D01*
X164810714Y-38235771D02*
X164858333Y-38331009D01*
X164858333Y-38331009D02*
X164858333Y-38426247D01*
X164858333Y-38426247D02*
X164382143Y-38521485D01*
X166239286Y-37854819D02*
X166429762Y-37854819D01*
X166429762Y-37854819D02*
X166525000Y-37902438D01*
X166525000Y-37902438D02*
X166620238Y-37997676D01*
X166620238Y-37997676D02*
X166667857Y-38188152D01*
X166667857Y-38188152D02*
X166667857Y-38521485D01*
X166667857Y-38521485D02*
X166620238Y-38711961D01*
X166620238Y-38711961D02*
X166525000Y-38807200D01*
X166525000Y-38807200D02*
X166429762Y-38854819D01*
X166429762Y-38854819D02*
X166239286Y-38854819D01*
X166239286Y-38854819D02*
X166144048Y-38807200D01*
X166144048Y-38807200D02*
X166048810Y-38711961D01*
X166048810Y-38711961D02*
X166001191Y-38521485D01*
X166001191Y-38521485D02*
X166001191Y-38188152D01*
X166001191Y-38188152D02*
X166048810Y-37997676D01*
X166048810Y-37997676D02*
X166144048Y-37902438D01*
X166144048Y-37902438D02*
X166239286Y-37854819D01*
X167525000Y-38188152D02*
X167525000Y-38854819D01*
X167096429Y-38188152D02*
X167096429Y-38711961D01*
X167096429Y-38711961D02*
X167144048Y-38807200D01*
X167144048Y-38807200D02*
X167239286Y-38854819D01*
X167239286Y-38854819D02*
X167382143Y-38854819D01*
X167382143Y-38854819D02*
X167477381Y-38807200D01*
X167477381Y-38807200D02*
X167525000Y-38759580D01*
X167858334Y-38188152D02*
X168239286Y-38188152D01*
X168001191Y-37854819D02*
X168001191Y-38711961D01*
X168001191Y-38711961D02*
X168048810Y-38807200D01*
X168048810Y-38807200D02*
X168144048Y-38854819D01*
X168144048Y-38854819D02*
X168239286Y-38854819D01*
X132429761Y-27575057D02*
X132334523Y-27527438D01*
X132334523Y-27527438D02*
X132239285Y-27432200D01*
X132239285Y-27432200D02*
X132096428Y-27289342D01*
X132096428Y-27289342D02*
X132001190Y-27241723D01*
X132001190Y-27241723D02*
X131905952Y-27241723D01*
X131953571Y-27479819D02*
X131858333Y-27432200D01*
X131858333Y-27432200D02*
X131763095Y-27336961D01*
X131763095Y-27336961D02*
X131715476Y-27146485D01*
X131715476Y-27146485D02*
X131715476Y-26813152D01*
X131715476Y-26813152D02*
X131763095Y-26622676D01*
X131763095Y-26622676D02*
X131858333Y-26527438D01*
X131858333Y-26527438D02*
X131953571Y-26479819D01*
X131953571Y-26479819D02*
X132144047Y-26479819D01*
X132144047Y-26479819D02*
X132239285Y-26527438D01*
X132239285Y-26527438D02*
X132334523Y-26622676D01*
X132334523Y-26622676D02*
X132382142Y-26813152D01*
X132382142Y-26813152D02*
X132382142Y-27146485D01*
X132382142Y-27146485D02*
X132334523Y-27336961D01*
X132334523Y-27336961D02*
X132239285Y-27432200D01*
X132239285Y-27432200D02*
X132144047Y-27479819D01*
X132144047Y-27479819D02*
X131953571Y-27479819D01*
X132715476Y-26479819D02*
X133382142Y-26479819D01*
X133382142Y-26479819D02*
X132953571Y-27479819D01*
X129691667Y-34249819D02*
X129691667Y-33249819D01*
X130739285Y-34249819D02*
X130405952Y-33773628D01*
X130167857Y-34249819D02*
X130167857Y-33249819D01*
X130167857Y-33249819D02*
X130548809Y-33249819D01*
X130548809Y-33249819D02*
X130644047Y-33297438D01*
X130644047Y-33297438D02*
X130691666Y-33345057D01*
X130691666Y-33345057D02*
X130739285Y-33440295D01*
X130739285Y-33440295D02*
X130739285Y-33583152D01*
X130739285Y-33583152D02*
X130691666Y-33678390D01*
X130691666Y-33678390D02*
X130644047Y-33726009D01*
X130644047Y-33726009D02*
X130548809Y-33773628D01*
X130548809Y-33773628D02*
X130167857Y-33773628D01*
X131501190Y-33726009D02*
X131167857Y-33726009D01*
X131167857Y-34249819D02*
X131167857Y-33249819D01*
X131167857Y-33249819D02*
X131644047Y-33249819D01*
X132453571Y-33249819D02*
X132263095Y-33249819D01*
X132263095Y-33249819D02*
X132167857Y-33297438D01*
X132167857Y-33297438D02*
X132120238Y-33345057D01*
X132120238Y-33345057D02*
X132025000Y-33487914D01*
X132025000Y-33487914D02*
X131977381Y-33678390D01*
X131977381Y-33678390D02*
X131977381Y-34059342D01*
X131977381Y-34059342D02*
X132025000Y-34154580D01*
X132025000Y-34154580D02*
X132072619Y-34202200D01*
X132072619Y-34202200D02*
X132167857Y-34249819D01*
X132167857Y-34249819D02*
X132358333Y-34249819D01*
X132358333Y-34249819D02*
X132453571Y-34202200D01*
X132453571Y-34202200D02*
X132501190Y-34154580D01*
X132501190Y-34154580D02*
X132548809Y-34059342D01*
X132548809Y-34059342D02*
X132548809Y-33821247D01*
X132548809Y-33821247D02*
X132501190Y-33726009D01*
X132501190Y-33726009D02*
X132453571Y-33678390D01*
X132453571Y-33678390D02*
X132358333Y-33630771D01*
X132358333Y-33630771D02*
X132167857Y-33630771D01*
X132167857Y-33630771D02*
X132072619Y-33678390D01*
X132072619Y-33678390D02*
X132025000Y-33726009D01*
X132025000Y-33726009D02*
X131977381Y-33821247D01*
X132929762Y-33345057D02*
X132977381Y-33297438D01*
X132977381Y-33297438D02*
X133072619Y-33249819D01*
X133072619Y-33249819D02*
X133310714Y-33249819D01*
X133310714Y-33249819D02*
X133405952Y-33297438D01*
X133405952Y-33297438D02*
X133453571Y-33345057D01*
X133453571Y-33345057D02*
X133501190Y-33440295D01*
X133501190Y-33440295D02*
X133501190Y-33535533D01*
X133501190Y-33535533D02*
X133453571Y-33678390D01*
X133453571Y-33678390D02*
X132882143Y-34249819D01*
X132882143Y-34249819D02*
X133501190Y-34249819D01*
X134453571Y-34249819D02*
X133882143Y-34249819D01*
X134167857Y-34249819D02*
X134167857Y-33249819D01*
X134167857Y-33249819D02*
X134072619Y-33392676D01*
X134072619Y-33392676D02*
X133977381Y-33487914D01*
X133977381Y-33487914D02*
X133882143Y-33535533D01*
X135358333Y-33249819D02*
X134882143Y-33249819D01*
X134882143Y-33249819D02*
X134834524Y-33726009D01*
X134834524Y-33726009D02*
X134882143Y-33678390D01*
X134882143Y-33678390D02*
X134977381Y-33630771D01*
X134977381Y-33630771D02*
X135215476Y-33630771D01*
X135215476Y-33630771D02*
X135310714Y-33678390D01*
X135310714Y-33678390D02*
X135358333Y-33726009D01*
X135358333Y-33726009D02*
X135405952Y-33821247D01*
X135405952Y-33821247D02*
X135405952Y-34059342D01*
X135405952Y-34059342D02*
X135358333Y-34154580D01*
X135358333Y-34154580D02*
X135310714Y-34202200D01*
X135310714Y-34202200D02*
X135215476Y-34249819D01*
X135215476Y-34249819D02*
X134977381Y-34249819D01*
X134977381Y-34249819D02*
X134882143Y-34202200D01*
X134882143Y-34202200D02*
X134834524Y-34154580D01*
X106429761Y-27575057D02*
X106334523Y-27527438D01*
X106334523Y-27527438D02*
X106239285Y-27432200D01*
X106239285Y-27432200D02*
X106096428Y-27289342D01*
X106096428Y-27289342D02*
X106001190Y-27241723D01*
X106001190Y-27241723D02*
X105905952Y-27241723D01*
X105953571Y-27479819D02*
X105858333Y-27432200D01*
X105858333Y-27432200D02*
X105763095Y-27336961D01*
X105763095Y-27336961D02*
X105715476Y-27146485D01*
X105715476Y-27146485D02*
X105715476Y-26813152D01*
X105715476Y-26813152D02*
X105763095Y-26622676D01*
X105763095Y-26622676D02*
X105858333Y-26527438D01*
X105858333Y-26527438D02*
X105953571Y-26479819D01*
X105953571Y-26479819D02*
X106144047Y-26479819D01*
X106144047Y-26479819D02*
X106239285Y-26527438D01*
X106239285Y-26527438D02*
X106334523Y-26622676D01*
X106334523Y-26622676D02*
X106382142Y-26813152D01*
X106382142Y-26813152D02*
X106382142Y-27146485D01*
X106382142Y-27146485D02*
X106334523Y-27336961D01*
X106334523Y-27336961D02*
X106239285Y-27432200D01*
X106239285Y-27432200D02*
X106144047Y-27479819D01*
X106144047Y-27479819D02*
X105953571Y-27479819D01*
X107286904Y-26479819D02*
X106810714Y-26479819D01*
X106810714Y-26479819D02*
X106763095Y-26956009D01*
X106763095Y-26956009D02*
X106810714Y-26908390D01*
X106810714Y-26908390D02*
X106905952Y-26860771D01*
X106905952Y-26860771D02*
X107144047Y-26860771D01*
X107144047Y-26860771D02*
X107239285Y-26908390D01*
X107239285Y-26908390D02*
X107286904Y-26956009D01*
X107286904Y-26956009D02*
X107334523Y-27051247D01*
X107334523Y-27051247D02*
X107334523Y-27289342D01*
X107334523Y-27289342D02*
X107286904Y-27384580D01*
X107286904Y-27384580D02*
X107239285Y-27432200D01*
X107239285Y-27432200D02*
X107144047Y-27479819D01*
X107144047Y-27479819D02*
X106905952Y-27479819D01*
X106905952Y-27479819D02*
X106810714Y-27432200D01*
X106810714Y-27432200D02*
X106763095Y-27384580D01*
X103691667Y-34249819D02*
X103691667Y-33249819D01*
X104739285Y-34249819D02*
X104405952Y-33773628D01*
X104167857Y-34249819D02*
X104167857Y-33249819D01*
X104167857Y-33249819D02*
X104548809Y-33249819D01*
X104548809Y-33249819D02*
X104644047Y-33297438D01*
X104644047Y-33297438D02*
X104691666Y-33345057D01*
X104691666Y-33345057D02*
X104739285Y-33440295D01*
X104739285Y-33440295D02*
X104739285Y-33583152D01*
X104739285Y-33583152D02*
X104691666Y-33678390D01*
X104691666Y-33678390D02*
X104644047Y-33726009D01*
X104644047Y-33726009D02*
X104548809Y-33773628D01*
X104548809Y-33773628D02*
X104167857Y-33773628D01*
X105501190Y-33726009D02*
X105167857Y-33726009D01*
X105167857Y-34249819D02*
X105167857Y-33249819D01*
X105167857Y-33249819D02*
X105644047Y-33249819D01*
X106453571Y-33249819D02*
X106263095Y-33249819D01*
X106263095Y-33249819D02*
X106167857Y-33297438D01*
X106167857Y-33297438D02*
X106120238Y-33345057D01*
X106120238Y-33345057D02*
X106025000Y-33487914D01*
X106025000Y-33487914D02*
X105977381Y-33678390D01*
X105977381Y-33678390D02*
X105977381Y-34059342D01*
X105977381Y-34059342D02*
X106025000Y-34154580D01*
X106025000Y-34154580D02*
X106072619Y-34202200D01*
X106072619Y-34202200D02*
X106167857Y-34249819D01*
X106167857Y-34249819D02*
X106358333Y-34249819D01*
X106358333Y-34249819D02*
X106453571Y-34202200D01*
X106453571Y-34202200D02*
X106501190Y-34154580D01*
X106501190Y-34154580D02*
X106548809Y-34059342D01*
X106548809Y-34059342D02*
X106548809Y-33821247D01*
X106548809Y-33821247D02*
X106501190Y-33726009D01*
X106501190Y-33726009D02*
X106453571Y-33678390D01*
X106453571Y-33678390D02*
X106358333Y-33630771D01*
X106358333Y-33630771D02*
X106167857Y-33630771D01*
X106167857Y-33630771D02*
X106072619Y-33678390D01*
X106072619Y-33678390D02*
X106025000Y-33726009D01*
X106025000Y-33726009D02*
X105977381Y-33821247D01*
X106929762Y-33345057D02*
X106977381Y-33297438D01*
X106977381Y-33297438D02*
X107072619Y-33249819D01*
X107072619Y-33249819D02*
X107310714Y-33249819D01*
X107310714Y-33249819D02*
X107405952Y-33297438D01*
X107405952Y-33297438D02*
X107453571Y-33345057D01*
X107453571Y-33345057D02*
X107501190Y-33440295D01*
X107501190Y-33440295D02*
X107501190Y-33535533D01*
X107501190Y-33535533D02*
X107453571Y-33678390D01*
X107453571Y-33678390D02*
X106882143Y-34249819D01*
X106882143Y-34249819D02*
X107501190Y-34249819D01*
X108453571Y-34249819D02*
X107882143Y-34249819D01*
X108167857Y-34249819D02*
X108167857Y-33249819D01*
X108167857Y-33249819D02*
X108072619Y-33392676D01*
X108072619Y-33392676D02*
X107977381Y-33487914D01*
X107977381Y-33487914D02*
X107882143Y-33535533D01*
X109358333Y-33249819D02*
X108882143Y-33249819D01*
X108882143Y-33249819D02*
X108834524Y-33726009D01*
X108834524Y-33726009D02*
X108882143Y-33678390D01*
X108882143Y-33678390D02*
X108977381Y-33630771D01*
X108977381Y-33630771D02*
X109215476Y-33630771D01*
X109215476Y-33630771D02*
X109310714Y-33678390D01*
X109310714Y-33678390D02*
X109358333Y-33726009D01*
X109358333Y-33726009D02*
X109405952Y-33821247D01*
X109405952Y-33821247D02*
X109405952Y-34059342D01*
X109405952Y-34059342D02*
X109358333Y-34154580D01*
X109358333Y-34154580D02*
X109310714Y-34202200D01*
X109310714Y-34202200D02*
X109215476Y-34249819D01*
X109215476Y-34249819D02*
X108977381Y-34249819D01*
X108977381Y-34249819D02*
X108882143Y-34202200D01*
X108882143Y-34202200D02*
X108834524Y-34154580D01*
%TO.C,Q4*%
D13*
X75405000Y-28025000D02*
X75405000Y-32666000D01*
X75405000Y-28025000D02*
X85645000Y-28025000D01*
X75405000Y-29535000D02*
X85645000Y-29535000D01*
X75405000Y-32666000D02*
X85645000Y-32666000D01*
X78675000Y-28025000D02*
X78675000Y-29535000D01*
X82376000Y-28025000D02*
X82376000Y-29535000D01*
X85645000Y-28025000D02*
X85645000Y-32666000D01*
%TO.C,Q8*%
X140405000Y-28025000D02*
X140405000Y-32666000D01*
X140405000Y-28025000D02*
X150645000Y-28025000D01*
X140405000Y-29535000D02*
X150645000Y-29535000D01*
X140405000Y-32666000D02*
X150645000Y-32666000D01*
X143675000Y-28025000D02*
X143675000Y-29535000D01*
X147376000Y-28025000D02*
X147376000Y-29535000D01*
X150645000Y-28025000D02*
X150645000Y-32666000D01*
%TO.C,J2*%
D12*
X24230000Y-40505000D02*
X26770000Y-40505000D01*
X24230000Y-43045000D02*
X24230000Y-40505000D01*
X26770000Y-40505000D02*
X26770000Y-43045000D01*
X26770000Y-43045000D02*
X24230000Y-43045000D01*
%TO.C,Q2*%
D13*
X49405000Y-28025000D02*
X49405000Y-32666000D01*
X49405000Y-28025000D02*
X59645000Y-28025000D01*
X49405000Y-29535000D02*
X59645000Y-29535000D01*
X49405000Y-32666000D02*
X59645000Y-32666000D01*
X52675000Y-28025000D02*
X52675000Y-29535000D01*
X56376000Y-28025000D02*
X56376000Y-29535000D01*
X59645000Y-28025000D02*
X59645000Y-32666000D01*
%TO.C,Q6*%
X114405000Y-28025000D02*
X114405000Y-32666000D01*
X114405000Y-28025000D02*
X124645000Y-28025000D01*
X114405000Y-29535000D02*
X124645000Y-29535000D01*
X114405000Y-32666000D02*
X124645000Y-32666000D01*
X117675000Y-28025000D02*
X117675000Y-29535000D01*
X121376000Y-28025000D02*
X121376000Y-29535000D01*
X124645000Y-28025000D02*
X124645000Y-32666000D01*
%TO.C,Q1*%
X36405000Y-28025000D02*
X36405000Y-32666000D01*
X36405000Y-28025000D02*
X46645000Y-28025000D01*
X36405000Y-29535000D02*
X46645000Y-29535000D01*
X36405000Y-32666000D02*
X46645000Y-32666000D01*
X39675000Y-28025000D02*
X39675000Y-29535000D01*
X43376000Y-28025000D02*
X43376000Y-29535000D01*
X46645000Y-28025000D02*
X46645000Y-32666000D01*
%TO.C,J3*%
D12*
X176830000Y-40505000D02*
X179370000Y-40505000D01*
X176830000Y-43045000D02*
X176830000Y-40505000D01*
X179370000Y-40505000D02*
X179370000Y-43045000D01*
X179370000Y-43045000D02*
X176830000Y-43045000D01*
%TO.C,Q3*%
D13*
X62405000Y-28025000D02*
X62405000Y-32666000D01*
X62405000Y-28025000D02*
X72645000Y-28025000D01*
X62405000Y-29535000D02*
X72645000Y-29535000D01*
X62405000Y-32666000D02*
X72645000Y-32666000D01*
X65675000Y-28025000D02*
X65675000Y-29535000D01*
X69376000Y-28025000D02*
X69376000Y-29535000D01*
X72645000Y-28025000D02*
X72645000Y-32666000D01*
%TO.C,J1*%
X163520000Y-34045000D02*
X164850000Y-34045000D01*
X163520000Y-35375000D02*
X163520000Y-34045000D01*
X163520000Y-36645000D02*
X163520000Y-36705000D01*
X163520000Y-36645000D02*
X166180000Y-36645000D01*
X163520000Y-36705000D02*
X166180000Y-36705000D01*
X166180000Y-36645000D02*
X166180000Y-36705000D01*
%TO.C,Q7*%
X127405000Y-28025000D02*
X127405000Y-32666000D01*
X127405000Y-28025000D02*
X137645000Y-28025000D01*
X127405000Y-29535000D02*
X137645000Y-29535000D01*
X127405000Y-32666000D02*
X137645000Y-32666000D01*
X130675000Y-28025000D02*
X130675000Y-29535000D01*
X134376000Y-28025000D02*
X134376000Y-29535000D01*
X137645000Y-28025000D02*
X137645000Y-32666000D01*
%TO.C,Q5*%
X101405000Y-28025000D02*
X101405000Y-32666000D01*
X101405000Y-28025000D02*
X111645000Y-28025000D01*
X101405000Y-29535000D02*
X111645000Y-29535000D01*
X101405000Y-32666000D02*
X111645000Y-32666000D01*
X104675000Y-28025000D02*
X104675000Y-29535000D01*
X108376000Y-28025000D02*
X108376000Y-29535000D01*
X111645000Y-28025000D02*
X111645000Y-32666000D01*
%TD*%
M02*
