%TF.GenerationSoftware,KiCad,Pcbnew,8.0.5*%
%TF.CreationDate,2024-10-21T21:01:05+13:00*%
%TF.ProjectId,PPM Amplifier,50504d20-416d-4706-9c69-666965722e6b,1.0*%
%TF.SameCoordinates,Original*%
%TF.FileFunction,Copper,L2,Bot*%
%TF.FilePolarity,Positive*%
%FSLAX46Y46*%
G04 Gerber Fmt 4.6, Leading zero omitted, Abs format (unit mm)*
G04 Created by KiCad (PCBNEW 8.0.5) date 2024-10-21 21:01:05*
%MOMM*%
%LPD*%
G01*
G04 APERTURE LIST*
%TA.AperFunction,ComponentPad*%
%ADD10R,2.200000X2.200000*%
%TD*%
%TA.AperFunction,ComponentPad*%
%ADD11O,2.200000X2.200000*%
%TD*%
%TA.AperFunction,ComponentPad*%
%ADD12R,1.700000X1.700000*%
%TD*%
%TA.AperFunction,ComponentPad*%
%ADD13O,1.700000X1.700000*%
%TD*%
%TA.AperFunction,ComponentPad*%
%ADD14C,1.524000*%
%TD*%
%TA.AperFunction,ComponentPad*%
%ADD15R,2.400000X1.600000*%
%TD*%
%TA.AperFunction,ComponentPad*%
%ADD16O,2.400000X1.600000*%
%TD*%
%TA.AperFunction,ViaPad*%
%ADD17C,0.600000*%
%TD*%
%TA.AperFunction,Conductor*%
%ADD18C,0.400000*%
%TD*%
G04 APERTURE END LIST*
D10*
%TO.P,D1,1,K*%
%TO.N,Net-(D1-K)*%
X135625000Y-27350000D03*
D11*
%TO.P,D1,2,A*%
%TO.N,Net-(D1-A)*%
X128005000Y-27350000D03*
%TD*%
D12*
%TO.P,J2,1,Pin_1*%
%TO.N,Net-(J2-Pin_1)*%
X32320000Y-39497500D03*
D13*
%TO.P,J2,2,Pin_2*%
%TO.N,GND*%
X32320000Y-42037500D03*
%TO.P,J2,3,Pin_3*%
%TO.N,Net-(J2-Pin_3)*%
X32320000Y-44577500D03*
%TD*%
D12*
%TO.P,J6,1,Pin_1*%
%TO.N,Net-(J6-Pin_1)*%
X119500000Y-71475000D03*
D13*
%TO.P,J6,2,Pin_2*%
%TO.N,GND*%
X122040000Y-71475000D03*
%TD*%
D10*
%TO.P,D2,1,K*%
%TO.N,Net-(D1-K)*%
X139905000Y-27350000D03*
D11*
%TO.P,D2,2,A*%
%TO.N,Net-(D2-A)*%
X147525000Y-27350000D03*
%TD*%
D14*
%TO.P,T1,1,AA*%
%TO.N,Net-(J3-Pin_1)*%
X84825000Y-38250000D03*
%TO.P,T1,2,PM*%
%TO.N,unconnected-(T1-PM-Pad2)*%
X84925000Y-40750000D03*
%TO.P,T1,3,AB*%
%TO.N,GND*%
X84825000Y-43250000D03*
%TO.P,T1,4,6*%
%TO.N,Net-(T1-6)*%
X97025000Y-43250000D03*
%TO.P,T1,5,PB*%
%TO.N,GND*%
X97025000Y-40750000D03*
%TO.P,T1,6,SB*%
%TO.N,Net-(J4-Pin_2)*%
X97025000Y-38150000D03*
%TD*%
D15*
%TO.P,U3,1,NC*%
%TO.N,unconnected-(U3-NC-Pad1)*%
X134155000Y-38375000D03*
D16*
%TO.P,U3,2,-*%
%TO.N,Net-(D1-A)*%
X134155000Y-40915000D03*
%TO.P,U3,3,+*%
%TO.N,GND*%
X134155000Y-43455000D03*
%TO.P,U3,4,V-*%
%TO.N,-12V*%
X134155000Y-45995000D03*
%TO.P,U3,5,NC*%
%TO.N,unconnected-(U3-NC-Pad5)*%
X141775000Y-45995000D03*
%TO.P,U3,6*%
%TO.N,Net-(D2-A)*%
X141775000Y-43455000D03*
%TO.P,U3,7,V+*%
%TO.N,+12V*%
X141775000Y-40915000D03*
%TO.P,U3,8,NC*%
%TO.N,unconnected-(U3-NC-Pad8)*%
X141775000Y-38375000D03*
%TD*%
D12*
%TO.P,J4,1,Pin_1*%
%TO.N,GND*%
X101400000Y-26925000D03*
D13*
%TO.P,J4,2,Pin_2*%
%TO.N,Net-(J4-Pin_2)*%
X98860000Y-26925000D03*
%TD*%
D12*
%TO.P,J5,1,Pin_1*%
%TO.N,Net-(J5-Pin_1)*%
X121675000Y-41350000D03*
D13*
%TO.P,J5,2,Pin_2*%
%TO.N,GND*%
X124215000Y-41350000D03*
%TD*%
D12*
%TO.P,J1,1,Pin_1*%
%TO.N,-12V*%
X94235000Y-71610000D03*
D13*
%TO.P,J1,2,Pin_2*%
%TO.N,GND*%
X96775000Y-71610000D03*
%TO.P,J1,3,Pin_3*%
%TO.N,+12V*%
X99315000Y-71610000D03*
%TD*%
D12*
%TO.P,J3,1,Pin_1*%
%TO.N,Net-(J3-Pin_1)*%
X85025000Y-27100000D03*
D13*
%TO.P,J3,2,Pin_2*%
%TO.N,GND*%
X87565000Y-27100000D03*
%TD*%
D12*
%TO.P,P2,1,VCC*%
%TO.N,Net-(D2-A)*%
X153375000Y-42550000D03*
D13*
%TO.P,P2,2,GND*%
%TO.N,GND*%
X153375000Y-45090000D03*
%TD*%
D17*
%TO.N,+12V*%
X79325000Y-41675000D03*
X81150000Y-48450000D03*
%TO.N,GND*%
X112412500Y-45262500D03*
%TO.N,-12V*%
X109275000Y-48975000D03*
X108200000Y-45150000D03*
X96875000Y-53600000D03*
X99750000Y-45825000D03*
%TO.N,Net-(T1-6)*%
X102000000Y-39875000D03*
X99700000Y-42175000D03*
%TD*%
D18*
%TO.N,+12V*%
X81150000Y-48450000D02*
X81150000Y-43500000D01*
X81150000Y-43500000D02*
X79325000Y-41675000D01*
%TO.N,-12V*%
X96875000Y-48700000D02*
X99750000Y-45825000D01*
X96875000Y-53600000D02*
X96875000Y-48700000D01*
X109275000Y-46225000D02*
X108200000Y-45150000D01*
X109275000Y-48975000D02*
X109275000Y-46225000D01*
%TO.N,Net-(T1-6)*%
X99700000Y-42175000D02*
X102000000Y-39875000D01*
%TD*%
%TA.AperFunction,Conductor*%
%TO.N,GND*%
G36*
X159026304Y-20124697D02*
G01*
X159093295Y-20144546D01*
X159138920Y-20197462D01*
X159150000Y-20248697D01*
X159150000Y-76626140D01*
X159130315Y-76693179D01*
X159077511Y-76738934D01*
X159026140Y-76750140D01*
X26873381Y-76899860D01*
X26806320Y-76880251D01*
X26760505Y-76827499D01*
X26749243Y-76776623D01*
X26729887Y-73618872D01*
X28724500Y-73618872D01*
X28724500Y-73881127D01*
X28729107Y-73916116D01*
X28758730Y-74141116D01*
X28826602Y-74394418D01*
X28826605Y-74394428D01*
X28926953Y-74636690D01*
X28926958Y-74636700D01*
X29058075Y-74863803D01*
X29217718Y-75071851D01*
X29217726Y-75071860D01*
X29403140Y-75257274D01*
X29403148Y-75257281D01*
X29611196Y-75416924D01*
X29838299Y-75548041D01*
X29838309Y-75548046D01*
X30080571Y-75648394D01*
X30080581Y-75648398D01*
X30333884Y-75716270D01*
X30593880Y-75750500D01*
X30593887Y-75750500D01*
X30856113Y-75750500D01*
X30856120Y-75750500D01*
X31116116Y-75716270D01*
X31369419Y-75648398D01*
X31611697Y-75548043D01*
X31838803Y-75416924D01*
X32046851Y-75257282D01*
X32046855Y-75257277D01*
X32046860Y-75257274D01*
X32232274Y-75071860D01*
X32232277Y-75071855D01*
X32232282Y-75071851D01*
X32391924Y-74863803D01*
X32523043Y-74636697D01*
X32623398Y-74394419D01*
X32691270Y-74141116D01*
X32725500Y-73881120D01*
X32725500Y-73618880D01*
X32695876Y-73393872D01*
X153574500Y-73393872D01*
X153574500Y-73656127D01*
X153601123Y-73858339D01*
X153608730Y-73916116D01*
X153676602Y-74169418D01*
X153676605Y-74169428D01*
X153776953Y-74411690D01*
X153776958Y-74411700D01*
X153908075Y-74638803D01*
X154067718Y-74846851D01*
X154067726Y-74846860D01*
X154253140Y-75032274D01*
X154253148Y-75032281D01*
X154461196Y-75191924D01*
X154688299Y-75323041D01*
X154688309Y-75323046D01*
X154914951Y-75416924D01*
X154930581Y-75423398D01*
X155183884Y-75491270D01*
X155443880Y-75525500D01*
X155443887Y-75525500D01*
X155706113Y-75525500D01*
X155706120Y-75525500D01*
X155966116Y-75491270D01*
X156219419Y-75423398D01*
X156461697Y-75323043D01*
X156688803Y-75191924D01*
X156896851Y-75032282D01*
X156896855Y-75032277D01*
X156896860Y-75032274D01*
X157082274Y-74846860D01*
X157082277Y-74846855D01*
X157082282Y-74846851D01*
X157241924Y-74638803D01*
X157373043Y-74411697D01*
X157473398Y-74169419D01*
X157541270Y-73916116D01*
X157575500Y-73656120D01*
X157575500Y-73393880D01*
X157541270Y-73133884D01*
X157473398Y-72880581D01*
X157447928Y-72819091D01*
X157373046Y-72638309D01*
X157373041Y-72638299D01*
X157241924Y-72411196D01*
X157082281Y-72203148D01*
X157082274Y-72203140D01*
X156896860Y-72017726D01*
X156896851Y-72017718D01*
X156688803Y-71858075D01*
X156461700Y-71726958D01*
X156461690Y-71726953D01*
X156219428Y-71626605D01*
X156219421Y-71626603D01*
X156219419Y-71626602D01*
X155966116Y-71558730D01*
X155908339Y-71551123D01*
X155706127Y-71524500D01*
X155706120Y-71524500D01*
X155443880Y-71524500D01*
X155443872Y-71524500D01*
X155212772Y-71554926D01*
X155183884Y-71558730D01*
X154992545Y-71609999D01*
X154930581Y-71626602D01*
X154930571Y-71626605D01*
X154688309Y-71726953D01*
X154688299Y-71726958D01*
X154461196Y-71858075D01*
X154253148Y-72017718D01*
X154067718Y-72203148D01*
X153908075Y-72411196D01*
X153776958Y-72638299D01*
X153776953Y-72638309D01*
X153676605Y-72880571D01*
X153676602Y-72880581D01*
X153616317Y-73105571D01*
X153608730Y-73133885D01*
X153574500Y-73393872D01*
X32695876Y-73393872D01*
X32691270Y-73358884D01*
X32623398Y-73105581D01*
X32623394Y-73105571D01*
X32523046Y-72863309D01*
X32523041Y-72863299D01*
X32391924Y-72636196D01*
X32237847Y-72435402D01*
X32232282Y-72428149D01*
X32232281Y-72428148D01*
X32232274Y-72428140D01*
X32046860Y-72242726D01*
X32046851Y-72242718D01*
X31838803Y-72083075D01*
X31611700Y-71951958D01*
X31611690Y-71951953D01*
X31369428Y-71851605D01*
X31369421Y-71851603D01*
X31369419Y-71851602D01*
X31116116Y-71783730D01*
X31058339Y-71776123D01*
X30856127Y-71749500D01*
X30856120Y-71749500D01*
X30593880Y-71749500D01*
X30593872Y-71749500D01*
X30362772Y-71779926D01*
X30333884Y-71783730D01*
X30103679Y-71845413D01*
X30080581Y-71851602D01*
X30080571Y-71851605D01*
X29838309Y-71951953D01*
X29838299Y-71951958D01*
X29611196Y-72083075D01*
X29403148Y-72242718D01*
X29217718Y-72428148D01*
X29058075Y-72636196D01*
X28926958Y-72863299D01*
X28926953Y-72863309D01*
X28826605Y-73105571D01*
X28826602Y-73105581D01*
X28758730Y-73358885D01*
X28724500Y-73618872D01*
X26729887Y-73618872D01*
X26712070Y-70712135D01*
X92884500Y-70712135D01*
X92884500Y-72507870D01*
X92884501Y-72507876D01*
X92890908Y-72567483D01*
X92941202Y-72702328D01*
X92941206Y-72702335D01*
X93027452Y-72817544D01*
X93027455Y-72817547D01*
X93142664Y-72903793D01*
X93142671Y-72903797D01*
X93277517Y-72954091D01*
X93277516Y-72954091D01*
X93284444Y-72954835D01*
X93337127Y-72960500D01*
X95132872Y-72960499D01*
X95192483Y-72954091D01*
X95327331Y-72903796D01*
X95442546Y-72817546D01*
X95528796Y-72702331D01*
X95578002Y-72570401D01*
X95619872Y-72514468D01*
X95685337Y-72490050D01*
X95753610Y-72504901D01*
X95781865Y-72526053D01*
X95903917Y-72648105D01*
X96097421Y-72783600D01*
X96311507Y-72883429D01*
X96311516Y-72883433D01*
X96525000Y-72940634D01*
X96525000Y-72043012D01*
X96582007Y-72075925D01*
X96709174Y-72110000D01*
X96840826Y-72110000D01*
X96967993Y-72075925D01*
X97025000Y-72043012D01*
X97025000Y-72940633D01*
X97238483Y-72883433D01*
X97238492Y-72883429D01*
X97452578Y-72783600D01*
X97646082Y-72648105D01*
X97813105Y-72481082D01*
X97943119Y-72295405D01*
X97997696Y-72251781D01*
X98067195Y-72244588D01*
X98129549Y-72276110D01*
X98146269Y-72295405D01*
X98276505Y-72481401D01*
X98443599Y-72648495D01*
X98540384Y-72716265D01*
X98637165Y-72784032D01*
X98637167Y-72784033D01*
X98637170Y-72784035D01*
X98851337Y-72883903D01*
X99079592Y-72945063D01*
X99256034Y-72960500D01*
X99314999Y-72965659D01*
X99315000Y-72965659D01*
X99315001Y-72965659D01*
X99373966Y-72960500D01*
X99550408Y-72945063D01*
X99778663Y-72883903D01*
X99992830Y-72784035D01*
X100186401Y-72648495D01*
X100353495Y-72481401D01*
X100489035Y-72287830D01*
X100588903Y-72073663D01*
X100650063Y-71845408D01*
X100670659Y-71610000D01*
X100650063Y-71374592D01*
X100588903Y-71146337D01*
X100489035Y-70932171D01*
X100483731Y-70924595D01*
X100353494Y-70738597D01*
X100192031Y-70577135D01*
X118149500Y-70577135D01*
X118149500Y-72372870D01*
X118149501Y-72372876D01*
X118155908Y-72432483D01*
X118206202Y-72567328D01*
X118206206Y-72567335D01*
X118292452Y-72682544D01*
X118292455Y-72682547D01*
X118407664Y-72768793D01*
X118407671Y-72768797D01*
X118542517Y-72819091D01*
X118542516Y-72819091D01*
X118549444Y-72819835D01*
X118602127Y-72825500D01*
X120397872Y-72825499D01*
X120457483Y-72819091D01*
X120592331Y-72768796D01*
X120707546Y-72682546D01*
X120793796Y-72567331D01*
X120843002Y-72435401D01*
X120884872Y-72379468D01*
X120950337Y-72355050D01*
X121018610Y-72369901D01*
X121046865Y-72391053D01*
X121168917Y-72513105D01*
X121362421Y-72648600D01*
X121576507Y-72748429D01*
X121576516Y-72748433D01*
X121790000Y-72805634D01*
X121790000Y-71908012D01*
X121847007Y-71940925D01*
X121974174Y-71975000D01*
X122105826Y-71975000D01*
X122232993Y-71940925D01*
X122290000Y-71908012D01*
X122290000Y-72805633D01*
X122503483Y-72748433D01*
X122503492Y-72748429D01*
X122717578Y-72648600D01*
X122911082Y-72513105D01*
X123078105Y-72346082D01*
X123213600Y-72152578D01*
X123313429Y-71938492D01*
X123313432Y-71938486D01*
X123370636Y-71725000D01*
X122473012Y-71725000D01*
X122505925Y-71667993D01*
X122540000Y-71540826D01*
X122540000Y-71409174D01*
X122505925Y-71282007D01*
X122473012Y-71225000D01*
X123370636Y-71225000D01*
X123370635Y-71224999D01*
X123313432Y-71011513D01*
X123313429Y-71011507D01*
X123213600Y-70797422D01*
X123213599Y-70797420D01*
X123078113Y-70603926D01*
X123078108Y-70603920D01*
X122911082Y-70436894D01*
X122717578Y-70301399D01*
X122503492Y-70201570D01*
X122503486Y-70201567D01*
X122290000Y-70144364D01*
X122290000Y-71041988D01*
X122232993Y-71009075D01*
X122105826Y-70975000D01*
X121974174Y-70975000D01*
X121847007Y-71009075D01*
X121790000Y-71041988D01*
X121790000Y-70144364D01*
X121789999Y-70144364D01*
X121576513Y-70201567D01*
X121576507Y-70201570D01*
X121362422Y-70301399D01*
X121362420Y-70301400D01*
X121168926Y-70436886D01*
X121046865Y-70558947D01*
X120985542Y-70592431D01*
X120915850Y-70587447D01*
X120859917Y-70545575D01*
X120843002Y-70514598D01*
X120793797Y-70382671D01*
X120793793Y-70382664D01*
X120707547Y-70267455D01*
X120707544Y-70267452D01*
X120592335Y-70181206D01*
X120592328Y-70181202D01*
X120457482Y-70130908D01*
X120457483Y-70130908D01*
X120397883Y-70124501D01*
X120397881Y-70124500D01*
X120397873Y-70124500D01*
X120397864Y-70124500D01*
X118602129Y-70124500D01*
X118602123Y-70124501D01*
X118542516Y-70130908D01*
X118407671Y-70181202D01*
X118407664Y-70181206D01*
X118292455Y-70267452D01*
X118292452Y-70267455D01*
X118206206Y-70382664D01*
X118206202Y-70382671D01*
X118155908Y-70517517D01*
X118149501Y-70577116D01*
X118149500Y-70577135D01*
X100192031Y-70577135D01*
X100186402Y-70571506D01*
X100186395Y-70571501D01*
X99992834Y-70435967D01*
X99992830Y-70435965D01*
X99992828Y-70435964D01*
X99778663Y-70336097D01*
X99778659Y-70336096D01*
X99778655Y-70336094D01*
X99550413Y-70274938D01*
X99550403Y-70274936D01*
X99315001Y-70254341D01*
X99314999Y-70254341D01*
X99079596Y-70274936D01*
X99079586Y-70274938D01*
X98851344Y-70336094D01*
X98851335Y-70336098D01*
X98637171Y-70435964D01*
X98637169Y-70435965D01*
X98443597Y-70571505D01*
X98276508Y-70738594D01*
X98146269Y-70924595D01*
X98091692Y-70968219D01*
X98022193Y-70975412D01*
X97959839Y-70943890D01*
X97943119Y-70924594D01*
X97813113Y-70738926D01*
X97813108Y-70738920D01*
X97646082Y-70571894D01*
X97452578Y-70436399D01*
X97238492Y-70336570D01*
X97238486Y-70336567D01*
X97025000Y-70279364D01*
X97025000Y-71176988D01*
X96967993Y-71144075D01*
X96840826Y-71110000D01*
X96709174Y-71110000D01*
X96582007Y-71144075D01*
X96525000Y-71176988D01*
X96525000Y-70279364D01*
X96524999Y-70279364D01*
X96311513Y-70336567D01*
X96311507Y-70336570D01*
X96097422Y-70436399D01*
X96097420Y-70436400D01*
X95903926Y-70571886D01*
X95781865Y-70693947D01*
X95720542Y-70727431D01*
X95650850Y-70722447D01*
X95594917Y-70680575D01*
X95578002Y-70649598D01*
X95560965Y-70603920D01*
X95528796Y-70517669D01*
X95528795Y-70517668D01*
X95528793Y-70517664D01*
X95442547Y-70402455D01*
X95442544Y-70402452D01*
X95327335Y-70316206D01*
X95327328Y-70316202D01*
X95192482Y-70265908D01*
X95192483Y-70265908D01*
X95132883Y-70259501D01*
X95132881Y-70259500D01*
X95132873Y-70259500D01*
X95132864Y-70259500D01*
X93337129Y-70259500D01*
X93337123Y-70259501D01*
X93277516Y-70265908D01*
X93142671Y-70316202D01*
X93142664Y-70316206D01*
X93027455Y-70402452D01*
X93027452Y-70402455D01*
X92941206Y-70517664D01*
X92941202Y-70517671D01*
X92890908Y-70652517D01*
X92884501Y-70712116D01*
X92884500Y-70712135D01*
X26712070Y-70712135D01*
X26607179Y-53599996D01*
X96069435Y-53599996D01*
X96069435Y-53600003D01*
X96089630Y-53779249D01*
X96089631Y-53779254D01*
X96149211Y-53949523D01*
X96245184Y-54102262D01*
X96372738Y-54229816D01*
X96525478Y-54325789D01*
X96695745Y-54385368D01*
X96695750Y-54385369D01*
X96874996Y-54405565D01*
X96875000Y-54405565D01*
X96875004Y-54405565D01*
X97054249Y-54385369D01*
X97054252Y-54385368D01*
X97054255Y-54385368D01*
X97224522Y-54325789D01*
X97377262Y-54229816D01*
X97504816Y-54102262D01*
X97600789Y-53949522D01*
X97660368Y-53779255D01*
X97680565Y-53600000D01*
X97660368Y-53420745D01*
X97660367Y-53420743D01*
X97660366Y-53420737D01*
X97600790Y-53250479D01*
X97594506Y-53240478D01*
X97575500Y-53174507D01*
X97575500Y-49041518D01*
X97595185Y-48974479D01*
X97611814Y-48953842D01*
X99949290Y-46616365D01*
X99996013Y-46587007D01*
X100099522Y-46550789D01*
X100252262Y-46454816D01*
X100379816Y-46327262D01*
X100475789Y-46174522D01*
X100535368Y-46004255D01*
X100535369Y-46004249D01*
X100555565Y-45825003D01*
X100555565Y-45824996D01*
X100535369Y-45645750D01*
X100535368Y-45645745D01*
X100512007Y-45578984D01*
X100475789Y-45475478D01*
X100379816Y-45322738D01*
X100252262Y-45195184D01*
X100180346Y-45149996D01*
X107394435Y-45149996D01*
X107394435Y-45150003D01*
X107414630Y-45329249D01*
X107414631Y-45329254D01*
X107474211Y-45499523D01*
X107509651Y-45555925D01*
X107570184Y-45652262D01*
X107697738Y-45779816D01*
X107769648Y-45825000D01*
X107850474Y-45875787D01*
X107850478Y-45875789D01*
X107953984Y-45912007D01*
X108000710Y-45941367D01*
X108538181Y-46478838D01*
X108571666Y-46540161D01*
X108574500Y-46566519D01*
X108574500Y-48549507D01*
X108555494Y-48615478D01*
X108549209Y-48625479D01*
X108489633Y-48795737D01*
X108489630Y-48795750D01*
X108469435Y-48974996D01*
X108469435Y-48975003D01*
X108489630Y-49154249D01*
X108489631Y-49154254D01*
X108549211Y-49324523D01*
X108645184Y-49477262D01*
X108772738Y-49604816D01*
X108925478Y-49700789D01*
X109095745Y-49760368D01*
X109095750Y-49760369D01*
X109274996Y-49780565D01*
X109275000Y-49780565D01*
X109275004Y-49780565D01*
X109454249Y-49760369D01*
X109454252Y-49760368D01*
X109454255Y-49760368D01*
X109624522Y-49700789D01*
X109777262Y-49604816D01*
X109904816Y-49477262D01*
X110000789Y-49324522D01*
X110060368Y-49154255D01*
X110060369Y-49154249D01*
X110080565Y-48975003D01*
X110080565Y-48974996D01*
X110060369Y-48795750D01*
X110060366Y-48795737D01*
X110000790Y-48625479D01*
X109994506Y-48615478D01*
X109975500Y-48549507D01*
X109975500Y-46156004D01*
X109948581Y-46020677D01*
X109948580Y-46020676D01*
X109948580Y-46020672D01*
X109895775Y-45893189D01*
X109884149Y-45875789D01*
X109884148Y-45875787D01*
X109819114Y-45778456D01*
X109819111Y-45778453D01*
X108991367Y-44950710D01*
X108962006Y-44903983D01*
X108959565Y-44897007D01*
X108925789Y-44800478D01*
X108923078Y-44796164D01*
X108874849Y-44719407D01*
X108829816Y-44647738D01*
X108702262Y-44520184D01*
X108666277Y-44497573D01*
X108549523Y-44424211D01*
X108379254Y-44364631D01*
X108379249Y-44364630D01*
X108200004Y-44344435D01*
X108199996Y-44344435D01*
X108020750Y-44364630D01*
X108020745Y-44364631D01*
X107850476Y-44424211D01*
X107697737Y-44520184D01*
X107570184Y-44647737D01*
X107474211Y-44800476D01*
X107414631Y-44970745D01*
X107414630Y-44970750D01*
X107394435Y-45149996D01*
X100180346Y-45149996D01*
X100099523Y-45099211D01*
X99929254Y-45039631D01*
X99929249Y-45039630D01*
X99750004Y-45019435D01*
X99749996Y-45019435D01*
X99570750Y-45039630D01*
X99570745Y-45039631D01*
X99400476Y-45099211D01*
X99247737Y-45195184D01*
X99120184Y-45322737D01*
X99024212Y-45475475D01*
X99024211Y-45475476D01*
X98987992Y-45578984D01*
X98958632Y-45625709D01*
X96330887Y-48253454D01*
X96254222Y-48368192D01*
X96201421Y-48495667D01*
X96201418Y-48495679D01*
X96179312Y-48606815D01*
X96179312Y-48606818D01*
X96174500Y-48631006D01*
X96174500Y-53174507D01*
X96155494Y-53240478D01*
X96149209Y-53250479D01*
X96089633Y-53420737D01*
X96089630Y-53420750D01*
X96069435Y-53599996D01*
X26607179Y-53599996D01*
X26551875Y-44577499D01*
X30964341Y-44577499D01*
X30964341Y-44577500D01*
X30984936Y-44812903D01*
X30984938Y-44812913D01*
X31046094Y-45041155D01*
X31046096Y-45041159D01*
X31046097Y-45041163D01*
X31145965Y-45255330D01*
X31145967Y-45255334D01*
X31245168Y-45397007D01*
X31281505Y-45448901D01*
X31448599Y-45615995D01*
X31491094Y-45645750D01*
X31642165Y-45751532D01*
X31642167Y-45751533D01*
X31642170Y-45751535D01*
X31856337Y-45851403D01*
X32084592Y-45912563D01*
X32272918Y-45929039D01*
X32319999Y-45933159D01*
X32320000Y-45933159D01*
X32320001Y-45933159D01*
X32359234Y-45929726D01*
X32555408Y-45912563D01*
X32783663Y-45851403D01*
X32997830Y-45751535D01*
X33191401Y-45615995D01*
X33358495Y-45448901D01*
X33494035Y-45255330D01*
X33593903Y-45041163D01*
X33655063Y-44812908D01*
X33675659Y-44577500D01*
X33674765Y-44567287D01*
X33668710Y-44498070D01*
X33655063Y-44342092D01*
X33593903Y-44113837D01*
X33494035Y-43899671D01*
X33489366Y-43893002D01*
X33358494Y-43706097D01*
X33191402Y-43539006D01*
X33191401Y-43539005D01*
X33005405Y-43408769D01*
X32961781Y-43354192D01*
X32954588Y-43284693D01*
X32986110Y-43222339D01*
X33005405Y-43205619D01*
X33191082Y-43075605D01*
X33358105Y-42908582D01*
X33493600Y-42715078D01*
X33593429Y-42500992D01*
X33593432Y-42500986D01*
X33650636Y-42287500D01*
X32753012Y-42287500D01*
X32785925Y-42230493D01*
X32820000Y-42103326D01*
X32820000Y-41971674D01*
X32785925Y-41844507D01*
X32753012Y-41787500D01*
X33650636Y-41787500D01*
X33650635Y-41787499D01*
X33620490Y-41674996D01*
X78519435Y-41674996D01*
X78519435Y-41675003D01*
X78539630Y-41854249D01*
X78539631Y-41854254D01*
X78599211Y-42024523D01*
X78655154Y-42113555D01*
X78695184Y-42177262D01*
X78822738Y-42304816D01*
X78883051Y-42342713D01*
X78955291Y-42388105D01*
X78975478Y-42400789D01*
X79078984Y-42437007D01*
X79125710Y-42466367D01*
X80413181Y-43753838D01*
X80446666Y-43815161D01*
X80449500Y-43841519D01*
X80449500Y-48024507D01*
X80430494Y-48090478D01*
X80424209Y-48100479D01*
X80364633Y-48270737D01*
X80364630Y-48270750D01*
X80344435Y-48449996D01*
X80344435Y-48450003D01*
X80364630Y-48629249D01*
X80364631Y-48629254D01*
X80424211Y-48799523D01*
X80520184Y-48952262D01*
X80647738Y-49079816D01*
X80800478Y-49175789D01*
X80970745Y-49235368D01*
X80970750Y-49235369D01*
X81149996Y-49255565D01*
X81150000Y-49255565D01*
X81150004Y-49255565D01*
X81329249Y-49235369D01*
X81329252Y-49235368D01*
X81329255Y-49235368D01*
X81499522Y-49175789D01*
X81652262Y-49079816D01*
X81779816Y-48952262D01*
X81875789Y-48799522D01*
X81935368Y-48629255D01*
X81935369Y-48629249D01*
X81955565Y-48450003D01*
X81955565Y-48449996D01*
X81935369Y-48270750D01*
X81935366Y-48270737D01*
X81875790Y-48100479D01*
X81869506Y-48090478D01*
X81850500Y-48024507D01*
X81850500Y-43431004D01*
X81823581Y-43295677D01*
X81823580Y-43295676D01*
X81823580Y-43295672D01*
X81819032Y-43284693D01*
X81770776Y-43168190D01*
X81758934Y-43150468D01*
X81758933Y-43150466D01*
X81694114Y-43053457D01*
X81694112Y-43053454D01*
X81694111Y-43053453D01*
X80116367Y-41475710D01*
X80087006Y-41428983D01*
X80082402Y-41415826D01*
X80050789Y-41325478D01*
X79954816Y-41172738D01*
X79827262Y-41045184D01*
X79728364Y-40983042D01*
X79674523Y-40949211D01*
X79504254Y-40889631D01*
X79504249Y-40889630D01*
X79325004Y-40869435D01*
X79324996Y-40869435D01*
X79145750Y-40889630D01*
X79145745Y-40889631D01*
X78975476Y-40949211D01*
X78822737Y-41045184D01*
X78695184Y-41172737D01*
X78599211Y-41325476D01*
X78539631Y-41495745D01*
X78539630Y-41495750D01*
X78519435Y-41674996D01*
X33620490Y-41674996D01*
X33593432Y-41574013D01*
X33593429Y-41574007D01*
X33493600Y-41359922D01*
X33493599Y-41359920D01*
X33358113Y-41166426D01*
X33358108Y-41166420D01*
X33236053Y-41044365D01*
X33202568Y-40983042D01*
X33207552Y-40913350D01*
X33249424Y-40857417D01*
X33280400Y-40840502D01*
X33369847Y-40807141D01*
X33412326Y-40791298D01*
X33412326Y-40791297D01*
X33412331Y-40791296D01*
X33527546Y-40705046D01*
X33613796Y-40589831D01*
X33664091Y-40454983D01*
X33670500Y-40395373D01*
X33670499Y-38599628D01*
X33664091Y-38540017D01*
X33640718Y-38477352D01*
X33613797Y-38405171D01*
X33613793Y-38405164D01*
X33527547Y-38289955D01*
X33527544Y-38289952D01*
X33474171Y-38249997D01*
X83557677Y-38249997D01*
X83557677Y-38250002D01*
X83576929Y-38470062D01*
X83576930Y-38470070D01*
X83634104Y-38683445D01*
X83634105Y-38683447D01*
X83634106Y-38683450D01*
X83723063Y-38874219D01*
X83727466Y-38883662D01*
X83727468Y-38883666D01*
X83854170Y-39064615D01*
X83854175Y-39064621D01*
X84010378Y-39220824D01*
X84010384Y-39220829D01*
X84191333Y-39347531D01*
X84191335Y-39347532D01*
X84191338Y-39347534D01*
X84299713Y-39398070D01*
X84327298Y-39410933D01*
X84379738Y-39457105D01*
X84398890Y-39524298D01*
X84378674Y-39591180D01*
X84327301Y-39635696D01*
X84291341Y-39652464D01*
X84291338Y-39652466D01*
X84110377Y-39779175D01*
X83954175Y-39935377D01*
X83827466Y-40116338D01*
X83827465Y-40116340D01*
X83734107Y-40316548D01*
X83734104Y-40316554D01*
X83676930Y-40529929D01*
X83676929Y-40529937D01*
X83657677Y-40749997D01*
X83657677Y-40750002D01*
X83676929Y-40970062D01*
X83676930Y-40970070D01*
X83734104Y-41183445D01*
X83734105Y-41183447D01*
X83734106Y-41183450D01*
X83808251Y-41342455D01*
X83827466Y-41383662D01*
X83827468Y-41383666D01*
X83954170Y-41564615D01*
X83954175Y-41564621D01*
X84110378Y-41720824D01*
X84110384Y-41720829D01*
X84291333Y-41847531D01*
X84291334Y-41847531D01*
X84291338Y-41847534D01*
X84327891Y-41864578D01*
X84380329Y-41910749D01*
X84399482Y-41977942D01*
X84379267Y-42044824D01*
X84327891Y-42089342D01*
X84191590Y-42152901D01*
X84126811Y-42198258D01*
X84797553Y-42869000D01*
X84774840Y-42869000D01*
X84677939Y-42894964D01*
X84591060Y-42945124D01*
X84520124Y-43016060D01*
X84469964Y-43102939D01*
X84444000Y-43199840D01*
X84444000Y-43222553D01*
X83773258Y-42551811D01*
X83727901Y-42616590D01*
X83634579Y-42816720D01*
X83634575Y-42816729D01*
X83577426Y-43030013D01*
X83577424Y-43030023D01*
X83558179Y-43249999D01*
X83558179Y-43250000D01*
X83577424Y-43469976D01*
X83577426Y-43469986D01*
X83634575Y-43683270D01*
X83634580Y-43683284D01*
X83727898Y-43883405D01*
X83727901Y-43883411D01*
X83773258Y-43948187D01*
X83773259Y-43948188D01*
X84444000Y-43277447D01*
X84444000Y-43300160D01*
X84469964Y-43397061D01*
X84520124Y-43483940D01*
X84591060Y-43554876D01*
X84677939Y-43605036D01*
X84774840Y-43631000D01*
X84797553Y-43631000D01*
X84126810Y-44301740D01*
X84191590Y-44347099D01*
X84191592Y-44347100D01*
X84391715Y-44440419D01*
X84391729Y-44440424D01*
X84605013Y-44497573D01*
X84605023Y-44497575D01*
X84824999Y-44516821D01*
X84825001Y-44516821D01*
X85044976Y-44497575D01*
X85044986Y-44497573D01*
X85258270Y-44440424D01*
X85258284Y-44440419D01*
X85458407Y-44347100D01*
X85458417Y-44347094D01*
X85523188Y-44301741D01*
X84852448Y-43631000D01*
X84875160Y-43631000D01*
X84972061Y-43605036D01*
X85058940Y-43554876D01*
X85129876Y-43483940D01*
X85180036Y-43397061D01*
X85206000Y-43300160D01*
X85206000Y-43277447D01*
X85876741Y-43948188D01*
X85922094Y-43883417D01*
X85922100Y-43883407D01*
X86015419Y-43683284D01*
X86015424Y-43683270D01*
X86072573Y-43469986D01*
X86072575Y-43469976D01*
X86091821Y-43250000D01*
X86091821Y-43249999D01*
X86072575Y-43030023D01*
X86072573Y-43030013D01*
X86015424Y-42816729D01*
X86015420Y-42816720D01*
X85922096Y-42616586D01*
X85876741Y-42551811D01*
X85876740Y-42551810D01*
X85206000Y-43222551D01*
X85206000Y-43199840D01*
X85180036Y-43102939D01*
X85129876Y-43016060D01*
X85058940Y-42945124D01*
X84972061Y-42894964D01*
X84875160Y-42869000D01*
X84852448Y-42869000D01*
X85523188Y-42198259D01*
X85523187Y-42198258D01*
X85458411Y-42152901D01*
X85458409Y-42152900D01*
X85422108Y-42135973D01*
X85369669Y-42089801D01*
X85350517Y-42022607D01*
X85370733Y-41955726D01*
X85422107Y-41911209D01*
X85558662Y-41847534D01*
X85739620Y-41720826D01*
X85895826Y-41564620D01*
X86022534Y-41383662D01*
X86115894Y-41183450D01*
X86173070Y-40970068D01*
X86192323Y-40750000D01*
X86173070Y-40529932D01*
X86115894Y-40316550D01*
X86022534Y-40116339D01*
X85895826Y-39935380D01*
X85739620Y-39779174D01*
X85739616Y-39779171D01*
X85739615Y-39779170D01*
X85558666Y-39652468D01*
X85558662Y-39652466D01*
X85422700Y-39589066D01*
X85370261Y-39542894D01*
X85351109Y-39475700D01*
X85371325Y-39408819D01*
X85422700Y-39364302D01*
X85458662Y-39347534D01*
X85639620Y-39220826D01*
X85795826Y-39064620D01*
X85922534Y-38883662D01*
X86015894Y-38683450D01*
X86073070Y-38470068D01*
X86087509Y-38305017D01*
X86092323Y-38250002D01*
X86092323Y-38249997D01*
X86083872Y-38153408D01*
X86083574Y-38149997D01*
X95757677Y-38149997D01*
X95757677Y-38150002D01*
X95776929Y-38370062D01*
X95776930Y-38370070D01*
X95834104Y-38583445D01*
X95834105Y-38583447D01*
X95834106Y-38583450D01*
X95880737Y-38683450D01*
X95927466Y-38783662D01*
X95927468Y-38783666D01*
X96054170Y-38964615D01*
X96054175Y-38964621D01*
X96210378Y-39120824D01*
X96210384Y-39120829D01*
X96391333Y-39247531D01*
X96391335Y-39247532D01*
X96391338Y-39247534D01*
X96585117Y-39337894D01*
X96637556Y-39384066D01*
X96656708Y-39451260D01*
X96636492Y-39518141D01*
X96585117Y-39562658D01*
X96391590Y-39652901D01*
X96326811Y-39698258D01*
X96997553Y-40369000D01*
X96974840Y-40369000D01*
X96877939Y-40394964D01*
X96791060Y-40445124D01*
X96720124Y-40516060D01*
X96669964Y-40602939D01*
X96644000Y-40699840D01*
X96644000Y-40722553D01*
X95973258Y-40051811D01*
X95927901Y-40116590D01*
X95834579Y-40316720D01*
X95834575Y-40316729D01*
X95777426Y-40530013D01*
X95777424Y-40530023D01*
X95758179Y-40749999D01*
X95758179Y-40750000D01*
X95777424Y-40969976D01*
X95777426Y-40969986D01*
X95834575Y-41183270D01*
X95834580Y-41183284D01*
X95927898Y-41383405D01*
X95927901Y-41383411D01*
X95973258Y-41448187D01*
X95973259Y-41448188D01*
X96644000Y-40777447D01*
X96644000Y-40800160D01*
X96669964Y-40897061D01*
X96720124Y-40983940D01*
X96791060Y-41054876D01*
X96877939Y-41105036D01*
X96974840Y-41131000D01*
X96997553Y-41131000D01*
X96326810Y-41801740D01*
X96391589Y-41847098D01*
X96477891Y-41887342D01*
X96530330Y-41933514D01*
X96549482Y-42000708D01*
X96529266Y-42067589D01*
X96477891Y-42112106D01*
X96391340Y-42152465D01*
X96391338Y-42152466D01*
X96210377Y-42279175D01*
X96054175Y-42435377D01*
X95927466Y-42616338D01*
X95927465Y-42616340D01*
X95834107Y-42816548D01*
X95834104Y-42816554D01*
X95776930Y-43029929D01*
X95776929Y-43029937D01*
X95757677Y-43249997D01*
X95757677Y-43250002D01*
X95776929Y-43470062D01*
X95776930Y-43470070D01*
X95834104Y-43683445D01*
X95834105Y-43683447D01*
X95834106Y-43683450D01*
X95908875Y-43843793D01*
X95927466Y-43883662D01*
X95927468Y-43883666D01*
X96054170Y-44064615D01*
X96054175Y-44064621D01*
X96210378Y-44220824D01*
X96210384Y-44220829D01*
X96391333Y-44347531D01*
X96391335Y-44347532D01*
X96391338Y-44347534D01*
X96591550Y-44440894D01*
X96804932Y-44498070D01*
X96962123Y-44511822D01*
X97024998Y-44517323D01*
X97025000Y-44517323D01*
X97025002Y-44517323D01*
X97080017Y-44512509D01*
X97245068Y-44498070D01*
X97458450Y-44440894D01*
X97658662Y-44347534D01*
X97839620Y-44220826D01*
X97995826Y-44064620D01*
X98122534Y-43883662D01*
X98215894Y-43683450D01*
X98273070Y-43470068D01*
X98292323Y-43250000D01*
X98291661Y-43242437D01*
X98277648Y-43082259D01*
X98273070Y-43029932D01*
X98215894Y-42816550D01*
X98122534Y-42616339D01*
X98015458Y-42463417D01*
X97995827Y-42435381D01*
X97934734Y-42374288D01*
X97839620Y-42279174D01*
X97839616Y-42279171D01*
X97839615Y-42279170D01*
X97690839Y-42174996D01*
X98894435Y-42174996D01*
X98894435Y-42175003D01*
X98914630Y-42354249D01*
X98914631Y-42354254D01*
X98974211Y-42524523D01*
X99070184Y-42677262D01*
X99197738Y-42804816D01*
X99288080Y-42861582D01*
X99343567Y-42896447D01*
X99350478Y-42900789D01*
X99477180Y-42945124D01*
X99520745Y-42960368D01*
X99520750Y-42960369D01*
X99699996Y-42980565D01*
X99700000Y-42980565D01*
X99700004Y-42980565D01*
X99879249Y-42960369D01*
X99879252Y-42960368D01*
X99879255Y-42960368D01*
X100049522Y-42900789D01*
X100202262Y-42804816D01*
X100329816Y-42677262D01*
X100425789Y-42524522D01*
X100462007Y-42421013D01*
X100491365Y-42374290D01*
X102199290Y-40666365D01*
X102246013Y-40637007D01*
X102349522Y-40600789D01*
X102502262Y-40504816D01*
X102554943Y-40452135D01*
X120324500Y-40452135D01*
X120324500Y-42247870D01*
X120324501Y-42247876D01*
X120330908Y-42307483D01*
X120381202Y-42442328D01*
X120381206Y-42442335D01*
X120467452Y-42557544D01*
X120467455Y-42557547D01*
X120582664Y-42643793D01*
X120582671Y-42643797D01*
X120717517Y-42694091D01*
X120717516Y-42694091D01*
X120724444Y-42694835D01*
X120777127Y-42700500D01*
X122572872Y-42700499D01*
X122632483Y-42694091D01*
X122767331Y-42643796D01*
X122882546Y-42557546D01*
X122968796Y-42442331D01*
X123018002Y-42310401D01*
X123059872Y-42254468D01*
X123125337Y-42230050D01*
X123193610Y-42244901D01*
X123221865Y-42266053D01*
X123343917Y-42388105D01*
X123537421Y-42523600D01*
X123751507Y-42623429D01*
X123751516Y-42623433D01*
X123965000Y-42680634D01*
X123965000Y-41783012D01*
X124022007Y-41815925D01*
X124149174Y-41850000D01*
X124280826Y-41850000D01*
X124407993Y-41815925D01*
X124465000Y-41783012D01*
X124465000Y-42680633D01*
X124678483Y-42623433D01*
X124678492Y-42623429D01*
X124892578Y-42523600D01*
X125086082Y-42388105D01*
X125253105Y-42221082D01*
X125388600Y-42027578D01*
X125488429Y-41813492D01*
X125488432Y-41813486D01*
X125545636Y-41600000D01*
X124648012Y-41600000D01*
X124680925Y-41542993D01*
X124715000Y-41415826D01*
X124715000Y-41284174D01*
X124680925Y-41157007D01*
X124648012Y-41100000D01*
X125545636Y-41100000D01*
X125545635Y-41099999D01*
X125488432Y-40886513D01*
X125488429Y-40886507D01*
X125388600Y-40672422D01*
X125388599Y-40672420D01*
X125253113Y-40478926D01*
X125253108Y-40478920D01*
X125086082Y-40311894D01*
X124892578Y-40176399D01*
X124678492Y-40076570D01*
X124678486Y-40076567D01*
X124465000Y-40019364D01*
X124465000Y-40916988D01*
X124407993Y-40884075D01*
X124280826Y-40850000D01*
X124149174Y-40850000D01*
X124022007Y-40884075D01*
X123965000Y-40916988D01*
X123965000Y-40019364D01*
X123964999Y-40019364D01*
X123751513Y-40076567D01*
X123751507Y-40076570D01*
X123537422Y-40176399D01*
X123537420Y-40176400D01*
X123343926Y-40311886D01*
X123221865Y-40433947D01*
X123160542Y-40467431D01*
X123090850Y-40462447D01*
X123034917Y-40420575D01*
X123018002Y-40389598D01*
X122968797Y-40257671D01*
X122968793Y-40257664D01*
X122882547Y-40142455D01*
X122882544Y-40142452D01*
X122767335Y-40056206D01*
X122767328Y-40056202D01*
X122632482Y-40005908D01*
X122632483Y-40005908D01*
X122572883Y-39999501D01*
X122572881Y-39999500D01*
X122572873Y-39999500D01*
X122572864Y-39999500D01*
X120777129Y-39999500D01*
X120777123Y-39999501D01*
X120717516Y-40005908D01*
X120582671Y-40056202D01*
X120582664Y-40056206D01*
X120467455Y-40142452D01*
X120467452Y-40142455D01*
X120381206Y-40257664D01*
X120381202Y-40257671D01*
X120330908Y-40392517D01*
X120324501Y-40452116D01*
X120324500Y-40452135D01*
X102554943Y-40452135D01*
X102629816Y-40377262D01*
X102725789Y-40224522D01*
X102785368Y-40054255D01*
X102785369Y-40054249D01*
X102805565Y-39875003D01*
X102805565Y-39874996D01*
X102785369Y-39695750D01*
X102785368Y-39695745D01*
X102778357Y-39675709D01*
X102725789Y-39525478D01*
X102708567Y-39498070D01*
X102657838Y-39417335D01*
X102629816Y-39372738D01*
X102502262Y-39245184D01*
X102466759Y-39222876D01*
X102349523Y-39149211D01*
X102179254Y-39089631D01*
X102179249Y-39089630D01*
X102000004Y-39069435D01*
X101999996Y-39069435D01*
X101820750Y-39089630D01*
X101820745Y-39089631D01*
X101650476Y-39149211D01*
X101497737Y-39245184D01*
X101370184Y-39372737D01*
X101274212Y-39525475D01*
X101274211Y-39525476D01*
X101237992Y-39628984D01*
X101208632Y-39675709D01*
X99500709Y-41383632D01*
X99453984Y-41412992D01*
X99350476Y-41449211D01*
X99350475Y-41449212D01*
X99197737Y-41545184D01*
X99070184Y-41672737D01*
X98974211Y-41825476D01*
X98914631Y-41995745D01*
X98914630Y-41995750D01*
X98894435Y-42174996D01*
X97690839Y-42174996D01*
X97658666Y-42152468D01*
X97658663Y-42152466D01*
X97658662Y-42152466D01*
X97610691Y-42130096D01*
X97572108Y-42112105D01*
X97519669Y-42065932D01*
X97500517Y-41998739D01*
X97520733Y-41931858D01*
X97572110Y-41887340D01*
X97658412Y-41847097D01*
X97658417Y-41847094D01*
X97723188Y-41801741D01*
X97052448Y-41131000D01*
X97075160Y-41131000D01*
X97172061Y-41105036D01*
X97258940Y-41054876D01*
X97329876Y-40983940D01*
X97380036Y-40897061D01*
X97406000Y-40800160D01*
X97406000Y-40777447D01*
X98076741Y-41448188D01*
X98122094Y-41383417D01*
X98122100Y-41383407D01*
X98215419Y-41183284D01*
X98215424Y-41183270D01*
X98272573Y-40969986D01*
X98272575Y-40969976D01*
X98291821Y-40750000D01*
X98291821Y-40749999D01*
X98272575Y-40530023D01*
X98272573Y-40530013D01*
X98215424Y-40316729D01*
X98215420Y-40316720D01*
X98122096Y-40116586D01*
X98076741Y-40051811D01*
X98076740Y-40051810D01*
X97406000Y-40722551D01*
X97406000Y-40699840D01*
X97380036Y-40602939D01*
X97329876Y-40516060D01*
X97258940Y-40445124D01*
X97172061Y-40394964D01*
X97075160Y-40369000D01*
X97052448Y-40369000D01*
X97723188Y-39698259D01*
X97723187Y-39698258D01*
X97658411Y-39652901D01*
X97658405Y-39652898D01*
X97464883Y-39562658D01*
X97412443Y-39516486D01*
X97393291Y-39449293D01*
X97413506Y-39382411D01*
X97464882Y-39337894D01*
X97658662Y-39247534D01*
X97839620Y-39120826D01*
X97995826Y-38964620D01*
X98122534Y-38783662D01*
X98215894Y-38583450D01*
X98273070Y-38370068D01*
X98292323Y-38150000D01*
X98273070Y-37929932D01*
X98215894Y-37716550D01*
X98127568Y-37527135D01*
X132454500Y-37527135D01*
X132454500Y-39222870D01*
X132454501Y-39222876D01*
X132460908Y-39282483D01*
X132511202Y-39417328D01*
X132511206Y-39417335D01*
X132597452Y-39532544D01*
X132597455Y-39532547D01*
X132712664Y-39618793D01*
X132712671Y-39618797D01*
X132739984Y-39628984D01*
X132847517Y-39669091D01*
X132884441Y-39673060D01*
X132948989Y-39699796D01*
X132988838Y-39757188D01*
X132991333Y-39827013D01*
X132955681Y-39887102D01*
X132944071Y-39896666D01*
X132907784Y-39923030D01*
X132763028Y-40067786D01*
X132642715Y-40233386D01*
X132549781Y-40415776D01*
X132486522Y-40610465D01*
X132454500Y-40812648D01*
X132454500Y-41017351D01*
X132486522Y-41219534D01*
X132549781Y-41414223D01*
X132591322Y-41495750D01*
X132631199Y-41574013D01*
X132642715Y-41596613D01*
X132763028Y-41762213D01*
X132907786Y-41906971D01*
X133036807Y-42000708D01*
X133073390Y-42027287D01*
X133135838Y-42059106D01*
X133166629Y-42074795D01*
X133217425Y-42122770D01*
X133234220Y-42190591D01*
X133211682Y-42256726D01*
X133166629Y-42295765D01*
X133073650Y-42343140D01*
X132908105Y-42463417D01*
X132908104Y-42463417D01*
X132763417Y-42608104D01*
X132763417Y-42608105D01*
X132643140Y-42773650D01*
X132550244Y-42955970D01*
X132487009Y-43150586D01*
X132478391Y-43205000D01*
X133839314Y-43205000D01*
X133834920Y-43209394D01*
X133782259Y-43300606D01*
X133755000Y-43402339D01*
X133755000Y-43507661D01*
X133782259Y-43609394D01*
X133834920Y-43700606D01*
X133839314Y-43705000D01*
X132478391Y-43705000D01*
X132487009Y-43759413D01*
X132550244Y-43954029D01*
X132643140Y-44136349D01*
X132763417Y-44301894D01*
X132763417Y-44301895D01*
X132908104Y-44446582D01*
X133073652Y-44566861D01*
X133166628Y-44614234D01*
X133217425Y-44662208D01*
X133234220Y-44730029D01*
X133211683Y-44796164D01*
X133166630Y-44835203D01*
X133073388Y-44882713D01*
X132907786Y-45003028D01*
X132763028Y-45147786D01*
X132642715Y-45313386D01*
X132549781Y-45495776D01*
X132486522Y-45690465D01*
X132454500Y-45892648D01*
X132454500Y-46097351D01*
X132486522Y-46299534D01*
X132549781Y-46494223D01*
X132642715Y-46676613D01*
X132763028Y-46842213D01*
X132907786Y-46986971D01*
X133062749Y-47099556D01*
X133073390Y-47107287D01*
X133189607Y-47166503D01*
X133255776Y-47200218D01*
X133255778Y-47200218D01*
X133255781Y-47200220D01*
X133360137Y-47234127D01*
X133450465Y-47263477D01*
X133551557Y-47279488D01*
X133652648Y-47295500D01*
X133652649Y-47295500D01*
X134657351Y-47295500D01*
X134657352Y-47295500D01*
X134859534Y-47263477D01*
X135054219Y-47200220D01*
X135236610Y-47107287D01*
X135329590Y-47039732D01*
X135402213Y-46986971D01*
X135402215Y-46986968D01*
X135402219Y-46986966D01*
X135546966Y-46842219D01*
X135546968Y-46842215D01*
X135546971Y-46842213D01*
X135599732Y-46769590D01*
X135667287Y-46676610D01*
X135760220Y-46494219D01*
X135823477Y-46299534D01*
X135855500Y-46097352D01*
X135855500Y-45892648D01*
X135837414Y-45778457D01*
X135823477Y-45690465D01*
X135778969Y-45553486D01*
X135760220Y-45495781D01*
X135760218Y-45495778D01*
X135760218Y-45495776D01*
X135680845Y-45340000D01*
X135667287Y-45313390D01*
X135659556Y-45302749D01*
X135546971Y-45147786D01*
X135402213Y-45003028D01*
X135236611Y-44882713D01*
X135143369Y-44835203D01*
X135092574Y-44787229D01*
X135075779Y-44719407D01*
X135098317Y-44653273D01*
X135143371Y-44614234D01*
X135236347Y-44566861D01*
X135401894Y-44446582D01*
X135401895Y-44446582D01*
X135546582Y-44301895D01*
X135546582Y-44301894D01*
X135666859Y-44136349D01*
X135759755Y-43954029D01*
X135822990Y-43759413D01*
X135831609Y-43705000D01*
X134470686Y-43705000D01*
X134475080Y-43700606D01*
X134527741Y-43609394D01*
X134555000Y-43507661D01*
X134555000Y-43402339D01*
X134527741Y-43300606D01*
X134475080Y-43209394D01*
X134470686Y-43205000D01*
X135831609Y-43205000D01*
X135822990Y-43150586D01*
X135759755Y-42955970D01*
X135666859Y-42773650D01*
X135546582Y-42608105D01*
X135546582Y-42608104D01*
X135401895Y-42463417D01*
X135236349Y-42343140D01*
X135143370Y-42295765D01*
X135092574Y-42247790D01*
X135075779Y-42179969D01*
X135098316Y-42113835D01*
X135143370Y-42074795D01*
X135143920Y-42074515D01*
X135236610Y-42027287D01*
X135304528Y-41977942D01*
X135402213Y-41906971D01*
X135402215Y-41906968D01*
X135402219Y-41906966D01*
X135546966Y-41762219D01*
X135546968Y-41762215D01*
X135546971Y-41762213D01*
X135599732Y-41689590D01*
X135667287Y-41596610D01*
X135760220Y-41414219D01*
X135823477Y-41219534D01*
X135855500Y-41017352D01*
X135855500Y-40812648D01*
X135823477Y-40610466D01*
X135821031Y-40602939D01*
X135777002Y-40467431D01*
X135760220Y-40415781D01*
X135760218Y-40415778D01*
X135760218Y-40415776D01*
X135707287Y-40311894D01*
X135667287Y-40233390D01*
X135625881Y-40176399D01*
X135546971Y-40067786D01*
X135402219Y-39923034D01*
X135365930Y-39896669D01*
X135323264Y-39841339D01*
X135317285Y-39771726D01*
X135349890Y-39709931D01*
X135410728Y-39675573D01*
X135425562Y-39673060D01*
X135462483Y-39669091D01*
X135552020Y-39635696D01*
X135597331Y-39618796D01*
X135712546Y-39532546D01*
X135798796Y-39417331D01*
X135849091Y-39282483D01*
X135855500Y-39222873D01*
X135855499Y-38272648D01*
X140074500Y-38272648D01*
X140074500Y-38477351D01*
X140106522Y-38679534D01*
X140169781Y-38874223D01*
X140262715Y-39056613D01*
X140383028Y-39222213D01*
X140527786Y-39366971D01*
X140677442Y-39475700D01*
X140693390Y-39487287D01*
X140766028Y-39524298D01*
X140786080Y-39534515D01*
X140836876Y-39582490D01*
X140853671Y-39650311D01*
X140831134Y-39716446D01*
X140786080Y-39755485D01*
X140693386Y-39802715D01*
X140527786Y-39923028D01*
X140383028Y-40067786D01*
X140262715Y-40233386D01*
X140169781Y-40415776D01*
X140106522Y-40610465D01*
X140074500Y-40812648D01*
X140074500Y-41017351D01*
X140106522Y-41219534D01*
X140169781Y-41414223D01*
X140211322Y-41495750D01*
X140251199Y-41574013D01*
X140262715Y-41596613D01*
X140383028Y-41762213D01*
X140527786Y-41906971D01*
X140656807Y-42000708D01*
X140693390Y-42027287D01*
X140769235Y-42065932D01*
X140786080Y-42074515D01*
X140836876Y-42122490D01*
X140853671Y-42190311D01*
X140831134Y-42256446D01*
X140786080Y-42295485D01*
X140693386Y-42342715D01*
X140527786Y-42463028D01*
X140383028Y-42607786D01*
X140262715Y-42773386D01*
X140169781Y-42955776D01*
X140106522Y-43150465D01*
X140074500Y-43352648D01*
X140074500Y-43557351D01*
X140106522Y-43759534D01*
X140169781Y-43954223D01*
X140262715Y-44136613D01*
X140383028Y-44302213D01*
X140527786Y-44446971D01*
X140682749Y-44559556D01*
X140693390Y-44567287D01*
X140784840Y-44613883D01*
X140786080Y-44614515D01*
X140836876Y-44662490D01*
X140853671Y-44730311D01*
X140831134Y-44796446D01*
X140786080Y-44835485D01*
X140693386Y-44882715D01*
X140527786Y-45003028D01*
X140383028Y-45147786D01*
X140262715Y-45313386D01*
X140169781Y-45495776D01*
X140106522Y-45690465D01*
X140074500Y-45892648D01*
X140074500Y-46097351D01*
X140106522Y-46299534D01*
X140169781Y-46494223D01*
X140262715Y-46676613D01*
X140383028Y-46842213D01*
X140527786Y-46986971D01*
X140682749Y-47099556D01*
X140693390Y-47107287D01*
X140809607Y-47166503D01*
X140875776Y-47200218D01*
X140875778Y-47200218D01*
X140875781Y-47200220D01*
X140980137Y-47234127D01*
X141070465Y-47263477D01*
X141171557Y-47279488D01*
X141272648Y-47295500D01*
X141272649Y-47295500D01*
X142277351Y-47295500D01*
X142277352Y-47295500D01*
X142479534Y-47263477D01*
X142674219Y-47200220D01*
X142856610Y-47107287D01*
X142949590Y-47039732D01*
X143022213Y-46986971D01*
X143022215Y-46986968D01*
X143022219Y-46986966D01*
X143166966Y-46842219D01*
X143166968Y-46842215D01*
X143166971Y-46842213D01*
X143219732Y-46769590D01*
X143287287Y-46676610D01*
X143380220Y-46494219D01*
X143443477Y-46299534D01*
X143475500Y-46097352D01*
X143475500Y-45892648D01*
X143457414Y-45778457D01*
X143443477Y-45690465D01*
X143398969Y-45553486D01*
X143380220Y-45495781D01*
X143380218Y-45495778D01*
X143380218Y-45495776D01*
X143300845Y-45340000D01*
X143287287Y-45313390D01*
X143279556Y-45302749D01*
X143166971Y-45147786D01*
X143022213Y-45003028D01*
X142856614Y-44882715D01*
X142850006Y-44879348D01*
X142763917Y-44835483D01*
X142713123Y-44787511D01*
X142696328Y-44719690D01*
X142718865Y-44653555D01*
X142763917Y-44614516D01*
X142856610Y-44567287D01*
X142877770Y-44551913D01*
X143022213Y-44446971D01*
X143022215Y-44446968D01*
X143022219Y-44446966D01*
X143166966Y-44302219D01*
X143166968Y-44302215D01*
X143166971Y-44302213D01*
X143227486Y-44218920D01*
X143287287Y-44136610D01*
X143380220Y-43954219D01*
X143443477Y-43759534D01*
X143475500Y-43557352D01*
X143475500Y-43352648D01*
X143454782Y-43221841D01*
X143443477Y-43150465D01*
X143388273Y-42980565D01*
X143380220Y-42955781D01*
X143380218Y-42955778D01*
X143380218Y-42955776D01*
X143309369Y-42816729D01*
X143287287Y-42773390D01*
X143279556Y-42762749D01*
X143166971Y-42607786D01*
X143022213Y-42463028D01*
X142856614Y-42342715D01*
X142787467Y-42307483D01*
X142763917Y-42295483D01*
X142713123Y-42247511D01*
X142696328Y-42179690D01*
X142718865Y-42113555D01*
X142763917Y-42074516D01*
X142856610Y-42027287D01*
X142924528Y-41977942D01*
X143022213Y-41906971D01*
X143022215Y-41906968D01*
X143022219Y-41906966D01*
X143166966Y-41762219D01*
X143166968Y-41762215D01*
X143166971Y-41762213D01*
X143219732Y-41689590D01*
X143246945Y-41652135D01*
X152024500Y-41652135D01*
X152024500Y-43447870D01*
X152024501Y-43447876D01*
X152030908Y-43507483D01*
X152081202Y-43642328D01*
X152081206Y-43642335D01*
X152167452Y-43757544D01*
X152167455Y-43757547D01*
X152282664Y-43843793D01*
X152282671Y-43843797D01*
X152344902Y-43867007D01*
X152414598Y-43893002D01*
X152470531Y-43934873D01*
X152494949Y-44000337D01*
X152480098Y-44068610D01*
X152458947Y-44096865D01*
X152336886Y-44218926D01*
X152201400Y-44412420D01*
X152201399Y-44412422D01*
X152101570Y-44626507D01*
X152101567Y-44626513D01*
X152044364Y-44839999D01*
X152044364Y-44840000D01*
X152941988Y-44840000D01*
X152909075Y-44897007D01*
X152875000Y-45024174D01*
X152875000Y-45155826D01*
X152909075Y-45282993D01*
X152941988Y-45340000D01*
X152044364Y-45340000D01*
X152101567Y-45553486D01*
X152101570Y-45553492D01*
X152201399Y-45767578D01*
X152336894Y-45961082D01*
X152503917Y-46128105D01*
X152697421Y-46263600D01*
X152911507Y-46363429D01*
X152911516Y-46363433D01*
X153125000Y-46420634D01*
X153125000Y-45523012D01*
X153182007Y-45555925D01*
X153309174Y-45590000D01*
X153440826Y-45590000D01*
X153567993Y-45555925D01*
X153625000Y-45523012D01*
X153625000Y-46420633D01*
X153838483Y-46363433D01*
X153838492Y-46363429D01*
X154052578Y-46263600D01*
X154246082Y-46128105D01*
X154413105Y-45961082D01*
X154548600Y-45767578D01*
X154648429Y-45553492D01*
X154648432Y-45553486D01*
X154705636Y-45340000D01*
X153808012Y-45340000D01*
X153840925Y-45282993D01*
X153875000Y-45155826D01*
X153875000Y-45024174D01*
X153840925Y-44897007D01*
X153808012Y-44840000D01*
X154705636Y-44840000D01*
X154705635Y-44839999D01*
X154648432Y-44626513D01*
X154648429Y-44626507D01*
X154548600Y-44412422D01*
X154548599Y-44412420D01*
X154413113Y-44218926D01*
X154413108Y-44218920D01*
X154291053Y-44096865D01*
X154257568Y-44035542D01*
X154262552Y-43965850D01*
X154304424Y-43909917D01*
X154335400Y-43893002D01*
X154424847Y-43859641D01*
X154467326Y-43843798D01*
X154467326Y-43843797D01*
X154467331Y-43843796D01*
X154582546Y-43757546D01*
X154668796Y-43642331D01*
X154719091Y-43507483D01*
X154725500Y-43447873D01*
X154725499Y-41652128D01*
X154719091Y-41592517D01*
X154712189Y-41574013D01*
X154668797Y-41457671D01*
X154668793Y-41457664D01*
X154582547Y-41342455D01*
X154582544Y-41342452D01*
X154467335Y-41256206D01*
X154467328Y-41256202D01*
X154332482Y-41205908D01*
X154332483Y-41205908D01*
X154272883Y-41199501D01*
X154272881Y-41199500D01*
X154272873Y-41199500D01*
X154272864Y-41199500D01*
X152477129Y-41199500D01*
X152477123Y-41199501D01*
X152417516Y-41205908D01*
X152282671Y-41256202D01*
X152282664Y-41256206D01*
X152167455Y-41342452D01*
X152167452Y-41342455D01*
X152081206Y-41457664D01*
X152081202Y-41457671D01*
X152030908Y-41592517D01*
X152030104Y-41600000D01*
X152024501Y-41652123D01*
X152024500Y-41652135D01*
X143246945Y-41652135D01*
X143287287Y-41596610D01*
X143380220Y-41414219D01*
X143443477Y-41219534D01*
X143475500Y-41017352D01*
X143475500Y-40812648D01*
X143443477Y-40610466D01*
X143441031Y-40602939D01*
X143397002Y-40467431D01*
X143380220Y-40415781D01*
X143380218Y-40415778D01*
X143380218Y-40415776D01*
X143327287Y-40311894D01*
X143287287Y-40233390D01*
X143245881Y-40176399D01*
X143166971Y-40067786D01*
X143022213Y-39923028D01*
X142856614Y-39802715D01*
X142810404Y-39779170D01*
X142763917Y-39755483D01*
X142713123Y-39707511D01*
X142696328Y-39639690D01*
X142718865Y-39573555D01*
X142763917Y-39534516D01*
X142856610Y-39487287D01*
X142920465Y-39440894D01*
X143022213Y-39366971D01*
X143022215Y-39366968D01*
X143022219Y-39366966D01*
X143166966Y-39222219D01*
X143166968Y-39222215D01*
X143166971Y-39222213D01*
X143220009Y-39149211D01*
X143287287Y-39056610D01*
X143380220Y-38874219D01*
X143443477Y-38679534D01*
X143475500Y-38477352D01*
X143475500Y-38272648D01*
X143471912Y-38249997D01*
X143443477Y-38070465D01*
X143380218Y-37875776D01*
X143346503Y-37809607D01*
X143287287Y-37693390D01*
X143279556Y-37682749D01*
X143166971Y-37527786D01*
X143022213Y-37383028D01*
X142856613Y-37262715D01*
X142856612Y-37262714D01*
X142856610Y-37262713D01*
X142799653Y-37233691D01*
X142674223Y-37169781D01*
X142479534Y-37106522D01*
X142304995Y-37078878D01*
X142277352Y-37074500D01*
X141272648Y-37074500D01*
X141248329Y-37078351D01*
X141070465Y-37106522D01*
X140875776Y-37169781D01*
X140693386Y-37262715D01*
X140527786Y-37383028D01*
X140383028Y-37527786D01*
X140262715Y-37693386D01*
X140169781Y-37875776D01*
X140106522Y-38070465D01*
X140074500Y-38272648D01*
X135855499Y-38272648D01*
X135855499Y-37527128D01*
X135849091Y-37467517D01*
X135798796Y-37332669D01*
X135798795Y-37332668D01*
X135798793Y-37332664D01*
X135712547Y-37217455D01*
X135712544Y-37217452D01*
X135597335Y-37131206D01*
X135597328Y-37131202D01*
X135462482Y-37080908D01*
X135462483Y-37080908D01*
X135402883Y-37074501D01*
X135402881Y-37074500D01*
X135402873Y-37074500D01*
X135402864Y-37074500D01*
X132907129Y-37074500D01*
X132907123Y-37074501D01*
X132847516Y-37080908D01*
X132712671Y-37131202D01*
X132712664Y-37131206D01*
X132597455Y-37217452D01*
X132597452Y-37217455D01*
X132511206Y-37332664D01*
X132511202Y-37332671D01*
X132460908Y-37467517D01*
X132454501Y-37527116D01*
X132454501Y-37527123D01*
X132454500Y-37527135D01*
X98127568Y-37527135D01*
X98122534Y-37516339D01*
X98059180Y-37425859D01*
X97995827Y-37335381D01*
X97923159Y-37262713D01*
X97839620Y-37179174D01*
X97839616Y-37179171D01*
X97839615Y-37179170D01*
X97658666Y-37052468D01*
X97658662Y-37052466D01*
X97658660Y-37052465D01*
X97458450Y-36959106D01*
X97458447Y-36959105D01*
X97458445Y-36959104D01*
X97245070Y-36901930D01*
X97245062Y-36901929D01*
X97025002Y-36882677D01*
X97024998Y-36882677D01*
X96804937Y-36901929D01*
X96804929Y-36901930D01*
X96591554Y-36959104D01*
X96591548Y-36959107D01*
X96391340Y-37052465D01*
X96391338Y-37052466D01*
X96210377Y-37179175D01*
X96054175Y-37335377D01*
X95927466Y-37516338D01*
X95927465Y-37516340D01*
X95834107Y-37716548D01*
X95834104Y-37716554D01*
X95776930Y-37929929D01*
X95776929Y-37929937D01*
X95757677Y-38149997D01*
X86083574Y-38149997D01*
X86073070Y-38029932D01*
X86015894Y-37816550D01*
X85922534Y-37616339D01*
X85852513Y-37516338D01*
X85795827Y-37435381D01*
X85743474Y-37383028D01*
X85639620Y-37279174D01*
X85639616Y-37279171D01*
X85639615Y-37279170D01*
X85458666Y-37152468D01*
X85458662Y-37152466D01*
X85458660Y-37152465D01*
X85258450Y-37059106D01*
X85258447Y-37059105D01*
X85258445Y-37059104D01*
X85045070Y-37001930D01*
X85045062Y-37001929D01*
X84825002Y-36982677D01*
X84824998Y-36982677D01*
X84604937Y-37001929D01*
X84604929Y-37001930D01*
X84391554Y-37059104D01*
X84391548Y-37059107D01*
X84191340Y-37152465D01*
X84191338Y-37152466D01*
X84010377Y-37279175D01*
X83854175Y-37435377D01*
X83727466Y-37616338D01*
X83727465Y-37616340D01*
X83634107Y-37816548D01*
X83634104Y-37816554D01*
X83576930Y-38029929D01*
X83576929Y-38029937D01*
X83557677Y-38249997D01*
X33474171Y-38249997D01*
X33412335Y-38203706D01*
X33412328Y-38203702D01*
X33277482Y-38153408D01*
X33277483Y-38153408D01*
X33217883Y-38147001D01*
X33217881Y-38147000D01*
X33217873Y-38147000D01*
X33217864Y-38147000D01*
X31422129Y-38147000D01*
X31422123Y-38147001D01*
X31362516Y-38153408D01*
X31227671Y-38203702D01*
X31227664Y-38203706D01*
X31112455Y-38289952D01*
X31112452Y-38289955D01*
X31026206Y-38405164D01*
X31026202Y-38405171D01*
X30975908Y-38540017D01*
X30971239Y-38583450D01*
X30969501Y-38599623D01*
X30969500Y-38599635D01*
X30969500Y-40395370D01*
X30969501Y-40395376D01*
X30975908Y-40454983D01*
X31026202Y-40589828D01*
X31026206Y-40589835D01*
X31112452Y-40705044D01*
X31112455Y-40705047D01*
X31227664Y-40791293D01*
X31227671Y-40791297D01*
X31284917Y-40812648D01*
X31359598Y-40840502D01*
X31415531Y-40882373D01*
X31439949Y-40947837D01*
X31425098Y-41016110D01*
X31403947Y-41044365D01*
X31281886Y-41166426D01*
X31146400Y-41359920D01*
X31146399Y-41359922D01*
X31046570Y-41574007D01*
X31046567Y-41574013D01*
X30989364Y-41787499D01*
X30989364Y-41787500D01*
X31886988Y-41787500D01*
X31854075Y-41844507D01*
X31820000Y-41971674D01*
X31820000Y-42103326D01*
X31854075Y-42230493D01*
X31886988Y-42287500D01*
X30989364Y-42287500D01*
X31046567Y-42500986D01*
X31046570Y-42500992D01*
X31146399Y-42715078D01*
X31281894Y-42908582D01*
X31448917Y-43075605D01*
X31634595Y-43205619D01*
X31678219Y-43260196D01*
X31685412Y-43329695D01*
X31653890Y-43392049D01*
X31634595Y-43408769D01*
X31448594Y-43539008D01*
X31281505Y-43706097D01*
X31145965Y-43899669D01*
X31145964Y-43899671D01*
X31046098Y-44113835D01*
X31046094Y-44113844D01*
X30984938Y-44342086D01*
X30984936Y-44342096D01*
X30964341Y-44577499D01*
X26551875Y-44577499D01*
X26439241Y-26202135D01*
X83674500Y-26202135D01*
X83674500Y-27997870D01*
X83674501Y-27997876D01*
X83680908Y-28057483D01*
X83731202Y-28192328D01*
X83731206Y-28192335D01*
X83817452Y-28307544D01*
X83817455Y-28307547D01*
X83932664Y-28393793D01*
X83932671Y-28393797D01*
X84067517Y-28444091D01*
X84067516Y-28444091D01*
X84074444Y-28444835D01*
X84127127Y-28450500D01*
X85922872Y-28450499D01*
X85982483Y-28444091D01*
X86117331Y-28393796D01*
X86232546Y-28307546D01*
X86318796Y-28192331D01*
X86368002Y-28060401D01*
X86409872Y-28004468D01*
X86475337Y-27980050D01*
X86543610Y-27994901D01*
X86571865Y-28016053D01*
X86693917Y-28138105D01*
X86887421Y-28273600D01*
X87101507Y-28373429D01*
X87101516Y-28373433D01*
X87315000Y-28430634D01*
X87315000Y-27533012D01*
X87372007Y-27565925D01*
X87499174Y-27600000D01*
X87630826Y-27600000D01*
X87757993Y-27565925D01*
X87815000Y-27533012D01*
X87815000Y-28430633D01*
X88028483Y-28373433D01*
X88028492Y-28373429D01*
X88242578Y-28273600D01*
X88436082Y-28138105D01*
X88603105Y-27971082D01*
X88738600Y-27777578D01*
X88838429Y-27563492D01*
X88838432Y-27563486D01*
X88895636Y-27350000D01*
X87998012Y-27350000D01*
X88030925Y-27292993D01*
X88065000Y-27165826D01*
X88065000Y-27034174D01*
X88035746Y-26924999D01*
X97504341Y-26924999D01*
X97504341Y-26925000D01*
X97524936Y-27160403D01*
X97524938Y-27160413D01*
X97586094Y-27388655D01*
X97586096Y-27388659D01*
X97586097Y-27388663D01*
X97638061Y-27500099D01*
X97685965Y-27602830D01*
X97685967Y-27602834D01*
X97794281Y-27757521D01*
X97821505Y-27796401D01*
X97988599Y-27963495D01*
X98063660Y-28016053D01*
X98182165Y-28099032D01*
X98182167Y-28099033D01*
X98182170Y-28099035D01*
X98396337Y-28198903D01*
X98624592Y-28260063D01*
X98795319Y-28275000D01*
X98859999Y-28280659D01*
X98860000Y-28280659D01*
X98860001Y-28280659D01*
X98924681Y-28275000D01*
X99095408Y-28260063D01*
X99323663Y-28198903D01*
X99537830Y-28099035D01*
X99731401Y-27963495D01*
X99853717Y-27841178D01*
X99915036Y-27807696D01*
X99984728Y-27812680D01*
X100040662Y-27854551D01*
X100057577Y-27885528D01*
X100106646Y-28017088D01*
X100106649Y-28017093D01*
X100192809Y-28132187D01*
X100192812Y-28132190D01*
X100307906Y-28218350D01*
X100307913Y-28218354D01*
X100442620Y-28268596D01*
X100442627Y-28268598D01*
X100502155Y-28274999D01*
X100502172Y-28275000D01*
X101150000Y-28275000D01*
X101150000Y-27358012D01*
X101207007Y-27390925D01*
X101334174Y-27425000D01*
X101465826Y-27425000D01*
X101592993Y-27390925D01*
X101650000Y-27358012D01*
X101650000Y-28275000D01*
X102297828Y-28275000D01*
X102297844Y-28274999D01*
X102357372Y-28268598D01*
X102357379Y-28268596D01*
X102492086Y-28218354D01*
X102492093Y-28218350D01*
X102607187Y-28132190D01*
X102607190Y-28132187D01*
X102693350Y-28017093D01*
X102693354Y-28017086D01*
X102743596Y-27882379D01*
X102743598Y-27882372D01*
X102749999Y-27822844D01*
X102750000Y-27822827D01*
X102750000Y-27350000D01*
X126399551Y-27350000D01*
X126419317Y-27601151D01*
X126478126Y-27846110D01*
X126574533Y-28078859D01*
X126706160Y-28293653D01*
X126706161Y-28293656D01*
X126718025Y-28307547D01*
X126869776Y-28485224D01*
X127018066Y-28611875D01*
X127061343Y-28648838D01*
X127061346Y-28648839D01*
X127276140Y-28780466D01*
X127508889Y-28876873D01*
X127753852Y-28935683D01*
X128005000Y-28955449D01*
X128256148Y-28935683D01*
X128501111Y-28876873D01*
X128733859Y-28780466D01*
X128948659Y-28648836D01*
X129140224Y-28485224D01*
X129303836Y-28293659D01*
X129435466Y-28078859D01*
X129531873Y-27846111D01*
X129590683Y-27601148D01*
X129610449Y-27350000D01*
X129590683Y-27098852D01*
X129531873Y-26853889D01*
X129481388Y-26732007D01*
X129435466Y-26621140D01*
X129303839Y-26406346D01*
X129303838Y-26406343D01*
X129266875Y-26363066D01*
X129140224Y-26214776D01*
X129125423Y-26202135D01*
X134024500Y-26202135D01*
X134024500Y-28497870D01*
X134024501Y-28497876D01*
X134030908Y-28557483D01*
X134081202Y-28692328D01*
X134081206Y-28692335D01*
X134167452Y-28807544D01*
X134167455Y-28807547D01*
X134282664Y-28893793D01*
X134282671Y-28893797D01*
X134417517Y-28944091D01*
X134417516Y-28944091D01*
X134424444Y-28944835D01*
X134477127Y-28950500D01*
X136772872Y-28950499D01*
X136832483Y-28944091D01*
X136967331Y-28893796D01*
X137082546Y-28807546D01*
X137168796Y-28692331D01*
X137219091Y-28557483D01*
X137225500Y-28497873D01*
X137225499Y-26202135D01*
X138304500Y-26202135D01*
X138304500Y-28497870D01*
X138304501Y-28497876D01*
X138310908Y-28557483D01*
X138361202Y-28692328D01*
X138361206Y-28692335D01*
X138447452Y-28807544D01*
X138447455Y-28807547D01*
X138562664Y-28893793D01*
X138562671Y-28893797D01*
X138697517Y-28944091D01*
X138697516Y-28944091D01*
X138704444Y-28944835D01*
X138757127Y-28950500D01*
X141052872Y-28950499D01*
X141112483Y-28944091D01*
X141247331Y-28893796D01*
X141362546Y-28807546D01*
X141448796Y-28692331D01*
X141499091Y-28557483D01*
X141505500Y-28497873D01*
X141505499Y-27350000D01*
X145919551Y-27350000D01*
X145939317Y-27601151D01*
X145998126Y-27846110D01*
X146094533Y-28078859D01*
X146226160Y-28293653D01*
X146226161Y-28293656D01*
X146238025Y-28307547D01*
X146389776Y-28485224D01*
X146538066Y-28611875D01*
X146581343Y-28648838D01*
X146581346Y-28648839D01*
X146796140Y-28780466D01*
X147028889Y-28876873D01*
X147273852Y-28935683D01*
X147525000Y-28955449D01*
X147776148Y-28935683D01*
X148021111Y-28876873D01*
X148253859Y-28780466D01*
X148468659Y-28648836D01*
X148660224Y-28485224D01*
X148823836Y-28293659D01*
X148955466Y-28078859D01*
X149051873Y-27846111D01*
X149110683Y-27601148D01*
X149130449Y-27350000D01*
X149110683Y-27098852D01*
X149051873Y-26853889D01*
X149001388Y-26732007D01*
X148955466Y-26621140D01*
X148823839Y-26406346D01*
X148823838Y-26406343D01*
X148786875Y-26363066D01*
X148660224Y-26214776D01*
X148533571Y-26106604D01*
X148468656Y-26051161D01*
X148468653Y-26051160D01*
X148253859Y-25919533D01*
X148021110Y-25823126D01*
X147776151Y-25764317D01*
X147525000Y-25744551D01*
X147273848Y-25764317D01*
X147028889Y-25823126D01*
X146796140Y-25919533D01*
X146581346Y-26051160D01*
X146581343Y-26051161D01*
X146389776Y-26214776D01*
X146226161Y-26406343D01*
X146226160Y-26406346D01*
X146094533Y-26621140D01*
X145998126Y-26853889D01*
X145939317Y-27098848D01*
X145919551Y-27350000D01*
X141505499Y-27350000D01*
X141505499Y-26202128D01*
X141499091Y-26142517D01*
X141498002Y-26139598D01*
X141448797Y-26007671D01*
X141448793Y-26007664D01*
X141362547Y-25892455D01*
X141362544Y-25892452D01*
X141247335Y-25806206D01*
X141247328Y-25806202D01*
X141112482Y-25755908D01*
X141112483Y-25755908D01*
X141052883Y-25749501D01*
X141052881Y-25749500D01*
X141052873Y-25749500D01*
X141052864Y-25749500D01*
X138757129Y-25749500D01*
X138757123Y-25749501D01*
X138697516Y-25755908D01*
X138562671Y-25806202D01*
X138562664Y-25806206D01*
X138447455Y-25892452D01*
X138447452Y-25892455D01*
X138361206Y-26007664D01*
X138361202Y-26007671D01*
X138310908Y-26142517D01*
X138304501Y-26202116D01*
X138304501Y-26202123D01*
X138304500Y-26202135D01*
X137225499Y-26202135D01*
X137225499Y-26202128D01*
X137219091Y-26142517D01*
X137218002Y-26139598D01*
X137168797Y-26007671D01*
X137168793Y-26007664D01*
X137082547Y-25892455D01*
X137082544Y-25892452D01*
X136967335Y-25806206D01*
X136967328Y-25806202D01*
X136832482Y-25755908D01*
X136832483Y-25755908D01*
X136772883Y-25749501D01*
X136772881Y-25749500D01*
X136772873Y-25749500D01*
X136772864Y-25749500D01*
X134477129Y-25749500D01*
X134477123Y-25749501D01*
X134417516Y-25755908D01*
X134282671Y-25806202D01*
X134282664Y-25806206D01*
X134167455Y-25892452D01*
X134167452Y-25892455D01*
X134081206Y-26007664D01*
X134081202Y-26007671D01*
X134030908Y-26142517D01*
X134024501Y-26202116D01*
X134024501Y-26202123D01*
X134024500Y-26202135D01*
X129125423Y-26202135D01*
X129013571Y-26106604D01*
X128948656Y-26051161D01*
X128948653Y-26051160D01*
X128733859Y-25919533D01*
X128501110Y-25823126D01*
X128256151Y-25764317D01*
X128005000Y-25744551D01*
X127753848Y-25764317D01*
X127508889Y-25823126D01*
X127276140Y-25919533D01*
X127061346Y-26051160D01*
X127061343Y-26051161D01*
X126869776Y-26214776D01*
X126706161Y-26406343D01*
X126706160Y-26406346D01*
X126574533Y-26621140D01*
X126478126Y-26853889D01*
X126419317Y-27098848D01*
X126399551Y-27350000D01*
X102750000Y-27350000D01*
X102750000Y-27175000D01*
X101833012Y-27175000D01*
X101865925Y-27117993D01*
X101900000Y-26990826D01*
X101900000Y-26859174D01*
X101865925Y-26732007D01*
X101833012Y-26675000D01*
X102750000Y-26675000D01*
X102750000Y-26027172D01*
X102749999Y-26027155D01*
X102743598Y-25967627D01*
X102743596Y-25967620D01*
X102693354Y-25832913D01*
X102693350Y-25832906D01*
X102607190Y-25717812D01*
X102607187Y-25717809D01*
X102492093Y-25631649D01*
X102492086Y-25631645D01*
X102357379Y-25581403D01*
X102357372Y-25581401D01*
X102297844Y-25575000D01*
X101650000Y-25575000D01*
X101650000Y-26491988D01*
X101592993Y-26459075D01*
X101465826Y-26425000D01*
X101334174Y-26425000D01*
X101207007Y-26459075D01*
X101150000Y-26491988D01*
X101150000Y-25575000D01*
X100502155Y-25575000D01*
X100442627Y-25581401D01*
X100442620Y-25581403D01*
X100307913Y-25631645D01*
X100307906Y-25631649D01*
X100192812Y-25717809D01*
X100192809Y-25717812D01*
X100106649Y-25832906D01*
X100106645Y-25832913D01*
X100057578Y-25964470D01*
X100015707Y-26020404D01*
X99950242Y-26044821D01*
X99881969Y-26029969D01*
X99853715Y-26008819D01*
X99792937Y-25948041D01*
X99731401Y-25886505D01*
X99731397Y-25886502D01*
X99731396Y-25886501D01*
X99537834Y-25750967D01*
X99537830Y-25750965D01*
X99464829Y-25716924D01*
X99323663Y-25651097D01*
X99323659Y-25651096D01*
X99323655Y-25651094D01*
X99095413Y-25589938D01*
X99095403Y-25589936D01*
X98860001Y-25569341D01*
X98859999Y-25569341D01*
X98624596Y-25589936D01*
X98624586Y-25589938D01*
X98396344Y-25651094D01*
X98396335Y-25651098D01*
X98182171Y-25750964D01*
X98182169Y-25750965D01*
X97988597Y-25886505D01*
X97821505Y-26053597D01*
X97685965Y-26247169D01*
X97685964Y-26247171D01*
X97586098Y-26461335D01*
X97586094Y-26461344D01*
X97524938Y-26689586D01*
X97524936Y-26689596D01*
X97504341Y-26924999D01*
X88035746Y-26924999D01*
X88030925Y-26907007D01*
X87998012Y-26850000D01*
X88895636Y-26850000D01*
X88895635Y-26849999D01*
X88838432Y-26636513D01*
X88838429Y-26636507D01*
X88738600Y-26422422D01*
X88738599Y-26422420D01*
X88603113Y-26228926D01*
X88603108Y-26228920D01*
X88436082Y-26061894D01*
X88242578Y-25926399D01*
X88028492Y-25826570D01*
X88028486Y-25826567D01*
X87815000Y-25769364D01*
X87815000Y-26666988D01*
X87757993Y-26634075D01*
X87630826Y-26600000D01*
X87499174Y-26600000D01*
X87372007Y-26634075D01*
X87315000Y-26666988D01*
X87315000Y-25769364D01*
X87314999Y-25769364D01*
X87101513Y-25826567D01*
X87101507Y-25826570D01*
X86887422Y-25926399D01*
X86887420Y-25926400D01*
X86693926Y-26061886D01*
X86571865Y-26183947D01*
X86510542Y-26217431D01*
X86440850Y-26212447D01*
X86384917Y-26170575D01*
X86368002Y-26139598D01*
X86359301Y-26116270D01*
X86335019Y-26051164D01*
X86318797Y-26007671D01*
X86318793Y-26007664D01*
X86232547Y-25892455D01*
X86232544Y-25892452D01*
X86117335Y-25806206D01*
X86117328Y-25806202D01*
X85982482Y-25755908D01*
X85982483Y-25755908D01*
X85922883Y-25749501D01*
X85922881Y-25749500D01*
X85922873Y-25749500D01*
X85922864Y-25749500D01*
X84127129Y-25749500D01*
X84127123Y-25749501D01*
X84067516Y-25755908D01*
X83932671Y-25806202D01*
X83932664Y-25806206D01*
X83817455Y-25892452D01*
X83817452Y-25892455D01*
X83731206Y-26007664D01*
X83731202Y-26007671D01*
X83680908Y-26142517D01*
X83674501Y-26202116D01*
X83674501Y-26202123D01*
X83674500Y-26202135D01*
X26439241Y-26202135D01*
X26425246Y-23918872D01*
X28699500Y-23918872D01*
X28699500Y-24181127D01*
X28726123Y-24383339D01*
X28733730Y-24441116D01*
X28760525Y-24541116D01*
X28801602Y-24694418D01*
X28801605Y-24694428D01*
X28901953Y-24936690D01*
X28901958Y-24936700D01*
X29033075Y-25163803D01*
X29192718Y-25371851D01*
X29192726Y-25371860D01*
X29378140Y-25557274D01*
X29378148Y-25557281D01*
X29378149Y-25557282D01*
X29409581Y-25581401D01*
X29586196Y-25716924D01*
X29813299Y-25848041D01*
X29813309Y-25848046D01*
X30002473Y-25926400D01*
X30055581Y-25948398D01*
X30308884Y-26016270D01*
X30568880Y-26050500D01*
X30568887Y-26050500D01*
X30831113Y-26050500D01*
X30831120Y-26050500D01*
X31091116Y-26016270D01*
X31344419Y-25948398D01*
X31586697Y-25848043D01*
X31813803Y-25716924D01*
X32021851Y-25557282D01*
X32021855Y-25557277D01*
X32021860Y-25557274D01*
X32207274Y-25371860D01*
X32207277Y-25371855D01*
X32207282Y-25371851D01*
X32366924Y-25163803D01*
X32498043Y-24936697D01*
X32598398Y-24694419D01*
X32666270Y-24441116D01*
X32700500Y-24181120D01*
X32700500Y-24018872D01*
X153474500Y-24018872D01*
X153474500Y-24281127D01*
X153495564Y-24441114D01*
X153508730Y-24541116D01*
X153549810Y-24694428D01*
X153576602Y-24794418D01*
X153576605Y-24794428D01*
X153676953Y-25036690D01*
X153676958Y-25036700D01*
X153808075Y-25263803D01*
X153967718Y-25471851D01*
X153967726Y-25471860D01*
X154153140Y-25657274D01*
X154153148Y-25657281D01*
X154361196Y-25816924D01*
X154588299Y-25948041D01*
X154588309Y-25948046D01*
X154821945Y-26044821D01*
X154830581Y-26048398D01*
X155083884Y-26116270D01*
X155343880Y-26150500D01*
X155343887Y-26150500D01*
X155606113Y-26150500D01*
X155606120Y-26150500D01*
X155866116Y-26116270D01*
X156119419Y-26048398D01*
X156360840Y-25948398D01*
X156361690Y-25948046D01*
X156361691Y-25948045D01*
X156361697Y-25948043D01*
X156588803Y-25816924D01*
X156796851Y-25657282D01*
X156796855Y-25657277D01*
X156796860Y-25657274D01*
X156982274Y-25471860D01*
X156982277Y-25471855D01*
X156982282Y-25471851D01*
X157141924Y-25263803D01*
X157273043Y-25036697D01*
X157373398Y-24794419D01*
X157441270Y-24541116D01*
X157475500Y-24281120D01*
X157475500Y-24018880D01*
X157441270Y-23758884D01*
X157373398Y-23505581D01*
X157331977Y-23405581D01*
X157273046Y-23263309D01*
X157273041Y-23263299D01*
X157141924Y-23036196D01*
X156982281Y-22828148D01*
X156982274Y-22828140D01*
X156796860Y-22642726D01*
X156796851Y-22642718D01*
X156588803Y-22483075D01*
X156361700Y-22351958D01*
X156361690Y-22351953D01*
X156119428Y-22251605D01*
X156119421Y-22251603D01*
X156119419Y-22251602D01*
X155866116Y-22183730D01*
X155808339Y-22176123D01*
X155606127Y-22149500D01*
X155606120Y-22149500D01*
X155343880Y-22149500D01*
X155343872Y-22149500D01*
X155112772Y-22179926D01*
X155083884Y-22183730D01*
X154830581Y-22251602D01*
X154830571Y-22251605D01*
X154588309Y-22351953D01*
X154588299Y-22351958D01*
X154361196Y-22483075D01*
X154153148Y-22642718D01*
X153967718Y-22828148D01*
X153808075Y-23036196D01*
X153676958Y-23263299D01*
X153676953Y-23263309D01*
X153576605Y-23505571D01*
X153576602Y-23505581D01*
X153508730Y-23758885D01*
X153474500Y-24018872D01*
X32700500Y-24018872D01*
X32700500Y-23918880D01*
X32666270Y-23658884D01*
X32598398Y-23405581D01*
X32539467Y-23263309D01*
X32498046Y-23163309D01*
X32498041Y-23163299D01*
X32366924Y-22936196D01*
X32207281Y-22728148D01*
X32207274Y-22728140D01*
X32021860Y-22542726D01*
X32021851Y-22542718D01*
X31813803Y-22383075D01*
X31586700Y-22251958D01*
X31586690Y-22251953D01*
X31344428Y-22151605D01*
X31344421Y-22151603D01*
X31344419Y-22151602D01*
X31091116Y-22083730D01*
X31033339Y-22076123D01*
X30831127Y-22049500D01*
X30831120Y-22049500D01*
X30568880Y-22049500D01*
X30568872Y-22049500D01*
X30337772Y-22079926D01*
X30308884Y-22083730D01*
X30063426Y-22149500D01*
X30055581Y-22151602D01*
X30055571Y-22151605D01*
X29813309Y-22251953D01*
X29813299Y-22251958D01*
X29586196Y-22383075D01*
X29378148Y-22542718D01*
X29192718Y-22728148D01*
X29033075Y-22936196D01*
X28901958Y-23163299D01*
X28901953Y-23163309D01*
X28801605Y-23405571D01*
X28801602Y-23405581D01*
X28733730Y-23658885D01*
X28699500Y-23918872D01*
X26425246Y-23918872D01*
X26400765Y-19924940D01*
X26420039Y-19857784D01*
X26472561Y-19811706D01*
X26525063Y-19800183D01*
X159026304Y-20124697D01*
G37*
%TD.AperFunction*%
%TD*%
M02*
