%TF.GenerationSoftware,KiCad,Pcbnew,8.0.5*%
%TF.CreationDate,2024-10-21T21:01:05+13:00*%
%TF.ProjectId,PPM Amplifier,50504d20-416d-4706-9c69-666965722e6b,1.0*%
%TF.SameCoordinates,Original*%
%TF.FileFunction,Soldermask,Bot*%
%TF.FilePolarity,Negative*%
%FSLAX46Y46*%
G04 Gerber Fmt 4.6, Leading zero omitted, Abs format (unit mm)*
G04 Created by KiCad (PCBNEW 8.0.5) date 2024-10-21 21:01:05*
%MOMM*%
%LPD*%
G01*
G04 APERTURE LIST*
%ADD10R,2.200000X2.200000*%
%ADD11O,2.200000X2.200000*%
%ADD12R,1.700000X1.700000*%
%ADD13O,1.700000X1.700000*%
%ADD14C,3.500000*%
%ADD15C,1.524000*%
%ADD16R,2.400000X1.600000*%
%ADD17O,2.400000X1.600000*%
G04 APERTURE END LIST*
D10*
%TO.C,D1*%
X135625000Y-27350000D03*
D11*
X128005000Y-27350000D03*
%TD*%
D12*
%TO.C,J2*%
X32320000Y-39497500D03*
D13*
X32320000Y-42037500D03*
X32320000Y-44577500D03*
%TD*%
D12*
%TO.C,J6*%
X119500000Y-71475000D03*
D13*
X122040000Y-71475000D03*
%TD*%
D10*
%TO.C,D2*%
X139905000Y-27350000D03*
D11*
X147525000Y-27350000D03*
%TD*%
D14*
%TO.C,REF\u002A\u002A*%
X155475000Y-24150000D03*
%TD*%
D15*
%TO.C,T1*%
X84825000Y-38250000D03*
X84925000Y-40750000D03*
X84825000Y-43250000D03*
X97025000Y-43250000D03*
X97025000Y-40750000D03*
X97025000Y-38150000D03*
%TD*%
D14*
%TO.C,REF\u002A\u002A*%
X30725000Y-73750000D03*
%TD*%
D16*
%TO.C,U3*%
X134155000Y-38375000D03*
D17*
X134155000Y-40915000D03*
X134155000Y-43455000D03*
X134155000Y-45995000D03*
X141775000Y-45995000D03*
X141775000Y-43455000D03*
X141775000Y-40915000D03*
X141775000Y-38375000D03*
%TD*%
D14*
%TO.C,REF\u002A\u002A*%
X30700000Y-24050000D03*
%TD*%
D12*
%TO.C,J4*%
X101400000Y-26925000D03*
D13*
X98860000Y-26925000D03*
%TD*%
D12*
%TO.C,J5*%
X121675000Y-41350000D03*
D13*
X124215000Y-41350000D03*
%TD*%
D12*
%TO.C,J1*%
X94235000Y-71610000D03*
D13*
X96775000Y-71610000D03*
X99315000Y-71610000D03*
%TD*%
D12*
%TO.C,J3*%
X85025000Y-27100000D03*
D13*
X87565000Y-27100000D03*
%TD*%
D12*
%TO.C,P2*%
X153375000Y-42550000D03*
D13*
X153375000Y-45090000D03*
%TD*%
D14*
%TO.C,REF\u002A\u002A*%
X155575000Y-73525000D03*
%TD*%
M02*
