%TF.GenerationSoftware,KiCad,Pcbnew,8.0.5*%
%TF.CreationDate,2024-10-21T21:01:05+13:00*%
%TF.ProjectId,PPM Amplifier,50504d20-416d-4706-9c69-666965722e6b,1.0*%
%TF.SameCoordinates,Original*%
%TF.FileFunction,Legend,Top*%
%TF.FilePolarity,Positive*%
%FSLAX46Y46*%
G04 Gerber Fmt 4.6, Leading zero omitted, Abs format (unit mm)*
G04 Created by KiCad (PCBNEW 8.0.5) date 2024-10-21 21:01:05*
%MOMM*%
%LPD*%
G01*
G04 APERTURE LIST*
G04 Aperture macros list*
%AMRoundRect*
0 Rectangle with rounded corners*
0 $1 Rounding radius*
0 $2 $3 $4 $5 $6 $7 $8 $9 X,Y pos of 4 corners*
0 Add a 4 corners polygon primitive as box body*
4,1,4,$2,$3,$4,$5,$6,$7,$8,$9,$2,$3,0*
0 Add four circle primitives for the rounded corners*
1,1,$1+$1,$2,$3*
1,1,$1+$1,$4,$5*
1,1,$1+$1,$6,$7*
1,1,$1+$1,$8,$9*
0 Add four rect primitives between the rounded corners*
20,1,$1+$1,$2,$3,$4,$5,0*
20,1,$1+$1,$4,$5,$6,$7,0*
20,1,$1+$1,$6,$7,$8,$9,0*
20,1,$1+$1,$8,$9,$2,$3,0*%
G04 Aperture macros list end*
%ADD10C,0.300000*%
%ADD11C,0.200000*%
%ADD12C,0.150000*%
%ADD13C,0.120000*%
%ADD14R,2.200000X2.200000*%
%ADD15O,2.200000X2.200000*%
%ADD16R,2.440000X1.120000*%
%ADD17RoundRect,0.250000X-0.337500X-0.475000X0.337500X-0.475000X0.337500X0.475000X-0.337500X0.475000X0*%
%ADD18R,1.700000X1.700000*%
%ADD19O,1.700000X1.700000*%
%ADD20RoundRect,0.250000X-0.350000X-0.450000X0.350000X-0.450000X0.350000X0.450000X-0.350000X0.450000X0*%
%ADD21RoundRect,0.250000X0.337500X0.475000X-0.337500X0.475000X-0.337500X-0.475000X0.337500X-0.475000X0*%
%ADD22C,3.500000*%
%ADD23RoundRect,0.250000X1.250000X0.550000X-1.250000X0.550000X-1.250000X-0.550000X1.250000X-0.550000X0*%
%ADD24C,1.524000*%
%ADD25R,2.400000X1.600000*%
%ADD26O,2.400000X1.600000*%
%ADD27RoundRect,0.150000X-0.875000X-0.150000X0.875000X-0.150000X0.875000X0.150000X-0.875000X0.150000X0*%
G04 APERTURE END LIST*
D10*
X36548558Y-68639638D02*
X36548558Y-66639638D01*
X36548558Y-66639638D02*
X37310463Y-66639638D01*
X37310463Y-66639638D02*
X37500939Y-66734876D01*
X37500939Y-66734876D02*
X37596177Y-66830114D01*
X37596177Y-66830114D02*
X37691415Y-67020590D01*
X37691415Y-67020590D02*
X37691415Y-67306304D01*
X37691415Y-67306304D02*
X37596177Y-67496780D01*
X37596177Y-67496780D02*
X37500939Y-67592019D01*
X37500939Y-67592019D02*
X37310463Y-67687257D01*
X37310463Y-67687257D02*
X36548558Y-67687257D01*
X38548558Y-68639638D02*
X38548558Y-67306304D01*
X38548558Y-67687257D02*
X38643796Y-67496780D01*
X38643796Y-67496780D02*
X38739034Y-67401542D01*
X38739034Y-67401542D02*
X38929510Y-67306304D01*
X38929510Y-67306304D02*
X39119987Y-67306304D01*
X40072367Y-68639638D02*
X39881891Y-68544400D01*
X39881891Y-68544400D02*
X39786653Y-68449161D01*
X39786653Y-68449161D02*
X39691415Y-68258685D01*
X39691415Y-68258685D02*
X39691415Y-67687257D01*
X39691415Y-67687257D02*
X39786653Y-67496780D01*
X39786653Y-67496780D02*
X39881891Y-67401542D01*
X39881891Y-67401542D02*
X40072367Y-67306304D01*
X40072367Y-67306304D02*
X40358082Y-67306304D01*
X40358082Y-67306304D02*
X40548558Y-67401542D01*
X40548558Y-67401542D02*
X40643796Y-67496780D01*
X40643796Y-67496780D02*
X40739034Y-67687257D01*
X40739034Y-67687257D02*
X40739034Y-68258685D01*
X40739034Y-68258685D02*
X40643796Y-68449161D01*
X40643796Y-68449161D02*
X40548558Y-68544400D01*
X40548558Y-68544400D02*
X40358082Y-68639638D01*
X40358082Y-68639638D02*
X40072367Y-68639638D01*
X41310463Y-67306304D02*
X42072367Y-67306304D01*
X41596177Y-66639638D02*
X41596177Y-68353923D01*
X41596177Y-68353923D02*
X41691415Y-68544400D01*
X41691415Y-68544400D02*
X41881891Y-68639638D01*
X41881891Y-68639638D02*
X42072367Y-68639638D01*
X43024748Y-68639638D02*
X42834272Y-68544400D01*
X42834272Y-68544400D02*
X42739034Y-68449161D01*
X42739034Y-68449161D02*
X42643796Y-68258685D01*
X42643796Y-68258685D02*
X42643796Y-67687257D01*
X42643796Y-67687257D02*
X42739034Y-67496780D01*
X42739034Y-67496780D02*
X42834272Y-67401542D01*
X42834272Y-67401542D02*
X43024748Y-67306304D01*
X43024748Y-67306304D02*
X43310463Y-67306304D01*
X43310463Y-67306304D02*
X43500939Y-67401542D01*
X43500939Y-67401542D02*
X43596177Y-67496780D01*
X43596177Y-67496780D02*
X43691415Y-67687257D01*
X43691415Y-67687257D02*
X43691415Y-68258685D01*
X43691415Y-68258685D02*
X43596177Y-68449161D01*
X43596177Y-68449161D02*
X43500939Y-68544400D01*
X43500939Y-68544400D02*
X43310463Y-68639638D01*
X43310463Y-68639638D02*
X43024748Y-68639638D01*
X44548558Y-67306304D02*
X44548558Y-68639638D01*
X44548558Y-67496780D02*
X44643796Y-67401542D01*
X44643796Y-67401542D02*
X44834272Y-67306304D01*
X44834272Y-67306304D02*
X45119987Y-67306304D01*
X45119987Y-67306304D02*
X45310463Y-67401542D01*
X45310463Y-67401542D02*
X45405701Y-67592019D01*
X45405701Y-67592019D02*
X45405701Y-68639638D01*
X47881892Y-68639638D02*
X47881892Y-66639638D01*
X47881892Y-66639638D02*
X48643797Y-66639638D01*
X48643797Y-66639638D02*
X48834273Y-66734876D01*
X48834273Y-66734876D02*
X48929511Y-66830114D01*
X48929511Y-66830114D02*
X49024749Y-67020590D01*
X49024749Y-67020590D02*
X49024749Y-67306304D01*
X49024749Y-67306304D02*
X48929511Y-67496780D01*
X48929511Y-67496780D02*
X48834273Y-67592019D01*
X48834273Y-67592019D02*
X48643797Y-67687257D01*
X48643797Y-67687257D02*
X47881892Y-67687257D01*
X49881892Y-68639638D02*
X49881892Y-67306304D01*
X49881892Y-67687257D02*
X49977130Y-67496780D01*
X49977130Y-67496780D02*
X50072368Y-67401542D01*
X50072368Y-67401542D02*
X50262844Y-67306304D01*
X50262844Y-67306304D02*
X50453321Y-67306304D01*
X51881892Y-68544400D02*
X51691416Y-68639638D01*
X51691416Y-68639638D02*
X51310463Y-68639638D01*
X51310463Y-68639638D02*
X51119987Y-68544400D01*
X51119987Y-68544400D02*
X51024749Y-68353923D01*
X51024749Y-68353923D02*
X51024749Y-67592019D01*
X51024749Y-67592019D02*
X51119987Y-67401542D01*
X51119987Y-67401542D02*
X51310463Y-67306304D01*
X51310463Y-67306304D02*
X51691416Y-67306304D01*
X51691416Y-67306304D02*
X51881892Y-67401542D01*
X51881892Y-67401542D02*
X51977130Y-67592019D01*
X51977130Y-67592019D02*
X51977130Y-67782495D01*
X51977130Y-67782495D02*
X51024749Y-67972971D01*
X53691416Y-68544400D02*
X53500940Y-68639638D01*
X53500940Y-68639638D02*
X53119987Y-68639638D01*
X53119987Y-68639638D02*
X52929511Y-68544400D01*
X52929511Y-68544400D02*
X52834273Y-68449161D01*
X52834273Y-68449161D02*
X52739035Y-68258685D01*
X52739035Y-68258685D02*
X52739035Y-67687257D01*
X52739035Y-67687257D02*
X52834273Y-67496780D01*
X52834273Y-67496780D02*
X52929511Y-67401542D01*
X52929511Y-67401542D02*
X53119987Y-67306304D01*
X53119987Y-67306304D02*
X53500940Y-67306304D01*
X53500940Y-67306304D02*
X53691416Y-67401542D01*
X55310464Y-68544400D02*
X55119988Y-68639638D01*
X55119988Y-68639638D02*
X54739035Y-68639638D01*
X54739035Y-68639638D02*
X54548559Y-68544400D01*
X54548559Y-68544400D02*
X54453321Y-68353923D01*
X54453321Y-68353923D02*
X54453321Y-67592019D01*
X54453321Y-67592019D02*
X54548559Y-67401542D01*
X54548559Y-67401542D02*
X54739035Y-67306304D01*
X54739035Y-67306304D02*
X55119988Y-67306304D01*
X55119988Y-67306304D02*
X55310464Y-67401542D01*
X55310464Y-67401542D02*
X55405702Y-67592019D01*
X55405702Y-67592019D02*
X55405702Y-67782495D01*
X55405702Y-67782495D02*
X54453321Y-67972971D01*
X56167607Y-68544400D02*
X56358083Y-68639638D01*
X56358083Y-68639638D02*
X56739035Y-68639638D01*
X56739035Y-68639638D02*
X56929512Y-68544400D01*
X56929512Y-68544400D02*
X57024750Y-68353923D01*
X57024750Y-68353923D02*
X57024750Y-68258685D01*
X57024750Y-68258685D02*
X56929512Y-68068209D01*
X56929512Y-68068209D02*
X56739035Y-67972971D01*
X56739035Y-67972971D02*
X56453321Y-67972971D01*
X56453321Y-67972971D02*
X56262845Y-67877733D01*
X56262845Y-67877733D02*
X56167607Y-67687257D01*
X56167607Y-67687257D02*
X56167607Y-67592019D01*
X56167607Y-67592019D02*
X56262845Y-67401542D01*
X56262845Y-67401542D02*
X56453321Y-67306304D01*
X56453321Y-67306304D02*
X56739035Y-67306304D01*
X56739035Y-67306304D02*
X56929512Y-67401542D01*
X57786655Y-68544400D02*
X57977131Y-68639638D01*
X57977131Y-68639638D02*
X58358083Y-68639638D01*
X58358083Y-68639638D02*
X58548560Y-68544400D01*
X58548560Y-68544400D02*
X58643798Y-68353923D01*
X58643798Y-68353923D02*
X58643798Y-68258685D01*
X58643798Y-68258685D02*
X58548560Y-68068209D01*
X58548560Y-68068209D02*
X58358083Y-67972971D01*
X58358083Y-67972971D02*
X58072369Y-67972971D01*
X58072369Y-67972971D02*
X57881893Y-67877733D01*
X57881893Y-67877733D02*
X57786655Y-67687257D01*
X57786655Y-67687257D02*
X57786655Y-67592019D01*
X57786655Y-67592019D02*
X57881893Y-67401542D01*
X57881893Y-67401542D02*
X58072369Y-67306304D01*
X58072369Y-67306304D02*
X58358083Y-67306304D01*
X58358083Y-67306304D02*
X58548560Y-67401542D01*
X59500941Y-68639638D02*
X59500941Y-67306304D01*
X59500941Y-66639638D02*
X59405703Y-66734876D01*
X59405703Y-66734876D02*
X59500941Y-66830114D01*
X59500941Y-66830114D02*
X59596179Y-66734876D01*
X59596179Y-66734876D02*
X59500941Y-66639638D01*
X59500941Y-66639638D02*
X59500941Y-66830114D01*
X60739036Y-68639638D02*
X60548560Y-68544400D01*
X60548560Y-68544400D02*
X60453322Y-68449161D01*
X60453322Y-68449161D02*
X60358084Y-68258685D01*
X60358084Y-68258685D02*
X60358084Y-67687257D01*
X60358084Y-67687257D02*
X60453322Y-67496780D01*
X60453322Y-67496780D02*
X60548560Y-67401542D01*
X60548560Y-67401542D02*
X60739036Y-67306304D01*
X60739036Y-67306304D02*
X61024751Y-67306304D01*
X61024751Y-67306304D02*
X61215227Y-67401542D01*
X61215227Y-67401542D02*
X61310465Y-67496780D01*
X61310465Y-67496780D02*
X61405703Y-67687257D01*
X61405703Y-67687257D02*
X61405703Y-68258685D01*
X61405703Y-68258685D02*
X61310465Y-68449161D01*
X61310465Y-68449161D02*
X61215227Y-68544400D01*
X61215227Y-68544400D02*
X61024751Y-68639638D01*
X61024751Y-68639638D02*
X60739036Y-68639638D01*
X62262846Y-67306304D02*
X62262846Y-68639638D01*
X62262846Y-67496780D02*
X62358084Y-67401542D01*
X62358084Y-67401542D02*
X62548560Y-67306304D01*
X62548560Y-67306304D02*
X62834275Y-67306304D01*
X62834275Y-67306304D02*
X63024751Y-67401542D01*
X63024751Y-67401542D02*
X63119989Y-67592019D01*
X63119989Y-67592019D02*
X63119989Y-68639638D01*
X65596180Y-68639638D02*
X65596180Y-66639638D01*
X65596180Y-66639638D02*
X66262847Y-68068209D01*
X66262847Y-68068209D02*
X66929513Y-66639638D01*
X66929513Y-66639638D02*
X66929513Y-68639638D01*
X68739037Y-68639638D02*
X68739037Y-67592019D01*
X68739037Y-67592019D02*
X68643799Y-67401542D01*
X68643799Y-67401542D02*
X68453323Y-67306304D01*
X68453323Y-67306304D02*
X68072370Y-67306304D01*
X68072370Y-67306304D02*
X67881894Y-67401542D01*
X68739037Y-68544400D02*
X68548561Y-68639638D01*
X68548561Y-68639638D02*
X68072370Y-68639638D01*
X68072370Y-68639638D02*
X67881894Y-68544400D01*
X67881894Y-68544400D02*
X67786656Y-68353923D01*
X67786656Y-68353923D02*
X67786656Y-68163447D01*
X67786656Y-68163447D02*
X67881894Y-67972971D01*
X67881894Y-67972971D02*
X68072370Y-67877733D01*
X68072370Y-67877733D02*
X68548561Y-67877733D01*
X68548561Y-67877733D02*
X68739037Y-67782495D01*
X70548561Y-67306304D02*
X70548561Y-68925352D01*
X70548561Y-68925352D02*
X70453323Y-69115828D01*
X70453323Y-69115828D02*
X70358085Y-69211066D01*
X70358085Y-69211066D02*
X70167608Y-69306304D01*
X70167608Y-69306304D02*
X69881894Y-69306304D01*
X69881894Y-69306304D02*
X69691418Y-69211066D01*
X70548561Y-68544400D02*
X70358085Y-68639638D01*
X70358085Y-68639638D02*
X69977132Y-68639638D01*
X69977132Y-68639638D02*
X69786656Y-68544400D01*
X69786656Y-68544400D02*
X69691418Y-68449161D01*
X69691418Y-68449161D02*
X69596180Y-68258685D01*
X69596180Y-68258685D02*
X69596180Y-67687257D01*
X69596180Y-67687257D02*
X69691418Y-67496780D01*
X69691418Y-67496780D02*
X69786656Y-67401542D01*
X69786656Y-67401542D02*
X69977132Y-67306304D01*
X69977132Y-67306304D02*
X70358085Y-67306304D01*
X70358085Y-67306304D02*
X70548561Y-67401542D01*
X71500942Y-67306304D02*
X71500942Y-68639638D01*
X71500942Y-67496780D02*
X71596180Y-67401542D01*
X71596180Y-67401542D02*
X71786656Y-67306304D01*
X71786656Y-67306304D02*
X72072371Y-67306304D01*
X72072371Y-67306304D02*
X72262847Y-67401542D01*
X72262847Y-67401542D02*
X72358085Y-67592019D01*
X72358085Y-67592019D02*
X72358085Y-68639638D01*
X74072371Y-68544400D02*
X73881895Y-68639638D01*
X73881895Y-68639638D02*
X73500942Y-68639638D01*
X73500942Y-68639638D02*
X73310466Y-68544400D01*
X73310466Y-68544400D02*
X73215228Y-68353923D01*
X73215228Y-68353923D02*
X73215228Y-67592019D01*
X73215228Y-67592019D02*
X73310466Y-67401542D01*
X73310466Y-67401542D02*
X73500942Y-67306304D01*
X73500942Y-67306304D02*
X73881895Y-67306304D01*
X73881895Y-67306304D02*
X74072371Y-67401542D01*
X74072371Y-67401542D02*
X74167609Y-67592019D01*
X74167609Y-67592019D02*
X74167609Y-67782495D01*
X74167609Y-67782495D02*
X73215228Y-67972971D01*
X74739038Y-67306304D02*
X75500942Y-67306304D01*
X75024752Y-66639638D02*
X75024752Y-68353923D01*
X75024752Y-68353923D02*
X75119990Y-68544400D01*
X75119990Y-68544400D02*
X75310466Y-68639638D01*
X75310466Y-68639638D02*
X75500942Y-68639638D01*
X76453323Y-68639638D02*
X76262847Y-68544400D01*
X76262847Y-68544400D02*
X76167609Y-68449161D01*
X76167609Y-68449161D02*
X76072371Y-68258685D01*
X76072371Y-68258685D02*
X76072371Y-67687257D01*
X76072371Y-67687257D02*
X76167609Y-67496780D01*
X76167609Y-67496780D02*
X76262847Y-67401542D01*
X76262847Y-67401542D02*
X76453323Y-67306304D01*
X76453323Y-67306304D02*
X76739038Y-67306304D01*
X76739038Y-67306304D02*
X76929514Y-67401542D01*
X76929514Y-67401542D02*
X77024752Y-67496780D01*
X77024752Y-67496780D02*
X77119990Y-67687257D01*
X77119990Y-67687257D02*
X77119990Y-68258685D01*
X77119990Y-68258685D02*
X77024752Y-68449161D01*
X77024752Y-68449161D02*
X76929514Y-68544400D01*
X76929514Y-68544400D02*
X76739038Y-68639638D01*
X76739038Y-68639638D02*
X76453323Y-68639638D01*
X77977133Y-68639638D02*
X77977133Y-67306304D01*
X77977133Y-67496780D02*
X78072371Y-67401542D01*
X78072371Y-67401542D02*
X78262847Y-67306304D01*
X78262847Y-67306304D02*
X78548562Y-67306304D01*
X78548562Y-67306304D02*
X78739038Y-67401542D01*
X78739038Y-67401542D02*
X78834276Y-67592019D01*
X78834276Y-67592019D02*
X78834276Y-68639638D01*
X78834276Y-67592019D02*
X78929514Y-67401542D01*
X78929514Y-67401542D02*
X79119990Y-67306304D01*
X79119990Y-67306304D02*
X79405704Y-67306304D01*
X79405704Y-67306304D02*
X79596181Y-67401542D01*
X79596181Y-67401542D02*
X79691419Y-67592019D01*
X79691419Y-67592019D02*
X79691419Y-68639638D01*
X81405705Y-68544400D02*
X81215229Y-68639638D01*
X81215229Y-68639638D02*
X80834276Y-68639638D01*
X80834276Y-68639638D02*
X80643800Y-68544400D01*
X80643800Y-68544400D02*
X80548562Y-68353923D01*
X80548562Y-68353923D02*
X80548562Y-67592019D01*
X80548562Y-67592019D02*
X80643800Y-67401542D01*
X80643800Y-67401542D02*
X80834276Y-67306304D01*
X80834276Y-67306304D02*
X81215229Y-67306304D01*
X81215229Y-67306304D02*
X81405705Y-67401542D01*
X81405705Y-67401542D02*
X81500943Y-67592019D01*
X81500943Y-67592019D02*
X81500943Y-67782495D01*
X81500943Y-67782495D02*
X80548562Y-67972971D01*
X82072372Y-67306304D02*
X82834276Y-67306304D01*
X82358086Y-66639638D02*
X82358086Y-68353923D01*
X82358086Y-68353923D02*
X82453324Y-68544400D01*
X82453324Y-68544400D02*
X82643800Y-68639638D01*
X82643800Y-68639638D02*
X82834276Y-68639638D01*
X84262848Y-68544400D02*
X84072372Y-68639638D01*
X84072372Y-68639638D02*
X83691419Y-68639638D01*
X83691419Y-68639638D02*
X83500943Y-68544400D01*
X83500943Y-68544400D02*
X83405705Y-68353923D01*
X83405705Y-68353923D02*
X83405705Y-67592019D01*
X83405705Y-67592019D02*
X83500943Y-67401542D01*
X83500943Y-67401542D02*
X83691419Y-67306304D01*
X83691419Y-67306304D02*
X84072372Y-67306304D01*
X84072372Y-67306304D02*
X84262848Y-67401542D01*
X84262848Y-67401542D02*
X84358086Y-67592019D01*
X84358086Y-67592019D02*
X84358086Y-67782495D01*
X84358086Y-67782495D02*
X83405705Y-67972971D01*
X85215229Y-68639638D02*
X85215229Y-67306304D01*
X85215229Y-67687257D02*
X85310467Y-67496780D01*
X85310467Y-67496780D02*
X85405705Y-67401542D01*
X85405705Y-67401542D02*
X85596181Y-67306304D01*
X85596181Y-67306304D02*
X85786658Y-67306304D01*
X156354510Y-44979400D02*
X157497368Y-44979400D01*
D11*
X90564838Y-27356517D02*
X90517219Y-27451755D01*
X90517219Y-27451755D02*
X90517219Y-27594612D01*
X90517219Y-27594612D02*
X90564838Y-27737469D01*
X90564838Y-27737469D02*
X90660076Y-27832707D01*
X90660076Y-27832707D02*
X90755314Y-27880326D01*
X90755314Y-27880326D02*
X90945790Y-27927945D01*
X90945790Y-27927945D02*
X91088647Y-27927945D01*
X91088647Y-27927945D02*
X91279123Y-27880326D01*
X91279123Y-27880326D02*
X91374361Y-27832707D01*
X91374361Y-27832707D02*
X91469600Y-27737469D01*
X91469600Y-27737469D02*
X91517219Y-27594612D01*
X91517219Y-27594612D02*
X91517219Y-27499374D01*
X91517219Y-27499374D02*
X91469600Y-27356517D01*
X91469600Y-27356517D02*
X91421980Y-27308898D01*
X91421980Y-27308898D02*
X91088647Y-27308898D01*
X91088647Y-27308898D02*
X91088647Y-27499374D01*
X91517219Y-26880326D02*
X90517219Y-26880326D01*
X90517219Y-26880326D02*
X91517219Y-26308898D01*
X91517219Y-26308898D02*
X90517219Y-26308898D01*
X91517219Y-25832707D02*
X90517219Y-25832707D01*
X90517219Y-25832707D02*
X90517219Y-25594612D01*
X90517219Y-25594612D02*
X90564838Y-25451755D01*
X90564838Y-25451755D02*
X90660076Y-25356517D01*
X90660076Y-25356517D02*
X90755314Y-25308898D01*
X90755314Y-25308898D02*
X90945790Y-25261279D01*
X90945790Y-25261279D02*
X91088647Y-25261279D01*
X91088647Y-25261279D02*
X91279123Y-25308898D01*
X91279123Y-25308898D02*
X91374361Y-25356517D01*
X91374361Y-25356517D02*
X91469600Y-25451755D01*
X91469600Y-25451755D02*
X91517219Y-25594612D01*
X91517219Y-25594612D02*
X91517219Y-25832707D01*
X126389838Y-41781517D02*
X126342219Y-41876755D01*
X126342219Y-41876755D02*
X126342219Y-42019612D01*
X126342219Y-42019612D02*
X126389838Y-42162469D01*
X126389838Y-42162469D02*
X126485076Y-42257707D01*
X126485076Y-42257707D02*
X126580314Y-42305326D01*
X126580314Y-42305326D02*
X126770790Y-42352945D01*
X126770790Y-42352945D02*
X126913647Y-42352945D01*
X126913647Y-42352945D02*
X127104123Y-42305326D01*
X127104123Y-42305326D02*
X127199361Y-42257707D01*
X127199361Y-42257707D02*
X127294600Y-42162469D01*
X127294600Y-42162469D02*
X127342219Y-42019612D01*
X127342219Y-42019612D02*
X127342219Y-41924374D01*
X127342219Y-41924374D02*
X127294600Y-41781517D01*
X127294600Y-41781517D02*
X127246980Y-41733898D01*
X127246980Y-41733898D02*
X126913647Y-41733898D01*
X126913647Y-41733898D02*
X126913647Y-41924374D01*
X127342219Y-41305326D02*
X126342219Y-41305326D01*
X126342219Y-41305326D02*
X127342219Y-40733898D01*
X127342219Y-40733898D02*
X126342219Y-40733898D01*
X127342219Y-40257707D02*
X126342219Y-40257707D01*
X126342219Y-40257707D02*
X126342219Y-40019612D01*
X126342219Y-40019612D02*
X126389838Y-39876755D01*
X126389838Y-39876755D02*
X126485076Y-39781517D01*
X126485076Y-39781517D02*
X126580314Y-39733898D01*
X126580314Y-39733898D02*
X126770790Y-39686279D01*
X126770790Y-39686279D02*
X126913647Y-39686279D01*
X126913647Y-39686279D02*
X127104123Y-39733898D01*
X127104123Y-39733898D02*
X127199361Y-39781517D01*
X127199361Y-39781517D02*
X127294600Y-39876755D01*
X127294600Y-39876755D02*
X127342219Y-40019612D01*
X127342219Y-40019612D02*
X127342219Y-40257707D01*
X101544673Y-72036266D02*
X102306578Y-72036266D01*
X101925625Y-72417219D02*
X101925625Y-71655314D01*
X103306577Y-72417219D02*
X102735149Y-72417219D01*
X103020863Y-72417219D02*
X103020863Y-71417219D01*
X103020863Y-71417219D02*
X102925625Y-71560076D01*
X102925625Y-71560076D02*
X102830387Y-71655314D01*
X102830387Y-71655314D02*
X102735149Y-71702933D01*
X103687530Y-71512457D02*
X103735149Y-71464838D01*
X103735149Y-71464838D02*
X103830387Y-71417219D01*
X103830387Y-71417219D02*
X104068482Y-71417219D01*
X104068482Y-71417219D02*
X104163720Y-71464838D01*
X104163720Y-71464838D02*
X104211339Y-71512457D01*
X104211339Y-71512457D02*
X104258958Y-71607695D01*
X104258958Y-71607695D02*
X104258958Y-71702933D01*
X104258958Y-71702933D02*
X104211339Y-71845790D01*
X104211339Y-71845790D02*
X103639911Y-72417219D01*
X103639911Y-72417219D02*
X104258958Y-72417219D01*
X104544673Y-71417219D02*
X104878006Y-72417219D01*
X104878006Y-72417219D02*
X105211339Y-71417219D01*
X88219673Y-71836266D02*
X88981578Y-71836266D01*
X89981577Y-72217219D02*
X89410149Y-72217219D01*
X89695863Y-72217219D02*
X89695863Y-71217219D01*
X89695863Y-71217219D02*
X89600625Y-71360076D01*
X89600625Y-71360076D02*
X89505387Y-71455314D01*
X89505387Y-71455314D02*
X89410149Y-71502933D01*
X90362530Y-71312457D02*
X90410149Y-71264838D01*
X90410149Y-71264838D02*
X90505387Y-71217219D01*
X90505387Y-71217219D02*
X90743482Y-71217219D01*
X90743482Y-71217219D02*
X90838720Y-71264838D01*
X90838720Y-71264838D02*
X90886339Y-71312457D01*
X90886339Y-71312457D02*
X90933958Y-71407695D01*
X90933958Y-71407695D02*
X90933958Y-71502933D01*
X90933958Y-71502933D02*
X90886339Y-71645790D01*
X90886339Y-71645790D02*
X90314911Y-72217219D01*
X90314911Y-72217219D02*
X90933958Y-72217219D01*
X91219673Y-71217219D02*
X91553006Y-72217219D01*
X91553006Y-72217219D02*
X91886339Y-71217219D01*
D10*
X124904510Y-71354400D02*
X126047368Y-71354400D01*
X28754510Y-42154400D02*
X29897368Y-42154400D01*
X36525939Y-72373467D02*
X36697368Y-72430609D01*
X36697368Y-72430609D02*
X36983082Y-72430609D01*
X36983082Y-72430609D02*
X37097368Y-72373467D01*
X37097368Y-72373467D02*
X37154510Y-72316324D01*
X37154510Y-72316324D02*
X37211653Y-72202038D01*
X37211653Y-72202038D02*
X37211653Y-72087752D01*
X37211653Y-72087752D02*
X37154510Y-71973467D01*
X37154510Y-71973467D02*
X37097368Y-71916324D01*
X37097368Y-71916324D02*
X36983082Y-71859181D01*
X36983082Y-71859181D02*
X36754510Y-71802038D01*
X36754510Y-71802038D02*
X36640225Y-71744895D01*
X36640225Y-71744895D02*
X36583082Y-71687752D01*
X36583082Y-71687752D02*
X36525939Y-71573467D01*
X36525939Y-71573467D02*
X36525939Y-71459181D01*
X36525939Y-71459181D02*
X36583082Y-71344895D01*
X36583082Y-71344895D02*
X36640225Y-71287752D01*
X36640225Y-71287752D02*
X36754510Y-71230609D01*
X36754510Y-71230609D02*
X37040225Y-71230609D01*
X37040225Y-71230609D02*
X37211653Y-71287752D01*
X37725939Y-72430609D02*
X37725939Y-71630609D01*
X37725939Y-71230609D02*
X37668796Y-71287752D01*
X37668796Y-71287752D02*
X37725939Y-71344895D01*
X37725939Y-71344895D02*
X37783082Y-71287752D01*
X37783082Y-71287752D02*
X37725939Y-71230609D01*
X37725939Y-71230609D02*
X37725939Y-71344895D01*
X38811654Y-71630609D02*
X38811654Y-72602038D01*
X38811654Y-72602038D02*
X38754511Y-72716324D01*
X38754511Y-72716324D02*
X38697368Y-72773467D01*
X38697368Y-72773467D02*
X38583082Y-72830609D01*
X38583082Y-72830609D02*
X38411654Y-72830609D01*
X38411654Y-72830609D02*
X38297368Y-72773467D01*
X38811654Y-72373467D02*
X38697368Y-72430609D01*
X38697368Y-72430609D02*
X38468796Y-72430609D01*
X38468796Y-72430609D02*
X38354511Y-72373467D01*
X38354511Y-72373467D02*
X38297368Y-72316324D01*
X38297368Y-72316324D02*
X38240225Y-72202038D01*
X38240225Y-72202038D02*
X38240225Y-71859181D01*
X38240225Y-71859181D02*
X38297368Y-71744895D01*
X38297368Y-71744895D02*
X38354511Y-71687752D01*
X38354511Y-71687752D02*
X38468796Y-71630609D01*
X38468796Y-71630609D02*
X38697368Y-71630609D01*
X38697368Y-71630609D02*
X38811654Y-71687752D01*
X39383082Y-71630609D02*
X39383082Y-72430609D01*
X39383082Y-71744895D02*
X39440225Y-71687752D01*
X39440225Y-71687752D02*
X39554510Y-71630609D01*
X39554510Y-71630609D02*
X39725939Y-71630609D01*
X39725939Y-71630609D02*
X39840225Y-71687752D01*
X39840225Y-71687752D02*
X39897368Y-71802038D01*
X39897368Y-71802038D02*
X39897368Y-72430609D01*
X40983082Y-72430609D02*
X40983082Y-71802038D01*
X40983082Y-71802038D02*
X40925939Y-71687752D01*
X40925939Y-71687752D02*
X40811653Y-71630609D01*
X40811653Y-71630609D02*
X40583082Y-71630609D01*
X40583082Y-71630609D02*
X40468796Y-71687752D01*
X40983082Y-72373467D02*
X40868796Y-72430609D01*
X40868796Y-72430609D02*
X40583082Y-72430609D01*
X40583082Y-72430609D02*
X40468796Y-72373467D01*
X40468796Y-72373467D02*
X40411653Y-72259181D01*
X40411653Y-72259181D02*
X40411653Y-72144895D01*
X40411653Y-72144895D02*
X40468796Y-72030609D01*
X40468796Y-72030609D02*
X40583082Y-71973467D01*
X40583082Y-71973467D02*
X40868796Y-71973467D01*
X40868796Y-71973467D02*
X40983082Y-71916324D01*
X41725938Y-72430609D02*
X41611653Y-72373467D01*
X41611653Y-72373467D02*
X41554510Y-72259181D01*
X41554510Y-72259181D02*
X41554510Y-71230609D01*
X43040224Y-72087752D02*
X43611653Y-72087752D01*
X42925938Y-72430609D02*
X43325938Y-71230609D01*
X43325938Y-71230609D02*
X43725938Y-72430609D01*
X44125938Y-72430609D02*
X44125938Y-71630609D01*
X44125938Y-71744895D02*
X44183081Y-71687752D01*
X44183081Y-71687752D02*
X44297366Y-71630609D01*
X44297366Y-71630609D02*
X44468795Y-71630609D01*
X44468795Y-71630609D02*
X44583081Y-71687752D01*
X44583081Y-71687752D02*
X44640224Y-71802038D01*
X44640224Y-71802038D02*
X44640224Y-72430609D01*
X44640224Y-71802038D02*
X44697366Y-71687752D01*
X44697366Y-71687752D02*
X44811652Y-71630609D01*
X44811652Y-71630609D02*
X44983081Y-71630609D01*
X44983081Y-71630609D02*
X45097366Y-71687752D01*
X45097366Y-71687752D02*
X45154509Y-71802038D01*
X45154509Y-71802038D02*
X45154509Y-72430609D01*
X45725938Y-71630609D02*
X45725938Y-72830609D01*
X45725938Y-71687752D02*
X45840224Y-71630609D01*
X45840224Y-71630609D02*
X46068795Y-71630609D01*
X46068795Y-71630609D02*
X46183081Y-71687752D01*
X46183081Y-71687752D02*
X46240224Y-71744895D01*
X46240224Y-71744895D02*
X46297366Y-71859181D01*
X46297366Y-71859181D02*
X46297366Y-72202038D01*
X46297366Y-72202038D02*
X46240224Y-72316324D01*
X46240224Y-72316324D02*
X46183081Y-72373467D01*
X46183081Y-72373467D02*
X46068795Y-72430609D01*
X46068795Y-72430609D02*
X45840224Y-72430609D01*
X45840224Y-72430609D02*
X45725938Y-72373467D01*
X46983080Y-72430609D02*
X46868795Y-72373467D01*
X46868795Y-72373467D02*
X46811652Y-72259181D01*
X46811652Y-72259181D02*
X46811652Y-71230609D01*
X47440223Y-72430609D02*
X47440223Y-71630609D01*
X47440223Y-71230609D02*
X47383080Y-71287752D01*
X47383080Y-71287752D02*
X47440223Y-71344895D01*
X47440223Y-71344895D02*
X47497366Y-71287752D01*
X47497366Y-71287752D02*
X47440223Y-71230609D01*
X47440223Y-71230609D02*
X47440223Y-71344895D01*
X48011652Y-71630609D02*
X48011652Y-72830609D01*
X48011652Y-71687752D02*
X48125938Y-71630609D01*
X48125938Y-71630609D02*
X48354509Y-71630609D01*
X48354509Y-71630609D02*
X48468795Y-71687752D01*
X48468795Y-71687752D02*
X48525938Y-71744895D01*
X48525938Y-71744895D02*
X48583080Y-71859181D01*
X48583080Y-71859181D02*
X48583080Y-72202038D01*
X48583080Y-72202038D02*
X48525938Y-72316324D01*
X48525938Y-72316324D02*
X48468795Y-72373467D01*
X48468795Y-72373467D02*
X48354509Y-72430609D01*
X48354509Y-72430609D02*
X48125938Y-72430609D01*
X48125938Y-72430609D02*
X48011652Y-72373467D01*
X49097366Y-72430609D02*
X49097366Y-71230609D01*
X49611652Y-72430609D02*
X49611652Y-71802038D01*
X49611652Y-71802038D02*
X49554509Y-71687752D01*
X49554509Y-71687752D02*
X49440223Y-71630609D01*
X49440223Y-71630609D02*
X49268794Y-71630609D01*
X49268794Y-71630609D02*
X49154509Y-71687752D01*
X49154509Y-71687752D02*
X49097366Y-71744895D01*
X50183080Y-72430609D02*
X50183080Y-71630609D01*
X50183080Y-71230609D02*
X50125937Y-71287752D01*
X50125937Y-71287752D02*
X50183080Y-71344895D01*
X50183080Y-71344895D02*
X50240223Y-71287752D01*
X50240223Y-71287752D02*
X50183080Y-71230609D01*
X50183080Y-71230609D02*
X50183080Y-71344895D01*
X51211652Y-72373467D02*
X51097366Y-72430609D01*
X51097366Y-72430609D02*
X50868795Y-72430609D01*
X50868795Y-72430609D02*
X50754509Y-72373467D01*
X50754509Y-72373467D02*
X50697366Y-72259181D01*
X50697366Y-72259181D02*
X50697366Y-71802038D01*
X50697366Y-71802038D02*
X50754509Y-71687752D01*
X50754509Y-71687752D02*
X50868795Y-71630609D01*
X50868795Y-71630609D02*
X51097366Y-71630609D01*
X51097366Y-71630609D02*
X51211652Y-71687752D01*
X51211652Y-71687752D02*
X51268795Y-71802038D01*
X51268795Y-71802038D02*
X51268795Y-71916324D01*
X51268795Y-71916324D02*
X50697366Y-72030609D01*
X51783080Y-72430609D02*
X51783080Y-71630609D01*
X51783080Y-71859181D02*
X51840223Y-71744895D01*
X51840223Y-71744895D02*
X51897366Y-71687752D01*
X51897366Y-71687752D02*
X52011651Y-71630609D01*
X52011651Y-71630609D02*
X52125937Y-71630609D01*
X53325937Y-71630609D02*
X53611651Y-72430609D01*
X53611651Y-72430609D02*
X53897366Y-71630609D01*
X55897366Y-72430609D02*
X55211652Y-72430609D01*
X55554509Y-72430609D02*
X55554509Y-71230609D01*
X55554509Y-71230609D02*
X55440223Y-71402038D01*
X55440223Y-71402038D02*
X55325938Y-71516324D01*
X55325938Y-71516324D02*
X55211652Y-71573467D01*
X56411652Y-72316324D02*
X56468795Y-72373467D01*
X56468795Y-72373467D02*
X56411652Y-72430609D01*
X56411652Y-72430609D02*
X56354509Y-72373467D01*
X56354509Y-72373467D02*
X56411652Y-72316324D01*
X56411652Y-72316324D02*
X56411652Y-72430609D01*
X57211652Y-71230609D02*
X57325938Y-71230609D01*
X57325938Y-71230609D02*
X57440224Y-71287752D01*
X57440224Y-71287752D02*
X57497367Y-71344895D01*
X57497367Y-71344895D02*
X57554509Y-71459181D01*
X57554509Y-71459181D02*
X57611652Y-71687752D01*
X57611652Y-71687752D02*
X57611652Y-71973467D01*
X57611652Y-71973467D02*
X57554509Y-72202038D01*
X57554509Y-72202038D02*
X57497367Y-72316324D01*
X57497367Y-72316324D02*
X57440224Y-72373467D01*
X57440224Y-72373467D02*
X57325938Y-72430609D01*
X57325938Y-72430609D02*
X57211652Y-72430609D01*
X57211652Y-72430609D02*
X57097367Y-72373467D01*
X57097367Y-72373467D02*
X57040224Y-72316324D01*
X57040224Y-72316324D02*
X56983081Y-72202038D01*
X56983081Y-72202038D02*
X56925938Y-71973467D01*
X56925938Y-71973467D02*
X56925938Y-71687752D01*
X56925938Y-71687752D02*
X56983081Y-71459181D01*
X56983081Y-71459181D02*
X57040224Y-71344895D01*
X57040224Y-71344895D02*
X57097367Y-71287752D01*
X57097367Y-71287752D02*
X57211652Y-71230609D01*
X36583082Y-74362542D02*
X36583082Y-73162542D01*
X36583082Y-73162542D02*
X36868796Y-73162542D01*
X36868796Y-73162542D02*
X37040225Y-73219685D01*
X37040225Y-73219685D02*
X37154510Y-73333971D01*
X37154510Y-73333971D02*
X37211653Y-73448257D01*
X37211653Y-73448257D02*
X37268796Y-73676828D01*
X37268796Y-73676828D02*
X37268796Y-73848257D01*
X37268796Y-73848257D02*
X37211653Y-74076828D01*
X37211653Y-74076828D02*
X37154510Y-74191114D01*
X37154510Y-74191114D02*
X37040225Y-74305400D01*
X37040225Y-74305400D02*
X36868796Y-74362542D01*
X36868796Y-74362542D02*
X36583082Y-74362542D01*
X37783082Y-74248257D02*
X37840225Y-74305400D01*
X37840225Y-74305400D02*
X37783082Y-74362542D01*
X37783082Y-74362542D02*
X37725939Y-74305400D01*
X37725939Y-74305400D02*
X37783082Y-74248257D01*
X37783082Y-74248257D02*
X37783082Y-74362542D01*
X40068797Y-74476828D02*
X39954511Y-74419685D01*
X39954511Y-74419685D02*
X39840225Y-74305400D01*
X39840225Y-74305400D02*
X39668797Y-74133971D01*
X39668797Y-74133971D02*
X39554511Y-74076828D01*
X39554511Y-74076828D02*
X39440225Y-74076828D01*
X39497368Y-74362542D02*
X39383083Y-74305400D01*
X39383083Y-74305400D02*
X39268797Y-74191114D01*
X39268797Y-74191114D02*
X39211654Y-73962542D01*
X39211654Y-73962542D02*
X39211654Y-73562542D01*
X39211654Y-73562542D02*
X39268797Y-73333971D01*
X39268797Y-73333971D02*
X39383083Y-73219685D01*
X39383083Y-73219685D02*
X39497368Y-73162542D01*
X39497368Y-73162542D02*
X39725940Y-73162542D01*
X39725940Y-73162542D02*
X39840225Y-73219685D01*
X39840225Y-73219685D02*
X39954511Y-73333971D01*
X39954511Y-73333971D02*
X40011654Y-73562542D01*
X40011654Y-73562542D02*
X40011654Y-73962542D01*
X40011654Y-73962542D02*
X39954511Y-74191114D01*
X39954511Y-74191114D02*
X39840225Y-74305400D01*
X39840225Y-74305400D02*
X39725940Y-74362542D01*
X39725940Y-74362542D02*
X39497368Y-74362542D01*
X40525940Y-74248257D02*
X40583083Y-74305400D01*
X40583083Y-74305400D02*
X40525940Y-74362542D01*
X40525940Y-74362542D02*
X40468797Y-74305400D01*
X40468797Y-74305400D02*
X40525940Y-74248257D01*
X40525940Y-74248257D02*
X40525940Y-74362542D01*
X42011655Y-74362542D02*
X42011655Y-73162542D01*
X42011655Y-73162542D02*
X42411655Y-74019685D01*
X42411655Y-74019685D02*
X42811655Y-73162542D01*
X42811655Y-73162542D02*
X42811655Y-74362542D01*
X43897370Y-74305400D02*
X43783084Y-74362542D01*
X43783084Y-74362542D02*
X43554512Y-74362542D01*
X43554512Y-74362542D02*
X43440227Y-74305400D01*
X43440227Y-74305400D02*
X43383084Y-74248257D01*
X43383084Y-74248257D02*
X43325941Y-74133971D01*
X43325941Y-74133971D02*
X43325941Y-73791114D01*
X43325941Y-73791114D02*
X43383084Y-73676828D01*
X43383084Y-73676828D02*
X43440227Y-73619685D01*
X43440227Y-73619685D02*
X43554512Y-73562542D01*
X43554512Y-73562542D02*
X43783084Y-73562542D01*
X43783084Y-73562542D02*
X43897370Y-73619685D01*
X44411655Y-74362542D02*
X44411655Y-73162542D01*
X44411655Y-73162542D02*
X44697369Y-73162542D01*
X44697369Y-73162542D02*
X44868798Y-73219685D01*
X44868798Y-73219685D02*
X44983083Y-73333971D01*
X44983083Y-73333971D02*
X45040226Y-73448257D01*
X45040226Y-73448257D02*
X45097369Y-73676828D01*
X45097369Y-73676828D02*
X45097369Y-73848257D01*
X45097369Y-73848257D02*
X45040226Y-74076828D01*
X45040226Y-74076828D02*
X44983083Y-74191114D01*
X44983083Y-74191114D02*
X44868798Y-74305400D01*
X44868798Y-74305400D02*
X44697369Y-74362542D01*
X44697369Y-74362542D02*
X44411655Y-74362542D01*
X45783083Y-74362542D02*
X45668798Y-74305400D01*
X45668798Y-74305400D02*
X45611655Y-74248257D01*
X45611655Y-74248257D02*
X45554512Y-74133971D01*
X45554512Y-74133971D02*
X45554512Y-73791114D01*
X45554512Y-73791114D02*
X45611655Y-73676828D01*
X45611655Y-73676828D02*
X45668798Y-73619685D01*
X45668798Y-73619685D02*
X45783083Y-73562542D01*
X45783083Y-73562542D02*
X45954512Y-73562542D01*
X45954512Y-73562542D02*
X46068798Y-73619685D01*
X46068798Y-73619685D02*
X46125941Y-73676828D01*
X46125941Y-73676828D02*
X46183083Y-73791114D01*
X46183083Y-73791114D02*
X46183083Y-74133971D01*
X46183083Y-74133971D02*
X46125941Y-74248257D01*
X46125941Y-74248257D02*
X46068798Y-74305400D01*
X46068798Y-74305400D02*
X45954512Y-74362542D01*
X45954512Y-74362542D02*
X45783083Y-74362542D01*
X46697369Y-73562542D02*
X46697369Y-74362542D01*
X46697369Y-73676828D02*
X46754512Y-73619685D01*
X46754512Y-73619685D02*
X46868797Y-73562542D01*
X46868797Y-73562542D02*
X47040226Y-73562542D01*
X47040226Y-73562542D02*
X47154512Y-73619685D01*
X47154512Y-73619685D02*
X47211655Y-73733971D01*
X47211655Y-73733971D02*
X47211655Y-74362542D01*
X48297369Y-74362542D02*
X48297369Y-73733971D01*
X48297369Y-73733971D02*
X48240226Y-73619685D01*
X48240226Y-73619685D02*
X48125940Y-73562542D01*
X48125940Y-73562542D02*
X47897369Y-73562542D01*
X47897369Y-73562542D02*
X47783083Y-73619685D01*
X48297369Y-74305400D02*
X48183083Y-74362542D01*
X48183083Y-74362542D02*
X47897369Y-74362542D01*
X47897369Y-74362542D02*
X47783083Y-74305400D01*
X47783083Y-74305400D02*
X47725940Y-74191114D01*
X47725940Y-74191114D02*
X47725940Y-74076828D01*
X47725940Y-74076828D02*
X47783083Y-73962542D01*
X47783083Y-73962542D02*
X47897369Y-73905400D01*
X47897369Y-73905400D02*
X48183083Y-73905400D01*
X48183083Y-73905400D02*
X48297369Y-73848257D01*
X49040225Y-74362542D02*
X48925940Y-74305400D01*
X48925940Y-74305400D02*
X48868797Y-74191114D01*
X48868797Y-74191114D02*
X48868797Y-73162542D01*
X50011654Y-74362542D02*
X50011654Y-73162542D01*
X50011654Y-74305400D02*
X49897368Y-74362542D01*
X49897368Y-74362542D02*
X49668796Y-74362542D01*
X49668796Y-74362542D02*
X49554511Y-74305400D01*
X49554511Y-74305400D02*
X49497368Y-74248257D01*
X49497368Y-74248257D02*
X49440225Y-74133971D01*
X49440225Y-74133971D02*
X49440225Y-73791114D01*
X49440225Y-73791114D02*
X49497368Y-73676828D01*
X49497368Y-73676828D02*
X49554511Y-73619685D01*
X49554511Y-73619685D02*
X49668796Y-73562542D01*
X49668796Y-73562542D02*
X49897368Y-73562542D01*
X49897368Y-73562542D02*
X50011654Y-73619685D01*
X51725939Y-73162542D02*
X51954511Y-73162542D01*
X51954511Y-73162542D02*
X52068796Y-73219685D01*
X52068796Y-73219685D02*
X52183082Y-73333971D01*
X52183082Y-73333971D02*
X52240225Y-73562542D01*
X52240225Y-73562542D02*
X52240225Y-73962542D01*
X52240225Y-73962542D02*
X52183082Y-74191114D01*
X52183082Y-74191114D02*
X52068796Y-74305400D01*
X52068796Y-74305400D02*
X51954511Y-74362542D01*
X51954511Y-74362542D02*
X51725939Y-74362542D01*
X51725939Y-74362542D02*
X51611654Y-74305400D01*
X51611654Y-74305400D02*
X51497368Y-74191114D01*
X51497368Y-74191114D02*
X51440225Y-73962542D01*
X51440225Y-73962542D02*
X51440225Y-73562542D01*
X51440225Y-73562542D02*
X51497368Y-73333971D01*
X51497368Y-73333971D02*
X51611654Y-73219685D01*
X51611654Y-73219685D02*
X51725939Y-73162542D01*
X53268797Y-74305400D02*
X53154511Y-74362542D01*
X53154511Y-74362542D02*
X52925939Y-74362542D01*
X52925939Y-74362542D02*
X52811654Y-74305400D01*
X52811654Y-74305400D02*
X52754511Y-74248257D01*
X52754511Y-74248257D02*
X52697368Y-74133971D01*
X52697368Y-74133971D02*
X52697368Y-73791114D01*
X52697368Y-73791114D02*
X52754511Y-73676828D01*
X52754511Y-73676828D02*
X52811654Y-73619685D01*
X52811654Y-73619685D02*
X52925939Y-73562542D01*
X52925939Y-73562542D02*
X53154511Y-73562542D01*
X53154511Y-73562542D02*
X53268797Y-73619685D01*
X53611653Y-73562542D02*
X54068796Y-73562542D01*
X53783082Y-73162542D02*
X53783082Y-74191114D01*
X53783082Y-74191114D02*
X53840225Y-74305400D01*
X53840225Y-74305400D02*
X53954510Y-74362542D01*
X53954510Y-74362542D02*
X54068796Y-74362542D01*
X54640224Y-74362542D02*
X54525939Y-74305400D01*
X54525939Y-74305400D02*
X54468796Y-74248257D01*
X54468796Y-74248257D02*
X54411653Y-74133971D01*
X54411653Y-74133971D02*
X54411653Y-73791114D01*
X54411653Y-73791114D02*
X54468796Y-73676828D01*
X54468796Y-73676828D02*
X54525939Y-73619685D01*
X54525939Y-73619685D02*
X54640224Y-73562542D01*
X54640224Y-73562542D02*
X54811653Y-73562542D01*
X54811653Y-73562542D02*
X54925939Y-73619685D01*
X54925939Y-73619685D02*
X54983082Y-73676828D01*
X54983082Y-73676828D02*
X55040224Y-73791114D01*
X55040224Y-73791114D02*
X55040224Y-74133971D01*
X55040224Y-74133971D02*
X54983082Y-74248257D01*
X54983082Y-74248257D02*
X54925939Y-74305400D01*
X54925939Y-74305400D02*
X54811653Y-74362542D01*
X54811653Y-74362542D02*
X54640224Y-74362542D01*
X55554510Y-74362542D02*
X55554510Y-73162542D01*
X55554510Y-73619685D02*
X55668796Y-73562542D01*
X55668796Y-73562542D02*
X55897367Y-73562542D01*
X55897367Y-73562542D02*
X56011653Y-73619685D01*
X56011653Y-73619685D02*
X56068796Y-73676828D01*
X56068796Y-73676828D02*
X56125938Y-73791114D01*
X56125938Y-73791114D02*
X56125938Y-74133971D01*
X56125938Y-74133971D02*
X56068796Y-74248257D01*
X56068796Y-74248257D02*
X56011653Y-74305400D01*
X56011653Y-74305400D02*
X55897367Y-74362542D01*
X55897367Y-74362542D02*
X55668796Y-74362542D01*
X55668796Y-74362542D02*
X55554510Y-74305400D01*
X57097367Y-74305400D02*
X56983081Y-74362542D01*
X56983081Y-74362542D02*
X56754510Y-74362542D01*
X56754510Y-74362542D02*
X56640224Y-74305400D01*
X56640224Y-74305400D02*
X56583081Y-74191114D01*
X56583081Y-74191114D02*
X56583081Y-73733971D01*
X56583081Y-73733971D02*
X56640224Y-73619685D01*
X56640224Y-73619685D02*
X56754510Y-73562542D01*
X56754510Y-73562542D02*
X56983081Y-73562542D01*
X56983081Y-73562542D02*
X57097367Y-73619685D01*
X57097367Y-73619685D02*
X57154510Y-73733971D01*
X57154510Y-73733971D02*
X57154510Y-73848257D01*
X57154510Y-73848257D02*
X56583081Y-73962542D01*
X57668795Y-74362542D02*
X57668795Y-73562542D01*
X57668795Y-73791114D02*
X57725938Y-73676828D01*
X57725938Y-73676828D02*
X57783081Y-73619685D01*
X57783081Y-73619685D02*
X57897366Y-73562542D01*
X57897366Y-73562542D02*
X58011652Y-73562542D01*
X59268795Y-73276828D02*
X59325938Y-73219685D01*
X59325938Y-73219685D02*
X59440224Y-73162542D01*
X59440224Y-73162542D02*
X59725938Y-73162542D01*
X59725938Y-73162542D02*
X59840224Y-73219685D01*
X59840224Y-73219685D02*
X59897366Y-73276828D01*
X59897366Y-73276828D02*
X59954509Y-73391114D01*
X59954509Y-73391114D02*
X59954509Y-73505400D01*
X59954509Y-73505400D02*
X59897366Y-73676828D01*
X59897366Y-73676828D02*
X59211652Y-74362542D01*
X59211652Y-74362542D02*
X59954509Y-74362542D01*
X60697366Y-73162542D02*
X60811652Y-73162542D01*
X60811652Y-73162542D02*
X60925938Y-73219685D01*
X60925938Y-73219685D02*
X60983081Y-73276828D01*
X60983081Y-73276828D02*
X61040223Y-73391114D01*
X61040223Y-73391114D02*
X61097366Y-73619685D01*
X61097366Y-73619685D02*
X61097366Y-73905400D01*
X61097366Y-73905400D02*
X61040223Y-74133971D01*
X61040223Y-74133971D02*
X60983081Y-74248257D01*
X60983081Y-74248257D02*
X60925938Y-74305400D01*
X60925938Y-74305400D02*
X60811652Y-74362542D01*
X60811652Y-74362542D02*
X60697366Y-74362542D01*
X60697366Y-74362542D02*
X60583081Y-74305400D01*
X60583081Y-74305400D02*
X60525938Y-74248257D01*
X60525938Y-74248257D02*
X60468795Y-74133971D01*
X60468795Y-74133971D02*
X60411652Y-73905400D01*
X60411652Y-73905400D02*
X60411652Y-73619685D01*
X60411652Y-73619685D02*
X60468795Y-73391114D01*
X60468795Y-73391114D02*
X60525938Y-73276828D01*
X60525938Y-73276828D02*
X60583081Y-73219685D01*
X60583081Y-73219685D02*
X60697366Y-73162542D01*
X61554509Y-73276828D02*
X61611652Y-73219685D01*
X61611652Y-73219685D02*
X61725938Y-73162542D01*
X61725938Y-73162542D02*
X62011652Y-73162542D01*
X62011652Y-73162542D02*
X62125938Y-73219685D01*
X62125938Y-73219685D02*
X62183080Y-73276828D01*
X62183080Y-73276828D02*
X62240223Y-73391114D01*
X62240223Y-73391114D02*
X62240223Y-73505400D01*
X62240223Y-73505400D02*
X62183080Y-73676828D01*
X62183080Y-73676828D02*
X61497366Y-74362542D01*
X61497366Y-74362542D02*
X62240223Y-74362542D01*
X63268795Y-73562542D02*
X63268795Y-74362542D01*
X62983080Y-73105400D02*
X62697366Y-73962542D01*
X62697366Y-73962542D02*
X63440223Y-73962542D01*
D11*
X104164838Y-27531517D02*
X104117219Y-27626755D01*
X104117219Y-27626755D02*
X104117219Y-27769612D01*
X104117219Y-27769612D02*
X104164838Y-27912469D01*
X104164838Y-27912469D02*
X104260076Y-28007707D01*
X104260076Y-28007707D02*
X104355314Y-28055326D01*
X104355314Y-28055326D02*
X104545790Y-28102945D01*
X104545790Y-28102945D02*
X104688647Y-28102945D01*
X104688647Y-28102945D02*
X104879123Y-28055326D01*
X104879123Y-28055326D02*
X104974361Y-28007707D01*
X104974361Y-28007707D02*
X105069600Y-27912469D01*
X105069600Y-27912469D02*
X105117219Y-27769612D01*
X105117219Y-27769612D02*
X105117219Y-27674374D01*
X105117219Y-27674374D02*
X105069600Y-27531517D01*
X105069600Y-27531517D02*
X105021980Y-27483898D01*
X105021980Y-27483898D02*
X104688647Y-27483898D01*
X104688647Y-27483898D02*
X104688647Y-27674374D01*
X105117219Y-27055326D02*
X104117219Y-27055326D01*
X104117219Y-27055326D02*
X105117219Y-26483898D01*
X105117219Y-26483898D02*
X104117219Y-26483898D01*
X105117219Y-26007707D02*
X104117219Y-26007707D01*
X104117219Y-26007707D02*
X104117219Y-25769612D01*
X104117219Y-25769612D02*
X104164838Y-25626755D01*
X104164838Y-25626755D02*
X104260076Y-25531517D01*
X104260076Y-25531517D02*
X104355314Y-25483898D01*
X104355314Y-25483898D02*
X104545790Y-25436279D01*
X104545790Y-25436279D02*
X104688647Y-25436279D01*
X104688647Y-25436279D02*
X104879123Y-25483898D01*
X104879123Y-25483898D02*
X104974361Y-25531517D01*
X104974361Y-25531517D02*
X105069600Y-25626755D01*
X105069600Y-25626755D02*
X105117219Y-25769612D01*
X105117219Y-25769612D02*
X105117219Y-26007707D01*
D12*
X130811905Y-30829819D02*
X130811905Y-29829819D01*
X130811905Y-29829819D02*
X131050000Y-29829819D01*
X131050000Y-29829819D02*
X131192857Y-29877438D01*
X131192857Y-29877438D02*
X131288095Y-29972676D01*
X131288095Y-29972676D02*
X131335714Y-30067914D01*
X131335714Y-30067914D02*
X131383333Y-30258390D01*
X131383333Y-30258390D02*
X131383333Y-30401247D01*
X131383333Y-30401247D02*
X131335714Y-30591723D01*
X131335714Y-30591723D02*
X131288095Y-30686961D01*
X131288095Y-30686961D02*
X131192857Y-30782200D01*
X131192857Y-30782200D02*
X131050000Y-30829819D01*
X131050000Y-30829819D02*
X130811905Y-30829819D01*
X132335714Y-30829819D02*
X131764286Y-30829819D01*
X132050000Y-30829819D02*
X132050000Y-29829819D01*
X132050000Y-29829819D02*
X131954762Y-29972676D01*
X131954762Y-29972676D02*
X131859524Y-30067914D01*
X131859524Y-30067914D02*
X131764286Y-30115533D01*
X130241667Y-25129819D02*
X130432143Y-25129819D01*
X130432143Y-25129819D02*
X130527381Y-25082200D01*
X130527381Y-25082200D02*
X130575000Y-25034580D01*
X130575000Y-25034580D02*
X130670238Y-24891723D01*
X130670238Y-24891723D02*
X130717857Y-24701247D01*
X130717857Y-24701247D02*
X130717857Y-24320295D01*
X130717857Y-24320295D02*
X130670238Y-24225057D01*
X130670238Y-24225057D02*
X130622619Y-24177438D01*
X130622619Y-24177438D02*
X130527381Y-24129819D01*
X130527381Y-24129819D02*
X130336905Y-24129819D01*
X130336905Y-24129819D02*
X130241667Y-24177438D01*
X130241667Y-24177438D02*
X130194048Y-24225057D01*
X130194048Y-24225057D02*
X130146429Y-24320295D01*
X130146429Y-24320295D02*
X130146429Y-24558390D01*
X130146429Y-24558390D02*
X130194048Y-24653628D01*
X130194048Y-24653628D02*
X130241667Y-24701247D01*
X130241667Y-24701247D02*
X130336905Y-24748866D01*
X130336905Y-24748866D02*
X130527381Y-24748866D01*
X130527381Y-24748866D02*
X130622619Y-24701247D01*
X130622619Y-24701247D02*
X130670238Y-24653628D01*
X130670238Y-24653628D02*
X130717857Y-24558390D01*
X131146429Y-25034580D02*
X131194048Y-25082200D01*
X131194048Y-25082200D02*
X131146429Y-25129819D01*
X131146429Y-25129819D02*
X131098810Y-25082200D01*
X131098810Y-25082200D02*
X131146429Y-25034580D01*
X131146429Y-25034580D02*
X131146429Y-25129819D01*
X132146428Y-25129819D02*
X131575000Y-25129819D01*
X131860714Y-25129819D02*
X131860714Y-24129819D01*
X131860714Y-24129819D02*
X131765476Y-24272676D01*
X131765476Y-24272676D02*
X131670238Y-24367914D01*
X131670238Y-24367914D02*
X131575000Y-24415533D01*
X132432143Y-24129819D02*
X132765476Y-25129819D01*
X132765476Y-25129819D02*
X133098809Y-24129819D01*
X135238095Y-30279819D02*
X135238095Y-29279819D01*
X135809523Y-30279819D02*
X135380952Y-29708390D01*
X135809523Y-29279819D02*
X135238095Y-29851247D01*
X56904762Y-56729819D02*
X57000000Y-56729819D01*
X57000000Y-56729819D02*
X57095238Y-56777438D01*
X57095238Y-56777438D02*
X57142857Y-56825057D01*
X57142857Y-56825057D02*
X57190476Y-56920295D01*
X57190476Y-56920295D02*
X57238095Y-57110771D01*
X57238095Y-57110771D02*
X57238095Y-57348866D01*
X57238095Y-57348866D02*
X57190476Y-57539342D01*
X57190476Y-57539342D02*
X57142857Y-57634580D01*
X57142857Y-57634580D02*
X57095238Y-57682200D01*
X57095238Y-57682200D02*
X57000000Y-57729819D01*
X57000000Y-57729819D02*
X56904762Y-57729819D01*
X56904762Y-57729819D02*
X56809524Y-57682200D01*
X56809524Y-57682200D02*
X56761905Y-57634580D01*
X56761905Y-57634580D02*
X56714286Y-57539342D01*
X56714286Y-57539342D02*
X56666667Y-57348866D01*
X56666667Y-57348866D02*
X56666667Y-57110771D01*
X56666667Y-57110771D02*
X56714286Y-56920295D01*
X56714286Y-56920295D02*
X56761905Y-56825057D01*
X56761905Y-56825057D02*
X56809524Y-56777438D01*
X56809524Y-56777438D02*
X56904762Y-56729819D01*
X57666667Y-57634580D02*
X57714286Y-57682200D01*
X57714286Y-57682200D02*
X57666667Y-57729819D01*
X57666667Y-57729819D02*
X57619048Y-57682200D01*
X57619048Y-57682200D02*
X57666667Y-57634580D01*
X57666667Y-57634580D02*
X57666667Y-57729819D01*
X58333333Y-56729819D02*
X58428571Y-56729819D01*
X58428571Y-56729819D02*
X58523809Y-56777438D01*
X58523809Y-56777438D02*
X58571428Y-56825057D01*
X58571428Y-56825057D02*
X58619047Y-56920295D01*
X58619047Y-56920295D02*
X58666666Y-57110771D01*
X58666666Y-57110771D02*
X58666666Y-57348866D01*
X58666666Y-57348866D02*
X58619047Y-57539342D01*
X58619047Y-57539342D02*
X58571428Y-57634580D01*
X58571428Y-57634580D02*
X58523809Y-57682200D01*
X58523809Y-57682200D02*
X58428571Y-57729819D01*
X58428571Y-57729819D02*
X58333333Y-57729819D01*
X58333333Y-57729819D02*
X58238095Y-57682200D01*
X58238095Y-57682200D02*
X58190476Y-57634580D01*
X58190476Y-57634580D02*
X58142857Y-57539342D01*
X58142857Y-57539342D02*
X58095238Y-57348866D01*
X58095238Y-57348866D02*
X58095238Y-57110771D01*
X58095238Y-57110771D02*
X58142857Y-56920295D01*
X58142857Y-56920295D02*
X58190476Y-56825057D01*
X58190476Y-56825057D02*
X58238095Y-56777438D01*
X58238095Y-56777438D02*
X58333333Y-56729819D01*
X59285714Y-56729819D02*
X59380952Y-56729819D01*
X59380952Y-56729819D02*
X59476190Y-56777438D01*
X59476190Y-56777438D02*
X59523809Y-56825057D01*
X59523809Y-56825057D02*
X59571428Y-56920295D01*
X59571428Y-56920295D02*
X59619047Y-57110771D01*
X59619047Y-57110771D02*
X59619047Y-57348866D01*
X59619047Y-57348866D02*
X59571428Y-57539342D01*
X59571428Y-57539342D02*
X59523809Y-57634580D01*
X59523809Y-57634580D02*
X59476190Y-57682200D01*
X59476190Y-57682200D02*
X59380952Y-57729819D01*
X59380952Y-57729819D02*
X59285714Y-57729819D01*
X59285714Y-57729819D02*
X59190476Y-57682200D01*
X59190476Y-57682200D02*
X59142857Y-57634580D01*
X59142857Y-57634580D02*
X59095238Y-57539342D01*
X59095238Y-57539342D02*
X59047619Y-57348866D01*
X59047619Y-57348866D02*
X59047619Y-57110771D01*
X59047619Y-57110771D02*
X59095238Y-56920295D01*
X59095238Y-56920295D02*
X59142857Y-56825057D01*
X59142857Y-56825057D02*
X59190476Y-56777438D01*
X59190476Y-56777438D02*
X59285714Y-56729819D01*
X60571428Y-57729819D02*
X60000000Y-57729819D01*
X60285714Y-57729819D02*
X60285714Y-56729819D01*
X60285714Y-56729819D02*
X60190476Y-56872676D01*
X60190476Y-56872676D02*
X60095238Y-56967914D01*
X60095238Y-56967914D02*
X60000000Y-57015533D01*
X61428571Y-57063152D02*
X61428571Y-57729819D01*
X61000000Y-57063152D02*
X61000000Y-57586961D01*
X61000000Y-57586961D02*
X61047619Y-57682200D01*
X61047619Y-57682200D02*
X61142857Y-57729819D01*
X61142857Y-57729819D02*
X61285714Y-57729819D01*
X61285714Y-57729819D02*
X61380952Y-57682200D01*
X61380952Y-57682200D02*
X61428571Y-57634580D01*
X62238095Y-57206009D02*
X61904762Y-57206009D01*
X61904762Y-57729819D02*
X61904762Y-56729819D01*
X61904762Y-56729819D02*
X62380952Y-56729819D01*
X56982143Y-36454819D02*
X57077381Y-36454819D01*
X57077381Y-36454819D02*
X57172619Y-36502438D01*
X57172619Y-36502438D02*
X57220238Y-36550057D01*
X57220238Y-36550057D02*
X57267857Y-36645295D01*
X57267857Y-36645295D02*
X57315476Y-36835771D01*
X57315476Y-36835771D02*
X57315476Y-37073866D01*
X57315476Y-37073866D02*
X57267857Y-37264342D01*
X57267857Y-37264342D02*
X57220238Y-37359580D01*
X57220238Y-37359580D02*
X57172619Y-37407200D01*
X57172619Y-37407200D02*
X57077381Y-37454819D01*
X57077381Y-37454819D02*
X56982143Y-37454819D01*
X56982143Y-37454819D02*
X56886905Y-37407200D01*
X56886905Y-37407200D02*
X56839286Y-37359580D01*
X56839286Y-37359580D02*
X56791667Y-37264342D01*
X56791667Y-37264342D02*
X56744048Y-37073866D01*
X56744048Y-37073866D02*
X56744048Y-36835771D01*
X56744048Y-36835771D02*
X56791667Y-36645295D01*
X56791667Y-36645295D02*
X56839286Y-36550057D01*
X56839286Y-36550057D02*
X56886905Y-36502438D01*
X56886905Y-36502438D02*
X56982143Y-36454819D01*
X57744048Y-37359580D02*
X57791667Y-37407200D01*
X57791667Y-37407200D02*
X57744048Y-37454819D01*
X57744048Y-37454819D02*
X57696429Y-37407200D01*
X57696429Y-37407200D02*
X57744048Y-37359580D01*
X57744048Y-37359580D02*
X57744048Y-37454819D01*
X58744047Y-37454819D02*
X58172619Y-37454819D01*
X58458333Y-37454819D02*
X58458333Y-36454819D01*
X58458333Y-36454819D02*
X58363095Y-36597676D01*
X58363095Y-36597676D02*
X58267857Y-36692914D01*
X58267857Y-36692914D02*
X58172619Y-36740533D01*
X59601190Y-36788152D02*
X59601190Y-37454819D01*
X59172619Y-36788152D02*
X59172619Y-37311961D01*
X59172619Y-37311961D02*
X59220238Y-37407200D01*
X59220238Y-37407200D02*
X59315476Y-37454819D01*
X59315476Y-37454819D02*
X59458333Y-37454819D01*
X59458333Y-37454819D02*
X59553571Y-37407200D01*
X59553571Y-37407200D02*
X59601190Y-37359580D01*
X60410714Y-36931009D02*
X60077381Y-36931009D01*
X60077381Y-37454819D02*
X60077381Y-36454819D01*
X60077381Y-36454819D02*
X60553571Y-36454819D01*
X31986666Y-36622319D02*
X31986666Y-37336604D01*
X31986666Y-37336604D02*
X31939047Y-37479461D01*
X31939047Y-37479461D02*
X31843809Y-37574700D01*
X31843809Y-37574700D02*
X31700952Y-37622319D01*
X31700952Y-37622319D02*
X31605714Y-37622319D01*
X32415238Y-36717557D02*
X32462857Y-36669938D01*
X32462857Y-36669938D02*
X32558095Y-36622319D01*
X32558095Y-36622319D02*
X32796190Y-36622319D01*
X32796190Y-36622319D02*
X32891428Y-36669938D01*
X32891428Y-36669938D02*
X32939047Y-36717557D01*
X32939047Y-36717557D02*
X32986666Y-36812795D01*
X32986666Y-36812795D02*
X32986666Y-36908033D01*
X32986666Y-36908033D02*
X32939047Y-37050890D01*
X32939047Y-37050890D02*
X32367619Y-37622319D01*
X32367619Y-37622319D02*
X32986666Y-37622319D01*
X29205714Y-48054700D02*
X29348571Y-48102319D01*
X29348571Y-48102319D02*
X29586666Y-48102319D01*
X29586666Y-48102319D02*
X29681904Y-48054700D01*
X29681904Y-48054700D02*
X29729523Y-48007080D01*
X29729523Y-48007080D02*
X29777142Y-47911842D01*
X29777142Y-47911842D02*
X29777142Y-47816604D01*
X29777142Y-47816604D02*
X29729523Y-47721366D01*
X29729523Y-47721366D02*
X29681904Y-47673747D01*
X29681904Y-47673747D02*
X29586666Y-47626128D01*
X29586666Y-47626128D02*
X29396190Y-47578509D01*
X29396190Y-47578509D02*
X29300952Y-47530890D01*
X29300952Y-47530890D02*
X29253333Y-47483271D01*
X29253333Y-47483271D02*
X29205714Y-47388033D01*
X29205714Y-47388033D02*
X29205714Y-47292795D01*
X29205714Y-47292795D02*
X29253333Y-47197557D01*
X29253333Y-47197557D02*
X29300952Y-47149938D01*
X29300952Y-47149938D02*
X29396190Y-47102319D01*
X29396190Y-47102319D02*
X29634285Y-47102319D01*
X29634285Y-47102319D02*
X29777142Y-47149938D01*
X30205714Y-48102319D02*
X30205714Y-47435652D01*
X30205714Y-47102319D02*
X30158095Y-47149938D01*
X30158095Y-47149938D02*
X30205714Y-47197557D01*
X30205714Y-47197557D02*
X30253333Y-47149938D01*
X30253333Y-47149938D02*
X30205714Y-47102319D01*
X30205714Y-47102319D02*
X30205714Y-47197557D01*
X31110475Y-47435652D02*
X31110475Y-48245176D01*
X31110475Y-48245176D02*
X31062856Y-48340414D01*
X31062856Y-48340414D02*
X31015237Y-48388033D01*
X31015237Y-48388033D02*
X30919999Y-48435652D01*
X30919999Y-48435652D02*
X30777142Y-48435652D01*
X30777142Y-48435652D02*
X30681904Y-48388033D01*
X31110475Y-48054700D02*
X31015237Y-48102319D01*
X31015237Y-48102319D02*
X30824761Y-48102319D01*
X30824761Y-48102319D02*
X30729523Y-48054700D01*
X30729523Y-48054700D02*
X30681904Y-48007080D01*
X30681904Y-48007080D02*
X30634285Y-47911842D01*
X30634285Y-47911842D02*
X30634285Y-47626128D01*
X30634285Y-47626128D02*
X30681904Y-47530890D01*
X30681904Y-47530890D02*
X30729523Y-47483271D01*
X30729523Y-47483271D02*
X30824761Y-47435652D01*
X30824761Y-47435652D02*
X31015237Y-47435652D01*
X31015237Y-47435652D02*
X31110475Y-47483271D01*
X31586666Y-47435652D02*
X31586666Y-48102319D01*
X31586666Y-47530890D02*
X31634285Y-47483271D01*
X31634285Y-47483271D02*
X31729523Y-47435652D01*
X31729523Y-47435652D02*
X31872380Y-47435652D01*
X31872380Y-47435652D02*
X31967618Y-47483271D01*
X31967618Y-47483271D02*
X32015237Y-47578509D01*
X32015237Y-47578509D02*
X32015237Y-48102319D01*
X32919999Y-48102319D02*
X32919999Y-47578509D01*
X32919999Y-47578509D02*
X32872380Y-47483271D01*
X32872380Y-47483271D02*
X32777142Y-47435652D01*
X32777142Y-47435652D02*
X32586666Y-47435652D01*
X32586666Y-47435652D02*
X32491428Y-47483271D01*
X32919999Y-48054700D02*
X32824761Y-48102319D01*
X32824761Y-48102319D02*
X32586666Y-48102319D01*
X32586666Y-48102319D02*
X32491428Y-48054700D01*
X32491428Y-48054700D02*
X32443809Y-47959461D01*
X32443809Y-47959461D02*
X32443809Y-47864223D01*
X32443809Y-47864223D02*
X32491428Y-47768985D01*
X32491428Y-47768985D02*
X32586666Y-47721366D01*
X32586666Y-47721366D02*
X32824761Y-47721366D01*
X32824761Y-47721366D02*
X32919999Y-47673747D01*
X33539047Y-48102319D02*
X33443809Y-48054700D01*
X33443809Y-48054700D02*
X33396190Y-47959461D01*
X33396190Y-47959461D02*
X33396190Y-47102319D01*
X34681905Y-48102319D02*
X34681905Y-47102319D01*
X35158095Y-47435652D02*
X35158095Y-48102319D01*
X35158095Y-47530890D02*
X35205714Y-47483271D01*
X35205714Y-47483271D02*
X35300952Y-47435652D01*
X35300952Y-47435652D02*
X35443809Y-47435652D01*
X35443809Y-47435652D02*
X35539047Y-47483271D01*
X35539047Y-47483271D02*
X35586666Y-47578509D01*
X35586666Y-47578509D02*
X35586666Y-48102319D01*
X68003333Y-33852319D02*
X67670000Y-33376128D01*
X67431905Y-33852319D02*
X67431905Y-32852319D01*
X67431905Y-32852319D02*
X67812857Y-32852319D01*
X67812857Y-32852319D02*
X67908095Y-32899938D01*
X67908095Y-32899938D02*
X67955714Y-32947557D01*
X67955714Y-32947557D02*
X68003333Y-33042795D01*
X68003333Y-33042795D02*
X68003333Y-33185652D01*
X68003333Y-33185652D02*
X67955714Y-33280890D01*
X67955714Y-33280890D02*
X67908095Y-33328509D01*
X67908095Y-33328509D02*
X67812857Y-33376128D01*
X67812857Y-33376128D02*
X67431905Y-33376128D01*
X68955714Y-33852319D02*
X68384286Y-33852319D01*
X68670000Y-33852319D02*
X68670000Y-32852319D01*
X68670000Y-32852319D02*
X68574762Y-32995176D01*
X68574762Y-32995176D02*
X68479524Y-33090414D01*
X68479524Y-33090414D02*
X68384286Y-33138033D01*
X69364047Y-30352319D02*
X68887857Y-30352319D01*
X68887857Y-30352319D02*
X68840238Y-30828509D01*
X68840238Y-30828509D02*
X68887857Y-30780890D01*
X68887857Y-30780890D02*
X68983095Y-30733271D01*
X68983095Y-30733271D02*
X69221190Y-30733271D01*
X69221190Y-30733271D02*
X69316428Y-30780890D01*
X69316428Y-30780890D02*
X69364047Y-30828509D01*
X69364047Y-30828509D02*
X69411666Y-30923747D01*
X69411666Y-30923747D02*
X69411666Y-31161842D01*
X69411666Y-31161842D02*
X69364047Y-31257080D01*
X69364047Y-31257080D02*
X69316428Y-31304700D01*
X69316428Y-31304700D02*
X69221190Y-31352319D01*
X69221190Y-31352319D02*
X68983095Y-31352319D01*
X68983095Y-31352319D02*
X68887857Y-31304700D01*
X68887857Y-31304700D02*
X68840238Y-31257080D01*
X69840238Y-31257080D02*
X69887857Y-31304700D01*
X69887857Y-31304700D02*
X69840238Y-31352319D01*
X69840238Y-31352319D02*
X69792619Y-31304700D01*
X69792619Y-31304700D02*
X69840238Y-31257080D01*
X69840238Y-31257080D02*
X69840238Y-31352319D01*
X70840237Y-31352319D02*
X70268809Y-31352319D01*
X70554523Y-31352319D02*
X70554523Y-30352319D01*
X70554523Y-30352319D02*
X70459285Y-30495176D01*
X70459285Y-30495176D02*
X70364047Y-30590414D01*
X70364047Y-30590414D02*
X70268809Y-30638033D01*
X71792618Y-31352319D02*
X71221190Y-31352319D01*
X71506904Y-31352319D02*
X71506904Y-30352319D01*
X71506904Y-30352319D02*
X71411666Y-30495176D01*
X71411666Y-30495176D02*
X71316428Y-30590414D01*
X71316428Y-30590414D02*
X71221190Y-30638033D01*
X73506904Y-31352319D02*
X72935476Y-31352319D01*
X73221190Y-31352319D02*
X73221190Y-30352319D01*
X73221190Y-30352319D02*
X73125952Y-30495176D01*
X73125952Y-30495176D02*
X73030714Y-30590414D01*
X73030714Y-30590414D02*
X72935476Y-30638033D01*
X73887857Y-31352319D02*
X74649761Y-30352319D01*
X74030714Y-30352319D02*
X74125952Y-30399938D01*
X74125952Y-30399938D02*
X74173571Y-30495176D01*
X74173571Y-30495176D02*
X74125952Y-30590414D01*
X74125952Y-30590414D02*
X74030714Y-30638033D01*
X74030714Y-30638033D02*
X73935476Y-30590414D01*
X73935476Y-30590414D02*
X73887857Y-30495176D01*
X73887857Y-30495176D02*
X73935476Y-30399938D01*
X73935476Y-30399938D02*
X74030714Y-30352319D01*
X74602142Y-31304700D02*
X74649761Y-31209461D01*
X74649761Y-31209461D02*
X74602142Y-31114223D01*
X74602142Y-31114223D02*
X74506904Y-31066604D01*
X74506904Y-31066604D02*
X74411666Y-31114223D01*
X74411666Y-31114223D02*
X74364047Y-31209461D01*
X74364047Y-31209461D02*
X74411666Y-31304700D01*
X74411666Y-31304700D02*
X74506904Y-31352319D01*
X74506904Y-31352319D02*
X74602142Y-31304700D01*
X89229642Y-58287080D02*
X89182023Y-58334700D01*
X89182023Y-58334700D02*
X89039166Y-58382319D01*
X89039166Y-58382319D02*
X88943928Y-58382319D01*
X88943928Y-58382319D02*
X88801071Y-58334700D01*
X88801071Y-58334700D02*
X88705833Y-58239461D01*
X88705833Y-58239461D02*
X88658214Y-58144223D01*
X88658214Y-58144223D02*
X88610595Y-57953747D01*
X88610595Y-57953747D02*
X88610595Y-57810890D01*
X88610595Y-57810890D02*
X88658214Y-57620414D01*
X88658214Y-57620414D02*
X88705833Y-57525176D01*
X88705833Y-57525176D02*
X88801071Y-57429938D01*
X88801071Y-57429938D02*
X88943928Y-57382319D01*
X88943928Y-57382319D02*
X89039166Y-57382319D01*
X89039166Y-57382319D02*
X89182023Y-57429938D01*
X89182023Y-57429938D02*
X89229642Y-57477557D01*
X90182023Y-58382319D02*
X89610595Y-58382319D01*
X89896309Y-58382319D02*
X89896309Y-57382319D01*
X89896309Y-57382319D02*
X89801071Y-57525176D01*
X89801071Y-57525176D02*
X89705833Y-57620414D01*
X89705833Y-57620414D02*
X89610595Y-57668033D01*
X91039166Y-57382319D02*
X90848690Y-57382319D01*
X90848690Y-57382319D02*
X90753452Y-57429938D01*
X90753452Y-57429938D02*
X90705833Y-57477557D01*
X90705833Y-57477557D02*
X90610595Y-57620414D01*
X90610595Y-57620414D02*
X90562976Y-57810890D01*
X90562976Y-57810890D02*
X90562976Y-58191842D01*
X90562976Y-58191842D02*
X90610595Y-58287080D01*
X90610595Y-58287080D02*
X90658214Y-58334700D01*
X90658214Y-58334700D02*
X90753452Y-58382319D01*
X90753452Y-58382319D02*
X90943928Y-58382319D01*
X90943928Y-58382319D02*
X91039166Y-58334700D01*
X91039166Y-58334700D02*
X91086785Y-58287080D01*
X91086785Y-58287080D02*
X91134404Y-58191842D01*
X91134404Y-58191842D02*
X91134404Y-57953747D01*
X91134404Y-57953747D02*
X91086785Y-57858509D01*
X91086785Y-57858509D02*
X91039166Y-57810890D01*
X91039166Y-57810890D02*
X90943928Y-57763271D01*
X90943928Y-57763271D02*
X90753452Y-57763271D01*
X90753452Y-57763271D02*
X90658214Y-57810890D01*
X90658214Y-57810890D02*
X90610595Y-57858509D01*
X90610595Y-57858509D02*
X90562976Y-57953747D01*
X88324880Y-55022319D02*
X87753452Y-55022319D01*
X88039166Y-55022319D02*
X88039166Y-54022319D01*
X88039166Y-54022319D02*
X87943928Y-54165176D01*
X87943928Y-54165176D02*
X87848690Y-54260414D01*
X87848690Y-54260414D02*
X87753452Y-54308033D01*
X88943928Y-54022319D02*
X89039166Y-54022319D01*
X89039166Y-54022319D02*
X89134404Y-54069938D01*
X89134404Y-54069938D02*
X89182023Y-54117557D01*
X89182023Y-54117557D02*
X89229642Y-54212795D01*
X89229642Y-54212795D02*
X89277261Y-54403271D01*
X89277261Y-54403271D02*
X89277261Y-54641366D01*
X89277261Y-54641366D02*
X89229642Y-54831842D01*
X89229642Y-54831842D02*
X89182023Y-54927080D01*
X89182023Y-54927080D02*
X89134404Y-54974700D01*
X89134404Y-54974700D02*
X89039166Y-55022319D01*
X89039166Y-55022319D02*
X88943928Y-55022319D01*
X88943928Y-55022319D02*
X88848690Y-54974700D01*
X88848690Y-54974700D02*
X88801071Y-54927080D01*
X88801071Y-54927080D02*
X88753452Y-54831842D01*
X88753452Y-54831842D02*
X88705833Y-54641366D01*
X88705833Y-54641366D02*
X88705833Y-54403271D01*
X88705833Y-54403271D02*
X88753452Y-54212795D01*
X88753452Y-54212795D02*
X88801071Y-54117557D01*
X88801071Y-54117557D02*
X88848690Y-54069938D01*
X88848690Y-54069938D02*
X88943928Y-54022319D01*
X89896309Y-54022319D02*
X89991547Y-54022319D01*
X89991547Y-54022319D02*
X90086785Y-54069938D01*
X90086785Y-54069938D02*
X90134404Y-54117557D01*
X90134404Y-54117557D02*
X90182023Y-54212795D01*
X90182023Y-54212795D02*
X90229642Y-54403271D01*
X90229642Y-54403271D02*
X90229642Y-54641366D01*
X90229642Y-54641366D02*
X90182023Y-54831842D01*
X90182023Y-54831842D02*
X90134404Y-54927080D01*
X90134404Y-54927080D02*
X90086785Y-54974700D01*
X90086785Y-54974700D02*
X89991547Y-55022319D01*
X89991547Y-55022319D02*
X89896309Y-55022319D01*
X89896309Y-55022319D02*
X89801071Y-54974700D01*
X89801071Y-54974700D02*
X89753452Y-54927080D01*
X89753452Y-54927080D02*
X89705833Y-54831842D01*
X89705833Y-54831842D02*
X89658214Y-54641366D01*
X89658214Y-54641366D02*
X89658214Y-54403271D01*
X89658214Y-54403271D02*
X89705833Y-54212795D01*
X89705833Y-54212795D02*
X89753452Y-54117557D01*
X89753452Y-54117557D02*
X89801071Y-54069938D01*
X89801071Y-54069938D02*
X89896309Y-54022319D01*
X90658214Y-54355652D02*
X90658214Y-55022319D01*
X90658214Y-54450890D02*
X90705833Y-54403271D01*
X90705833Y-54403271D02*
X90801071Y-54355652D01*
X90801071Y-54355652D02*
X90943928Y-54355652D01*
X90943928Y-54355652D02*
X91039166Y-54403271D01*
X91039166Y-54403271D02*
X91086785Y-54498509D01*
X91086785Y-54498509D02*
X91086785Y-55022319D01*
X91896309Y-54498509D02*
X91562976Y-54498509D01*
X91562976Y-55022319D02*
X91562976Y-54022319D01*
X91562976Y-54022319D02*
X92039166Y-54022319D01*
X119707142Y-51434580D02*
X119659523Y-51482200D01*
X119659523Y-51482200D02*
X119516666Y-51529819D01*
X119516666Y-51529819D02*
X119421428Y-51529819D01*
X119421428Y-51529819D02*
X119278571Y-51482200D01*
X119278571Y-51482200D02*
X119183333Y-51386961D01*
X119183333Y-51386961D02*
X119135714Y-51291723D01*
X119135714Y-51291723D02*
X119088095Y-51101247D01*
X119088095Y-51101247D02*
X119088095Y-50958390D01*
X119088095Y-50958390D02*
X119135714Y-50767914D01*
X119135714Y-50767914D02*
X119183333Y-50672676D01*
X119183333Y-50672676D02*
X119278571Y-50577438D01*
X119278571Y-50577438D02*
X119421428Y-50529819D01*
X119421428Y-50529819D02*
X119516666Y-50529819D01*
X119516666Y-50529819D02*
X119659523Y-50577438D01*
X119659523Y-50577438D02*
X119707142Y-50625057D01*
X120659523Y-51529819D02*
X120088095Y-51529819D01*
X120373809Y-51529819D02*
X120373809Y-50529819D01*
X120373809Y-50529819D02*
X120278571Y-50672676D01*
X120278571Y-50672676D02*
X120183333Y-50767914D01*
X120183333Y-50767914D02*
X120088095Y-50815533D01*
X120992857Y-50529819D02*
X121659523Y-50529819D01*
X121659523Y-50529819D02*
X121230952Y-51529819D01*
X119754761Y-46404819D02*
X119183333Y-46404819D01*
X119469047Y-46404819D02*
X119469047Y-45404819D01*
X119469047Y-45404819D02*
X119373809Y-45547676D01*
X119373809Y-45547676D02*
X119278571Y-45642914D01*
X119278571Y-45642914D02*
X119183333Y-45690533D01*
X120611904Y-45738152D02*
X120611904Y-46404819D01*
X120183333Y-45738152D02*
X120183333Y-46261961D01*
X120183333Y-46261961D02*
X120230952Y-46357200D01*
X120230952Y-46357200D02*
X120326190Y-46404819D01*
X120326190Y-46404819D02*
X120469047Y-46404819D01*
X120469047Y-46404819D02*
X120564285Y-46357200D01*
X120564285Y-46357200D02*
X120611904Y-46309580D01*
X121421428Y-45881009D02*
X121088095Y-45881009D01*
X121088095Y-46404819D02*
X121088095Y-45404819D01*
X121088095Y-45404819D02*
X121564285Y-45404819D01*
X120436666Y-68599819D02*
X120436666Y-69314104D01*
X120436666Y-69314104D02*
X120389047Y-69456961D01*
X120389047Y-69456961D02*
X120293809Y-69552200D01*
X120293809Y-69552200D02*
X120150952Y-69599819D01*
X120150952Y-69599819D02*
X120055714Y-69599819D01*
X121341428Y-68599819D02*
X121150952Y-68599819D01*
X121150952Y-68599819D02*
X121055714Y-68647438D01*
X121055714Y-68647438D02*
X121008095Y-68695057D01*
X121008095Y-68695057D02*
X120912857Y-68837914D01*
X120912857Y-68837914D02*
X120865238Y-69028390D01*
X120865238Y-69028390D02*
X120865238Y-69409342D01*
X120865238Y-69409342D02*
X120912857Y-69504580D01*
X120912857Y-69504580D02*
X120960476Y-69552200D01*
X120960476Y-69552200D02*
X121055714Y-69599819D01*
X121055714Y-69599819D02*
X121246190Y-69599819D01*
X121246190Y-69599819D02*
X121341428Y-69552200D01*
X121341428Y-69552200D02*
X121389047Y-69504580D01*
X121389047Y-69504580D02*
X121436666Y-69409342D01*
X121436666Y-69409342D02*
X121436666Y-69171247D01*
X121436666Y-69171247D02*
X121389047Y-69076009D01*
X121389047Y-69076009D02*
X121341428Y-69028390D01*
X121341428Y-69028390D02*
X121246190Y-68980771D01*
X121246190Y-68980771D02*
X121055714Y-68980771D01*
X121055714Y-68980771D02*
X120960476Y-69028390D01*
X120960476Y-69028390D02*
X120912857Y-69076009D01*
X120912857Y-69076009D02*
X120865238Y-69171247D01*
X116935714Y-74729819D02*
X116935714Y-73729819D01*
X116935714Y-73729819D02*
X117316666Y-73729819D01*
X117316666Y-73729819D02*
X117411904Y-73777438D01*
X117411904Y-73777438D02*
X117459523Y-73825057D01*
X117459523Y-73825057D02*
X117507142Y-73920295D01*
X117507142Y-73920295D02*
X117507142Y-74063152D01*
X117507142Y-74063152D02*
X117459523Y-74158390D01*
X117459523Y-74158390D02*
X117411904Y-74206009D01*
X117411904Y-74206009D02*
X117316666Y-74253628D01*
X117316666Y-74253628D02*
X116935714Y-74253628D01*
X118078571Y-74729819D02*
X117983333Y-74682200D01*
X117983333Y-74682200D02*
X117935714Y-74634580D01*
X117935714Y-74634580D02*
X117888095Y-74539342D01*
X117888095Y-74539342D02*
X117888095Y-74253628D01*
X117888095Y-74253628D02*
X117935714Y-74158390D01*
X117935714Y-74158390D02*
X117983333Y-74110771D01*
X117983333Y-74110771D02*
X118078571Y-74063152D01*
X118078571Y-74063152D02*
X118221428Y-74063152D01*
X118221428Y-74063152D02*
X118316666Y-74110771D01*
X118316666Y-74110771D02*
X118364285Y-74158390D01*
X118364285Y-74158390D02*
X118411904Y-74253628D01*
X118411904Y-74253628D02*
X118411904Y-74539342D01*
X118411904Y-74539342D02*
X118364285Y-74634580D01*
X118364285Y-74634580D02*
X118316666Y-74682200D01*
X118316666Y-74682200D02*
X118221428Y-74729819D01*
X118221428Y-74729819D02*
X118078571Y-74729819D01*
X118745238Y-74063152D02*
X118935714Y-74729819D01*
X118935714Y-74729819D02*
X119126190Y-74253628D01*
X119126190Y-74253628D02*
X119316666Y-74729819D01*
X119316666Y-74729819D02*
X119507142Y-74063152D01*
X120269047Y-74682200D02*
X120173809Y-74729819D01*
X120173809Y-74729819D02*
X119983333Y-74729819D01*
X119983333Y-74729819D02*
X119888095Y-74682200D01*
X119888095Y-74682200D02*
X119840476Y-74586961D01*
X119840476Y-74586961D02*
X119840476Y-74206009D01*
X119840476Y-74206009D02*
X119888095Y-74110771D01*
X119888095Y-74110771D02*
X119983333Y-74063152D01*
X119983333Y-74063152D02*
X120173809Y-74063152D01*
X120173809Y-74063152D02*
X120269047Y-74110771D01*
X120269047Y-74110771D02*
X120316666Y-74206009D01*
X120316666Y-74206009D02*
X120316666Y-74301247D01*
X120316666Y-74301247D02*
X119840476Y-74396485D01*
X120745238Y-74729819D02*
X120745238Y-74063152D01*
X120745238Y-74253628D02*
X120792857Y-74158390D01*
X120792857Y-74158390D02*
X120840476Y-74110771D01*
X120840476Y-74110771D02*
X120935714Y-74063152D01*
X120935714Y-74063152D02*
X121030952Y-74063152D01*
X122602381Y-74729819D02*
X122126191Y-74729819D01*
X122126191Y-74729819D02*
X122126191Y-73729819D01*
X122935715Y-74206009D02*
X123269048Y-74206009D01*
X123411905Y-74729819D02*
X122935715Y-74729819D01*
X122935715Y-74729819D02*
X122935715Y-73729819D01*
X122935715Y-73729819D02*
X123411905Y-73729819D01*
X123840477Y-74729819D02*
X123840477Y-73729819D01*
X123840477Y-73729819D02*
X124078572Y-73729819D01*
X124078572Y-73729819D02*
X124221429Y-73777438D01*
X124221429Y-73777438D02*
X124316667Y-73872676D01*
X124316667Y-73872676D02*
X124364286Y-73967914D01*
X124364286Y-73967914D02*
X124411905Y-74158390D01*
X124411905Y-74158390D02*
X124411905Y-74301247D01*
X124411905Y-74301247D02*
X124364286Y-74491723D01*
X124364286Y-74491723D02*
X124316667Y-74586961D01*
X124316667Y-74586961D02*
X124221429Y-74682200D01*
X124221429Y-74682200D02*
X124078572Y-74729819D01*
X124078572Y-74729819D02*
X123840477Y-74729819D01*
X142966905Y-30529819D02*
X142966905Y-29529819D01*
X142966905Y-29529819D02*
X143205000Y-29529819D01*
X143205000Y-29529819D02*
X143347857Y-29577438D01*
X143347857Y-29577438D02*
X143443095Y-29672676D01*
X143443095Y-29672676D02*
X143490714Y-29767914D01*
X143490714Y-29767914D02*
X143538333Y-29958390D01*
X143538333Y-29958390D02*
X143538333Y-30101247D01*
X143538333Y-30101247D02*
X143490714Y-30291723D01*
X143490714Y-30291723D02*
X143443095Y-30386961D01*
X143443095Y-30386961D02*
X143347857Y-30482200D01*
X143347857Y-30482200D02*
X143205000Y-30529819D01*
X143205000Y-30529819D02*
X142966905Y-30529819D01*
X143919286Y-29625057D02*
X143966905Y-29577438D01*
X143966905Y-29577438D02*
X144062143Y-29529819D01*
X144062143Y-29529819D02*
X144300238Y-29529819D01*
X144300238Y-29529819D02*
X144395476Y-29577438D01*
X144395476Y-29577438D02*
X144443095Y-29625057D01*
X144443095Y-29625057D02*
X144490714Y-29720295D01*
X144490714Y-29720295D02*
X144490714Y-29815533D01*
X144490714Y-29815533D02*
X144443095Y-29958390D01*
X144443095Y-29958390D02*
X143871667Y-30529819D01*
X143871667Y-30529819D02*
X144490714Y-30529819D01*
X142721667Y-25254819D02*
X142912143Y-25254819D01*
X142912143Y-25254819D02*
X143007381Y-25207200D01*
X143007381Y-25207200D02*
X143055000Y-25159580D01*
X143055000Y-25159580D02*
X143150238Y-25016723D01*
X143150238Y-25016723D02*
X143197857Y-24826247D01*
X143197857Y-24826247D02*
X143197857Y-24445295D01*
X143197857Y-24445295D02*
X143150238Y-24350057D01*
X143150238Y-24350057D02*
X143102619Y-24302438D01*
X143102619Y-24302438D02*
X143007381Y-24254819D01*
X143007381Y-24254819D02*
X142816905Y-24254819D01*
X142816905Y-24254819D02*
X142721667Y-24302438D01*
X142721667Y-24302438D02*
X142674048Y-24350057D01*
X142674048Y-24350057D02*
X142626429Y-24445295D01*
X142626429Y-24445295D02*
X142626429Y-24683390D01*
X142626429Y-24683390D02*
X142674048Y-24778628D01*
X142674048Y-24778628D02*
X142721667Y-24826247D01*
X142721667Y-24826247D02*
X142816905Y-24873866D01*
X142816905Y-24873866D02*
X143007381Y-24873866D01*
X143007381Y-24873866D02*
X143102619Y-24826247D01*
X143102619Y-24826247D02*
X143150238Y-24778628D01*
X143150238Y-24778628D02*
X143197857Y-24683390D01*
X143626429Y-25159580D02*
X143674048Y-25207200D01*
X143674048Y-25207200D02*
X143626429Y-25254819D01*
X143626429Y-25254819D02*
X143578810Y-25207200D01*
X143578810Y-25207200D02*
X143626429Y-25159580D01*
X143626429Y-25159580D02*
X143626429Y-25254819D01*
X144626428Y-25254819D02*
X144055000Y-25254819D01*
X144340714Y-25254819D02*
X144340714Y-24254819D01*
X144340714Y-24254819D02*
X144245476Y-24397676D01*
X144245476Y-24397676D02*
X144150238Y-24492914D01*
X144150238Y-24492914D02*
X144055000Y-24540533D01*
X144912143Y-24254819D02*
X145245476Y-25254819D01*
X145245476Y-25254819D02*
X145578809Y-24254819D01*
X139493095Y-30529819D02*
X139493095Y-29529819D01*
X140064523Y-30529819D02*
X139635952Y-29958390D01*
X140064523Y-29529819D02*
X139493095Y-30101247D01*
X56929762Y-41479819D02*
X57025000Y-41479819D01*
X57025000Y-41479819D02*
X57120238Y-41527438D01*
X57120238Y-41527438D02*
X57167857Y-41575057D01*
X57167857Y-41575057D02*
X57215476Y-41670295D01*
X57215476Y-41670295D02*
X57263095Y-41860771D01*
X57263095Y-41860771D02*
X57263095Y-42098866D01*
X57263095Y-42098866D02*
X57215476Y-42289342D01*
X57215476Y-42289342D02*
X57167857Y-42384580D01*
X57167857Y-42384580D02*
X57120238Y-42432200D01*
X57120238Y-42432200D02*
X57025000Y-42479819D01*
X57025000Y-42479819D02*
X56929762Y-42479819D01*
X56929762Y-42479819D02*
X56834524Y-42432200D01*
X56834524Y-42432200D02*
X56786905Y-42384580D01*
X56786905Y-42384580D02*
X56739286Y-42289342D01*
X56739286Y-42289342D02*
X56691667Y-42098866D01*
X56691667Y-42098866D02*
X56691667Y-41860771D01*
X56691667Y-41860771D02*
X56739286Y-41670295D01*
X56739286Y-41670295D02*
X56786905Y-41575057D01*
X56786905Y-41575057D02*
X56834524Y-41527438D01*
X56834524Y-41527438D02*
X56929762Y-41479819D01*
X57691667Y-42384580D02*
X57739286Y-42432200D01*
X57739286Y-42432200D02*
X57691667Y-42479819D01*
X57691667Y-42479819D02*
X57644048Y-42432200D01*
X57644048Y-42432200D02*
X57691667Y-42384580D01*
X57691667Y-42384580D02*
X57691667Y-42479819D01*
X58358333Y-41479819D02*
X58453571Y-41479819D01*
X58453571Y-41479819D02*
X58548809Y-41527438D01*
X58548809Y-41527438D02*
X58596428Y-41575057D01*
X58596428Y-41575057D02*
X58644047Y-41670295D01*
X58644047Y-41670295D02*
X58691666Y-41860771D01*
X58691666Y-41860771D02*
X58691666Y-42098866D01*
X58691666Y-42098866D02*
X58644047Y-42289342D01*
X58644047Y-42289342D02*
X58596428Y-42384580D01*
X58596428Y-42384580D02*
X58548809Y-42432200D01*
X58548809Y-42432200D02*
X58453571Y-42479819D01*
X58453571Y-42479819D02*
X58358333Y-42479819D01*
X58358333Y-42479819D02*
X58263095Y-42432200D01*
X58263095Y-42432200D02*
X58215476Y-42384580D01*
X58215476Y-42384580D02*
X58167857Y-42289342D01*
X58167857Y-42289342D02*
X58120238Y-42098866D01*
X58120238Y-42098866D02*
X58120238Y-41860771D01*
X58120238Y-41860771D02*
X58167857Y-41670295D01*
X58167857Y-41670295D02*
X58215476Y-41575057D01*
X58215476Y-41575057D02*
X58263095Y-41527438D01*
X58263095Y-41527438D02*
X58358333Y-41479819D01*
X59025000Y-41479819D02*
X59644047Y-41479819D01*
X59644047Y-41479819D02*
X59310714Y-41860771D01*
X59310714Y-41860771D02*
X59453571Y-41860771D01*
X59453571Y-41860771D02*
X59548809Y-41908390D01*
X59548809Y-41908390D02*
X59596428Y-41956009D01*
X59596428Y-41956009D02*
X59644047Y-42051247D01*
X59644047Y-42051247D02*
X59644047Y-42289342D01*
X59644047Y-42289342D02*
X59596428Y-42384580D01*
X59596428Y-42384580D02*
X59548809Y-42432200D01*
X59548809Y-42432200D02*
X59453571Y-42479819D01*
X59453571Y-42479819D02*
X59167857Y-42479819D01*
X59167857Y-42479819D02*
X59072619Y-42432200D01*
X59072619Y-42432200D02*
X59025000Y-42384580D01*
X60120238Y-42479819D02*
X60310714Y-42479819D01*
X60310714Y-42479819D02*
X60405952Y-42432200D01*
X60405952Y-42432200D02*
X60453571Y-42384580D01*
X60453571Y-42384580D02*
X60548809Y-42241723D01*
X60548809Y-42241723D02*
X60596428Y-42051247D01*
X60596428Y-42051247D02*
X60596428Y-41670295D01*
X60596428Y-41670295D02*
X60548809Y-41575057D01*
X60548809Y-41575057D02*
X60501190Y-41527438D01*
X60501190Y-41527438D02*
X60405952Y-41479819D01*
X60405952Y-41479819D02*
X60215476Y-41479819D01*
X60215476Y-41479819D02*
X60120238Y-41527438D01*
X60120238Y-41527438D02*
X60072619Y-41575057D01*
X60072619Y-41575057D02*
X60025000Y-41670295D01*
X60025000Y-41670295D02*
X60025000Y-41908390D01*
X60025000Y-41908390D02*
X60072619Y-42003628D01*
X60072619Y-42003628D02*
X60120238Y-42051247D01*
X60120238Y-42051247D02*
X60215476Y-42098866D01*
X60215476Y-42098866D02*
X60405952Y-42098866D01*
X60405952Y-42098866D02*
X60501190Y-42051247D01*
X60501190Y-42051247D02*
X60548809Y-42003628D01*
X60548809Y-42003628D02*
X60596428Y-41908390D01*
X61453571Y-41813152D02*
X61453571Y-42479819D01*
X61025000Y-41813152D02*
X61025000Y-42336961D01*
X61025000Y-42336961D02*
X61072619Y-42432200D01*
X61072619Y-42432200D02*
X61167857Y-42479819D01*
X61167857Y-42479819D02*
X61310714Y-42479819D01*
X61310714Y-42479819D02*
X61405952Y-42432200D01*
X61405952Y-42432200D02*
X61453571Y-42384580D01*
X62263095Y-41956009D02*
X61929762Y-41956009D01*
X61929762Y-42479819D02*
X61929762Y-41479819D01*
X61929762Y-41479819D02*
X62405952Y-41479819D01*
X56823809Y-28779819D02*
X56919047Y-28779819D01*
X56919047Y-28779819D02*
X57014285Y-28827438D01*
X57014285Y-28827438D02*
X57061904Y-28875057D01*
X57061904Y-28875057D02*
X57109523Y-28970295D01*
X57109523Y-28970295D02*
X57157142Y-29160771D01*
X57157142Y-29160771D02*
X57157142Y-29398866D01*
X57157142Y-29398866D02*
X57109523Y-29589342D01*
X57109523Y-29589342D02*
X57061904Y-29684580D01*
X57061904Y-29684580D02*
X57014285Y-29732200D01*
X57014285Y-29732200D02*
X56919047Y-29779819D01*
X56919047Y-29779819D02*
X56823809Y-29779819D01*
X56823809Y-29779819D02*
X56728571Y-29732200D01*
X56728571Y-29732200D02*
X56680952Y-29684580D01*
X56680952Y-29684580D02*
X56633333Y-29589342D01*
X56633333Y-29589342D02*
X56585714Y-29398866D01*
X56585714Y-29398866D02*
X56585714Y-29160771D01*
X56585714Y-29160771D02*
X56633333Y-28970295D01*
X56633333Y-28970295D02*
X56680952Y-28875057D01*
X56680952Y-28875057D02*
X56728571Y-28827438D01*
X56728571Y-28827438D02*
X56823809Y-28779819D01*
X57585714Y-29684580D02*
X57633333Y-29732200D01*
X57633333Y-29732200D02*
X57585714Y-29779819D01*
X57585714Y-29779819D02*
X57538095Y-29732200D01*
X57538095Y-29732200D02*
X57585714Y-29684580D01*
X57585714Y-29684580D02*
X57585714Y-29779819D01*
X58538094Y-28779819D02*
X58061904Y-28779819D01*
X58061904Y-28779819D02*
X58014285Y-29256009D01*
X58014285Y-29256009D02*
X58061904Y-29208390D01*
X58061904Y-29208390D02*
X58157142Y-29160771D01*
X58157142Y-29160771D02*
X58395237Y-29160771D01*
X58395237Y-29160771D02*
X58490475Y-29208390D01*
X58490475Y-29208390D02*
X58538094Y-29256009D01*
X58538094Y-29256009D02*
X58585713Y-29351247D01*
X58585713Y-29351247D02*
X58585713Y-29589342D01*
X58585713Y-29589342D02*
X58538094Y-29684580D01*
X58538094Y-29684580D02*
X58490475Y-29732200D01*
X58490475Y-29732200D02*
X58395237Y-29779819D01*
X58395237Y-29779819D02*
X58157142Y-29779819D01*
X58157142Y-29779819D02*
X58061904Y-29732200D01*
X58061904Y-29732200D02*
X58014285Y-29684580D01*
X59442856Y-28779819D02*
X59252380Y-28779819D01*
X59252380Y-28779819D02*
X59157142Y-28827438D01*
X59157142Y-28827438D02*
X59109523Y-28875057D01*
X59109523Y-28875057D02*
X59014285Y-29017914D01*
X59014285Y-29017914D02*
X58966666Y-29208390D01*
X58966666Y-29208390D02*
X58966666Y-29589342D01*
X58966666Y-29589342D02*
X59014285Y-29684580D01*
X59014285Y-29684580D02*
X59061904Y-29732200D01*
X59061904Y-29732200D02*
X59157142Y-29779819D01*
X59157142Y-29779819D02*
X59347618Y-29779819D01*
X59347618Y-29779819D02*
X59442856Y-29732200D01*
X59442856Y-29732200D02*
X59490475Y-29684580D01*
X59490475Y-29684580D02*
X59538094Y-29589342D01*
X59538094Y-29589342D02*
X59538094Y-29351247D01*
X59538094Y-29351247D02*
X59490475Y-29256009D01*
X59490475Y-29256009D02*
X59442856Y-29208390D01*
X59442856Y-29208390D02*
X59347618Y-29160771D01*
X59347618Y-29160771D02*
X59157142Y-29160771D01*
X59157142Y-29160771D02*
X59061904Y-29208390D01*
X59061904Y-29208390D02*
X59014285Y-29256009D01*
X59014285Y-29256009D02*
X58966666Y-29351247D01*
X60395237Y-29113152D02*
X60395237Y-29779819D01*
X59966666Y-29113152D02*
X59966666Y-29636961D01*
X59966666Y-29636961D02*
X60014285Y-29732200D01*
X60014285Y-29732200D02*
X60109523Y-29779819D01*
X60109523Y-29779819D02*
X60252380Y-29779819D01*
X60252380Y-29779819D02*
X60347618Y-29732200D01*
X60347618Y-29732200D02*
X60395237Y-29684580D01*
X60728571Y-29113152D02*
X61109523Y-29113152D01*
X60871428Y-29779819D02*
X60871428Y-28922676D01*
X60871428Y-28922676D02*
X60919047Y-28827438D01*
X60919047Y-28827438D02*
X61014285Y-28779819D01*
X61014285Y-28779819D02*
X61109523Y-28779819D01*
X56879762Y-43904819D02*
X56975000Y-43904819D01*
X56975000Y-43904819D02*
X57070238Y-43952438D01*
X57070238Y-43952438D02*
X57117857Y-44000057D01*
X57117857Y-44000057D02*
X57165476Y-44095295D01*
X57165476Y-44095295D02*
X57213095Y-44285771D01*
X57213095Y-44285771D02*
X57213095Y-44523866D01*
X57213095Y-44523866D02*
X57165476Y-44714342D01*
X57165476Y-44714342D02*
X57117857Y-44809580D01*
X57117857Y-44809580D02*
X57070238Y-44857200D01*
X57070238Y-44857200D02*
X56975000Y-44904819D01*
X56975000Y-44904819D02*
X56879762Y-44904819D01*
X56879762Y-44904819D02*
X56784524Y-44857200D01*
X56784524Y-44857200D02*
X56736905Y-44809580D01*
X56736905Y-44809580D02*
X56689286Y-44714342D01*
X56689286Y-44714342D02*
X56641667Y-44523866D01*
X56641667Y-44523866D02*
X56641667Y-44285771D01*
X56641667Y-44285771D02*
X56689286Y-44095295D01*
X56689286Y-44095295D02*
X56736905Y-44000057D01*
X56736905Y-44000057D02*
X56784524Y-43952438D01*
X56784524Y-43952438D02*
X56879762Y-43904819D01*
X57641667Y-44809580D02*
X57689286Y-44857200D01*
X57689286Y-44857200D02*
X57641667Y-44904819D01*
X57641667Y-44904819D02*
X57594048Y-44857200D01*
X57594048Y-44857200D02*
X57641667Y-44809580D01*
X57641667Y-44809580D02*
X57641667Y-44904819D01*
X58308333Y-43904819D02*
X58403571Y-43904819D01*
X58403571Y-43904819D02*
X58498809Y-43952438D01*
X58498809Y-43952438D02*
X58546428Y-44000057D01*
X58546428Y-44000057D02*
X58594047Y-44095295D01*
X58594047Y-44095295D02*
X58641666Y-44285771D01*
X58641666Y-44285771D02*
X58641666Y-44523866D01*
X58641666Y-44523866D02*
X58594047Y-44714342D01*
X58594047Y-44714342D02*
X58546428Y-44809580D01*
X58546428Y-44809580D02*
X58498809Y-44857200D01*
X58498809Y-44857200D02*
X58403571Y-44904819D01*
X58403571Y-44904819D02*
X58308333Y-44904819D01*
X58308333Y-44904819D02*
X58213095Y-44857200D01*
X58213095Y-44857200D02*
X58165476Y-44809580D01*
X58165476Y-44809580D02*
X58117857Y-44714342D01*
X58117857Y-44714342D02*
X58070238Y-44523866D01*
X58070238Y-44523866D02*
X58070238Y-44285771D01*
X58070238Y-44285771D02*
X58117857Y-44095295D01*
X58117857Y-44095295D02*
X58165476Y-44000057D01*
X58165476Y-44000057D02*
X58213095Y-43952438D01*
X58213095Y-43952438D02*
X58308333Y-43904819D01*
X59022619Y-44000057D02*
X59070238Y-43952438D01*
X59070238Y-43952438D02*
X59165476Y-43904819D01*
X59165476Y-43904819D02*
X59403571Y-43904819D01*
X59403571Y-43904819D02*
X59498809Y-43952438D01*
X59498809Y-43952438D02*
X59546428Y-44000057D01*
X59546428Y-44000057D02*
X59594047Y-44095295D01*
X59594047Y-44095295D02*
X59594047Y-44190533D01*
X59594047Y-44190533D02*
X59546428Y-44333390D01*
X59546428Y-44333390D02*
X58975000Y-44904819D01*
X58975000Y-44904819D02*
X59594047Y-44904819D01*
X59975000Y-44000057D02*
X60022619Y-43952438D01*
X60022619Y-43952438D02*
X60117857Y-43904819D01*
X60117857Y-43904819D02*
X60355952Y-43904819D01*
X60355952Y-43904819D02*
X60451190Y-43952438D01*
X60451190Y-43952438D02*
X60498809Y-44000057D01*
X60498809Y-44000057D02*
X60546428Y-44095295D01*
X60546428Y-44095295D02*
X60546428Y-44190533D01*
X60546428Y-44190533D02*
X60498809Y-44333390D01*
X60498809Y-44333390D02*
X59927381Y-44904819D01*
X59927381Y-44904819D02*
X60546428Y-44904819D01*
X61403571Y-44238152D02*
X61403571Y-44904819D01*
X60975000Y-44238152D02*
X60975000Y-44761961D01*
X60975000Y-44761961D02*
X61022619Y-44857200D01*
X61022619Y-44857200D02*
X61117857Y-44904819D01*
X61117857Y-44904819D02*
X61260714Y-44904819D01*
X61260714Y-44904819D02*
X61355952Y-44857200D01*
X61355952Y-44857200D02*
X61403571Y-44809580D01*
X62213095Y-44381009D02*
X61879762Y-44381009D01*
X61879762Y-44904819D02*
X61879762Y-43904819D01*
X61879762Y-43904819D02*
X62355952Y-43904819D01*
X56959524Y-48954819D02*
X57054762Y-48954819D01*
X57054762Y-48954819D02*
X57150000Y-49002438D01*
X57150000Y-49002438D02*
X57197619Y-49050057D01*
X57197619Y-49050057D02*
X57245238Y-49145295D01*
X57245238Y-49145295D02*
X57292857Y-49335771D01*
X57292857Y-49335771D02*
X57292857Y-49573866D01*
X57292857Y-49573866D02*
X57245238Y-49764342D01*
X57245238Y-49764342D02*
X57197619Y-49859580D01*
X57197619Y-49859580D02*
X57150000Y-49907200D01*
X57150000Y-49907200D02*
X57054762Y-49954819D01*
X57054762Y-49954819D02*
X56959524Y-49954819D01*
X56959524Y-49954819D02*
X56864286Y-49907200D01*
X56864286Y-49907200D02*
X56816667Y-49859580D01*
X56816667Y-49859580D02*
X56769048Y-49764342D01*
X56769048Y-49764342D02*
X56721429Y-49573866D01*
X56721429Y-49573866D02*
X56721429Y-49335771D01*
X56721429Y-49335771D02*
X56769048Y-49145295D01*
X56769048Y-49145295D02*
X56816667Y-49050057D01*
X56816667Y-49050057D02*
X56864286Y-49002438D01*
X56864286Y-49002438D02*
X56959524Y-48954819D01*
X57721429Y-49859580D02*
X57769048Y-49907200D01*
X57769048Y-49907200D02*
X57721429Y-49954819D01*
X57721429Y-49954819D02*
X57673810Y-49907200D01*
X57673810Y-49907200D02*
X57721429Y-49859580D01*
X57721429Y-49859580D02*
X57721429Y-49954819D01*
X58388095Y-48954819D02*
X58483333Y-48954819D01*
X58483333Y-48954819D02*
X58578571Y-49002438D01*
X58578571Y-49002438D02*
X58626190Y-49050057D01*
X58626190Y-49050057D02*
X58673809Y-49145295D01*
X58673809Y-49145295D02*
X58721428Y-49335771D01*
X58721428Y-49335771D02*
X58721428Y-49573866D01*
X58721428Y-49573866D02*
X58673809Y-49764342D01*
X58673809Y-49764342D02*
X58626190Y-49859580D01*
X58626190Y-49859580D02*
X58578571Y-49907200D01*
X58578571Y-49907200D02*
X58483333Y-49954819D01*
X58483333Y-49954819D02*
X58388095Y-49954819D01*
X58388095Y-49954819D02*
X58292857Y-49907200D01*
X58292857Y-49907200D02*
X58245238Y-49859580D01*
X58245238Y-49859580D02*
X58197619Y-49764342D01*
X58197619Y-49764342D02*
X58150000Y-49573866D01*
X58150000Y-49573866D02*
X58150000Y-49335771D01*
X58150000Y-49335771D02*
X58197619Y-49145295D01*
X58197619Y-49145295D02*
X58245238Y-49050057D01*
X58245238Y-49050057D02*
X58292857Y-49002438D01*
X58292857Y-49002438D02*
X58388095Y-48954819D01*
X59340476Y-48954819D02*
X59435714Y-48954819D01*
X59435714Y-48954819D02*
X59530952Y-49002438D01*
X59530952Y-49002438D02*
X59578571Y-49050057D01*
X59578571Y-49050057D02*
X59626190Y-49145295D01*
X59626190Y-49145295D02*
X59673809Y-49335771D01*
X59673809Y-49335771D02*
X59673809Y-49573866D01*
X59673809Y-49573866D02*
X59626190Y-49764342D01*
X59626190Y-49764342D02*
X59578571Y-49859580D01*
X59578571Y-49859580D02*
X59530952Y-49907200D01*
X59530952Y-49907200D02*
X59435714Y-49954819D01*
X59435714Y-49954819D02*
X59340476Y-49954819D01*
X59340476Y-49954819D02*
X59245238Y-49907200D01*
X59245238Y-49907200D02*
X59197619Y-49859580D01*
X59197619Y-49859580D02*
X59150000Y-49764342D01*
X59150000Y-49764342D02*
X59102381Y-49573866D01*
X59102381Y-49573866D02*
X59102381Y-49335771D01*
X59102381Y-49335771D02*
X59150000Y-49145295D01*
X59150000Y-49145295D02*
X59197619Y-49050057D01*
X59197619Y-49050057D02*
X59245238Y-49002438D01*
X59245238Y-49002438D02*
X59340476Y-48954819D01*
X60578571Y-48954819D02*
X60102381Y-48954819D01*
X60102381Y-48954819D02*
X60054762Y-49431009D01*
X60054762Y-49431009D02*
X60102381Y-49383390D01*
X60102381Y-49383390D02*
X60197619Y-49335771D01*
X60197619Y-49335771D02*
X60435714Y-49335771D01*
X60435714Y-49335771D02*
X60530952Y-49383390D01*
X60530952Y-49383390D02*
X60578571Y-49431009D01*
X60578571Y-49431009D02*
X60626190Y-49526247D01*
X60626190Y-49526247D02*
X60626190Y-49764342D01*
X60626190Y-49764342D02*
X60578571Y-49859580D01*
X60578571Y-49859580D02*
X60530952Y-49907200D01*
X60530952Y-49907200D02*
X60435714Y-49954819D01*
X60435714Y-49954819D02*
X60197619Y-49954819D01*
X60197619Y-49954819D02*
X60102381Y-49907200D01*
X60102381Y-49907200D02*
X60054762Y-49859580D01*
X61483333Y-48954819D02*
X61292857Y-48954819D01*
X61292857Y-48954819D02*
X61197619Y-49002438D01*
X61197619Y-49002438D02*
X61150000Y-49050057D01*
X61150000Y-49050057D02*
X61054762Y-49192914D01*
X61054762Y-49192914D02*
X61007143Y-49383390D01*
X61007143Y-49383390D02*
X61007143Y-49764342D01*
X61007143Y-49764342D02*
X61054762Y-49859580D01*
X61054762Y-49859580D02*
X61102381Y-49907200D01*
X61102381Y-49907200D02*
X61197619Y-49954819D01*
X61197619Y-49954819D02*
X61388095Y-49954819D01*
X61388095Y-49954819D02*
X61483333Y-49907200D01*
X61483333Y-49907200D02*
X61530952Y-49859580D01*
X61530952Y-49859580D02*
X61578571Y-49764342D01*
X61578571Y-49764342D02*
X61578571Y-49526247D01*
X61578571Y-49526247D02*
X61530952Y-49431009D01*
X61530952Y-49431009D02*
X61483333Y-49383390D01*
X61483333Y-49383390D02*
X61388095Y-49335771D01*
X61388095Y-49335771D02*
X61197619Y-49335771D01*
X61197619Y-49335771D02*
X61102381Y-49383390D01*
X61102381Y-49383390D02*
X61054762Y-49431009D01*
X61054762Y-49431009D02*
X61007143Y-49526247D01*
X56929762Y-39004819D02*
X57025000Y-39004819D01*
X57025000Y-39004819D02*
X57120238Y-39052438D01*
X57120238Y-39052438D02*
X57167857Y-39100057D01*
X57167857Y-39100057D02*
X57215476Y-39195295D01*
X57215476Y-39195295D02*
X57263095Y-39385771D01*
X57263095Y-39385771D02*
X57263095Y-39623866D01*
X57263095Y-39623866D02*
X57215476Y-39814342D01*
X57215476Y-39814342D02*
X57167857Y-39909580D01*
X57167857Y-39909580D02*
X57120238Y-39957200D01*
X57120238Y-39957200D02*
X57025000Y-40004819D01*
X57025000Y-40004819D02*
X56929762Y-40004819D01*
X56929762Y-40004819D02*
X56834524Y-39957200D01*
X56834524Y-39957200D02*
X56786905Y-39909580D01*
X56786905Y-39909580D02*
X56739286Y-39814342D01*
X56739286Y-39814342D02*
X56691667Y-39623866D01*
X56691667Y-39623866D02*
X56691667Y-39385771D01*
X56691667Y-39385771D02*
X56739286Y-39195295D01*
X56739286Y-39195295D02*
X56786905Y-39100057D01*
X56786905Y-39100057D02*
X56834524Y-39052438D01*
X56834524Y-39052438D02*
X56929762Y-39004819D01*
X57691667Y-39909580D02*
X57739286Y-39957200D01*
X57739286Y-39957200D02*
X57691667Y-40004819D01*
X57691667Y-40004819D02*
X57644048Y-39957200D01*
X57644048Y-39957200D02*
X57691667Y-39909580D01*
X57691667Y-39909580D02*
X57691667Y-40004819D01*
X58358333Y-39004819D02*
X58453571Y-39004819D01*
X58453571Y-39004819D02*
X58548809Y-39052438D01*
X58548809Y-39052438D02*
X58596428Y-39100057D01*
X58596428Y-39100057D02*
X58644047Y-39195295D01*
X58644047Y-39195295D02*
X58691666Y-39385771D01*
X58691666Y-39385771D02*
X58691666Y-39623866D01*
X58691666Y-39623866D02*
X58644047Y-39814342D01*
X58644047Y-39814342D02*
X58596428Y-39909580D01*
X58596428Y-39909580D02*
X58548809Y-39957200D01*
X58548809Y-39957200D02*
X58453571Y-40004819D01*
X58453571Y-40004819D02*
X58358333Y-40004819D01*
X58358333Y-40004819D02*
X58263095Y-39957200D01*
X58263095Y-39957200D02*
X58215476Y-39909580D01*
X58215476Y-39909580D02*
X58167857Y-39814342D01*
X58167857Y-39814342D02*
X58120238Y-39623866D01*
X58120238Y-39623866D02*
X58120238Y-39385771D01*
X58120238Y-39385771D02*
X58167857Y-39195295D01*
X58167857Y-39195295D02*
X58215476Y-39100057D01*
X58215476Y-39100057D02*
X58263095Y-39052438D01*
X58263095Y-39052438D02*
X58358333Y-39004819D01*
X59596428Y-39004819D02*
X59120238Y-39004819D01*
X59120238Y-39004819D02*
X59072619Y-39481009D01*
X59072619Y-39481009D02*
X59120238Y-39433390D01*
X59120238Y-39433390D02*
X59215476Y-39385771D01*
X59215476Y-39385771D02*
X59453571Y-39385771D01*
X59453571Y-39385771D02*
X59548809Y-39433390D01*
X59548809Y-39433390D02*
X59596428Y-39481009D01*
X59596428Y-39481009D02*
X59644047Y-39576247D01*
X59644047Y-39576247D02*
X59644047Y-39814342D01*
X59644047Y-39814342D02*
X59596428Y-39909580D01*
X59596428Y-39909580D02*
X59548809Y-39957200D01*
X59548809Y-39957200D02*
X59453571Y-40004819D01*
X59453571Y-40004819D02*
X59215476Y-40004819D01*
X59215476Y-40004819D02*
X59120238Y-39957200D01*
X59120238Y-39957200D02*
X59072619Y-39909580D01*
X60501190Y-39004819D02*
X60310714Y-39004819D01*
X60310714Y-39004819D02*
X60215476Y-39052438D01*
X60215476Y-39052438D02*
X60167857Y-39100057D01*
X60167857Y-39100057D02*
X60072619Y-39242914D01*
X60072619Y-39242914D02*
X60025000Y-39433390D01*
X60025000Y-39433390D02*
X60025000Y-39814342D01*
X60025000Y-39814342D02*
X60072619Y-39909580D01*
X60072619Y-39909580D02*
X60120238Y-39957200D01*
X60120238Y-39957200D02*
X60215476Y-40004819D01*
X60215476Y-40004819D02*
X60405952Y-40004819D01*
X60405952Y-40004819D02*
X60501190Y-39957200D01*
X60501190Y-39957200D02*
X60548809Y-39909580D01*
X60548809Y-39909580D02*
X60596428Y-39814342D01*
X60596428Y-39814342D02*
X60596428Y-39576247D01*
X60596428Y-39576247D02*
X60548809Y-39481009D01*
X60548809Y-39481009D02*
X60501190Y-39433390D01*
X60501190Y-39433390D02*
X60405952Y-39385771D01*
X60405952Y-39385771D02*
X60215476Y-39385771D01*
X60215476Y-39385771D02*
X60120238Y-39433390D01*
X60120238Y-39433390D02*
X60072619Y-39481009D01*
X60072619Y-39481009D02*
X60025000Y-39576247D01*
X61453571Y-39338152D02*
X61453571Y-40004819D01*
X61025000Y-39338152D02*
X61025000Y-39861961D01*
X61025000Y-39861961D02*
X61072619Y-39957200D01*
X61072619Y-39957200D02*
X61167857Y-40004819D01*
X61167857Y-40004819D02*
X61310714Y-40004819D01*
X61310714Y-40004819D02*
X61405952Y-39957200D01*
X61405952Y-39957200D02*
X61453571Y-39909580D01*
X62263095Y-39481009D02*
X61929762Y-39481009D01*
X61929762Y-40004819D02*
X61929762Y-39004819D01*
X61929762Y-39004819D02*
X62405952Y-39004819D01*
X102054642Y-67307080D02*
X102007023Y-67354700D01*
X102007023Y-67354700D02*
X101864166Y-67402319D01*
X101864166Y-67402319D02*
X101768928Y-67402319D01*
X101768928Y-67402319D02*
X101626071Y-67354700D01*
X101626071Y-67354700D02*
X101530833Y-67259461D01*
X101530833Y-67259461D02*
X101483214Y-67164223D01*
X101483214Y-67164223D02*
X101435595Y-66973747D01*
X101435595Y-66973747D02*
X101435595Y-66830890D01*
X101435595Y-66830890D02*
X101483214Y-66640414D01*
X101483214Y-66640414D02*
X101530833Y-66545176D01*
X101530833Y-66545176D02*
X101626071Y-66449938D01*
X101626071Y-66449938D02*
X101768928Y-66402319D01*
X101768928Y-66402319D02*
X101864166Y-66402319D01*
X101864166Y-66402319D02*
X102007023Y-66449938D01*
X102007023Y-66449938D02*
X102054642Y-66497557D01*
X103007023Y-67402319D02*
X102435595Y-67402319D01*
X102721309Y-67402319D02*
X102721309Y-66402319D01*
X102721309Y-66402319D02*
X102626071Y-66545176D01*
X102626071Y-66545176D02*
X102530833Y-66640414D01*
X102530833Y-66640414D02*
X102435595Y-66688033D01*
X103340357Y-66402319D02*
X103959404Y-66402319D01*
X103959404Y-66402319D02*
X103626071Y-66783271D01*
X103626071Y-66783271D02*
X103768928Y-66783271D01*
X103768928Y-66783271D02*
X103864166Y-66830890D01*
X103864166Y-66830890D02*
X103911785Y-66878509D01*
X103911785Y-66878509D02*
X103959404Y-66973747D01*
X103959404Y-66973747D02*
X103959404Y-67211842D01*
X103959404Y-67211842D02*
X103911785Y-67307080D01*
X103911785Y-67307080D02*
X103864166Y-67354700D01*
X103864166Y-67354700D02*
X103768928Y-67402319D01*
X103768928Y-67402319D02*
X103483214Y-67402319D01*
X103483214Y-67402319D02*
X103387976Y-67354700D01*
X103387976Y-67354700D02*
X103340357Y-67307080D01*
X102001071Y-59677319D02*
X101429643Y-59677319D01*
X101715357Y-59677319D02*
X101715357Y-58677319D01*
X101715357Y-58677319D02*
X101620119Y-58820176D01*
X101620119Y-58820176D02*
X101524881Y-58915414D01*
X101524881Y-58915414D02*
X101429643Y-58963033D01*
X102620119Y-58677319D02*
X102715357Y-58677319D01*
X102715357Y-58677319D02*
X102810595Y-58724938D01*
X102810595Y-58724938D02*
X102858214Y-58772557D01*
X102858214Y-58772557D02*
X102905833Y-58867795D01*
X102905833Y-58867795D02*
X102953452Y-59058271D01*
X102953452Y-59058271D02*
X102953452Y-59296366D01*
X102953452Y-59296366D02*
X102905833Y-59486842D01*
X102905833Y-59486842D02*
X102858214Y-59582080D01*
X102858214Y-59582080D02*
X102810595Y-59629700D01*
X102810595Y-59629700D02*
X102715357Y-59677319D01*
X102715357Y-59677319D02*
X102620119Y-59677319D01*
X102620119Y-59677319D02*
X102524881Y-59629700D01*
X102524881Y-59629700D02*
X102477262Y-59582080D01*
X102477262Y-59582080D02*
X102429643Y-59486842D01*
X102429643Y-59486842D02*
X102382024Y-59296366D01*
X102382024Y-59296366D02*
X102382024Y-59058271D01*
X102382024Y-59058271D02*
X102429643Y-58867795D01*
X102429643Y-58867795D02*
X102477262Y-58772557D01*
X102477262Y-58772557D02*
X102524881Y-58724938D01*
X102524881Y-58724938D02*
X102620119Y-58677319D01*
X103810595Y-59010652D02*
X103810595Y-59677319D01*
X103382024Y-59010652D02*
X103382024Y-59534461D01*
X103382024Y-59534461D02*
X103429643Y-59629700D01*
X103429643Y-59629700D02*
X103524881Y-59677319D01*
X103524881Y-59677319D02*
X103667738Y-59677319D01*
X103667738Y-59677319D02*
X103762976Y-59629700D01*
X103762976Y-59629700D02*
X103810595Y-59582080D01*
X104620119Y-59153509D02*
X104286786Y-59153509D01*
X104286786Y-59677319D02*
X104286786Y-58677319D01*
X104286786Y-58677319D02*
X104762976Y-58677319D01*
X90788095Y-29654819D02*
X91359523Y-29654819D01*
X91073809Y-30654819D02*
X91073809Y-29654819D01*
X92216666Y-30654819D02*
X91645238Y-30654819D01*
X91930952Y-30654819D02*
X91930952Y-29654819D01*
X91930952Y-29654819D02*
X91835714Y-29797676D01*
X91835714Y-29797676D02*
X91740476Y-29892914D01*
X91740476Y-29892914D02*
X91645238Y-29940533D01*
X88749999Y-31788152D02*
X88749999Y-32454819D01*
X88511904Y-31407200D02*
X88273809Y-32121485D01*
X88273809Y-32121485D02*
X88892856Y-32121485D01*
X89226190Y-31550057D02*
X89273809Y-31502438D01*
X89273809Y-31502438D02*
X89369047Y-31454819D01*
X89369047Y-31454819D02*
X89607142Y-31454819D01*
X89607142Y-31454819D02*
X89702380Y-31502438D01*
X89702380Y-31502438D02*
X89749999Y-31550057D01*
X89749999Y-31550057D02*
X89797618Y-31645295D01*
X89797618Y-31645295D02*
X89797618Y-31740533D01*
X89797618Y-31740533D02*
X89749999Y-31883390D01*
X89749999Y-31883390D02*
X89178571Y-32454819D01*
X89178571Y-32454819D02*
X89797618Y-32454819D01*
X90083333Y-31454819D02*
X90654761Y-31454819D01*
X90369047Y-32454819D02*
X90369047Y-31454819D01*
X91464285Y-32454819D02*
X90988095Y-32454819D01*
X90988095Y-32454819D02*
X90988095Y-31454819D01*
X91988095Y-31454819D02*
X92083333Y-31454819D01*
X92083333Y-31454819D02*
X92178571Y-31502438D01*
X92178571Y-31502438D02*
X92226190Y-31550057D01*
X92226190Y-31550057D02*
X92273809Y-31645295D01*
X92273809Y-31645295D02*
X92321428Y-31835771D01*
X92321428Y-31835771D02*
X92321428Y-32073866D01*
X92321428Y-32073866D02*
X92273809Y-32264342D01*
X92273809Y-32264342D02*
X92226190Y-32359580D01*
X92226190Y-32359580D02*
X92178571Y-32407200D01*
X92178571Y-32407200D02*
X92083333Y-32454819D01*
X92083333Y-32454819D02*
X91988095Y-32454819D01*
X91988095Y-32454819D02*
X91892857Y-32407200D01*
X91892857Y-32407200D02*
X91845238Y-32359580D01*
X91845238Y-32359580D02*
X91797619Y-32264342D01*
X91797619Y-32264342D02*
X91750000Y-32073866D01*
X91750000Y-32073866D02*
X91750000Y-31835771D01*
X91750000Y-31835771D02*
X91797619Y-31645295D01*
X91797619Y-31645295D02*
X91845238Y-31550057D01*
X91845238Y-31550057D02*
X91892857Y-31502438D01*
X91892857Y-31502438D02*
X91988095Y-31454819D01*
X93273809Y-32454819D02*
X92702381Y-32454819D01*
X92988095Y-32454819D02*
X92988095Y-31454819D01*
X92988095Y-31454819D02*
X92892857Y-31597676D01*
X92892857Y-31597676D02*
X92797619Y-31692914D01*
X92797619Y-31692914D02*
X92702381Y-31740533D01*
X94130952Y-31454819D02*
X93940476Y-31454819D01*
X93940476Y-31454819D02*
X93845238Y-31502438D01*
X93845238Y-31502438D02*
X93797619Y-31550057D01*
X93797619Y-31550057D02*
X93702381Y-31692914D01*
X93702381Y-31692914D02*
X93654762Y-31883390D01*
X93654762Y-31883390D02*
X93654762Y-32264342D01*
X93654762Y-32264342D02*
X93702381Y-32359580D01*
X93702381Y-32359580D02*
X93750000Y-32407200D01*
X93750000Y-32407200D02*
X93845238Y-32454819D01*
X93845238Y-32454819D02*
X94035714Y-32454819D01*
X94035714Y-32454819D02*
X94130952Y-32407200D01*
X94130952Y-32407200D02*
X94178571Y-32359580D01*
X94178571Y-32359580D02*
X94226190Y-32264342D01*
X94226190Y-32264342D02*
X94226190Y-32026247D01*
X94226190Y-32026247D02*
X94178571Y-31931009D01*
X94178571Y-31931009D02*
X94130952Y-31883390D01*
X94130952Y-31883390D02*
X94035714Y-31835771D01*
X94035714Y-31835771D02*
X93845238Y-31835771D01*
X93845238Y-31835771D02*
X93750000Y-31883390D01*
X93750000Y-31883390D02*
X93702381Y-31931009D01*
X93702381Y-31931009D02*
X93654762Y-32026247D01*
X111283333Y-69979819D02*
X110950000Y-69503628D01*
X110711905Y-69979819D02*
X110711905Y-68979819D01*
X110711905Y-68979819D02*
X111092857Y-68979819D01*
X111092857Y-68979819D02*
X111188095Y-69027438D01*
X111188095Y-69027438D02*
X111235714Y-69075057D01*
X111235714Y-69075057D02*
X111283333Y-69170295D01*
X111283333Y-69170295D02*
X111283333Y-69313152D01*
X111283333Y-69313152D02*
X111235714Y-69408390D01*
X111235714Y-69408390D02*
X111188095Y-69456009D01*
X111188095Y-69456009D02*
X111092857Y-69503628D01*
X111092857Y-69503628D02*
X110711905Y-69503628D01*
X112188095Y-68979819D02*
X111711905Y-68979819D01*
X111711905Y-68979819D02*
X111664286Y-69456009D01*
X111664286Y-69456009D02*
X111711905Y-69408390D01*
X111711905Y-69408390D02*
X111807143Y-69360771D01*
X111807143Y-69360771D02*
X112045238Y-69360771D01*
X112045238Y-69360771D02*
X112140476Y-69408390D01*
X112140476Y-69408390D02*
X112188095Y-69456009D01*
X112188095Y-69456009D02*
X112235714Y-69551247D01*
X112235714Y-69551247D02*
X112235714Y-69789342D01*
X112235714Y-69789342D02*
X112188095Y-69884580D01*
X112188095Y-69884580D02*
X112140476Y-69932200D01*
X112140476Y-69932200D02*
X112045238Y-69979819D01*
X112045238Y-69979819D02*
X111807143Y-69979819D01*
X111807143Y-69979819D02*
X111711905Y-69932200D01*
X111711905Y-69932200D02*
X111664286Y-69884580D01*
X108140476Y-72279819D02*
X108759523Y-72279819D01*
X108759523Y-72279819D02*
X108426190Y-72660771D01*
X108426190Y-72660771D02*
X108569047Y-72660771D01*
X108569047Y-72660771D02*
X108664285Y-72708390D01*
X108664285Y-72708390D02*
X108711904Y-72756009D01*
X108711904Y-72756009D02*
X108759523Y-72851247D01*
X108759523Y-72851247D02*
X108759523Y-73089342D01*
X108759523Y-73089342D02*
X108711904Y-73184580D01*
X108711904Y-73184580D02*
X108664285Y-73232200D01*
X108664285Y-73232200D02*
X108569047Y-73279819D01*
X108569047Y-73279819D02*
X108283333Y-73279819D01*
X108283333Y-73279819D02*
X108188095Y-73232200D01*
X108188095Y-73232200D02*
X108140476Y-73184580D01*
X109092857Y-72279819D02*
X109711904Y-72279819D01*
X109711904Y-72279819D02*
X109378571Y-72660771D01*
X109378571Y-72660771D02*
X109521428Y-72660771D01*
X109521428Y-72660771D02*
X109616666Y-72708390D01*
X109616666Y-72708390D02*
X109664285Y-72756009D01*
X109664285Y-72756009D02*
X109711904Y-72851247D01*
X109711904Y-72851247D02*
X109711904Y-73089342D01*
X109711904Y-73089342D02*
X109664285Y-73184580D01*
X109664285Y-73184580D02*
X109616666Y-73232200D01*
X109616666Y-73232200D02*
X109521428Y-73279819D01*
X109521428Y-73279819D02*
X109235714Y-73279819D01*
X109235714Y-73279819D02*
X109140476Y-73232200D01*
X109140476Y-73232200D02*
X109092857Y-73184580D01*
X110330952Y-72279819D02*
X110426190Y-72279819D01*
X110426190Y-72279819D02*
X110521428Y-72327438D01*
X110521428Y-72327438D02*
X110569047Y-72375057D01*
X110569047Y-72375057D02*
X110616666Y-72470295D01*
X110616666Y-72470295D02*
X110664285Y-72660771D01*
X110664285Y-72660771D02*
X110664285Y-72898866D01*
X110664285Y-72898866D02*
X110616666Y-73089342D01*
X110616666Y-73089342D02*
X110569047Y-73184580D01*
X110569047Y-73184580D02*
X110521428Y-73232200D01*
X110521428Y-73232200D02*
X110426190Y-73279819D01*
X110426190Y-73279819D02*
X110330952Y-73279819D01*
X110330952Y-73279819D02*
X110235714Y-73232200D01*
X110235714Y-73232200D02*
X110188095Y-73184580D01*
X110188095Y-73184580D02*
X110140476Y-73089342D01*
X110140476Y-73089342D02*
X110092857Y-72898866D01*
X110092857Y-72898866D02*
X110092857Y-72660771D01*
X110092857Y-72660771D02*
X110140476Y-72470295D01*
X110140476Y-72470295D02*
X110188095Y-72375057D01*
X110188095Y-72375057D02*
X110235714Y-72327438D01*
X110235714Y-72327438D02*
X110330952Y-72279819D01*
X112045238Y-72279819D02*
X112235714Y-72279819D01*
X112235714Y-72279819D02*
X112330952Y-72327438D01*
X112330952Y-72327438D02*
X112426190Y-72422676D01*
X112426190Y-72422676D02*
X112473809Y-72613152D01*
X112473809Y-72613152D02*
X112473809Y-72946485D01*
X112473809Y-72946485D02*
X112426190Y-73136961D01*
X112426190Y-73136961D02*
X112330952Y-73232200D01*
X112330952Y-73232200D02*
X112235714Y-73279819D01*
X112235714Y-73279819D02*
X112045238Y-73279819D01*
X112045238Y-73279819D02*
X111950000Y-73232200D01*
X111950000Y-73232200D02*
X111854762Y-73136961D01*
X111854762Y-73136961D02*
X111807143Y-72946485D01*
X111807143Y-72946485D02*
X111807143Y-72613152D01*
X111807143Y-72613152D02*
X111854762Y-72422676D01*
X111854762Y-72422676D02*
X111950000Y-72327438D01*
X111950000Y-72327438D02*
X112045238Y-72279819D01*
X112902381Y-73279819D02*
X112902381Y-72279819D01*
X113330952Y-73279819D02*
X113330952Y-72756009D01*
X113330952Y-72756009D02*
X113283333Y-72660771D01*
X113283333Y-72660771D02*
X113188095Y-72613152D01*
X113188095Y-72613152D02*
X113045238Y-72613152D01*
X113045238Y-72613152D02*
X112950000Y-72660771D01*
X112950000Y-72660771D02*
X112902381Y-72708390D01*
X113807143Y-73279819D02*
X113807143Y-72613152D01*
X113807143Y-72708390D02*
X113854762Y-72660771D01*
X113854762Y-72660771D02*
X113950000Y-72613152D01*
X113950000Y-72613152D02*
X114092857Y-72613152D01*
X114092857Y-72613152D02*
X114188095Y-72660771D01*
X114188095Y-72660771D02*
X114235714Y-72756009D01*
X114235714Y-72756009D02*
X114235714Y-73279819D01*
X114235714Y-72756009D02*
X114283333Y-72660771D01*
X114283333Y-72660771D02*
X114378571Y-72613152D01*
X114378571Y-72613152D02*
X114521428Y-72613152D01*
X114521428Y-72613152D02*
X114616667Y-72660771D01*
X114616667Y-72660771D02*
X114664286Y-72756009D01*
X114664286Y-72756009D02*
X114664286Y-73279819D01*
X56766071Y-51604819D02*
X56861309Y-51604819D01*
X56861309Y-51604819D02*
X56956547Y-51652438D01*
X56956547Y-51652438D02*
X57004166Y-51700057D01*
X57004166Y-51700057D02*
X57051785Y-51795295D01*
X57051785Y-51795295D02*
X57099404Y-51985771D01*
X57099404Y-51985771D02*
X57099404Y-52223866D01*
X57099404Y-52223866D02*
X57051785Y-52414342D01*
X57051785Y-52414342D02*
X57004166Y-52509580D01*
X57004166Y-52509580D02*
X56956547Y-52557200D01*
X56956547Y-52557200D02*
X56861309Y-52604819D01*
X56861309Y-52604819D02*
X56766071Y-52604819D01*
X56766071Y-52604819D02*
X56670833Y-52557200D01*
X56670833Y-52557200D02*
X56623214Y-52509580D01*
X56623214Y-52509580D02*
X56575595Y-52414342D01*
X56575595Y-52414342D02*
X56527976Y-52223866D01*
X56527976Y-52223866D02*
X56527976Y-51985771D01*
X56527976Y-51985771D02*
X56575595Y-51795295D01*
X56575595Y-51795295D02*
X56623214Y-51700057D01*
X56623214Y-51700057D02*
X56670833Y-51652438D01*
X56670833Y-51652438D02*
X56766071Y-51604819D01*
X57527976Y-52509580D02*
X57575595Y-52557200D01*
X57575595Y-52557200D02*
X57527976Y-52604819D01*
X57527976Y-52604819D02*
X57480357Y-52557200D01*
X57480357Y-52557200D02*
X57527976Y-52509580D01*
X57527976Y-52509580D02*
X57527976Y-52604819D01*
X58194642Y-51604819D02*
X58289880Y-51604819D01*
X58289880Y-51604819D02*
X58385118Y-51652438D01*
X58385118Y-51652438D02*
X58432737Y-51700057D01*
X58432737Y-51700057D02*
X58480356Y-51795295D01*
X58480356Y-51795295D02*
X58527975Y-51985771D01*
X58527975Y-51985771D02*
X58527975Y-52223866D01*
X58527975Y-52223866D02*
X58480356Y-52414342D01*
X58480356Y-52414342D02*
X58432737Y-52509580D01*
X58432737Y-52509580D02*
X58385118Y-52557200D01*
X58385118Y-52557200D02*
X58289880Y-52604819D01*
X58289880Y-52604819D02*
X58194642Y-52604819D01*
X58194642Y-52604819D02*
X58099404Y-52557200D01*
X58099404Y-52557200D02*
X58051785Y-52509580D01*
X58051785Y-52509580D02*
X58004166Y-52414342D01*
X58004166Y-52414342D02*
X57956547Y-52223866D01*
X57956547Y-52223866D02*
X57956547Y-51985771D01*
X57956547Y-51985771D02*
X58004166Y-51795295D01*
X58004166Y-51795295D02*
X58051785Y-51700057D01*
X58051785Y-51700057D02*
X58099404Y-51652438D01*
X58099404Y-51652438D02*
X58194642Y-51604819D01*
X59147023Y-51604819D02*
X59242261Y-51604819D01*
X59242261Y-51604819D02*
X59337499Y-51652438D01*
X59337499Y-51652438D02*
X59385118Y-51700057D01*
X59385118Y-51700057D02*
X59432737Y-51795295D01*
X59432737Y-51795295D02*
X59480356Y-51985771D01*
X59480356Y-51985771D02*
X59480356Y-52223866D01*
X59480356Y-52223866D02*
X59432737Y-52414342D01*
X59432737Y-52414342D02*
X59385118Y-52509580D01*
X59385118Y-52509580D02*
X59337499Y-52557200D01*
X59337499Y-52557200D02*
X59242261Y-52604819D01*
X59242261Y-52604819D02*
X59147023Y-52604819D01*
X59147023Y-52604819D02*
X59051785Y-52557200D01*
X59051785Y-52557200D02*
X59004166Y-52509580D01*
X59004166Y-52509580D02*
X58956547Y-52414342D01*
X58956547Y-52414342D02*
X58908928Y-52223866D01*
X58908928Y-52223866D02*
X58908928Y-51985771D01*
X58908928Y-51985771D02*
X58956547Y-51795295D01*
X58956547Y-51795295D02*
X59004166Y-51700057D01*
X59004166Y-51700057D02*
X59051785Y-51652438D01*
X59051785Y-51652438D02*
X59147023Y-51604819D01*
X59813690Y-51604819D02*
X60432737Y-51604819D01*
X60432737Y-51604819D02*
X60099404Y-51985771D01*
X60099404Y-51985771D02*
X60242261Y-51985771D01*
X60242261Y-51985771D02*
X60337499Y-52033390D01*
X60337499Y-52033390D02*
X60385118Y-52081009D01*
X60385118Y-52081009D02*
X60432737Y-52176247D01*
X60432737Y-52176247D02*
X60432737Y-52414342D01*
X60432737Y-52414342D02*
X60385118Y-52509580D01*
X60385118Y-52509580D02*
X60337499Y-52557200D01*
X60337499Y-52557200D02*
X60242261Y-52604819D01*
X60242261Y-52604819D02*
X59956547Y-52604819D01*
X59956547Y-52604819D02*
X59861309Y-52557200D01*
X59861309Y-52557200D02*
X59813690Y-52509580D01*
X60908928Y-52604819D02*
X61099404Y-52604819D01*
X61099404Y-52604819D02*
X61194642Y-52557200D01*
X61194642Y-52557200D02*
X61242261Y-52509580D01*
X61242261Y-52509580D02*
X61337499Y-52366723D01*
X61337499Y-52366723D02*
X61385118Y-52176247D01*
X61385118Y-52176247D02*
X61385118Y-51795295D01*
X61385118Y-51795295D02*
X61337499Y-51700057D01*
X61337499Y-51700057D02*
X61289880Y-51652438D01*
X61289880Y-51652438D02*
X61194642Y-51604819D01*
X61194642Y-51604819D02*
X61004166Y-51604819D01*
X61004166Y-51604819D02*
X60908928Y-51652438D01*
X60908928Y-51652438D02*
X60861309Y-51700057D01*
X60861309Y-51700057D02*
X60813690Y-51795295D01*
X60813690Y-51795295D02*
X60813690Y-52033390D01*
X60813690Y-52033390D02*
X60861309Y-52128628D01*
X60861309Y-52128628D02*
X60908928Y-52176247D01*
X60908928Y-52176247D02*
X61004166Y-52223866D01*
X61004166Y-52223866D02*
X61194642Y-52223866D01*
X61194642Y-52223866D02*
X61289880Y-52176247D01*
X61289880Y-52176247D02*
X61337499Y-52128628D01*
X61337499Y-52128628D02*
X61385118Y-52033390D01*
X62242261Y-51938152D02*
X62242261Y-52604819D01*
X61813690Y-51938152D02*
X61813690Y-52461961D01*
X61813690Y-52461961D02*
X61861309Y-52557200D01*
X61861309Y-52557200D02*
X61956547Y-52604819D01*
X61956547Y-52604819D02*
X62099404Y-52604819D01*
X62099404Y-52604819D02*
X62194642Y-52557200D01*
X62194642Y-52557200D02*
X62242261Y-52509580D01*
X63051785Y-52081009D02*
X62718452Y-52081009D01*
X62718452Y-52604819D02*
X62718452Y-51604819D01*
X62718452Y-51604819D02*
X63194642Y-51604819D01*
X90904642Y-66982080D02*
X90857023Y-67029700D01*
X90857023Y-67029700D02*
X90714166Y-67077319D01*
X90714166Y-67077319D02*
X90618928Y-67077319D01*
X90618928Y-67077319D02*
X90476071Y-67029700D01*
X90476071Y-67029700D02*
X90380833Y-66934461D01*
X90380833Y-66934461D02*
X90333214Y-66839223D01*
X90333214Y-66839223D02*
X90285595Y-66648747D01*
X90285595Y-66648747D02*
X90285595Y-66505890D01*
X90285595Y-66505890D02*
X90333214Y-66315414D01*
X90333214Y-66315414D02*
X90380833Y-66220176D01*
X90380833Y-66220176D02*
X90476071Y-66124938D01*
X90476071Y-66124938D02*
X90618928Y-66077319D01*
X90618928Y-66077319D02*
X90714166Y-66077319D01*
X90714166Y-66077319D02*
X90857023Y-66124938D01*
X90857023Y-66124938D02*
X90904642Y-66172557D01*
X91857023Y-67077319D02*
X91285595Y-67077319D01*
X91571309Y-67077319D02*
X91571309Y-66077319D01*
X91571309Y-66077319D02*
X91476071Y-66220176D01*
X91476071Y-66220176D02*
X91380833Y-66315414D01*
X91380833Y-66315414D02*
X91285595Y-66363033D01*
X92714166Y-66410652D02*
X92714166Y-67077319D01*
X92476071Y-66029700D02*
X92237976Y-66743985D01*
X92237976Y-66743985D02*
X92857023Y-66743985D01*
X90476071Y-59652319D02*
X89904643Y-59652319D01*
X90190357Y-59652319D02*
X90190357Y-58652319D01*
X90190357Y-58652319D02*
X90095119Y-58795176D01*
X90095119Y-58795176D02*
X89999881Y-58890414D01*
X89999881Y-58890414D02*
X89904643Y-58938033D01*
X91095119Y-58652319D02*
X91190357Y-58652319D01*
X91190357Y-58652319D02*
X91285595Y-58699938D01*
X91285595Y-58699938D02*
X91333214Y-58747557D01*
X91333214Y-58747557D02*
X91380833Y-58842795D01*
X91380833Y-58842795D02*
X91428452Y-59033271D01*
X91428452Y-59033271D02*
X91428452Y-59271366D01*
X91428452Y-59271366D02*
X91380833Y-59461842D01*
X91380833Y-59461842D02*
X91333214Y-59557080D01*
X91333214Y-59557080D02*
X91285595Y-59604700D01*
X91285595Y-59604700D02*
X91190357Y-59652319D01*
X91190357Y-59652319D02*
X91095119Y-59652319D01*
X91095119Y-59652319D02*
X90999881Y-59604700D01*
X90999881Y-59604700D02*
X90952262Y-59557080D01*
X90952262Y-59557080D02*
X90904643Y-59461842D01*
X90904643Y-59461842D02*
X90857024Y-59271366D01*
X90857024Y-59271366D02*
X90857024Y-59033271D01*
X90857024Y-59033271D02*
X90904643Y-58842795D01*
X90904643Y-58842795D02*
X90952262Y-58747557D01*
X90952262Y-58747557D02*
X90999881Y-58699938D01*
X90999881Y-58699938D02*
X91095119Y-58652319D01*
X92285595Y-58985652D02*
X92285595Y-59652319D01*
X91857024Y-58985652D02*
X91857024Y-59509461D01*
X91857024Y-59509461D02*
X91904643Y-59604700D01*
X91904643Y-59604700D02*
X91999881Y-59652319D01*
X91999881Y-59652319D02*
X92142738Y-59652319D01*
X92142738Y-59652319D02*
X92237976Y-59604700D01*
X92237976Y-59604700D02*
X92285595Y-59557080D01*
X93095119Y-59128509D02*
X92761786Y-59128509D01*
X92761786Y-59652319D02*
X92761786Y-58652319D01*
X92761786Y-58652319D02*
X93237976Y-58652319D01*
X137218095Y-41629819D02*
X137218095Y-42439342D01*
X137218095Y-42439342D02*
X137265714Y-42534580D01*
X137265714Y-42534580D02*
X137313333Y-42582200D01*
X137313333Y-42582200D02*
X137408571Y-42629819D01*
X137408571Y-42629819D02*
X137599047Y-42629819D01*
X137599047Y-42629819D02*
X137694285Y-42582200D01*
X137694285Y-42582200D02*
X137741904Y-42534580D01*
X137741904Y-42534580D02*
X137789523Y-42439342D01*
X137789523Y-42439342D02*
X137789523Y-41629819D01*
X138170476Y-41629819D02*
X138789523Y-41629819D01*
X138789523Y-41629819D02*
X138456190Y-42010771D01*
X138456190Y-42010771D02*
X138599047Y-42010771D01*
X138599047Y-42010771D02*
X138694285Y-42058390D01*
X138694285Y-42058390D02*
X138741904Y-42106009D01*
X138741904Y-42106009D02*
X138789523Y-42201247D01*
X138789523Y-42201247D02*
X138789523Y-42439342D01*
X138789523Y-42439342D02*
X138741904Y-42534580D01*
X138741904Y-42534580D02*
X138694285Y-42582200D01*
X138694285Y-42582200D02*
X138599047Y-42629819D01*
X138599047Y-42629819D02*
X138313333Y-42629819D01*
X138313333Y-42629819D02*
X138218095Y-42582200D01*
X138218095Y-42582200D02*
X138170476Y-42534580D01*
X135601190Y-48604819D02*
X135791666Y-48604819D01*
X135791666Y-48604819D02*
X135886904Y-48652438D01*
X135886904Y-48652438D02*
X135982142Y-48747676D01*
X135982142Y-48747676D02*
X136029761Y-48938152D01*
X136029761Y-48938152D02*
X136029761Y-49271485D01*
X136029761Y-49271485D02*
X135982142Y-49461961D01*
X135982142Y-49461961D02*
X135886904Y-49557200D01*
X135886904Y-49557200D02*
X135791666Y-49604819D01*
X135791666Y-49604819D02*
X135601190Y-49604819D01*
X135601190Y-49604819D02*
X135505952Y-49557200D01*
X135505952Y-49557200D02*
X135410714Y-49461961D01*
X135410714Y-49461961D02*
X135363095Y-49271485D01*
X135363095Y-49271485D02*
X135363095Y-48938152D01*
X135363095Y-48938152D02*
X135410714Y-48747676D01*
X135410714Y-48747676D02*
X135505952Y-48652438D01*
X135505952Y-48652438D02*
X135601190Y-48604819D01*
X136458333Y-49604819D02*
X136458333Y-48604819D01*
X136458333Y-48604819D02*
X136839285Y-48604819D01*
X136839285Y-48604819D02*
X136934523Y-48652438D01*
X136934523Y-48652438D02*
X136982142Y-48700057D01*
X136982142Y-48700057D02*
X137029761Y-48795295D01*
X137029761Y-48795295D02*
X137029761Y-48938152D01*
X137029761Y-48938152D02*
X136982142Y-49033390D01*
X136982142Y-49033390D02*
X136934523Y-49081009D01*
X136934523Y-49081009D02*
X136839285Y-49128628D01*
X136839285Y-49128628D02*
X136458333Y-49128628D01*
X137982142Y-49604819D02*
X137410714Y-49604819D01*
X137696428Y-49604819D02*
X137696428Y-48604819D01*
X137696428Y-48604819D02*
X137601190Y-48747676D01*
X137601190Y-48747676D02*
X137505952Y-48842914D01*
X137505952Y-48842914D02*
X137410714Y-48890533D01*
X138315476Y-48604819D02*
X138982142Y-48604819D01*
X138982142Y-48604819D02*
X138553571Y-49604819D01*
X139267857Y-48604819D02*
X139934523Y-48604819D01*
X139934523Y-48604819D02*
X139505952Y-49604819D01*
X140839285Y-48652438D02*
X140744047Y-48604819D01*
X140744047Y-48604819D02*
X140601190Y-48604819D01*
X140601190Y-48604819D02*
X140458333Y-48652438D01*
X140458333Y-48652438D02*
X140363095Y-48747676D01*
X140363095Y-48747676D02*
X140315476Y-48842914D01*
X140315476Y-48842914D02*
X140267857Y-49033390D01*
X140267857Y-49033390D02*
X140267857Y-49176247D01*
X140267857Y-49176247D02*
X140315476Y-49366723D01*
X140315476Y-49366723D02*
X140363095Y-49461961D01*
X140363095Y-49461961D02*
X140458333Y-49557200D01*
X140458333Y-49557200D02*
X140601190Y-49604819D01*
X140601190Y-49604819D02*
X140696428Y-49604819D01*
X140696428Y-49604819D02*
X140839285Y-49557200D01*
X140839285Y-49557200D02*
X140886904Y-49509580D01*
X140886904Y-49509580D02*
X140886904Y-49176247D01*
X140886904Y-49176247D02*
X140696428Y-49176247D01*
X56703571Y-54104819D02*
X56798809Y-54104819D01*
X56798809Y-54104819D02*
X56894047Y-54152438D01*
X56894047Y-54152438D02*
X56941666Y-54200057D01*
X56941666Y-54200057D02*
X56989285Y-54295295D01*
X56989285Y-54295295D02*
X57036904Y-54485771D01*
X57036904Y-54485771D02*
X57036904Y-54723866D01*
X57036904Y-54723866D02*
X56989285Y-54914342D01*
X56989285Y-54914342D02*
X56941666Y-55009580D01*
X56941666Y-55009580D02*
X56894047Y-55057200D01*
X56894047Y-55057200D02*
X56798809Y-55104819D01*
X56798809Y-55104819D02*
X56703571Y-55104819D01*
X56703571Y-55104819D02*
X56608333Y-55057200D01*
X56608333Y-55057200D02*
X56560714Y-55009580D01*
X56560714Y-55009580D02*
X56513095Y-54914342D01*
X56513095Y-54914342D02*
X56465476Y-54723866D01*
X56465476Y-54723866D02*
X56465476Y-54485771D01*
X56465476Y-54485771D02*
X56513095Y-54295295D01*
X56513095Y-54295295D02*
X56560714Y-54200057D01*
X56560714Y-54200057D02*
X56608333Y-54152438D01*
X56608333Y-54152438D02*
X56703571Y-54104819D01*
X57465476Y-55009580D02*
X57513095Y-55057200D01*
X57513095Y-55057200D02*
X57465476Y-55104819D01*
X57465476Y-55104819D02*
X57417857Y-55057200D01*
X57417857Y-55057200D02*
X57465476Y-55009580D01*
X57465476Y-55009580D02*
X57465476Y-55104819D01*
X58132142Y-54104819D02*
X58227380Y-54104819D01*
X58227380Y-54104819D02*
X58322618Y-54152438D01*
X58322618Y-54152438D02*
X58370237Y-54200057D01*
X58370237Y-54200057D02*
X58417856Y-54295295D01*
X58417856Y-54295295D02*
X58465475Y-54485771D01*
X58465475Y-54485771D02*
X58465475Y-54723866D01*
X58465475Y-54723866D02*
X58417856Y-54914342D01*
X58417856Y-54914342D02*
X58370237Y-55009580D01*
X58370237Y-55009580D02*
X58322618Y-55057200D01*
X58322618Y-55057200D02*
X58227380Y-55104819D01*
X58227380Y-55104819D02*
X58132142Y-55104819D01*
X58132142Y-55104819D02*
X58036904Y-55057200D01*
X58036904Y-55057200D02*
X57989285Y-55009580D01*
X57989285Y-55009580D02*
X57941666Y-54914342D01*
X57941666Y-54914342D02*
X57894047Y-54723866D01*
X57894047Y-54723866D02*
X57894047Y-54485771D01*
X57894047Y-54485771D02*
X57941666Y-54295295D01*
X57941666Y-54295295D02*
X57989285Y-54200057D01*
X57989285Y-54200057D02*
X58036904Y-54152438D01*
X58036904Y-54152438D02*
X58132142Y-54104819D01*
X59084523Y-54104819D02*
X59179761Y-54104819D01*
X59179761Y-54104819D02*
X59274999Y-54152438D01*
X59274999Y-54152438D02*
X59322618Y-54200057D01*
X59322618Y-54200057D02*
X59370237Y-54295295D01*
X59370237Y-54295295D02*
X59417856Y-54485771D01*
X59417856Y-54485771D02*
X59417856Y-54723866D01*
X59417856Y-54723866D02*
X59370237Y-54914342D01*
X59370237Y-54914342D02*
X59322618Y-55009580D01*
X59322618Y-55009580D02*
X59274999Y-55057200D01*
X59274999Y-55057200D02*
X59179761Y-55104819D01*
X59179761Y-55104819D02*
X59084523Y-55104819D01*
X59084523Y-55104819D02*
X58989285Y-55057200D01*
X58989285Y-55057200D02*
X58941666Y-55009580D01*
X58941666Y-55009580D02*
X58894047Y-54914342D01*
X58894047Y-54914342D02*
X58846428Y-54723866D01*
X58846428Y-54723866D02*
X58846428Y-54485771D01*
X58846428Y-54485771D02*
X58894047Y-54295295D01*
X58894047Y-54295295D02*
X58941666Y-54200057D01*
X58941666Y-54200057D02*
X58989285Y-54152438D01*
X58989285Y-54152438D02*
X59084523Y-54104819D01*
X59798809Y-54200057D02*
X59846428Y-54152438D01*
X59846428Y-54152438D02*
X59941666Y-54104819D01*
X59941666Y-54104819D02*
X60179761Y-54104819D01*
X60179761Y-54104819D02*
X60274999Y-54152438D01*
X60274999Y-54152438D02*
X60322618Y-54200057D01*
X60322618Y-54200057D02*
X60370237Y-54295295D01*
X60370237Y-54295295D02*
X60370237Y-54390533D01*
X60370237Y-54390533D02*
X60322618Y-54533390D01*
X60322618Y-54533390D02*
X59751190Y-55104819D01*
X59751190Y-55104819D02*
X60370237Y-55104819D01*
X60751190Y-54200057D02*
X60798809Y-54152438D01*
X60798809Y-54152438D02*
X60894047Y-54104819D01*
X60894047Y-54104819D02*
X61132142Y-54104819D01*
X61132142Y-54104819D02*
X61227380Y-54152438D01*
X61227380Y-54152438D02*
X61274999Y-54200057D01*
X61274999Y-54200057D02*
X61322618Y-54295295D01*
X61322618Y-54295295D02*
X61322618Y-54390533D01*
X61322618Y-54390533D02*
X61274999Y-54533390D01*
X61274999Y-54533390D02*
X60703571Y-55104819D01*
X60703571Y-55104819D02*
X61322618Y-55104819D01*
X62179761Y-54438152D02*
X62179761Y-55104819D01*
X61751190Y-54438152D02*
X61751190Y-54961961D01*
X61751190Y-54961961D02*
X61798809Y-55057200D01*
X61798809Y-55057200D02*
X61894047Y-55104819D01*
X61894047Y-55104819D02*
X62036904Y-55104819D01*
X62036904Y-55104819D02*
X62132142Y-55057200D01*
X62132142Y-55057200D02*
X62179761Y-55009580D01*
X62989285Y-54581009D02*
X62655952Y-54581009D01*
X62655952Y-55104819D02*
X62655952Y-54104819D01*
X62655952Y-54104819D02*
X63132142Y-54104819D01*
X70508095Y-38892319D02*
X70508095Y-39701842D01*
X70508095Y-39701842D02*
X70555714Y-39797080D01*
X70555714Y-39797080D02*
X70603333Y-39844700D01*
X70603333Y-39844700D02*
X70698571Y-39892319D01*
X70698571Y-39892319D02*
X70889047Y-39892319D01*
X70889047Y-39892319D02*
X70984285Y-39844700D01*
X70984285Y-39844700D02*
X71031904Y-39797080D01*
X71031904Y-39797080D02*
X71079523Y-39701842D01*
X71079523Y-39701842D02*
X71079523Y-38892319D01*
X72079523Y-39892319D02*
X71508095Y-39892319D01*
X71793809Y-39892319D02*
X71793809Y-38892319D01*
X71793809Y-38892319D02*
X71698571Y-39035176D01*
X71698571Y-39035176D02*
X71603333Y-39130414D01*
X71603333Y-39130414D02*
X71508095Y-39178033D01*
X68633095Y-36502319D02*
X68633095Y-35502319D01*
X69109285Y-36502319D02*
X69109285Y-35502319D01*
X69109285Y-35502319D02*
X69680713Y-36502319D01*
X69680713Y-36502319D02*
X69680713Y-35502319D01*
X70109285Y-36216604D02*
X70585475Y-36216604D01*
X70014047Y-36502319D02*
X70347380Y-35502319D01*
X70347380Y-35502319D02*
X70680713Y-36502319D01*
X71728333Y-35597557D02*
X71775952Y-35549938D01*
X71775952Y-35549938D02*
X71871190Y-35502319D01*
X71871190Y-35502319D02*
X72109285Y-35502319D01*
X72109285Y-35502319D02*
X72204523Y-35549938D01*
X72204523Y-35549938D02*
X72252142Y-35597557D01*
X72252142Y-35597557D02*
X72299761Y-35692795D01*
X72299761Y-35692795D02*
X72299761Y-35788033D01*
X72299761Y-35788033D02*
X72252142Y-35930890D01*
X72252142Y-35930890D02*
X71680714Y-36502319D01*
X71680714Y-36502319D02*
X72299761Y-36502319D01*
X73252142Y-36502319D02*
X72680714Y-36502319D01*
X72966428Y-36502319D02*
X72966428Y-35502319D01*
X72966428Y-35502319D02*
X72871190Y-35645176D01*
X72871190Y-35645176D02*
X72775952Y-35740414D01*
X72775952Y-35740414D02*
X72680714Y-35788033D01*
X73585476Y-35502319D02*
X74252142Y-35502319D01*
X74252142Y-35502319D02*
X73823571Y-36502319D01*
X95154819Y-27383333D02*
X95869104Y-27383333D01*
X95869104Y-27383333D02*
X96011961Y-27430952D01*
X96011961Y-27430952D02*
X96107200Y-27526190D01*
X96107200Y-27526190D02*
X96154819Y-27669047D01*
X96154819Y-27669047D02*
X96154819Y-27764285D01*
X95488152Y-26478571D02*
X96154819Y-26478571D01*
X95107200Y-26716666D02*
X95821485Y-26954761D01*
X95821485Y-26954761D02*
X95821485Y-26335714D01*
X98838095Y-23679819D02*
X99409523Y-23679819D01*
X99123809Y-24679819D02*
X99123809Y-23679819D01*
X99742857Y-24679819D02*
X99742857Y-23679819D01*
X99742857Y-23679819D02*
X100123809Y-23679819D01*
X100123809Y-23679819D02*
X100219047Y-23727438D01*
X100219047Y-23727438D02*
X100266666Y-23775057D01*
X100266666Y-23775057D02*
X100314285Y-23870295D01*
X100314285Y-23870295D02*
X100314285Y-24013152D01*
X100314285Y-24013152D02*
X100266666Y-24108390D01*
X100266666Y-24108390D02*
X100219047Y-24156009D01*
X100219047Y-24156009D02*
X100123809Y-24203628D01*
X100123809Y-24203628D02*
X99742857Y-24203628D01*
X100695238Y-23775057D02*
X100742857Y-23727438D01*
X100742857Y-23727438D02*
X100838095Y-23679819D01*
X100838095Y-23679819D02*
X101076190Y-23679819D01*
X101076190Y-23679819D02*
X101171428Y-23727438D01*
X101171428Y-23727438D02*
X101219047Y-23775057D01*
X101219047Y-23775057D02*
X101266666Y-23870295D01*
X101266666Y-23870295D02*
X101266666Y-23965533D01*
X101266666Y-23965533D02*
X101219047Y-24108390D01*
X101219047Y-24108390D02*
X100647619Y-24679819D01*
X100647619Y-24679819D02*
X101266666Y-24679819D01*
X118799819Y-41683333D02*
X119514104Y-41683333D01*
X119514104Y-41683333D02*
X119656961Y-41730952D01*
X119656961Y-41730952D02*
X119752200Y-41826190D01*
X119752200Y-41826190D02*
X119799819Y-41969047D01*
X119799819Y-41969047D02*
X119799819Y-42064285D01*
X118799819Y-40730952D02*
X118799819Y-41207142D01*
X118799819Y-41207142D02*
X119276009Y-41254761D01*
X119276009Y-41254761D02*
X119228390Y-41207142D01*
X119228390Y-41207142D02*
X119180771Y-41111904D01*
X119180771Y-41111904D02*
X119180771Y-40873809D01*
X119180771Y-40873809D02*
X119228390Y-40778571D01*
X119228390Y-40778571D02*
X119276009Y-40730952D01*
X119276009Y-40730952D02*
X119371247Y-40683333D01*
X119371247Y-40683333D02*
X119609342Y-40683333D01*
X119609342Y-40683333D02*
X119704580Y-40730952D01*
X119704580Y-40730952D02*
X119752200Y-40778571D01*
X119752200Y-40778571D02*
X119799819Y-40873809D01*
X119799819Y-40873809D02*
X119799819Y-41111904D01*
X119799819Y-41111904D02*
X119752200Y-41207142D01*
X119752200Y-41207142D02*
X119704580Y-41254761D01*
X122138095Y-37929819D02*
X122709523Y-37929819D01*
X122423809Y-38929819D02*
X122423809Y-37929819D01*
X123042857Y-38929819D02*
X123042857Y-37929819D01*
X123042857Y-37929819D02*
X123423809Y-37929819D01*
X123423809Y-37929819D02*
X123519047Y-37977438D01*
X123519047Y-37977438D02*
X123566666Y-38025057D01*
X123566666Y-38025057D02*
X123614285Y-38120295D01*
X123614285Y-38120295D02*
X123614285Y-38263152D01*
X123614285Y-38263152D02*
X123566666Y-38358390D01*
X123566666Y-38358390D02*
X123519047Y-38406009D01*
X123519047Y-38406009D02*
X123423809Y-38453628D01*
X123423809Y-38453628D02*
X123042857Y-38453628D01*
X123947619Y-37929819D02*
X124566666Y-37929819D01*
X124566666Y-37929819D02*
X124233333Y-38310771D01*
X124233333Y-38310771D02*
X124376190Y-38310771D01*
X124376190Y-38310771D02*
X124471428Y-38358390D01*
X124471428Y-38358390D02*
X124519047Y-38406009D01*
X124519047Y-38406009D02*
X124566666Y-38501247D01*
X124566666Y-38501247D02*
X124566666Y-38739342D01*
X124566666Y-38739342D02*
X124519047Y-38834580D01*
X124519047Y-38834580D02*
X124471428Y-38882200D01*
X124471428Y-38882200D02*
X124376190Y-38929819D01*
X124376190Y-38929819D02*
X124090476Y-38929819D01*
X124090476Y-38929819D02*
X123995238Y-38882200D01*
X123995238Y-38882200D02*
X123947619Y-38834580D01*
X96516666Y-68654819D02*
X96516666Y-69369104D01*
X96516666Y-69369104D02*
X96469047Y-69511961D01*
X96469047Y-69511961D02*
X96373809Y-69607200D01*
X96373809Y-69607200D02*
X96230952Y-69654819D01*
X96230952Y-69654819D02*
X96135714Y-69654819D01*
X97516666Y-69654819D02*
X96945238Y-69654819D01*
X97230952Y-69654819D02*
X97230952Y-68654819D01*
X97230952Y-68654819D02*
X97135714Y-68797676D01*
X97135714Y-68797676D02*
X97040476Y-68892914D01*
X97040476Y-68892914D02*
X96945238Y-68940533D01*
X93702381Y-75279819D02*
X93702381Y-74279819D01*
X93702381Y-74279819D02*
X94083333Y-74279819D01*
X94083333Y-74279819D02*
X94178571Y-74327438D01*
X94178571Y-74327438D02*
X94226190Y-74375057D01*
X94226190Y-74375057D02*
X94273809Y-74470295D01*
X94273809Y-74470295D02*
X94273809Y-74613152D01*
X94273809Y-74613152D02*
X94226190Y-74708390D01*
X94226190Y-74708390D02*
X94178571Y-74756009D01*
X94178571Y-74756009D02*
X94083333Y-74803628D01*
X94083333Y-74803628D02*
X93702381Y-74803628D01*
X94845238Y-75279819D02*
X94750000Y-75232200D01*
X94750000Y-75232200D02*
X94702381Y-75184580D01*
X94702381Y-75184580D02*
X94654762Y-75089342D01*
X94654762Y-75089342D02*
X94654762Y-74803628D01*
X94654762Y-74803628D02*
X94702381Y-74708390D01*
X94702381Y-74708390D02*
X94750000Y-74660771D01*
X94750000Y-74660771D02*
X94845238Y-74613152D01*
X94845238Y-74613152D02*
X94988095Y-74613152D01*
X94988095Y-74613152D02*
X95083333Y-74660771D01*
X95083333Y-74660771D02*
X95130952Y-74708390D01*
X95130952Y-74708390D02*
X95178571Y-74803628D01*
X95178571Y-74803628D02*
X95178571Y-75089342D01*
X95178571Y-75089342D02*
X95130952Y-75184580D01*
X95130952Y-75184580D02*
X95083333Y-75232200D01*
X95083333Y-75232200D02*
X94988095Y-75279819D01*
X94988095Y-75279819D02*
X94845238Y-75279819D01*
X95511905Y-74613152D02*
X95702381Y-75279819D01*
X95702381Y-75279819D02*
X95892857Y-74803628D01*
X95892857Y-74803628D02*
X96083333Y-75279819D01*
X96083333Y-75279819D02*
X96273809Y-74613152D01*
X97035714Y-75232200D02*
X96940476Y-75279819D01*
X96940476Y-75279819D02*
X96750000Y-75279819D01*
X96750000Y-75279819D02*
X96654762Y-75232200D01*
X96654762Y-75232200D02*
X96607143Y-75136961D01*
X96607143Y-75136961D02*
X96607143Y-74756009D01*
X96607143Y-74756009D02*
X96654762Y-74660771D01*
X96654762Y-74660771D02*
X96750000Y-74613152D01*
X96750000Y-74613152D02*
X96940476Y-74613152D01*
X96940476Y-74613152D02*
X97035714Y-74660771D01*
X97035714Y-74660771D02*
X97083333Y-74756009D01*
X97083333Y-74756009D02*
X97083333Y-74851247D01*
X97083333Y-74851247D02*
X96607143Y-74946485D01*
X97511905Y-75279819D02*
X97511905Y-74613152D01*
X97511905Y-74803628D02*
X97559524Y-74708390D01*
X97559524Y-74708390D02*
X97607143Y-74660771D01*
X97607143Y-74660771D02*
X97702381Y-74613152D01*
X97702381Y-74613152D02*
X97797619Y-74613152D01*
X98892858Y-75279819D02*
X98892858Y-74279819D01*
X99369048Y-74613152D02*
X99369048Y-75279819D01*
X99369048Y-74708390D02*
X99416667Y-74660771D01*
X99416667Y-74660771D02*
X99511905Y-74613152D01*
X99511905Y-74613152D02*
X99654762Y-74613152D01*
X99654762Y-74613152D02*
X99750000Y-74660771D01*
X99750000Y-74660771D02*
X99797619Y-74756009D01*
X99797619Y-74756009D02*
X99797619Y-75279819D01*
X82149819Y-27433333D02*
X82864104Y-27433333D01*
X82864104Y-27433333D02*
X83006961Y-27480952D01*
X83006961Y-27480952D02*
X83102200Y-27576190D01*
X83102200Y-27576190D02*
X83149819Y-27719047D01*
X83149819Y-27719047D02*
X83149819Y-27814285D01*
X82149819Y-27052380D02*
X82149819Y-26433333D01*
X82149819Y-26433333D02*
X82530771Y-26766666D01*
X82530771Y-26766666D02*
X82530771Y-26623809D01*
X82530771Y-26623809D02*
X82578390Y-26528571D01*
X82578390Y-26528571D02*
X82626009Y-26480952D01*
X82626009Y-26480952D02*
X82721247Y-26433333D01*
X82721247Y-26433333D02*
X82959342Y-26433333D01*
X82959342Y-26433333D02*
X83054580Y-26480952D01*
X83054580Y-26480952D02*
X83102200Y-26528571D01*
X83102200Y-26528571D02*
X83149819Y-26623809D01*
X83149819Y-26623809D02*
X83149819Y-26909523D01*
X83149819Y-26909523D02*
X83102200Y-27004761D01*
X83102200Y-27004761D02*
X83054580Y-27052380D01*
X85088095Y-23879819D02*
X85659523Y-23879819D01*
X85373809Y-24879819D02*
X85373809Y-23879819D01*
X85992857Y-24879819D02*
X85992857Y-23879819D01*
X85992857Y-23879819D02*
X86373809Y-23879819D01*
X86373809Y-23879819D02*
X86469047Y-23927438D01*
X86469047Y-23927438D02*
X86516666Y-23975057D01*
X86516666Y-23975057D02*
X86564285Y-24070295D01*
X86564285Y-24070295D02*
X86564285Y-24213152D01*
X86564285Y-24213152D02*
X86516666Y-24308390D01*
X86516666Y-24308390D02*
X86469047Y-24356009D01*
X86469047Y-24356009D02*
X86373809Y-24403628D01*
X86373809Y-24403628D02*
X85992857Y-24403628D01*
X87516666Y-24879819D02*
X86945238Y-24879819D01*
X87230952Y-24879819D02*
X87230952Y-23879819D01*
X87230952Y-23879819D02*
X87135714Y-24022676D01*
X87135714Y-24022676D02*
X87040476Y-24117914D01*
X87040476Y-24117914D02*
X86945238Y-24165533D01*
X103854642Y-58012080D02*
X103807023Y-58059700D01*
X103807023Y-58059700D02*
X103664166Y-58107319D01*
X103664166Y-58107319D02*
X103568928Y-58107319D01*
X103568928Y-58107319D02*
X103426071Y-58059700D01*
X103426071Y-58059700D02*
X103330833Y-57964461D01*
X103330833Y-57964461D02*
X103283214Y-57869223D01*
X103283214Y-57869223D02*
X103235595Y-57678747D01*
X103235595Y-57678747D02*
X103235595Y-57535890D01*
X103235595Y-57535890D02*
X103283214Y-57345414D01*
X103283214Y-57345414D02*
X103330833Y-57250176D01*
X103330833Y-57250176D02*
X103426071Y-57154938D01*
X103426071Y-57154938D02*
X103568928Y-57107319D01*
X103568928Y-57107319D02*
X103664166Y-57107319D01*
X103664166Y-57107319D02*
X103807023Y-57154938D01*
X103807023Y-57154938D02*
X103854642Y-57202557D01*
X104807023Y-58107319D02*
X104235595Y-58107319D01*
X104521309Y-58107319D02*
X104521309Y-57107319D01*
X104521309Y-57107319D02*
X104426071Y-57250176D01*
X104426071Y-57250176D02*
X104330833Y-57345414D01*
X104330833Y-57345414D02*
X104235595Y-57393033D01*
X105711785Y-57107319D02*
X105235595Y-57107319D01*
X105235595Y-57107319D02*
X105187976Y-57583509D01*
X105187976Y-57583509D02*
X105235595Y-57535890D01*
X105235595Y-57535890D02*
X105330833Y-57488271D01*
X105330833Y-57488271D02*
X105568928Y-57488271D01*
X105568928Y-57488271D02*
X105664166Y-57535890D01*
X105664166Y-57535890D02*
X105711785Y-57583509D01*
X105711785Y-57583509D02*
X105759404Y-57678747D01*
X105759404Y-57678747D02*
X105759404Y-57916842D01*
X105759404Y-57916842D02*
X105711785Y-58012080D01*
X105711785Y-58012080D02*
X105664166Y-58059700D01*
X105664166Y-58059700D02*
X105568928Y-58107319D01*
X105568928Y-58107319D02*
X105330833Y-58107319D01*
X105330833Y-58107319D02*
X105235595Y-58059700D01*
X105235595Y-58059700D02*
X105187976Y-58012080D01*
X103092737Y-54747319D02*
X102521309Y-54747319D01*
X102807023Y-54747319D02*
X102807023Y-53747319D01*
X102807023Y-53747319D02*
X102711785Y-53890176D01*
X102711785Y-53890176D02*
X102616547Y-53985414D01*
X102616547Y-53985414D02*
X102521309Y-54033033D01*
X103711785Y-53747319D02*
X103807023Y-53747319D01*
X103807023Y-53747319D02*
X103902261Y-53794938D01*
X103902261Y-53794938D02*
X103949880Y-53842557D01*
X103949880Y-53842557D02*
X103997499Y-53937795D01*
X103997499Y-53937795D02*
X104045118Y-54128271D01*
X104045118Y-54128271D02*
X104045118Y-54366366D01*
X104045118Y-54366366D02*
X103997499Y-54556842D01*
X103997499Y-54556842D02*
X103949880Y-54652080D01*
X103949880Y-54652080D02*
X103902261Y-54699700D01*
X103902261Y-54699700D02*
X103807023Y-54747319D01*
X103807023Y-54747319D02*
X103711785Y-54747319D01*
X103711785Y-54747319D02*
X103616547Y-54699700D01*
X103616547Y-54699700D02*
X103568928Y-54652080D01*
X103568928Y-54652080D02*
X103521309Y-54556842D01*
X103521309Y-54556842D02*
X103473690Y-54366366D01*
X103473690Y-54366366D02*
X103473690Y-54128271D01*
X103473690Y-54128271D02*
X103521309Y-53937795D01*
X103521309Y-53937795D02*
X103568928Y-53842557D01*
X103568928Y-53842557D02*
X103616547Y-53794938D01*
X103616547Y-53794938D02*
X103711785Y-53747319D01*
X104664166Y-53747319D02*
X104759404Y-53747319D01*
X104759404Y-53747319D02*
X104854642Y-53794938D01*
X104854642Y-53794938D02*
X104902261Y-53842557D01*
X104902261Y-53842557D02*
X104949880Y-53937795D01*
X104949880Y-53937795D02*
X104997499Y-54128271D01*
X104997499Y-54128271D02*
X104997499Y-54366366D01*
X104997499Y-54366366D02*
X104949880Y-54556842D01*
X104949880Y-54556842D02*
X104902261Y-54652080D01*
X104902261Y-54652080D02*
X104854642Y-54699700D01*
X104854642Y-54699700D02*
X104759404Y-54747319D01*
X104759404Y-54747319D02*
X104664166Y-54747319D01*
X104664166Y-54747319D02*
X104568928Y-54699700D01*
X104568928Y-54699700D02*
X104521309Y-54652080D01*
X104521309Y-54652080D02*
X104473690Y-54556842D01*
X104473690Y-54556842D02*
X104426071Y-54366366D01*
X104426071Y-54366366D02*
X104426071Y-54128271D01*
X104426071Y-54128271D02*
X104473690Y-53937795D01*
X104473690Y-53937795D02*
X104521309Y-53842557D01*
X104521309Y-53842557D02*
X104568928Y-53794938D01*
X104568928Y-53794938D02*
X104664166Y-53747319D01*
X105426071Y-54080652D02*
X105426071Y-54747319D01*
X105426071Y-54175890D02*
X105473690Y-54128271D01*
X105473690Y-54128271D02*
X105568928Y-54080652D01*
X105568928Y-54080652D02*
X105711785Y-54080652D01*
X105711785Y-54080652D02*
X105807023Y-54128271D01*
X105807023Y-54128271D02*
X105854642Y-54223509D01*
X105854642Y-54223509D02*
X105854642Y-54747319D01*
X106187976Y-54080652D02*
X106568928Y-54080652D01*
X106330833Y-54747319D02*
X106330833Y-53890176D01*
X106330833Y-53890176D02*
X106378452Y-53794938D01*
X106378452Y-53794938D02*
X106473690Y-53747319D01*
X106473690Y-53747319D02*
X106568928Y-53747319D01*
X106908333Y-33954819D02*
X106575000Y-33478628D01*
X106336905Y-33954819D02*
X106336905Y-32954819D01*
X106336905Y-32954819D02*
X106717857Y-32954819D01*
X106717857Y-32954819D02*
X106813095Y-33002438D01*
X106813095Y-33002438D02*
X106860714Y-33050057D01*
X106860714Y-33050057D02*
X106908333Y-33145295D01*
X106908333Y-33145295D02*
X106908333Y-33288152D01*
X106908333Y-33288152D02*
X106860714Y-33383390D01*
X106860714Y-33383390D02*
X106813095Y-33431009D01*
X106813095Y-33431009D02*
X106717857Y-33478628D01*
X106717857Y-33478628D02*
X106336905Y-33478628D01*
X107289286Y-33050057D02*
X107336905Y-33002438D01*
X107336905Y-33002438D02*
X107432143Y-32954819D01*
X107432143Y-32954819D02*
X107670238Y-32954819D01*
X107670238Y-32954819D02*
X107765476Y-33002438D01*
X107765476Y-33002438D02*
X107813095Y-33050057D01*
X107813095Y-33050057D02*
X107860714Y-33145295D01*
X107860714Y-33145295D02*
X107860714Y-33240533D01*
X107860714Y-33240533D02*
X107813095Y-33383390D01*
X107813095Y-33383390D02*
X107241667Y-33954819D01*
X107241667Y-33954819D02*
X107860714Y-33954819D01*
X108394047Y-30829819D02*
X107917857Y-30829819D01*
X107917857Y-30829819D02*
X107870238Y-31306009D01*
X107870238Y-31306009D02*
X107917857Y-31258390D01*
X107917857Y-31258390D02*
X108013095Y-31210771D01*
X108013095Y-31210771D02*
X108251190Y-31210771D01*
X108251190Y-31210771D02*
X108346428Y-31258390D01*
X108346428Y-31258390D02*
X108394047Y-31306009D01*
X108394047Y-31306009D02*
X108441666Y-31401247D01*
X108441666Y-31401247D02*
X108441666Y-31639342D01*
X108441666Y-31639342D02*
X108394047Y-31734580D01*
X108394047Y-31734580D02*
X108346428Y-31782200D01*
X108346428Y-31782200D02*
X108251190Y-31829819D01*
X108251190Y-31829819D02*
X108013095Y-31829819D01*
X108013095Y-31829819D02*
X107917857Y-31782200D01*
X107917857Y-31782200D02*
X107870238Y-31734580D01*
X108870238Y-31734580D02*
X108917857Y-31782200D01*
X108917857Y-31782200D02*
X108870238Y-31829819D01*
X108870238Y-31829819D02*
X108822619Y-31782200D01*
X108822619Y-31782200D02*
X108870238Y-31734580D01*
X108870238Y-31734580D02*
X108870238Y-31829819D01*
X109870237Y-31829819D02*
X109298809Y-31829819D01*
X109584523Y-31829819D02*
X109584523Y-30829819D01*
X109584523Y-30829819D02*
X109489285Y-30972676D01*
X109489285Y-30972676D02*
X109394047Y-31067914D01*
X109394047Y-31067914D02*
X109298809Y-31115533D01*
X110822618Y-31829819D02*
X110251190Y-31829819D01*
X110536904Y-31829819D02*
X110536904Y-30829819D01*
X110536904Y-30829819D02*
X110441666Y-30972676D01*
X110441666Y-30972676D02*
X110346428Y-31067914D01*
X110346428Y-31067914D02*
X110251190Y-31115533D01*
X112536904Y-31829819D02*
X111965476Y-31829819D01*
X112251190Y-31829819D02*
X112251190Y-30829819D01*
X112251190Y-30829819D02*
X112155952Y-30972676D01*
X112155952Y-30972676D02*
X112060714Y-31067914D01*
X112060714Y-31067914D02*
X111965476Y-31115533D01*
X112917857Y-31829819D02*
X113679761Y-30829819D01*
X113060714Y-30829819D02*
X113155952Y-30877438D01*
X113155952Y-30877438D02*
X113203571Y-30972676D01*
X113203571Y-30972676D02*
X113155952Y-31067914D01*
X113155952Y-31067914D02*
X113060714Y-31115533D01*
X113060714Y-31115533D02*
X112965476Y-31067914D01*
X112965476Y-31067914D02*
X112917857Y-30972676D01*
X112917857Y-30972676D02*
X112965476Y-30877438D01*
X112965476Y-30877438D02*
X113060714Y-30829819D01*
X113632142Y-31782200D02*
X113679761Y-31686961D01*
X113679761Y-31686961D02*
X113632142Y-31591723D01*
X113632142Y-31591723D02*
X113536904Y-31544104D01*
X113536904Y-31544104D02*
X113441666Y-31591723D01*
X113441666Y-31591723D02*
X113394047Y-31686961D01*
X113394047Y-31686961D02*
X113441666Y-31782200D01*
X113441666Y-31782200D02*
X113536904Y-31829819D01*
X113536904Y-31829819D02*
X113632142Y-31782200D01*
X56968452Y-33854819D02*
X57063690Y-33854819D01*
X57063690Y-33854819D02*
X57158928Y-33902438D01*
X57158928Y-33902438D02*
X57206547Y-33950057D01*
X57206547Y-33950057D02*
X57254166Y-34045295D01*
X57254166Y-34045295D02*
X57301785Y-34235771D01*
X57301785Y-34235771D02*
X57301785Y-34473866D01*
X57301785Y-34473866D02*
X57254166Y-34664342D01*
X57254166Y-34664342D02*
X57206547Y-34759580D01*
X57206547Y-34759580D02*
X57158928Y-34807200D01*
X57158928Y-34807200D02*
X57063690Y-34854819D01*
X57063690Y-34854819D02*
X56968452Y-34854819D01*
X56968452Y-34854819D02*
X56873214Y-34807200D01*
X56873214Y-34807200D02*
X56825595Y-34759580D01*
X56825595Y-34759580D02*
X56777976Y-34664342D01*
X56777976Y-34664342D02*
X56730357Y-34473866D01*
X56730357Y-34473866D02*
X56730357Y-34235771D01*
X56730357Y-34235771D02*
X56777976Y-34045295D01*
X56777976Y-34045295D02*
X56825595Y-33950057D01*
X56825595Y-33950057D02*
X56873214Y-33902438D01*
X56873214Y-33902438D02*
X56968452Y-33854819D01*
X57730357Y-34759580D02*
X57777976Y-34807200D01*
X57777976Y-34807200D02*
X57730357Y-34854819D01*
X57730357Y-34854819D02*
X57682738Y-34807200D01*
X57682738Y-34807200D02*
X57730357Y-34759580D01*
X57730357Y-34759580D02*
X57730357Y-34854819D01*
X58158928Y-33950057D02*
X58206547Y-33902438D01*
X58206547Y-33902438D02*
X58301785Y-33854819D01*
X58301785Y-33854819D02*
X58539880Y-33854819D01*
X58539880Y-33854819D02*
X58635118Y-33902438D01*
X58635118Y-33902438D02*
X58682737Y-33950057D01*
X58682737Y-33950057D02*
X58730356Y-34045295D01*
X58730356Y-34045295D02*
X58730356Y-34140533D01*
X58730356Y-34140533D02*
X58682737Y-34283390D01*
X58682737Y-34283390D02*
X58111309Y-34854819D01*
X58111309Y-34854819D02*
X58730356Y-34854819D01*
X59111309Y-33950057D02*
X59158928Y-33902438D01*
X59158928Y-33902438D02*
X59254166Y-33854819D01*
X59254166Y-33854819D02*
X59492261Y-33854819D01*
X59492261Y-33854819D02*
X59587499Y-33902438D01*
X59587499Y-33902438D02*
X59635118Y-33950057D01*
X59635118Y-33950057D02*
X59682737Y-34045295D01*
X59682737Y-34045295D02*
X59682737Y-34140533D01*
X59682737Y-34140533D02*
X59635118Y-34283390D01*
X59635118Y-34283390D02*
X59063690Y-34854819D01*
X59063690Y-34854819D02*
X59682737Y-34854819D01*
X60539880Y-34188152D02*
X60539880Y-34854819D01*
X60111309Y-34188152D02*
X60111309Y-34711961D01*
X60111309Y-34711961D02*
X60158928Y-34807200D01*
X60158928Y-34807200D02*
X60254166Y-34854819D01*
X60254166Y-34854819D02*
X60397023Y-34854819D01*
X60397023Y-34854819D02*
X60492261Y-34807200D01*
X60492261Y-34807200D02*
X60539880Y-34759580D01*
X61349404Y-34331009D02*
X61016071Y-34331009D01*
X61016071Y-34854819D02*
X61016071Y-33854819D01*
X61016071Y-33854819D02*
X61492261Y-33854819D01*
X126533333Y-46479819D02*
X126200000Y-46003628D01*
X125961905Y-46479819D02*
X125961905Y-45479819D01*
X125961905Y-45479819D02*
X126342857Y-45479819D01*
X126342857Y-45479819D02*
X126438095Y-45527438D01*
X126438095Y-45527438D02*
X126485714Y-45575057D01*
X126485714Y-45575057D02*
X126533333Y-45670295D01*
X126533333Y-45670295D02*
X126533333Y-45813152D01*
X126533333Y-45813152D02*
X126485714Y-45908390D01*
X126485714Y-45908390D02*
X126438095Y-45956009D01*
X126438095Y-45956009D02*
X126342857Y-46003628D01*
X126342857Y-46003628D02*
X125961905Y-46003628D01*
X126866667Y-45479819D02*
X127485714Y-45479819D01*
X127485714Y-45479819D02*
X127152381Y-45860771D01*
X127152381Y-45860771D02*
X127295238Y-45860771D01*
X127295238Y-45860771D02*
X127390476Y-45908390D01*
X127390476Y-45908390D02*
X127438095Y-45956009D01*
X127438095Y-45956009D02*
X127485714Y-46051247D01*
X127485714Y-46051247D02*
X127485714Y-46289342D01*
X127485714Y-46289342D02*
X127438095Y-46384580D01*
X127438095Y-46384580D02*
X127390476Y-46432200D01*
X127390476Y-46432200D02*
X127295238Y-46479819D01*
X127295238Y-46479819D02*
X127009524Y-46479819D01*
X127009524Y-46479819D02*
X126914286Y-46432200D01*
X126914286Y-46432200D02*
X126866667Y-46384580D01*
X124333332Y-51512295D02*
X123876189Y-51512295D01*
X124104761Y-51512295D02*
X124104761Y-50712295D01*
X124104761Y-50712295D02*
X124028570Y-50826580D01*
X124028570Y-50826580D02*
X123952380Y-50902771D01*
X123952380Y-50902771D02*
X123876189Y-50940866D01*
X124828571Y-50712295D02*
X124904761Y-50712295D01*
X124904761Y-50712295D02*
X124980952Y-50750390D01*
X124980952Y-50750390D02*
X125019047Y-50788485D01*
X125019047Y-50788485D02*
X125057142Y-50864676D01*
X125057142Y-50864676D02*
X125095237Y-51017057D01*
X125095237Y-51017057D02*
X125095237Y-51207533D01*
X125095237Y-51207533D02*
X125057142Y-51359914D01*
X125057142Y-51359914D02*
X125019047Y-51436104D01*
X125019047Y-51436104D02*
X124980952Y-51474200D01*
X124980952Y-51474200D02*
X124904761Y-51512295D01*
X124904761Y-51512295D02*
X124828571Y-51512295D01*
X124828571Y-51512295D02*
X124752380Y-51474200D01*
X124752380Y-51474200D02*
X124714285Y-51436104D01*
X124714285Y-51436104D02*
X124676190Y-51359914D01*
X124676190Y-51359914D02*
X124638094Y-51207533D01*
X124638094Y-51207533D02*
X124638094Y-51017057D01*
X124638094Y-51017057D02*
X124676190Y-50864676D01*
X124676190Y-50864676D02*
X124714285Y-50788485D01*
X124714285Y-50788485D02*
X124752380Y-50750390D01*
X124752380Y-50750390D02*
X124828571Y-50712295D01*
X125438095Y-51436104D02*
X125476190Y-51474200D01*
X125476190Y-51474200D02*
X125438095Y-51512295D01*
X125438095Y-51512295D02*
X125399999Y-51474200D01*
X125399999Y-51474200D02*
X125438095Y-51436104D01*
X125438095Y-51436104D02*
X125438095Y-51512295D01*
X125780951Y-50788485D02*
X125819047Y-50750390D01*
X125819047Y-50750390D02*
X125895237Y-50712295D01*
X125895237Y-50712295D02*
X126085713Y-50712295D01*
X126085713Y-50712295D02*
X126161904Y-50750390D01*
X126161904Y-50750390D02*
X126199999Y-50788485D01*
X126199999Y-50788485D02*
X126238094Y-50864676D01*
X126238094Y-50864676D02*
X126238094Y-50940866D01*
X126238094Y-50940866D02*
X126199999Y-51055152D01*
X126199999Y-51055152D02*
X125742856Y-51512295D01*
X125742856Y-51512295D02*
X126238094Y-51512295D01*
X126580952Y-51512295D02*
X126580952Y-50712295D01*
X127038095Y-51512295D02*
X126695237Y-51055152D01*
X127038095Y-50712295D02*
X126580952Y-51169438D01*
X128409523Y-51512295D02*
X127952380Y-51512295D01*
X128180952Y-51512295D02*
X128180952Y-50712295D01*
X128180952Y-50712295D02*
X128104761Y-50826580D01*
X128104761Y-50826580D02*
X128028571Y-50902771D01*
X128028571Y-50902771D02*
X127952380Y-50940866D01*
X128714285Y-51512295D02*
X129323809Y-50712295D01*
X128828571Y-50712295D02*
X128904762Y-50750390D01*
X128904762Y-50750390D02*
X128942857Y-50826580D01*
X128942857Y-50826580D02*
X128904762Y-50902771D01*
X128904762Y-50902771D02*
X128828571Y-50940866D01*
X128828571Y-50940866D02*
X128752381Y-50902771D01*
X128752381Y-50902771D02*
X128714285Y-50826580D01*
X128714285Y-50826580D02*
X128752381Y-50750390D01*
X128752381Y-50750390D02*
X128828571Y-50712295D01*
X129285714Y-51474200D02*
X129323809Y-51398009D01*
X129323809Y-51398009D02*
X129285714Y-51321819D01*
X129285714Y-51321819D02*
X129209524Y-51283723D01*
X129209524Y-51283723D02*
X129133333Y-51321819D01*
X129133333Y-51321819D02*
X129095238Y-51398009D01*
X129095238Y-51398009D02*
X129133333Y-51474200D01*
X129133333Y-51474200D02*
X129209524Y-51512295D01*
X129209524Y-51512295D02*
X129285714Y-51474200D01*
X109808095Y-37752319D02*
X109808095Y-38561842D01*
X109808095Y-38561842D02*
X109855714Y-38657080D01*
X109855714Y-38657080D02*
X109903333Y-38704700D01*
X109903333Y-38704700D02*
X109998571Y-38752319D01*
X109998571Y-38752319D02*
X110189047Y-38752319D01*
X110189047Y-38752319D02*
X110284285Y-38704700D01*
X110284285Y-38704700D02*
X110331904Y-38657080D01*
X110331904Y-38657080D02*
X110379523Y-38561842D01*
X110379523Y-38561842D02*
X110379523Y-37752319D01*
X110808095Y-37847557D02*
X110855714Y-37799938D01*
X110855714Y-37799938D02*
X110950952Y-37752319D01*
X110950952Y-37752319D02*
X111189047Y-37752319D01*
X111189047Y-37752319D02*
X111284285Y-37799938D01*
X111284285Y-37799938D02*
X111331904Y-37847557D01*
X111331904Y-37847557D02*
X111379523Y-37942795D01*
X111379523Y-37942795D02*
X111379523Y-38038033D01*
X111379523Y-38038033D02*
X111331904Y-38180890D01*
X111331904Y-38180890D02*
X110760476Y-38752319D01*
X110760476Y-38752319D02*
X111379523Y-38752319D01*
X107944048Y-36129819D02*
X107944048Y-35129819D01*
X108420238Y-36129819D02*
X108420238Y-35129819D01*
X108420238Y-35129819D02*
X108991666Y-36129819D01*
X108991666Y-36129819D02*
X108991666Y-35129819D01*
X109420238Y-35844104D02*
X109896428Y-35844104D01*
X109325000Y-36129819D02*
X109658333Y-35129819D01*
X109658333Y-35129819D02*
X109991666Y-36129819D01*
X110277381Y-35225057D02*
X110325000Y-35177438D01*
X110325000Y-35177438D02*
X110420238Y-35129819D01*
X110420238Y-35129819D02*
X110658333Y-35129819D01*
X110658333Y-35129819D02*
X110753571Y-35177438D01*
X110753571Y-35177438D02*
X110801190Y-35225057D01*
X110801190Y-35225057D02*
X110848809Y-35320295D01*
X110848809Y-35320295D02*
X110848809Y-35415533D01*
X110848809Y-35415533D02*
X110801190Y-35558390D01*
X110801190Y-35558390D02*
X110229762Y-36129819D01*
X110229762Y-36129819D02*
X110848809Y-36129819D01*
X111801190Y-36129819D02*
X111229762Y-36129819D01*
X111515476Y-36129819D02*
X111515476Y-35129819D01*
X111515476Y-35129819D02*
X111420238Y-35272676D01*
X111420238Y-35272676D02*
X111325000Y-35367914D01*
X111325000Y-35367914D02*
X111229762Y-35415533D01*
X112134524Y-35129819D02*
X112801190Y-35129819D01*
X112801190Y-35129819D02*
X112372619Y-36129819D01*
X56830952Y-31354819D02*
X56926190Y-31354819D01*
X56926190Y-31354819D02*
X57021428Y-31402438D01*
X57021428Y-31402438D02*
X57069047Y-31450057D01*
X57069047Y-31450057D02*
X57116666Y-31545295D01*
X57116666Y-31545295D02*
X57164285Y-31735771D01*
X57164285Y-31735771D02*
X57164285Y-31973866D01*
X57164285Y-31973866D02*
X57116666Y-32164342D01*
X57116666Y-32164342D02*
X57069047Y-32259580D01*
X57069047Y-32259580D02*
X57021428Y-32307200D01*
X57021428Y-32307200D02*
X56926190Y-32354819D01*
X56926190Y-32354819D02*
X56830952Y-32354819D01*
X56830952Y-32354819D02*
X56735714Y-32307200D01*
X56735714Y-32307200D02*
X56688095Y-32259580D01*
X56688095Y-32259580D02*
X56640476Y-32164342D01*
X56640476Y-32164342D02*
X56592857Y-31973866D01*
X56592857Y-31973866D02*
X56592857Y-31735771D01*
X56592857Y-31735771D02*
X56640476Y-31545295D01*
X56640476Y-31545295D02*
X56688095Y-31450057D01*
X56688095Y-31450057D02*
X56735714Y-31402438D01*
X56735714Y-31402438D02*
X56830952Y-31354819D01*
X57592857Y-32259580D02*
X57640476Y-32307200D01*
X57640476Y-32307200D02*
X57592857Y-32354819D01*
X57592857Y-32354819D02*
X57545238Y-32307200D01*
X57545238Y-32307200D02*
X57592857Y-32259580D01*
X57592857Y-32259580D02*
X57592857Y-32354819D01*
X57973809Y-31354819D02*
X58592856Y-31354819D01*
X58592856Y-31354819D02*
X58259523Y-31735771D01*
X58259523Y-31735771D02*
X58402380Y-31735771D01*
X58402380Y-31735771D02*
X58497618Y-31783390D01*
X58497618Y-31783390D02*
X58545237Y-31831009D01*
X58545237Y-31831009D02*
X58592856Y-31926247D01*
X58592856Y-31926247D02*
X58592856Y-32164342D01*
X58592856Y-32164342D02*
X58545237Y-32259580D01*
X58545237Y-32259580D02*
X58497618Y-32307200D01*
X58497618Y-32307200D02*
X58402380Y-32354819D01*
X58402380Y-32354819D02*
X58116666Y-32354819D01*
X58116666Y-32354819D02*
X58021428Y-32307200D01*
X58021428Y-32307200D02*
X57973809Y-32259580D01*
X59069047Y-32354819D02*
X59259523Y-32354819D01*
X59259523Y-32354819D02*
X59354761Y-32307200D01*
X59354761Y-32307200D02*
X59402380Y-32259580D01*
X59402380Y-32259580D02*
X59497618Y-32116723D01*
X59497618Y-32116723D02*
X59545237Y-31926247D01*
X59545237Y-31926247D02*
X59545237Y-31545295D01*
X59545237Y-31545295D02*
X59497618Y-31450057D01*
X59497618Y-31450057D02*
X59449999Y-31402438D01*
X59449999Y-31402438D02*
X59354761Y-31354819D01*
X59354761Y-31354819D02*
X59164285Y-31354819D01*
X59164285Y-31354819D02*
X59069047Y-31402438D01*
X59069047Y-31402438D02*
X59021428Y-31450057D01*
X59021428Y-31450057D02*
X58973809Y-31545295D01*
X58973809Y-31545295D02*
X58973809Y-31783390D01*
X58973809Y-31783390D02*
X59021428Y-31878628D01*
X59021428Y-31878628D02*
X59069047Y-31926247D01*
X59069047Y-31926247D02*
X59164285Y-31973866D01*
X59164285Y-31973866D02*
X59354761Y-31973866D01*
X59354761Y-31973866D02*
X59449999Y-31926247D01*
X59449999Y-31926247D02*
X59497618Y-31878628D01*
X59497618Y-31878628D02*
X59545237Y-31783390D01*
X60402380Y-31688152D02*
X60402380Y-32354819D01*
X59973809Y-31688152D02*
X59973809Y-32211961D01*
X59973809Y-32211961D02*
X60021428Y-32307200D01*
X60021428Y-32307200D02*
X60116666Y-32354819D01*
X60116666Y-32354819D02*
X60259523Y-32354819D01*
X60259523Y-32354819D02*
X60354761Y-32307200D01*
X60354761Y-32307200D02*
X60402380Y-32259580D01*
X61211904Y-31831009D02*
X60878571Y-31831009D01*
X60878571Y-32354819D02*
X60878571Y-31354819D01*
X60878571Y-31354819D02*
X61354761Y-31354819D01*
X137963333Y-31454819D02*
X137630000Y-30978628D01*
X137391905Y-31454819D02*
X137391905Y-30454819D01*
X137391905Y-30454819D02*
X137772857Y-30454819D01*
X137772857Y-30454819D02*
X137868095Y-30502438D01*
X137868095Y-30502438D02*
X137915714Y-30550057D01*
X137915714Y-30550057D02*
X137963333Y-30645295D01*
X137963333Y-30645295D02*
X137963333Y-30788152D01*
X137963333Y-30788152D02*
X137915714Y-30883390D01*
X137915714Y-30883390D02*
X137868095Y-30931009D01*
X137868095Y-30931009D02*
X137772857Y-30978628D01*
X137772857Y-30978628D02*
X137391905Y-30978628D01*
X138820476Y-30788152D02*
X138820476Y-31454819D01*
X138582381Y-30407200D02*
X138344286Y-31121485D01*
X138344286Y-31121485D02*
X138963333Y-31121485D01*
X134991666Y-35854819D02*
X134420238Y-35854819D01*
X134705952Y-35854819D02*
X134705952Y-34854819D01*
X134705952Y-34854819D02*
X134610714Y-34997676D01*
X134610714Y-34997676D02*
X134515476Y-35092914D01*
X134515476Y-35092914D02*
X134420238Y-35140533D01*
X135610714Y-34854819D02*
X135705952Y-34854819D01*
X135705952Y-34854819D02*
X135801190Y-34902438D01*
X135801190Y-34902438D02*
X135848809Y-34950057D01*
X135848809Y-34950057D02*
X135896428Y-35045295D01*
X135896428Y-35045295D02*
X135944047Y-35235771D01*
X135944047Y-35235771D02*
X135944047Y-35473866D01*
X135944047Y-35473866D02*
X135896428Y-35664342D01*
X135896428Y-35664342D02*
X135848809Y-35759580D01*
X135848809Y-35759580D02*
X135801190Y-35807200D01*
X135801190Y-35807200D02*
X135705952Y-35854819D01*
X135705952Y-35854819D02*
X135610714Y-35854819D01*
X135610714Y-35854819D02*
X135515476Y-35807200D01*
X135515476Y-35807200D02*
X135467857Y-35759580D01*
X135467857Y-35759580D02*
X135420238Y-35664342D01*
X135420238Y-35664342D02*
X135372619Y-35473866D01*
X135372619Y-35473866D02*
X135372619Y-35235771D01*
X135372619Y-35235771D02*
X135420238Y-35045295D01*
X135420238Y-35045295D02*
X135467857Y-34950057D01*
X135467857Y-34950057D02*
X135515476Y-34902438D01*
X135515476Y-34902438D02*
X135610714Y-34854819D01*
X136372619Y-35759580D02*
X136420238Y-35807200D01*
X136420238Y-35807200D02*
X136372619Y-35854819D01*
X136372619Y-35854819D02*
X136325000Y-35807200D01*
X136325000Y-35807200D02*
X136372619Y-35759580D01*
X136372619Y-35759580D02*
X136372619Y-35854819D01*
X136801190Y-34950057D02*
X136848809Y-34902438D01*
X136848809Y-34902438D02*
X136944047Y-34854819D01*
X136944047Y-34854819D02*
X137182142Y-34854819D01*
X137182142Y-34854819D02*
X137277380Y-34902438D01*
X137277380Y-34902438D02*
X137324999Y-34950057D01*
X137324999Y-34950057D02*
X137372618Y-35045295D01*
X137372618Y-35045295D02*
X137372618Y-35140533D01*
X137372618Y-35140533D02*
X137324999Y-35283390D01*
X137324999Y-35283390D02*
X136753571Y-35854819D01*
X136753571Y-35854819D02*
X137372618Y-35854819D01*
X137801190Y-35854819D02*
X137801190Y-34854819D01*
X138372618Y-35854819D02*
X137944047Y-35283390D01*
X138372618Y-34854819D02*
X137801190Y-35426247D01*
X140086904Y-35854819D02*
X139515476Y-35854819D01*
X139801190Y-35854819D02*
X139801190Y-34854819D01*
X139801190Y-34854819D02*
X139705952Y-34997676D01*
X139705952Y-34997676D02*
X139610714Y-35092914D01*
X139610714Y-35092914D02*
X139515476Y-35140533D01*
X140467857Y-35854819D02*
X141229761Y-34854819D01*
X140610714Y-34854819D02*
X140705952Y-34902438D01*
X140705952Y-34902438D02*
X140753571Y-34997676D01*
X140753571Y-34997676D02*
X140705952Y-35092914D01*
X140705952Y-35092914D02*
X140610714Y-35140533D01*
X140610714Y-35140533D02*
X140515476Y-35092914D01*
X140515476Y-35092914D02*
X140467857Y-34997676D01*
X140467857Y-34997676D02*
X140515476Y-34902438D01*
X140515476Y-34902438D02*
X140610714Y-34854819D01*
X141182142Y-35807200D02*
X141229761Y-35711961D01*
X141229761Y-35711961D02*
X141182142Y-35616723D01*
X141182142Y-35616723D02*
X141086904Y-35569104D01*
X141086904Y-35569104D02*
X140991666Y-35616723D01*
X140991666Y-35616723D02*
X140944047Y-35711961D01*
X140944047Y-35711961D02*
X140991666Y-35807200D01*
X140991666Y-35807200D02*
X141086904Y-35854819D01*
X141086904Y-35854819D02*
X141182142Y-35807200D01*
X56905952Y-46504819D02*
X57001190Y-46504819D01*
X57001190Y-46504819D02*
X57096428Y-46552438D01*
X57096428Y-46552438D02*
X57144047Y-46600057D01*
X57144047Y-46600057D02*
X57191666Y-46695295D01*
X57191666Y-46695295D02*
X57239285Y-46885771D01*
X57239285Y-46885771D02*
X57239285Y-47123866D01*
X57239285Y-47123866D02*
X57191666Y-47314342D01*
X57191666Y-47314342D02*
X57144047Y-47409580D01*
X57144047Y-47409580D02*
X57096428Y-47457200D01*
X57096428Y-47457200D02*
X57001190Y-47504819D01*
X57001190Y-47504819D02*
X56905952Y-47504819D01*
X56905952Y-47504819D02*
X56810714Y-47457200D01*
X56810714Y-47457200D02*
X56763095Y-47409580D01*
X56763095Y-47409580D02*
X56715476Y-47314342D01*
X56715476Y-47314342D02*
X56667857Y-47123866D01*
X56667857Y-47123866D02*
X56667857Y-46885771D01*
X56667857Y-46885771D02*
X56715476Y-46695295D01*
X56715476Y-46695295D02*
X56763095Y-46600057D01*
X56763095Y-46600057D02*
X56810714Y-46552438D01*
X56810714Y-46552438D02*
X56905952Y-46504819D01*
X57667857Y-47409580D02*
X57715476Y-47457200D01*
X57715476Y-47457200D02*
X57667857Y-47504819D01*
X57667857Y-47504819D02*
X57620238Y-47457200D01*
X57620238Y-47457200D02*
X57667857Y-47409580D01*
X57667857Y-47409580D02*
X57667857Y-47504819D01*
X58334523Y-46504819D02*
X58429761Y-46504819D01*
X58429761Y-46504819D02*
X58524999Y-46552438D01*
X58524999Y-46552438D02*
X58572618Y-46600057D01*
X58572618Y-46600057D02*
X58620237Y-46695295D01*
X58620237Y-46695295D02*
X58667856Y-46885771D01*
X58667856Y-46885771D02*
X58667856Y-47123866D01*
X58667856Y-47123866D02*
X58620237Y-47314342D01*
X58620237Y-47314342D02*
X58572618Y-47409580D01*
X58572618Y-47409580D02*
X58524999Y-47457200D01*
X58524999Y-47457200D02*
X58429761Y-47504819D01*
X58429761Y-47504819D02*
X58334523Y-47504819D01*
X58334523Y-47504819D02*
X58239285Y-47457200D01*
X58239285Y-47457200D02*
X58191666Y-47409580D01*
X58191666Y-47409580D02*
X58144047Y-47314342D01*
X58144047Y-47314342D02*
X58096428Y-47123866D01*
X58096428Y-47123866D02*
X58096428Y-46885771D01*
X58096428Y-46885771D02*
X58144047Y-46695295D01*
X58144047Y-46695295D02*
X58191666Y-46600057D01*
X58191666Y-46600057D02*
X58239285Y-46552438D01*
X58239285Y-46552438D02*
X58334523Y-46504819D01*
X59620237Y-47504819D02*
X59048809Y-47504819D01*
X59334523Y-47504819D02*
X59334523Y-46504819D01*
X59334523Y-46504819D02*
X59239285Y-46647676D01*
X59239285Y-46647676D02*
X59144047Y-46742914D01*
X59144047Y-46742914D02*
X59048809Y-46790533D01*
X60477380Y-46838152D02*
X60477380Y-47504819D01*
X60048809Y-46838152D02*
X60048809Y-47361961D01*
X60048809Y-47361961D02*
X60096428Y-47457200D01*
X60096428Y-47457200D02*
X60191666Y-47504819D01*
X60191666Y-47504819D02*
X60334523Y-47504819D01*
X60334523Y-47504819D02*
X60429761Y-47457200D01*
X60429761Y-47457200D02*
X60477380Y-47409580D01*
X61286904Y-46981009D02*
X60953571Y-46981009D01*
X60953571Y-47504819D02*
X60953571Y-46504819D01*
X60953571Y-46504819D02*
X61429761Y-46504819D01*
X152636905Y-40674819D02*
X152636905Y-39674819D01*
X152636905Y-39674819D02*
X153017857Y-39674819D01*
X153017857Y-39674819D02*
X153113095Y-39722438D01*
X153113095Y-39722438D02*
X153160714Y-39770057D01*
X153160714Y-39770057D02*
X153208333Y-39865295D01*
X153208333Y-39865295D02*
X153208333Y-40008152D01*
X153208333Y-40008152D02*
X153160714Y-40103390D01*
X153160714Y-40103390D02*
X153113095Y-40151009D01*
X153113095Y-40151009D02*
X153017857Y-40198628D01*
X153017857Y-40198628D02*
X152636905Y-40198628D01*
X153589286Y-39770057D02*
X153636905Y-39722438D01*
X153636905Y-39722438D02*
X153732143Y-39674819D01*
X153732143Y-39674819D02*
X153970238Y-39674819D01*
X153970238Y-39674819D02*
X154065476Y-39722438D01*
X154065476Y-39722438D02*
X154113095Y-39770057D01*
X154113095Y-39770057D02*
X154160714Y-39865295D01*
X154160714Y-39865295D02*
X154160714Y-39960533D01*
X154160714Y-39960533D02*
X154113095Y-40103390D01*
X154113095Y-40103390D02*
X153541667Y-40674819D01*
X153541667Y-40674819D02*
X154160714Y-40674819D01*
X149589285Y-47827200D02*
X149732142Y-47874819D01*
X149732142Y-47874819D02*
X149970237Y-47874819D01*
X149970237Y-47874819D02*
X150065475Y-47827200D01*
X150065475Y-47827200D02*
X150113094Y-47779580D01*
X150113094Y-47779580D02*
X150160713Y-47684342D01*
X150160713Y-47684342D02*
X150160713Y-47589104D01*
X150160713Y-47589104D02*
X150113094Y-47493866D01*
X150113094Y-47493866D02*
X150065475Y-47446247D01*
X150065475Y-47446247D02*
X149970237Y-47398628D01*
X149970237Y-47398628D02*
X149779761Y-47351009D01*
X149779761Y-47351009D02*
X149684523Y-47303390D01*
X149684523Y-47303390D02*
X149636904Y-47255771D01*
X149636904Y-47255771D02*
X149589285Y-47160533D01*
X149589285Y-47160533D02*
X149589285Y-47065295D01*
X149589285Y-47065295D02*
X149636904Y-46970057D01*
X149636904Y-46970057D02*
X149684523Y-46922438D01*
X149684523Y-46922438D02*
X149779761Y-46874819D01*
X149779761Y-46874819D02*
X150017856Y-46874819D01*
X150017856Y-46874819D02*
X150160713Y-46922438D01*
X150589285Y-47874819D02*
X150589285Y-47208152D01*
X150589285Y-46874819D02*
X150541666Y-46922438D01*
X150541666Y-46922438D02*
X150589285Y-46970057D01*
X150589285Y-46970057D02*
X150636904Y-46922438D01*
X150636904Y-46922438D02*
X150589285Y-46874819D01*
X150589285Y-46874819D02*
X150589285Y-46970057D01*
X151494046Y-47208152D02*
X151494046Y-48017676D01*
X151494046Y-48017676D02*
X151446427Y-48112914D01*
X151446427Y-48112914D02*
X151398808Y-48160533D01*
X151398808Y-48160533D02*
X151303570Y-48208152D01*
X151303570Y-48208152D02*
X151160713Y-48208152D01*
X151160713Y-48208152D02*
X151065475Y-48160533D01*
X151494046Y-47827200D02*
X151398808Y-47874819D01*
X151398808Y-47874819D02*
X151208332Y-47874819D01*
X151208332Y-47874819D02*
X151113094Y-47827200D01*
X151113094Y-47827200D02*
X151065475Y-47779580D01*
X151065475Y-47779580D02*
X151017856Y-47684342D01*
X151017856Y-47684342D02*
X151017856Y-47398628D01*
X151017856Y-47398628D02*
X151065475Y-47303390D01*
X151065475Y-47303390D02*
X151113094Y-47255771D01*
X151113094Y-47255771D02*
X151208332Y-47208152D01*
X151208332Y-47208152D02*
X151398808Y-47208152D01*
X151398808Y-47208152D02*
X151494046Y-47255771D01*
X151970237Y-47208152D02*
X151970237Y-47874819D01*
X151970237Y-47303390D02*
X152017856Y-47255771D01*
X152017856Y-47255771D02*
X152113094Y-47208152D01*
X152113094Y-47208152D02*
X152255951Y-47208152D01*
X152255951Y-47208152D02*
X152351189Y-47255771D01*
X152351189Y-47255771D02*
X152398808Y-47351009D01*
X152398808Y-47351009D02*
X152398808Y-47874819D01*
X153303570Y-47874819D02*
X153303570Y-47351009D01*
X153303570Y-47351009D02*
X153255951Y-47255771D01*
X153255951Y-47255771D02*
X153160713Y-47208152D01*
X153160713Y-47208152D02*
X152970237Y-47208152D01*
X152970237Y-47208152D02*
X152874999Y-47255771D01*
X153303570Y-47827200D02*
X153208332Y-47874819D01*
X153208332Y-47874819D02*
X152970237Y-47874819D01*
X152970237Y-47874819D02*
X152874999Y-47827200D01*
X152874999Y-47827200D02*
X152827380Y-47731961D01*
X152827380Y-47731961D02*
X152827380Y-47636723D01*
X152827380Y-47636723D02*
X152874999Y-47541485D01*
X152874999Y-47541485D02*
X152970237Y-47493866D01*
X152970237Y-47493866D02*
X153208332Y-47493866D01*
X153208332Y-47493866D02*
X153303570Y-47446247D01*
X153922618Y-47874819D02*
X153827380Y-47827200D01*
X153827380Y-47827200D02*
X153779761Y-47731961D01*
X153779761Y-47731961D02*
X153779761Y-46874819D01*
X155255952Y-46874819D02*
X155446428Y-46874819D01*
X155446428Y-46874819D02*
X155541666Y-46922438D01*
X155541666Y-46922438D02*
X155636904Y-47017676D01*
X155636904Y-47017676D02*
X155684523Y-47208152D01*
X155684523Y-47208152D02*
X155684523Y-47541485D01*
X155684523Y-47541485D02*
X155636904Y-47731961D01*
X155636904Y-47731961D02*
X155541666Y-47827200D01*
X155541666Y-47827200D02*
X155446428Y-47874819D01*
X155446428Y-47874819D02*
X155255952Y-47874819D01*
X155255952Y-47874819D02*
X155160714Y-47827200D01*
X155160714Y-47827200D02*
X155065476Y-47731961D01*
X155065476Y-47731961D02*
X155017857Y-47541485D01*
X155017857Y-47541485D02*
X155017857Y-47208152D01*
X155017857Y-47208152D02*
X155065476Y-47017676D01*
X155065476Y-47017676D02*
X155160714Y-46922438D01*
X155160714Y-46922438D02*
X155255952Y-46874819D01*
X156541666Y-47208152D02*
X156541666Y-47874819D01*
X156113095Y-47208152D02*
X156113095Y-47731961D01*
X156113095Y-47731961D02*
X156160714Y-47827200D01*
X156160714Y-47827200D02*
X156255952Y-47874819D01*
X156255952Y-47874819D02*
X156398809Y-47874819D01*
X156398809Y-47874819D02*
X156494047Y-47827200D01*
X156494047Y-47827200D02*
X156541666Y-47779580D01*
X156875000Y-47208152D02*
X157255952Y-47208152D01*
X157017857Y-46874819D02*
X157017857Y-47731961D01*
X157017857Y-47731961D02*
X157065476Y-47827200D01*
X157065476Y-47827200D02*
X157160714Y-47874819D01*
X157160714Y-47874819D02*
X157255952Y-47874819D01*
D13*
%TO.C,D1*%
X129095000Y-25880000D02*
X129095000Y-26010000D01*
X129095000Y-28820000D02*
X129095000Y-28690000D01*
X133515000Y-28820000D02*
X133515000Y-25880000D01*
X133635000Y-28820000D02*
X133635000Y-25880000D01*
X133755000Y-28820000D02*
X133755000Y-25880000D01*
X134535000Y-25880000D02*
X129095000Y-25880000D01*
X134535000Y-26010000D02*
X134535000Y-25880000D01*
X134535000Y-28690000D02*
X134535000Y-28820000D01*
X134535000Y-28820000D02*
X129095000Y-28820000D01*
%TO.C,SW1*%
X40220000Y-26980000D02*
X40220000Y-28363000D01*
X40220000Y-26980000D02*
X41603000Y-26980000D01*
X40460000Y-27220000D02*
X40460000Y-28530000D01*
X40460000Y-27220000D02*
X47280000Y-27220000D01*
X40460000Y-30130000D02*
X40460000Y-31070000D01*
X40460000Y-32670000D02*
X40460000Y-33610000D01*
X40460000Y-35210000D02*
X40460000Y-36150000D01*
X40460000Y-37750000D02*
X40460000Y-38690000D01*
X40460000Y-40290000D02*
X40460000Y-41230000D01*
X40460000Y-42830000D02*
X40460000Y-43770000D01*
X40460000Y-45370000D02*
X40460000Y-46310000D01*
X40460000Y-47910000D02*
X40460000Y-48850000D01*
X40460000Y-50450000D02*
X40460000Y-51390000D01*
X40460000Y-52990000D02*
X40460000Y-53930000D01*
X40460000Y-55530000D02*
X40460000Y-56470000D01*
X40460000Y-58070000D02*
X40460000Y-59380000D01*
X40460000Y-59380000D02*
X47280000Y-59380000D01*
X42060000Y-28695000D02*
X42060000Y-29965000D01*
X42060000Y-28815000D02*
X43266667Y-28815000D01*
X42060000Y-28935000D02*
X43266667Y-28935000D01*
X42060000Y-29055000D02*
X43266667Y-29055000D01*
X42060000Y-29175000D02*
X43266667Y-29175000D01*
X42060000Y-29295000D02*
X43266667Y-29295000D01*
X42060000Y-29415000D02*
X43266667Y-29415000D01*
X42060000Y-29535000D02*
X43266667Y-29535000D01*
X42060000Y-29655000D02*
X43266667Y-29655000D01*
X42060000Y-29775000D02*
X43266667Y-29775000D01*
X42060000Y-29895000D02*
X43266667Y-29895000D01*
X42060000Y-29965000D02*
X45680000Y-29965000D01*
X42060000Y-31235000D02*
X42060000Y-32505000D01*
X42060000Y-31355000D02*
X43266667Y-31355000D01*
X42060000Y-31475000D02*
X43266667Y-31475000D01*
X42060000Y-31595000D02*
X43266667Y-31595000D01*
X42060000Y-31715000D02*
X43266667Y-31715000D01*
X42060000Y-31835000D02*
X43266667Y-31835000D01*
X42060000Y-31955000D02*
X43266667Y-31955000D01*
X42060000Y-32075000D02*
X43266667Y-32075000D01*
X42060000Y-32195000D02*
X43266667Y-32195000D01*
X42060000Y-32315000D02*
X43266667Y-32315000D01*
X42060000Y-32435000D02*
X43266667Y-32435000D01*
X42060000Y-32505000D02*
X45680000Y-32505000D01*
X42060000Y-33775000D02*
X42060000Y-35045000D01*
X42060000Y-33895000D02*
X43266667Y-33895000D01*
X42060000Y-34015000D02*
X43266667Y-34015000D01*
X42060000Y-34135000D02*
X43266667Y-34135000D01*
X42060000Y-34255000D02*
X43266667Y-34255000D01*
X42060000Y-34375000D02*
X43266667Y-34375000D01*
X42060000Y-34495000D02*
X43266667Y-34495000D01*
X42060000Y-34615000D02*
X43266667Y-34615000D01*
X42060000Y-34735000D02*
X43266667Y-34735000D01*
X42060000Y-34855000D02*
X43266667Y-34855000D01*
X42060000Y-34975000D02*
X43266667Y-34975000D01*
X42060000Y-35045000D02*
X45680000Y-35045000D01*
X42060000Y-36315000D02*
X42060000Y-37585000D01*
X42060000Y-36435000D02*
X43266667Y-36435000D01*
X42060000Y-36555000D02*
X43266667Y-36555000D01*
X42060000Y-36675000D02*
X43266667Y-36675000D01*
X42060000Y-36795000D02*
X43266667Y-36795000D01*
X42060000Y-36915000D02*
X43266667Y-36915000D01*
X42060000Y-37035000D02*
X43266667Y-37035000D01*
X42060000Y-37155000D02*
X43266667Y-37155000D01*
X42060000Y-37275000D02*
X43266667Y-37275000D01*
X42060000Y-37395000D02*
X43266667Y-37395000D01*
X42060000Y-37515000D02*
X43266667Y-37515000D01*
X42060000Y-37585000D02*
X45680000Y-37585000D01*
X42060000Y-38855000D02*
X42060000Y-40125000D01*
X42060000Y-38975000D02*
X43266667Y-38975000D01*
X42060000Y-39095000D02*
X43266667Y-39095000D01*
X42060000Y-39215000D02*
X43266667Y-39215000D01*
X42060000Y-39335000D02*
X43266667Y-39335000D01*
X42060000Y-39455000D02*
X43266667Y-39455000D01*
X42060000Y-39575000D02*
X43266667Y-39575000D01*
X42060000Y-39695000D02*
X43266667Y-39695000D01*
X42060000Y-39815000D02*
X43266667Y-39815000D01*
X42060000Y-39935000D02*
X43266667Y-39935000D01*
X42060000Y-40055000D02*
X43266667Y-40055000D01*
X42060000Y-40125000D02*
X45680000Y-40125000D01*
X42060000Y-41395000D02*
X42060000Y-42665000D01*
X42060000Y-41515000D02*
X43266667Y-41515000D01*
X42060000Y-41635000D02*
X43266667Y-41635000D01*
X42060000Y-41755000D02*
X43266667Y-41755000D01*
X42060000Y-41875000D02*
X43266667Y-41875000D01*
X42060000Y-41995000D02*
X43266667Y-41995000D01*
X42060000Y-42115000D02*
X43266667Y-42115000D01*
X42060000Y-42235000D02*
X43266667Y-42235000D01*
X42060000Y-42355000D02*
X43266667Y-42355000D01*
X42060000Y-42475000D02*
X43266667Y-42475000D01*
X42060000Y-42595000D02*
X43266667Y-42595000D01*
X42060000Y-42665000D02*
X45680000Y-42665000D01*
X42060000Y-43935000D02*
X42060000Y-45205000D01*
X42060000Y-44055000D02*
X43266667Y-44055000D01*
X42060000Y-44175000D02*
X43266667Y-44175000D01*
X42060000Y-44295000D02*
X43266667Y-44295000D01*
X42060000Y-44415000D02*
X43266667Y-44415000D01*
X42060000Y-44535000D02*
X43266667Y-44535000D01*
X42060000Y-44655000D02*
X43266667Y-44655000D01*
X42060000Y-44775000D02*
X43266667Y-44775000D01*
X42060000Y-44895000D02*
X43266667Y-44895000D01*
X42060000Y-45015000D02*
X43266667Y-45015000D01*
X42060000Y-45135000D02*
X43266667Y-45135000D01*
X42060000Y-45205000D02*
X45680000Y-45205000D01*
X42060000Y-46475000D02*
X42060000Y-47745000D01*
X42060000Y-46595000D02*
X43266667Y-46595000D01*
X42060000Y-46715000D02*
X43266667Y-46715000D01*
X42060000Y-46835000D02*
X43266667Y-46835000D01*
X42060000Y-46955000D02*
X43266667Y-46955000D01*
X42060000Y-47075000D02*
X43266667Y-47075000D01*
X42060000Y-47195000D02*
X43266667Y-47195000D01*
X42060000Y-47315000D02*
X43266667Y-47315000D01*
X42060000Y-47435000D02*
X43266667Y-47435000D01*
X42060000Y-47555000D02*
X43266667Y-47555000D01*
X42060000Y-47675000D02*
X43266667Y-47675000D01*
X42060000Y-47745000D02*
X45680000Y-47745000D01*
X42060000Y-49015000D02*
X42060000Y-50285000D01*
X42060000Y-49135000D02*
X43266667Y-49135000D01*
X42060000Y-49255000D02*
X43266667Y-49255000D01*
X42060000Y-49375000D02*
X43266667Y-49375000D01*
X42060000Y-49495000D02*
X43266667Y-49495000D01*
X42060000Y-49615000D02*
X43266667Y-49615000D01*
X42060000Y-49735000D02*
X43266667Y-49735000D01*
X42060000Y-49855000D02*
X43266667Y-49855000D01*
X42060000Y-49975000D02*
X43266667Y-49975000D01*
X42060000Y-50095000D02*
X43266667Y-50095000D01*
X42060000Y-50215000D02*
X43266667Y-50215000D01*
X42060000Y-50285000D02*
X45680000Y-50285000D01*
X42060000Y-51555000D02*
X42060000Y-52825000D01*
X42060000Y-51675000D02*
X43266667Y-51675000D01*
X42060000Y-51795000D02*
X43266667Y-51795000D01*
X42060000Y-51915000D02*
X43266667Y-51915000D01*
X42060000Y-52035000D02*
X43266667Y-52035000D01*
X42060000Y-52155000D02*
X43266667Y-52155000D01*
X42060000Y-52275000D02*
X43266667Y-52275000D01*
X42060000Y-52395000D02*
X43266667Y-52395000D01*
X42060000Y-52515000D02*
X43266667Y-52515000D01*
X42060000Y-52635000D02*
X43266667Y-52635000D01*
X42060000Y-52755000D02*
X43266667Y-52755000D01*
X42060000Y-52825000D02*
X45680000Y-52825000D01*
X42060000Y-54095000D02*
X42060000Y-55365000D01*
X42060000Y-54215000D02*
X43266667Y-54215000D01*
X42060000Y-54335000D02*
X43266667Y-54335000D01*
X42060000Y-54455000D02*
X43266667Y-54455000D01*
X42060000Y-54575000D02*
X43266667Y-54575000D01*
X42060000Y-54695000D02*
X43266667Y-54695000D01*
X42060000Y-54815000D02*
X43266667Y-54815000D01*
X42060000Y-54935000D02*
X43266667Y-54935000D01*
X42060000Y-55055000D02*
X43266667Y-55055000D01*
X42060000Y-55175000D02*
X43266667Y-55175000D01*
X42060000Y-55295000D02*
X43266667Y-55295000D01*
X42060000Y-55365000D02*
X45680000Y-55365000D01*
X42060000Y-56635000D02*
X42060000Y-57905000D01*
X42060000Y-56755000D02*
X43266667Y-56755000D01*
X42060000Y-56875000D02*
X43266667Y-56875000D01*
X42060000Y-56995000D02*
X43266667Y-56995000D01*
X42060000Y-57115000D02*
X43266667Y-57115000D01*
X42060000Y-57235000D02*
X43266667Y-57235000D01*
X42060000Y-57355000D02*
X43266667Y-57355000D01*
X42060000Y-57475000D02*
X43266667Y-57475000D01*
X42060000Y-57595000D02*
X43266667Y-57595000D01*
X42060000Y-57715000D02*
X43266667Y-57715000D01*
X42060000Y-57835000D02*
X43266667Y-57835000D01*
X42060000Y-57905000D02*
X45680000Y-57905000D01*
X43266667Y-28695000D02*
X43266667Y-29965000D01*
X43266667Y-31235000D02*
X43266667Y-32505000D01*
X43266667Y-33775000D02*
X43266667Y-35045000D01*
X43266667Y-36315000D02*
X43266667Y-37585000D01*
X43266667Y-38855000D02*
X43266667Y-40125000D01*
X43266667Y-41395000D02*
X43266667Y-42665000D01*
X43266667Y-43935000D02*
X43266667Y-45205000D01*
X43266667Y-46475000D02*
X43266667Y-47745000D01*
X43266667Y-49015000D02*
X43266667Y-50285000D01*
X43266667Y-51555000D02*
X43266667Y-52825000D01*
X43266667Y-54095000D02*
X43266667Y-55365000D01*
X43266667Y-56635000D02*
X43266667Y-57905000D01*
X45680000Y-28695000D02*
X42060000Y-28695000D01*
X45680000Y-29965000D02*
X45680000Y-28695000D01*
X45680000Y-31235000D02*
X42060000Y-31235000D01*
X45680000Y-32505000D02*
X45680000Y-31235000D01*
X45680000Y-33775000D02*
X42060000Y-33775000D01*
X45680000Y-35045000D02*
X45680000Y-33775000D01*
X45680000Y-36315000D02*
X42060000Y-36315000D01*
X45680000Y-37585000D02*
X45680000Y-36315000D01*
X45680000Y-38855000D02*
X42060000Y-38855000D01*
X45680000Y-40125000D02*
X45680000Y-38855000D01*
X45680000Y-41395000D02*
X42060000Y-41395000D01*
X45680000Y-42665000D02*
X45680000Y-41395000D01*
X45680000Y-43935000D02*
X42060000Y-43935000D01*
X45680000Y-45205000D02*
X45680000Y-43935000D01*
X45680000Y-46475000D02*
X42060000Y-46475000D01*
X45680000Y-47745000D02*
X45680000Y-46475000D01*
X45680000Y-49015000D02*
X42060000Y-49015000D01*
X45680000Y-50285000D02*
X45680000Y-49015000D01*
X45680000Y-51555000D02*
X42060000Y-51555000D01*
X45680000Y-52825000D02*
X45680000Y-51555000D01*
X45680000Y-54095000D02*
X42060000Y-54095000D01*
X45680000Y-55365000D02*
X45680000Y-54095000D01*
X45680000Y-56635000D02*
X42060000Y-56635000D01*
X45680000Y-57905000D02*
X45680000Y-56635000D01*
X47280000Y-27220000D02*
X47280000Y-28530000D01*
X47280000Y-30131000D02*
X47280000Y-31071000D01*
X47280000Y-32671000D02*
X47280000Y-33611000D01*
X47280000Y-35211000D02*
X47280000Y-36151000D01*
X47280000Y-37751000D02*
X47280000Y-38691000D01*
X47280000Y-40291000D02*
X47280000Y-41231000D01*
X47280000Y-42831000D02*
X47280000Y-43771000D01*
X47280000Y-45371000D02*
X47280000Y-46311000D01*
X47280000Y-47911000D02*
X47280000Y-48851000D01*
X47280000Y-50451000D02*
X47280000Y-51390000D01*
X47280000Y-52991000D02*
X47280000Y-53930000D01*
X47280000Y-55531000D02*
X47280000Y-56470000D01*
X47280000Y-58070000D02*
X47280000Y-59380000D01*
%TO.C,C12*%
X54038748Y-56565000D02*
X54561252Y-56565000D01*
X54038748Y-58035000D02*
X54561252Y-58035000D01*
%TO.C,C4*%
X54038748Y-36265000D02*
X54561252Y-36265000D01*
X54038748Y-37735000D02*
X54561252Y-37735000D01*
%TO.C,J2*%
X30990000Y-38167500D02*
X32320000Y-38167500D01*
X30990000Y-39497500D02*
X30990000Y-38167500D01*
X30990000Y-40767500D02*
X30990000Y-45907500D01*
X30990000Y-40767500D02*
X33650000Y-40767500D01*
X30990000Y-45907500D02*
X33650000Y-45907500D01*
X33650000Y-40767500D02*
X33650000Y-45907500D01*
%TO.C,R1*%
X71292936Y-32587500D02*
X71747064Y-32587500D01*
X71292936Y-34057500D02*
X71747064Y-34057500D01*
%TO.C,C16*%
X90133752Y-55512500D02*
X89611248Y-55512500D01*
X90133752Y-56982500D02*
X89611248Y-56982500D01*
%TO.C,C17*%
X120026248Y-47690000D02*
X120548752Y-47690000D01*
X120026248Y-49160000D02*
X120548752Y-49160000D01*
%TO.C,J6*%
X118170000Y-70145000D02*
X119500000Y-70145000D01*
X118170000Y-71475000D02*
X118170000Y-70145000D01*
X118170000Y-72745000D02*
X118170000Y-72805000D01*
X118170000Y-72745000D02*
X120770000Y-72745000D01*
X118170000Y-72805000D02*
X123370000Y-72805000D01*
X120770000Y-70145000D02*
X123370000Y-70145000D01*
X120770000Y-72745000D02*
X120770000Y-70145000D01*
X123370000Y-70145000D02*
X123370000Y-72805000D01*
%TO.C,D2*%
X140995000Y-25880000D02*
X146435000Y-25880000D01*
X140995000Y-26010000D02*
X140995000Y-25880000D01*
X140995000Y-28690000D02*
X140995000Y-28820000D01*
X140995000Y-28820000D02*
X146435000Y-28820000D01*
X141775000Y-25880000D02*
X141775000Y-28820000D01*
X141895000Y-25880000D02*
X141895000Y-28820000D01*
X142015000Y-25880000D02*
X142015000Y-28820000D01*
X146435000Y-25880000D02*
X146435000Y-26010000D01*
X146435000Y-28820000D02*
X146435000Y-28690000D01*
%TO.C,C6*%
X54038748Y-41265000D02*
X54561252Y-41265000D01*
X54038748Y-42735000D02*
X54561252Y-42735000D01*
%TO.C,C1*%
X53988748Y-28540000D02*
X54511252Y-28540000D01*
X53988748Y-30010000D02*
X54511252Y-30010000D01*
%TO.C,C7*%
X54013748Y-43665000D02*
X54536252Y-43665000D01*
X54013748Y-45135000D02*
X54536252Y-45135000D01*
%TO.C,C9*%
X53951248Y-48740000D02*
X54473752Y-48740000D01*
X53951248Y-50210000D02*
X54473752Y-50210000D01*
%TO.C,C5*%
X54063748Y-38840000D02*
X54586252Y-38840000D01*
X54063748Y-40310000D02*
X54586252Y-40310000D01*
%TO.C,C13*%
X100312500Y-60162500D02*
X100312500Y-61862500D01*
X100312500Y-65682500D02*
X100312500Y-63982500D01*
X104768063Y-60162500D02*
X100312500Y-60162500D01*
X104768063Y-65682500D02*
X100312500Y-65682500D01*
X105832500Y-61226937D02*
X104768063Y-60162500D01*
X105832500Y-61226937D02*
X105832500Y-61862500D01*
X105832500Y-64618063D02*
X104768063Y-65682500D01*
X105832500Y-64618063D02*
X105832500Y-63982500D01*
X106385000Y-64920000D02*
X106385000Y-64295000D01*
X106697500Y-64607500D02*
X106072500Y-64607500D01*
%TO.C,T1*%
D12*
X82737500Y-34150000D02*
X98825000Y-34150000D01*
X98825000Y-48250000D01*
X82737500Y-48250000D01*
X82737500Y-34150000D01*
D13*
%TO.C,R5*%
X111222936Y-70440000D02*
X111677064Y-70440000D01*
X111222936Y-71910000D02*
X111677064Y-71910000D01*
%TO.C,C10*%
X53926248Y-51465000D02*
X54448752Y-51465000D01*
X53926248Y-52935000D02*
X54448752Y-52935000D01*
%TO.C,C14*%
X88787500Y-60137500D02*
X88787500Y-61837500D01*
X88787500Y-65657500D02*
X88787500Y-63957500D01*
X93243063Y-60137500D02*
X88787500Y-60137500D01*
X93243063Y-65657500D02*
X88787500Y-65657500D01*
X94307500Y-61201937D02*
X93243063Y-60137500D01*
X94307500Y-61201937D02*
X94307500Y-61837500D01*
X94307500Y-64593063D02*
X93243063Y-65657500D01*
X94307500Y-64593063D02*
X94307500Y-63957500D01*
X94860000Y-64895000D02*
X94860000Y-64270000D01*
X95172500Y-64582500D02*
X94547500Y-64582500D01*
%TO.C,U3*%
X135715000Y-37045000D02*
X135715000Y-47325000D01*
X135715000Y-47325000D02*
X140215000Y-47325000D01*
X136965000Y-37045000D02*
X135715000Y-37045000D01*
X140215000Y-37045000D02*
X138965000Y-37045000D01*
X140215000Y-47325000D02*
X140215000Y-37045000D01*
X138965000Y-37045000D02*
G75*
G02*
X136965000Y-37045000I-1000000J0D01*
G01*
%TO.C,C11*%
X53963748Y-53915000D02*
X54486252Y-53915000D01*
X53963748Y-55385000D02*
X54486252Y-55385000D01*
%TO.C,U1*%
X67210000Y-37357500D02*
X67210000Y-37612500D01*
X67210000Y-47877500D02*
X67210000Y-47622500D01*
X71070000Y-37357500D02*
X67210000Y-37357500D01*
X71070000Y-37357500D02*
X74930000Y-37357500D01*
X71070000Y-47877500D02*
X67210000Y-47877500D01*
X71070000Y-47877500D02*
X74930000Y-47877500D01*
X74930000Y-37357500D02*
X74930000Y-37612500D01*
X74930000Y-47877500D02*
X74930000Y-47622500D01*
X66357500Y-37612500D02*
X66017500Y-37142500D01*
X66697500Y-37142500D01*
X66357500Y-37612500D01*
G36*
X66357500Y-37612500D02*
G01*
X66017500Y-37142500D01*
X66697500Y-37142500D01*
X66357500Y-37612500D01*
G37*
%TO.C,J4*%
X97530000Y-25595000D02*
X97530000Y-28255000D01*
X100130000Y-25595000D02*
X97530000Y-25595000D01*
X100130000Y-25595000D02*
X100130000Y-28255000D01*
X100130000Y-28255000D02*
X97530000Y-28255000D01*
X101400000Y-25595000D02*
X102730000Y-25595000D01*
X102730000Y-25595000D02*
X102730000Y-26925000D01*
%TO.C,J5*%
X120345000Y-42680000D02*
X120345000Y-41350000D01*
X121675000Y-42680000D02*
X120345000Y-42680000D01*
X122945000Y-40020000D02*
X125545000Y-40020000D01*
X122945000Y-42680000D02*
X122945000Y-40020000D01*
X122945000Y-42680000D02*
X125545000Y-42680000D01*
X125545000Y-42680000D02*
X125545000Y-40020000D01*
%TO.C,J1*%
X92905000Y-72940000D02*
X92905000Y-71610000D01*
X94235000Y-72940000D02*
X92905000Y-72940000D01*
X95505000Y-70280000D02*
X100645000Y-70280000D01*
X95505000Y-72940000D02*
X95505000Y-70280000D01*
X95505000Y-72940000D02*
X100645000Y-72940000D01*
X100645000Y-72940000D02*
X100645000Y-70280000D01*
%TO.C,J3*%
X83695000Y-28430000D02*
X83695000Y-27100000D01*
X85025000Y-28430000D02*
X83695000Y-28430000D01*
X86295000Y-25770000D02*
X88895000Y-25770000D01*
X86295000Y-28430000D02*
X86295000Y-25770000D01*
X86295000Y-28430000D02*
X88895000Y-28430000D01*
X88895000Y-28430000D02*
X88895000Y-25770000D01*
%TO.C,C15*%
X104758752Y-55237500D02*
X104236248Y-55237500D01*
X104758752Y-56707500D02*
X104236248Y-56707500D01*
%TO.C,R2*%
X110447936Y-32665000D02*
X110902064Y-32665000D01*
X110447936Y-34135000D02*
X110902064Y-34135000D01*
%TO.C,C3*%
X54038748Y-33715000D02*
X54561252Y-33715000D01*
X54038748Y-35185000D02*
X54561252Y-35185000D01*
%TO.C,R3*%
X126297936Y-47765000D02*
X126752064Y-47765000D01*
X126297936Y-49235000D02*
X126752064Y-49235000D01*
%TO.C,U2*%
X106510000Y-36827500D02*
X106510000Y-37082500D01*
X106510000Y-47347500D02*
X106510000Y-47092500D01*
X110370000Y-36827500D02*
X106510000Y-36827500D01*
X110370000Y-36827500D02*
X114230000Y-36827500D01*
X110370000Y-47347500D02*
X106510000Y-47347500D01*
X110370000Y-47347500D02*
X114230000Y-47347500D01*
X114230000Y-36827500D02*
X114230000Y-37082500D01*
X114230000Y-47347500D02*
X114230000Y-47092500D01*
X105657500Y-37082500D02*
X105317500Y-36612500D01*
X105997500Y-36612500D01*
X105657500Y-37082500D01*
G36*
X105657500Y-37082500D02*
G01*
X105317500Y-36612500D01*
X105997500Y-36612500D01*
X105657500Y-37082500D01*
G37*
%TO.C,C2*%
X54013748Y-31140000D02*
X54536252Y-31140000D01*
X54013748Y-32610000D02*
X54536252Y-32610000D01*
%TO.C,R4*%
X137902936Y-31965000D02*
X138357064Y-31965000D01*
X137902936Y-33435000D02*
X138357064Y-33435000D01*
%TO.C,C8*%
X54076248Y-46290000D02*
X54598752Y-46290000D01*
X54076248Y-47760000D02*
X54598752Y-47760000D01*
%TO.C,P2*%
X152045000Y-41220000D02*
X153375000Y-41220000D01*
X152045000Y-42550000D02*
X152045000Y-41220000D01*
X152045000Y-43820000D02*
X152045000Y-46420000D01*
X152045000Y-43820000D02*
X154705000Y-43820000D01*
X152045000Y-46420000D02*
X154705000Y-46420000D01*
X154705000Y-43820000D02*
X154705000Y-46420000D01*
%TD*%
%LPC*%
D14*
%TO.C,D1*%
X135625000Y-27350000D03*
D15*
X128005000Y-27350000D03*
%TD*%
D16*
%TO.C,SW1*%
X39565000Y-29330000D03*
X39565000Y-31870000D03*
X39565000Y-34410000D03*
X39565000Y-36950000D03*
X39565000Y-39490000D03*
X39565000Y-42030000D03*
X39565000Y-44570000D03*
X39565000Y-47110000D03*
X39565000Y-49650000D03*
X39565000Y-52190000D03*
X39565000Y-54730000D03*
X39565000Y-57270000D03*
X48175000Y-57270000D03*
X48175000Y-54730000D03*
X48175000Y-52190000D03*
X48175000Y-49650000D03*
X48175000Y-47110000D03*
X48175000Y-44570000D03*
X48175000Y-42030000D03*
X48175000Y-39490000D03*
X48175000Y-36950000D03*
X48175000Y-34410000D03*
X48175000Y-31870000D03*
X48175000Y-29330000D03*
%TD*%
D17*
%TO.C,C12*%
X53262500Y-57300000D03*
X55337500Y-57300000D03*
%TD*%
%TO.C,C4*%
X53262500Y-37000000D03*
X55337500Y-37000000D03*
%TD*%
D18*
%TO.C,J2*%
X32320000Y-39497500D03*
D19*
X32320000Y-42037500D03*
X32320000Y-44577500D03*
%TD*%
D20*
%TO.C,R1*%
X70520000Y-33322500D03*
X72520000Y-33322500D03*
%TD*%
D21*
%TO.C,C16*%
X90910000Y-56247500D03*
X88835000Y-56247500D03*
%TD*%
D17*
%TO.C,C17*%
X119250000Y-48425000D03*
X121325000Y-48425000D03*
%TD*%
D18*
%TO.C,J6*%
X119500000Y-71475000D03*
D19*
X122040000Y-71475000D03*
%TD*%
D14*
%TO.C,D2*%
X139905000Y-27350000D03*
D15*
X147525000Y-27350000D03*
%TD*%
D22*
%TO.C,REF\u002A\u002A*%
X155475000Y-24150000D03*
%TD*%
D17*
%TO.C,C6*%
X53262500Y-42000000D03*
X55337500Y-42000000D03*
%TD*%
%TO.C,C1*%
X53212500Y-29275000D03*
X55287500Y-29275000D03*
%TD*%
%TO.C,C7*%
X53237500Y-44400000D03*
X55312500Y-44400000D03*
%TD*%
%TO.C,C9*%
X53175000Y-49475000D03*
X55250000Y-49475000D03*
%TD*%
%TO.C,C5*%
X53287500Y-39575000D03*
X55362500Y-39575000D03*
%TD*%
D23*
%TO.C,C13*%
X105272500Y-62922500D03*
X100872500Y-62922500D03*
%TD*%
D24*
%TO.C,T1*%
X84825000Y-38250000D03*
X84925000Y-40750000D03*
X84825000Y-43250000D03*
X97025000Y-43250000D03*
X97025000Y-40750000D03*
X97025000Y-38150000D03*
%TD*%
D20*
%TO.C,R5*%
X110450000Y-71175000D03*
X112450000Y-71175000D03*
%TD*%
D17*
%TO.C,C10*%
X53150000Y-52200000D03*
X55225000Y-52200000D03*
%TD*%
D23*
%TO.C,C14*%
X93747500Y-62897500D03*
X89347500Y-62897500D03*
%TD*%
D22*
%TO.C,REF\u002A\u002A*%
X30725000Y-73750000D03*
%TD*%
D25*
%TO.C,U3*%
X134155000Y-38375000D03*
D26*
X134155000Y-40915000D03*
X134155000Y-43455000D03*
X134155000Y-45995000D03*
X141775000Y-45995000D03*
X141775000Y-43455000D03*
X141775000Y-40915000D03*
X141775000Y-38375000D03*
%TD*%
D17*
%TO.C,C11*%
X53187500Y-54650000D03*
X55262500Y-54650000D03*
%TD*%
D27*
%TO.C,U1*%
X66420000Y-38172500D03*
X66420000Y-39442500D03*
X66420000Y-40712500D03*
X66420000Y-41982500D03*
X66420000Y-43252500D03*
X66420000Y-44522500D03*
X66420000Y-45792500D03*
X66420000Y-47062500D03*
X75720000Y-47062500D03*
X75720000Y-45792500D03*
X75720000Y-44522500D03*
X75720000Y-43252500D03*
X75720000Y-41982500D03*
X75720000Y-40712500D03*
X75720000Y-39442500D03*
X75720000Y-38172500D03*
%TD*%
D22*
%TO.C,REF\u002A\u002A*%
X30700000Y-24050000D03*
%TD*%
D18*
%TO.C,J4*%
X101400000Y-26925000D03*
D19*
X98860000Y-26925000D03*
%TD*%
D18*
%TO.C,J5*%
X121675000Y-41350000D03*
D19*
X124215000Y-41350000D03*
%TD*%
D18*
%TO.C,J1*%
X94235000Y-71610000D03*
D19*
X96775000Y-71610000D03*
X99315000Y-71610000D03*
%TD*%
D18*
%TO.C,J3*%
X85025000Y-27100000D03*
D19*
X87565000Y-27100000D03*
%TD*%
D21*
%TO.C,C15*%
X105535000Y-55972500D03*
X103460000Y-55972500D03*
%TD*%
D20*
%TO.C,R2*%
X109675000Y-33400000D03*
X111675000Y-33400000D03*
%TD*%
D17*
%TO.C,C3*%
X53262500Y-34450000D03*
X55337500Y-34450000D03*
%TD*%
D20*
%TO.C,R3*%
X125525000Y-48500000D03*
X127525000Y-48500000D03*
%TD*%
D27*
%TO.C,U2*%
X105720000Y-37642500D03*
X105720000Y-38912500D03*
X105720000Y-40182500D03*
X105720000Y-41452500D03*
X105720000Y-42722500D03*
X105720000Y-43992500D03*
X105720000Y-45262500D03*
X105720000Y-46532500D03*
X115020000Y-46532500D03*
X115020000Y-45262500D03*
X115020000Y-43992500D03*
X115020000Y-42722500D03*
X115020000Y-41452500D03*
X115020000Y-40182500D03*
X115020000Y-38912500D03*
X115020000Y-37642500D03*
%TD*%
D17*
%TO.C,C2*%
X53237500Y-31875000D03*
X55312500Y-31875000D03*
%TD*%
D20*
%TO.C,R4*%
X137130000Y-32700000D03*
X139130000Y-32700000D03*
%TD*%
D17*
%TO.C,C8*%
X53300000Y-47025000D03*
X55375000Y-47025000D03*
%TD*%
D18*
%TO.C,P2*%
X153375000Y-42550000D03*
D19*
X153375000Y-45090000D03*
%TD*%
D22*
%TO.C,REF\u002A\u002A*%
X155575000Y-73525000D03*
%TD*%
%LPD*%
M02*
