%TF.GenerationSoftware,KiCad,Pcbnew,8.0.5*%
%TF.CreationDate,2024-10-21T21:01:05+13:00*%
%TF.ProjectId,PPM Amplifier,50504d20-416d-4706-9c69-666965722e6b,1.0*%
%TF.SameCoordinates,Original*%
%TF.FileFunction,Paste,Top*%
%TF.FilePolarity,Positive*%
%FSLAX46Y46*%
G04 Gerber Fmt 4.6, Leading zero omitted, Abs format (unit mm)*
G04 Created by KiCad (PCBNEW 8.0.5) date 2024-10-21 21:01:05*
%MOMM*%
%LPD*%
G01*
G04 APERTURE LIST*
G04 Aperture macros list*
%AMRoundRect*
0 Rectangle with rounded corners*
0 $1 Rounding radius*
0 $2 $3 $4 $5 $6 $7 $8 $9 X,Y pos of 4 corners*
0 Add a 4 corners polygon primitive as box body*
4,1,4,$2,$3,$4,$5,$6,$7,$8,$9,$2,$3,0*
0 Add four circle primitives for the rounded corners*
1,1,$1+$1,$2,$3*
1,1,$1+$1,$4,$5*
1,1,$1+$1,$6,$7*
1,1,$1+$1,$8,$9*
0 Add four rect primitives between the rounded corners*
20,1,$1+$1,$2,$3,$4,$5,0*
20,1,$1+$1,$4,$5,$6,$7,0*
20,1,$1+$1,$6,$7,$8,$9,0*
20,1,$1+$1,$8,$9,$2,$3,0*%
G04 Aperture macros list end*
%ADD10R,2.440000X1.120000*%
%ADD11RoundRect,0.250000X-0.337500X-0.475000X0.337500X-0.475000X0.337500X0.475000X-0.337500X0.475000X0*%
%ADD12RoundRect,0.250000X-0.350000X-0.450000X0.350000X-0.450000X0.350000X0.450000X-0.350000X0.450000X0*%
%ADD13RoundRect,0.250000X0.337500X0.475000X-0.337500X0.475000X-0.337500X-0.475000X0.337500X-0.475000X0*%
%ADD14RoundRect,0.250000X1.250000X0.550000X-1.250000X0.550000X-1.250000X-0.550000X1.250000X-0.550000X0*%
%ADD15RoundRect,0.150000X-0.875000X-0.150000X0.875000X-0.150000X0.875000X0.150000X-0.875000X0.150000X0*%
G04 APERTURE END LIST*
D10*
%TO.C,SW1*%
X39565000Y-29330000D03*
X39565000Y-31870000D03*
X39565000Y-34410000D03*
X39565000Y-36950000D03*
X39565000Y-39490000D03*
X39565000Y-42030000D03*
X39565000Y-44570000D03*
X39565000Y-47110000D03*
X39565000Y-49650000D03*
X39565000Y-52190000D03*
X39565000Y-54730000D03*
X39565000Y-57270000D03*
X48175000Y-57270000D03*
X48175000Y-54730000D03*
X48175000Y-52190000D03*
X48175000Y-49650000D03*
X48175000Y-47110000D03*
X48175000Y-44570000D03*
X48175000Y-42030000D03*
X48175000Y-39490000D03*
X48175000Y-36950000D03*
X48175000Y-34410000D03*
X48175000Y-31870000D03*
X48175000Y-29330000D03*
%TD*%
D11*
%TO.C,C12*%
X53262500Y-57300000D03*
X55337500Y-57300000D03*
%TD*%
%TO.C,C4*%
X53262500Y-37000000D03*
X55337500Y-37000000D03*
%TD*%
D12*
%TO.C,R1*%
X70520000Y-33322500D03*
X72520000Y-33322500D03*
%TD*%
D13*
%TO.C,C16*%
X90910000Y-56247500D03*
X88835000Y-56247500D03*
%TD*%
D11*
%TO.C,C17*%
X119250000Y-48425000D03*
X121325000Y-48425000D03*
%TD*%
%TO.C,C6*%
X53262500Y-42000000D03*
X55337500Y-42000000D03*
%TD*%
%TO.C,C1*%
X53212500Y-29275000D03*
X55287500Y-29275000D03*
%TD*%
%TO.C,C7*%
X53237500Y-44400000D03*
X55312500Y-44400000D03*
%TD*%
%TO.C,C9*%
X53175000Y-49475000D03*
X55250000Y-49475000D03*
%TD*%
%TO.C,C5*%
X53287500Y-39575000D03*
X55362500Y-39575000D03*
%TD*%
D14*
%TO.C,C13*%
X105272500Y-62922500D03*
X100872500Y-62922500D03*
%TD*%
D12*
%TO.C,R5*%
X110450000Y-71175000D03*
X112450000Y-71175000D03*
%TD*%
D11*
%TO.C,C10*%
X53150000Y-52200000D03*
X55225000Y-52200000D03*
%TD*%
D14*
%TO.C,C14*%
X93747500Y-62897500D03*
X89347500Y-62897500D03*
%TD*%
D11*
%TO.C,C11*%
X53187500Y-54650000D03*
X55262500Y-54650000D03*
%TD*%
D15*
%TO.C,U1*%
X66420000Y-38172500D03*
X66420000Y-39442500D03*
X66420000Y-40712500D03*
X66420000Y-41982500D03*
X66420000Y-43252500D03*
X66420000Y-44522500D03*
X66420000Y-45792500D03*
X66420000Y-47062500D03*
X75720000Y-47062500D03*
X75720000Y-45792500D03*
X75720000Y-44522500D03*
X75720000Y-43252500D03*
X75720000Y-41982500D03*
X75720000Y-40712500D03*
X75720000Y-39442500D03*
X75720000Y-38172500D03*
%TD*%
D13*
%TO.C,C15*%
X105535000Y-55972500D03*
X103460000Y-55972500D03*
%TD*%
D12*
%TO.C,R2*%
X109675000Y-33400000D03*
X111675000Y-33400000D03*
%TD*%
D11*
%TO.C,C3*%
X53262500Y-34450000D03*
X55337500Y-34450000D03*
%TD*%
D12*
%TO.C,R3*%
X125525000Y-48500000D03*
X127525000Y-48500000D03*
%TD*%
D15*
%TO.C,U2*%
X105720000Y-37642500D03*
X105720000Y-38912500D03*
X105720000Y-40182500D03*
X105720000Y-41452500D03*
X105720000Y-42722500D03*
X105720000Y-43992500D03*
X105720000Y-45262500D03*
X105720000Y-46532500D03*
X115020000Y-46532500D03*
X115020000Y-45262500D03*
X115020000Y-43992500D03*
X115020000Y-42722500D03*
X115020000Y-41452500D03*
X115020000Y-40182500D03*
X115020000Y-38912500D03*
X115020000Y-37642500D03*
%TD*%
D11*
%TO.C,C2*%
X53237500Y-31875000D03*
X55312500Y-31875000D03*
%TD*%
D12*
%TO.C,R4*%
X137130000Y-32700000D03*
X139130000Y-32700000D03*
%TD*%
D11*
%TO.C,C8*%
X53300000Y-47025000D03*
X55375000Y-47025000D03*
%TD*%
M02*
