%TF.GenerationSoftware,KiCad,Pcbnew,8.0.5*%
%TF.CreationDate,2024-10-21T21:01:05+13:00*%
%TF.ProjectId,PPM Amplifier,50504d20-416d-4706-9c69-666965722e6b,1.0*%
%TF.SameCoordinates,Original*%
%TF.FileFunction,Soldermask,Top*%
%TF.FilePolarity,Negative*%
%FSLAX46Y46*%
G04 Gerber Fmt 4.6, Leading zero omitted, Abs format (unit mm)*
G04 Created by KiCad (PCBNEW 8.0.5) date 2024-10-21 21:01:05*
%MOMM*%
%LPD*%
G01*
G04 APERTURE LIST*
G04 Aperture macros list*
%AMRoundRect*
0 Rectangle with rounded corners*
0 $1 Rounding radius*
0 $2 $3 $4 $5 $6 $7 $8 $9 X,Y pos of 4 corners*
0 Add a 4 corners polygon primitive as box body*
4,1,4,$2,$3,$4,$5,$6,$7,$8,$9,$2,$3,0*
0 Add four circle primitives for the rounded corners*
1,1,$1+$1,$2,$3*
1,1,$1+$1,$4,$5*
1,1,$1+$1,$6,$7*
1,1,$1+$1,$8,$9*
0 Add four rect primitives between the rounded corners*
20,1,$1+$1,$2,$3,$4,$5,0*
20,1,$1+$1,$4,$5,$6,$7,0*
20,1,$1+$1,$6,$7,$8,$9,0*
20,1,$1+$1,$8,$9,$2,$3,0*%
G04 Aperture macros list end*
%ADD10R,2.200000X2.200000*%
%ADD11O,2.200000X2.200000*%
%ADD12R,2.440000X1.120000*%
%ADD13RoundRect,0.250000X-0.337500X-0.475000X0.337500X-0.475000X0.337500X0.475000X-0.337500X0.475000X0*%
%ADD14R,1.700000X1.700000*%
%ADD15O,1.700000X1.700000*%
%ADD16RoundRect,0.250000X-0.350000X-0.450000X0.350000X-0.450000X0.350000X0.450000X-0.350000X0.450000X0*%
%ADD17RoundRect,0.250000X0.337500X0.475000X-0.337500X0.475000X-0.337500X-0.475000X0.337500X-0.475000X0*%
%ADD18C,3.500000*%
%ADD19RoundRect,0.250000X1.250000X0.550000X-1.250000X0.550000X-1.250000X-0.550000X1.250000X-0.550000X0*%
%ADD20C,1.524000*%
%ADD21R,2.400000X1.600000*%
%ADD22O,2.400000X1.600000*%
%ADD23RoundRect,0.150000X-0.875000X-0.150000X0.875000X-0.150000X0.875000X0.150000X-0.875000X0.150000X0*%
G04 APERTURE END LIST*
D10*
%TO.C,D1*%
X135625000Y-27350000D03*
D11*
X128005000Y-27350000D03*
%TD*%
D12*
%TO.C,SW1*%
X39565000Y-29330000D03*
X39565000Y-31870000D03*
X39565000Y-34410000D03*
X39565000Y-36950000D03*
X39565000Y-39490000D03*
X39565000Y-42030000D03*
X39565000Y-44570000D03*
X39565000Y-47110000D03*
X39565000Y-49650000D03*
X39565000Y-52190000D03*
X39565000Y-54730000D03*
X39565000Y-57270000D03*
X48175000Y-57270000D03*
X48175000Y-54730000D03*
X48175000Y-52190000D03*
X48175000Y-49650000D03*
X48175000Y-47110000D03*
X48175000Y-44570000D03*
X48175000Y-42030000D03*
X48175000Y-39490000D03*
X48175000Y-36950000D03*
X48175000Y-34410000D03*
X48175000Y-31870000D03*
X48175000Y-29330000D03*
%TD*%
D13*
%TO.C,C12*%
X53262500Y-57300000D03*
X55337500Y-57300000D03*
%TD*%
%TO.C,C4*%
X53262500Y-37000000D03*
X55337500Y-37000000D03*
%TD*%
D14*
%TO.C,J2*%
X32320000Y-39497500D03*
D15*
X32320000Y-42037500D03*
X32320000Y-44577500D03*
%TD*%
D16*
%TO.C,R1*%
X70520000Y-33322500D03*
X72520000Y-33322500D03*
%TD*%
D17*
%TO.C,C16*%
X90910000Y-56247500D03*
X88835000Y-56247500D03*
%TD*%
D13*
%TO.C,C17*%
X119250000Y-48425000D03*
X121325000Y-48425000D03*
%TD*%
D14*
%TO.C,J6*%
X119500000Y-71475000D03*
D15*
X122040000Y-71475000D03*
%TD*%
D10*
%TO.C,D2*%
X139905000Y-27350000D03*
D11*
X147525000Y-27350000D03*
%TD*%
D18*
%TO.C,REF\u002A\u002A*%
X155475000Y-24150000D03*
%TD*%
D13*
%TO.C,C6*%
X53262500Y-42000000D03*
X55337500Y-42000000D03*
%TD*%
%TO.C,C1*%
X53212500Y-29275000D03*
X55287500Y-29275000D03*
%TD*%
%TO.C,C7*%
X53237500Y-44400000D03*
X55312500Y-44400000D03*
%TD*%
%TO.C,C9*%
X53175000Y-49475000D03*
X55250000Y-49475000D03*
%TD*%
%TO.C,C5*%
X53287500Y-39575000D03*
X55362500Y-39575000D03*
%TD*%
D19*
%TO.C,C13*%
X105272500Y-62922500D03*
X100872500Y-62922500D03*
%TD*%
D20*
%TO.C,T1*%
X84825000Y-38250000D03*
X84925000Y-40750000D03*
X84825000Y-43250000D03*
X97025000Y-43250000D03*
X97025000Y-40750000D03*
X97025000Y-38150000D03*
%TD*%
D16*
%TO.C,R5*%
X110450000Y-71175000D03*
X112450000Y-71175000D03*
%TD*%
D13*
%TO.C,C10*%
X53150000Y-52200000D03*
X55225000Y-52200000D03*
%TD*%
D19*
%TO.C,C14*%
X93747500Y-62897500D03*
X89347500Y-62897500D03*
%TD*%
D18*
%TO.C,REF\u002A\u002A*%
X30725000Y-73750000D03*
%TD*%
D21*
%TO.C,U3*%
X134155000Y-38375000D03*
D22*
X134155000Y-40915000D03*
X134155000Y-43455000D03*
X134155000Y-45995000D03*
X141775000Y-45995000D03*
X141775000Y-43455000D03*
X141775000Y-40915000D03*
X141775000Y-38375000D03*
%TD*%
D13*
%TO.C,C11*%
X53187500Y-54650000D03*
X55262500Y-54650000D03*
%TD*%
D23*
%TO.C,U1*%
X66420000Y-38172500D03*
X66420000Y-39442500D03*
X66420000Y-40712500D03*
X66420000Y-41982500D03*
X66420000Y-43252500D03*
X66420000Y-44522500D03*
X66420000Y-45792500D03*
X66420000Y-47062500D03*
X75720000Y-47062500D03*
X75720000Y-45792500D03*
X75720000Y-44522500D03*
X75720000Y-43252500D03*
X75720000Y-41982500D03*
X75720000Y-40712500D03*
X75720000Y-39442500D03*
X75720000Y-38172500D03*
%TD*%
D18*
%TO.C,REF\u002A\u002A*%
X30700000Y-24050000D03*
%TD*%
D14*
%TO.C,J4*%
X101400000Y-26925000D03*
D15*
X98860000Y-26925000D03*
%TD*%
D14*
%TO.C,J5*%
X121675000Y-41350000D03*
D15*
X124215000Y-41350000D03*
%TD*%
D14*
%TO.C,J1*%
X94235000Y-71610000D03*
D15*
X96775000Y-71610000D03*
X99315000Y-71610000D03*
%TD*%
D14*
%TO.C,J3*%
X85025000Y-27100000D03*
D15*
X87565000Y-27100000D03*
%TD*%
D17*
%TO.C,C15*%
X105535000Y-55972500D03*
X103460000Y-55972500D03*
%TD*%
D16*
%TO.C,R2*%
X109675000Y-33400000D03*
X111675000Y-33400000D03*
%TD*%
D13*
%TO.C,C3*%
X53262500Y-34450000D03*
X55337500Y-34450000D03*
%TD*%
D16*
%TO.C,R3*%
X125525000Y-48500000D03*
X127525000Y-48500000D03*
%TD*%
D23*
%TO.C,U2*%
X105720000Y-37642500D03*
X105720000Y-38912500D03*
X105720000Y-40182500D03*
X105720000Y-41452500D03*
X105720000Y-42722500D03*
X105720000Y-43992500D03*
X105720000Y-45262500D03*
X105720000Y-46532500D03*
X115020000Y-46532500D03*
X115020000Y-45262500D03*
X115020000Y-43992500D03*
X115020000Y-42722500D03*
X115020000Y-41452500D03*
X115020000Y-40182500D03*
X115020000Y-38912500D03*
X115020000Y-37642500D03*
%TD*%
D13*
%TO.C,C2*%
X53237500Y-31875000D03*
X55312500Y-31875000D03*
%TD*%
D16*
%TO.C,R4*%
X137130000Y-32700000D03*
X139130000Y-32700000D03*
%TD*%
D13*
%TO.C,C8*%
X53300000Y-47025000D03*
X55375000Y-47025000D03*
%TD*%
D14*
%TO.C,P2*%
X153375000Y-42550000D03*
D15*
X153375000Y-45090000D03*
%TD*%
D18*
%TO.C,REF\u002A\u002A*%
X155575000Y-73525000D03*
%TD*%
M02*
