M48
INCH
T1C0.0118
T2C0.0300
T3C0.0315
T4C0.0394
T5C0.0433
%
G90
G05
T1
X3.123Y-1.6407
X3.1949Y-1.9075
X3.814Y-2.1102
X3.9252Y-1.6604
X3.9272Y-1.8041
X4.0157Y-1.5699
X4.2598Y-1.7776
X4.3022Y-1.9281
X4.4257Y-1.782
T2
X3.3396Y-1.5059
X3.3396Y-1.7028
X3.3435Y-1.6043
X3.8199Y-1.502
X3.8199Y-1.6043
X3.8199Y-1.7028
T3
X5.2817Y-1.5108
X5.2817Y-1.6108
X5.2817Y-1.7108
X5.2817Y-1.8108
X5.5817Y-1.5108
X5.5817Y-1.6108
X5.5817Y-1.7108
X5.5817Y-1.8108
T4
X1.2724Y-1.555
X1.2724Y-1.655
X1.2724Y-1.755
X3.3474Y-1.0669
X3.4474Y-1.0669
X3.71Y-2.8193
X3.81Y-2.8193
X3.8921Y-1.06
X3.91Y-2.8193
X3.9921Y-1.06
X4.7047Y-2.814
X4.7904Y-1.628
X4.8047Y-2.814
X4.8904Y-1.628
X6.0384Y-1.6752
X6.0384Y-1.7752
T5
X5.0396Y-1.0768
X5.3396Y-1.0768
X5.5081Y-1.0768
X5.8081Y-1.0768
M30
